<?xml version="1.0" encoding="UTF-8"?>
<svg xmlns="http://www.w3.org/2000/svg" xmlns:xlink="http://www.w3.org/1999/xlink" version="1.2" >
<font id="PFDinTextPro-LightItalic">
<font-face  font-family="PF DinText Pro" units-per-em="1000" ascent="750" descent="-250" font-style="italic" font-weight="300" font-stretch="normal" slope="-12" cap-height="696" x-height="496" underline-position="-80" underline-thickness="40" />
<missing-glyph  horiz-adv-x="436" d="M0 700 L436 700 L436 0 L0 0 L0 700 Z M368 659 L68 659 L218 387 L368 659 Z M396 72 L396 629 L243 350 L396 72 Z M368 41 L218 313 L68 41 L368 41 Z M40 73 L193 350 L40 627 L40 73 Z " />
<glyph glyph-name="NULL" d="" />
<glyph glyph-name="carriagereturn" unicode="&#xd;" horiz-adv-x="840" d="M733 692 L787 692 L787 294 L198 294 L353 142 L315 104 L101 321 L315 538 L353 500 L198 347 L733 347 L733 692 Z " />
<glyph glyph-name="space" unicode="&#x20;" horiz-adv-x="215" d="" />
<glyph glyph-name="dollar" unicode="&#x24;" horiz-adv-x="484" d="M98 485 Q98 531 115 569 Q132 607 162 634.5 Q192 662 231.5 677.5 Q271 693 316 694 L331 772 L371 772 Q367 752 363.5 732 Q360 712 355 692 Q393 688 430.5 675 Q468 662 494 641 L458 589 Q434 606 405 618 Q376 630 345 634 L294 373 Q324 363 352.5 350.5 Q381 338 402.5 318 Q424 298 437.5 268.5 Q451 239 451 195 Q449 148 430 111.5 Q411 75 379.5 49.5 Q348 24 307.5 10 Q267 -4 222 -5 L201 -118 L160 -118 L182 -4 Q133 0 90.5 17 Q48 34 10 69 L51 117 Q83 89 116 72.5 Q149 56 193 53 Q206 120 218.5 187.5 Q231 255 245 322 Q219 331 193 344 Q167 357 146 376 Q125 395 111.5 421.5 Q98 448 98 485 Z M282 308 Q270 244 258 180.5 Q246 117 233 53 Q264 56 291.5 66.5 Q319 77 340 95.5 Q361 114 373 140 Q385 166 385 198 Q385 222 376 240 Q367 258 352 271 Q337 284 318.5 293 Q300 302 282 308 Z M257 387 Q269 450 281 511.5 Q293 573 304 636 Q277 629 252 618.5 Q227 608 207.5 590.5 Q188 573 176.5 548 Q165 523 165 487 Q165 466 173 450 Q181 434 194 422 Q207 410 223.5 401.5 Q240 393 257 387 Z " />
<glyph glyph-name="percent" unicode="&#x25;" horiz-adv-x="760" d="M614 420 Q644 420 666.5 409.5 Q689 399 703 381.5 Q717 364 722 341 Q727 318 722 293 L686 111 Q675 58 642.5 27.5 Q610 -3 547 -3 Q518 -3 495.5 6.5 Q473 16 459.5 33 Q446 50 441 73.5 Q436 97 441 126 L474 304 Q484 355 520 387.5 Q556 420 614 420 Z M610 375 Q572 375 552 352.5 Q532 330 524 299 L491 122 Q484 87 499.5 64.5 Q515 42 548 42 Q569 42 584.5 48 Q600 54 610.5 64.5 Q621 75 627 89 Q633 103 637 119 L672 292 Q675 305 674.5 319.5 Q674 334 667.5 346.5 Q661 359 647.5 367 Q634 375 610 375 Z M255 699 Q285 699 307.5 688.5 Q330 678 344 660.5 Q358 643 363 620 Q368 597 363 572 L327 390 Q316 337 283.5 306.5 Q251 276 188 276 Q159 276 136.5 285.5 Q114 295 100.5 312 Q87 329 82 352.5 Q77 376 82 405 L115 583 Q125 634 161 666.5 Q197 699 255 699 Z M251 654 Q213 654 193 631.5 Q173 609 165 578 L132 401 Q125 366 140.5 343.5 Q156 321 189 321 Q210 321 225.5 327 Q241 333 251.5 343.5 Q262 354 268 368 Q274 382 278 398 L313 571 Q316 584 315.5 598.5 Q315 613 308.5 625.5 Q302 638 288.5 646 Q275 654 251 654 Z M145 -17 L95 -17 L669 722 L720 722 L145 -17 Z " />
<glyph glyph-name="ampersand" unicode="&#x26;" horiz-adv-x="568" d="M352 704 Q397 704 433 689.5 Q469 675 494 641 L445 603 Q428 626 403 635.5 Q378 645 345 645 Q318 645 298.5 636 Q279 627 266 612.5 Q253 598 246.5 580.5 Q240 563 240 545 Q240 519 257 476 Q274 433 299 382 Q324 331 352.5 277.5 Q381 224 404 177 Q426 205 440 237.5 Q454 270 462 299 Q476 297 490 296.5 Q504 296 518 295 Q505 251 484.5 207 Q464 163 433 122 Q449 92 466 60.5 Q483 29 499 0 L426 0 L384 75 Q336 32 290 13 Q244 -6 193 -6 Q122 -6 85 33 Q48 72 48 140 Q48 217 94.5 275.5 Q141 334 225 385 Q206 426 191 461.5 Q176 497 176 540 Q176 571 188 601 Q200 631 222.5 653.5 Q245 676 277.5 690 Q310 704 352 704 Z M249 336 Q182 292 145.5 246.5 Q109 201 109 146 Q109 101 135 75.5 Q161 50 207 50 Q246 50 287.5 70.5 Q329 91 360 121 Q331 175 304.5 228.5 Q278 282 249 336 Z " />
<glyph glyph-name="quotesingle" unicode="&#x27;" horiz-adv-x="214" d="M139 503 L176 696 L225 696 L188 503 L139 503 Z " />
<glyph glyph-name="parenleft" unicode="&#x28;" horiz-adv-x="271" d="M166 -120 Q118 -49 92 33 Q66 115 66 200 Q66 275 87 348 Q108 421 143.5 488.5 Q179 556 226.5 615.5 Q274 675 327 725 L356 704 Q308 651 267.5 590.5 Q227 530 197.5 464 Q168 398 151.5 327.5 Q135 257 135 185 Q135 113 151 41 Q167 -31 201 -96 L166 -120 L166 -120 Z " />
<glyph glyph-name="parenright" unicode="&#x29;" horiz-adv-x="271" d="M-49 -97 Q-2 -45 38.5 16 Q79 77 109 143.5 Q139 210 156 280.5 Q173 351 173 422 Q173 494 156.5 566 Q140 638 106 703 L144 724 Q191 655 216 575 Q241 495 241 410 Q241 333 220 259.5 Q199 186 163 118.5 Q127 51 79 -9.5 Q31 -70 -23 -120 L-49 -97 Z " />
<glyph glyph-name="asterisk" unicode="&#x2a;" horiz-adv-x="352" d="M335 444 Q324 436 309 426 Q294 416 282 409 L238 515 Q231 507 219 492.5 Q207 478 194.5 462 Q182 446 170 431.5 Q158 417 152 408 L112 444 L209 537 Q200 539 185.5 543.5 Q171 548 154.5 553.5 Q138 559 123 563.5 Q108 568 99 570 L126 624 L230 576 Q231 586 233.5 602.5 Q236 619 238 637 Q240 655 242 671.5 Q244 688 246 698 L301 698 L268 576 Q278 580 294.5 586.5 Q311 593 329.5 600 Q348 607 365 613.5 Q382 620 392 624 Q393 613 395 596.5 Q397 580 398 569 L274 537 L335 444 Z " />
<glyph glyph-name="plus" unicode="&#x2b;" horiz-adv-x="484" d="M277 262 L239 69 L189 69 L226 262 L38 262 L48 313 L237 313 L274 504 L324 504 L287 313 L475 313 L465 262 L277 262 Z " />
<glyph glyph-name="comma" unicode="&#x2c;" horiz-adv-x="213" d="M34 -106 L-5 -106 L44 0 L22 0 L39 89 L120 89 L104 6 L34 -106 Z " />
<glyph glyph-name="hyphen" unicode="&#x2d;" horiz-adv-x="381" d="M58 237 L70 297 L346 297 L334 237 L58 237 Z " />
<glyph glyph-name="period" unicode="&#x2e;" horiz-adv-x="205" d="M23 0 L40 88 L121 88 L104 0 L23 0 Z " />
<glyph glyph-name="slash" unicode="&#x2f;" horiz-adv-x="305" d="M-1 -42 L-50 -42 L349 725 L399 725 L-1 -42 Z " />
<glyph glyph-name="zero" unicode="0" horiz-adv-x="484" d="M186 -6 Q153 -6 123 4 Q93 14 70.5 33 Q48 52 34.5 80 Q21 108 21 143 Q21 165 25 185 L88 511 Q105 597 158 649.5 Q211 702 299 702 Q330 702 359.5 692 Q389 682 412 662.5 Q435 643 448.5 615.5 Q462 588 462 553 Q462 530 458 511 L395 185 Q378 96 325.5 45 Q273 -6 186 -6 Z M292 642 Q232 642 195.5 603.5 Q159 565 148 505 L87 191 Q85 182 84 173.5 Q83 165 83 157 Q83 109 112.5 80.5 Q142 52 190 52 Q220 52 244.5 62.5 Q269 73 287 92 Q305 111 317 136 Q329 161 335 191 L396 505 Q399 520 399 533 Q399 579 371.5 610.5 Q344 642 292 642 Z " />
<glyph glyph-name="one" unicode="1" horiz-adv-x="484" d="M204 0 L143 0 L265 629 L158 562 L172 630 L277 696 L340 696 L204 0 Z " />
<glyph glyph-name="two" unicode="2" horiz-adv-x="484" d="M-12 0 L0 63 L346 421 Q406 484 406 543 Q406 585 379 612.5 Q352 640 300 640 Q250 640 213.5 610 Q177 580 158 532 L95 545 Q108 581 129.5 609.5 Q151 638 178.5 658.5 Q206 679 238.5 689.5 Q271 700 306 700 Q339 700 369 690.5 Q399 681 422 662 Q445 643 458.5 615 Q472 587 472 550 Q472 510 451 469 Q430 428 397 393 L76 62 L375 62 L363 0 L-12 0 Z " />
<glyph glyph-name="three" unicode="3" horiz-adv-x="484" d="M291 701 Q372 701 414 660.5 Q456 620 456 555 Q456 529 449 502 Q442 475 426.5 450 Q411 425 387 403 Q363 381 329 365 Q371 344 387 311.5 Q403 279 403 241 Q403 187 384 141.5 Q365 96 332 63 Q299 30 255.5 11.5 Q212 -7 163 -7 Q133 -7 105 0 Q77 7 55 23 Q33 39 19 64.5 Q5 90 2 127 L65 138 Q70 93 98 72 Q126 51 168 51 Q203 51 234 64.5 Q265 78 288.5 102 Q312 126 325.5 159 Q339 192 339 231 Q339 281 312.5 308 Q286 335 237 335 L190 335 L201 392 L239 392 Q271 392 298.5 404 Q326 416 346.5 436 Q367 456 379 483.5 Q391 511 391 543 Q391 589 362.5 615.5 Q334 642 287 642 Q248 642 209.5 618.5 Q171 595 151 552 L91 563 Q103 595 123.5 620.5 Q144 646 170 664 Q196 682 227 691.5 Q258 701 291 701 Z " />
<glyph glyph-name="four" unicode="4" horiz-adv-x="484" d="M366 109 L345 0 L284 0 L305 109 L0 109 L12 170 L354 696 L420 696 L79 169 L316 169 L357 379 L419 379 L378 169 L436 169 L425 109 L366 109 Z " />
<glyph glyph-name="five" unicode="5" horiz-adv-x="484" d="M79 139 Q84 96 111 73 Q138 50 183 50 Q232 50 266 73 Q300 96 320.5 132 Q341 168 350 212.5 Q359 257 359 300 Q359 344 336.5 373.5 Q314 403 258 403 Q221 403 187.5 386 Q154 369 130 340 L69 340 Q84 430 102.5 518 Q121 606 138 696 L488 696 L476 634 L185 634 L141 412 Q175 438 210.5 450 Q246 462 281 462 Q352 462 388 423 Q424 384 424 318 Q424 258 411.5 199.5 Q399 141 370.5 95.5 Q342 50 295 22 Q248 -6 179 -6 Q147 -6 118 1.5 Q89 9 67 25 Q45 41 31.5 66.5 Q18 92 16 128 L79 139 Z " />
<glyph glyph-name="six" unicode="6" horiz-adv-x="484" d="M188 -6 Q154 -6 126 5.5 Q98 17 77.5 38 Q57 59 46 87.5 Q35 116 35 151 Q35 192 48.5 235 Q62 278 85 312 L353 696 L422 696 L201 378 L202 377 Q220 387 242.5 392.5 Q265 398 285 398 Q319 398 345 386.5 Q371 375 389 354.5 Q407 334 416 306.5 Q425 279 425 246 Q425 194 408 148 Q391 102 360.5 68 Q330 34 286 14 Q242 -6 188 -6 Z M360 237 Q360 285 334.5 314 Q309 343 258 343 Q221 343 191.5 327 Q162 311 141.5 285 Q121 259 110 226 Q99 193 99 159 Q99 110 125 80.5 Q151 51 201 51 Q237 51 266.5 67.5 Q296 84 317 111 Q338 138 349 171 Q360 204 360 237 Z " />
<glyph glyph-name="seven" unicode="7" horiz-adv-x="484" d="M96 0 L27 0 L394 634 L150 634 L130 527 L67 527 L100 696 L473 696 L461 631 L96 0 Z " />
<glyph glyph-name="eight" unicode="8" horiz-adv-x="484" d="M174 -6 Q138 -6 108 5.5 Q78 17 56 38 Q34 59 21.5 88.5 Q9 118 9 154 Q9 187 19 219.5 Q29 252 48 279.5 Q67 307 93 328.5 Q119 350 151 361 Q119 379 102 408.5 Q85 438 85 475 Q85 521 103.5 562 Q122 603 153 634 Q184 665 225 683 Q266 701 312 701 Q380 701 423 659.5 Q466 618 466 549 Q466 517 456.5 487.5 Q447 458 429.5 433 Q412 408 389 389 Q366 370 339 359 Q381 342 399 305 Q417 268 417 226 Q417 175 398 132.5 Q379 90 346 59 Q313 28 268.5 11 Q224 -6 174 -6 Z M404 542 Q404 589 375.5 617 Q347 645 301 645 Q268 645 240 631.5 Q212 618 191.5 595.5 Q171 573 159 543.5 Q147 514 147 483 Q147 437 176.5 411.5 Q206 386 251 386 Q284 386 312 398.5 Q340 411 360.5 432 Q381 453 392.5 481.5 Q404 510 404 542 Z M355 222 Q355 272 322 302 Q289 332 240 332 Q207 332 176.5 318.5 Q146 305 122.5 282.5 Q99 260 85 230 Q71 200 71 167 Q71 117 103.5 84.5 Q136 52 186 52 Q220 52 250.5 66 Q281 80 304.5 103 Q328 126 341.5 157 Q355 188 355 222 Z " />
<glyph glyph-name="nine" unicode="9" horiz-adv-x="484" d="M290 702 Q326 702 355 690.5 Q384 679 404.5 658 Q425 637 436 608 Q447 579 447 545 Q447 504 432.5 461.5 Q418 419 395 385 L126 0 L55 0 L280 322 L277 323 Q242 303 199 303 Q166 303 139 314 Q112 325 93 345 Q74 365 64 392.5 Q54 420 54 452 Q54 504 70 550 Q86 596 116.5 629.5 Q147 663 191 682.5 Q235 702 290 702 Z M118 459 Q118 411 144 382 Q170 353 220 353 Q257 353 286 369 Q315 385 335.5 411 Q356 437 367 470 Q378 503 378 537 Q378 586 352 615.5 Q326 645 277 645 Q241 645 211.5 628.5 Q182 612 161.5 585 Q141 558 129.5 525 Q118 492 118 459 Z " />
<glyph glyph-name="colon" unicode="&#x3a;" horiz-adv-x="206" d="M21 0 L37 88 L118 88 L102 0 L21 0 Z M78 299 L95 388 L176 388 L159 299 L78 299 Z " />
<glyph glyph-name="semicolon" unicode="&#x3b;" horiz-adv-x="206" d="M34 -106 L-6 -106 L43 0 L22 0 L39 89 L120 89 L104 6 L34 -106 Z M80 299 L97 388 L178 388 L161 299 L80 299 Z " />
<glyph glyph-name="less" unicode="&#x3c;" horiz-adv-x="484" d="M415 71 L48 264 L57 312 L498 504 L487 446 L115 285 Q124 281 148 268.5 Q172 256 203.5 239.5 Q235 223 270 205 Q305 187 336.5 170.5 Q368 154 392 142 Q416 130 426 126 L415 71 Z " />
<glyph glyph-name="equal" unicode="&#x3d;" horiz-adv-x="484" d="M55 349 L65 401 L492 401 L482 349 L55 349 Z M19 164 L30 217 L456 217 L446 164 L19 164 Z " />
<glyph glyph-name="greater" unicode="&#x3e;" horiz-adv-x="484" d="M23 130 Q34 134 62.5 146.5 Q91 159 129 175 Q167 191 208.5 209.5 Q250 228 288 244.5 Q326 261 354.5 273 Q383 285 394 290 L85 450 L96 504 L463 312 L453 264 L12 71 L23 130 Z " />
<glyph glyph-name="question" unicode="&#x3f;" horiz-adv-x="471" d="M325 700 Q363 700 394.5 689 Q426 678 448.5 658.5 Q471 639 483.5 612 Q496 585 496 553 Q496 516 485.5 487.5 Q475 459 457.5 435.5 Q440 412 418.5 392.5 Q397 373 376 355 Q344 326 316.5 297 Q289 268 280 231 L268 173 L202 173 L214 233 Q222 271 246 303.5 Q270 336 303 365 Q321 384 343 403.5 Q365 423 383.5 444 Q402 465 414.5 488.5 Q427 512 427 538 Q427 555 421.5 573 Q416 591 403 605.5 Q390 620 369.5 629.5 Q349 639 318 639 Q284 639 257 626.5 Q230 614 210.5 595 Q191 576 179 553.5 Q167 531 162 512 L95 528 Q127 619 185.5 659.5 Q244 700 325 700 Z M167 0 L183 80 L255 80 L240 0 L167 0 Z " />
<glyph glyph-name="at" unicode="&#x40;" horiz-adv-x="796" d="M597 513 Q590 480 579.5 443.5 Q569 407 559.5 370 Q550 333 543.5 297 Q537 261 537 229 Q537 207 548 191.5 Q559 176 581 176 Q608 176 635 192.5 Q662 209 684.5 241.5 Q707 274 721 320.5 Q735 367 735 427 Q735 483 715 526.5 Q695 570 660.5 599.5 Q626 629 580.5 644 Q535 659 485 659 Q405 659 337.5 629 Q270 599 221 547 Q172 495 144.5 426.5 Q117 358 117 280 Q117 152 189.5 79.5 Q262 7 394 7 Q445 7 496.5 18.5 Q548 30 599 51 L613 3 Q560 -15 505 -27 Q450 -39 391 -39 Q319 -39 258.5 -18 Q198 3 155 43 Q112 83 88 141 Q64 199 64 273 Q64 362 95.5 441 Q127 520 183 578.5 Q239 637 316 671 Q393 705 484 705 Q549 705 605 686 Q661 667 701.5 631.5 Q742 596 765 545 Q788 494 788 430 Q788 360 770 304.5 Q752 249 722.5 210 Q693 171 655 150 Q617 129 578 129 Q540 129 515 147 Q490 165 488 196 L485 196 Q467 172 436 152.5 Q405 133 363 133 Q306 133 278 166.5 Q250 200 250 252 Q250 293 261 339.5 Q272 386 295 425.5 Q318 465 354.5 491 Q391 517 441 517 Q505 517 534 463 L536 463 L547 513 L597 513 Z M513 382 Q513 420 498.5 444.5 Q484 469 441 469 Q403 469 377 446.5 Q351 424 334.5 392 Q318 360 310.5 324.5 Q303 289 303 263 Q303 246 306 231 Q309 216 317.5 204.5 Q326 193 340 186.5 Q354 180 377 180 Q413 180 438.5 201 Q464 222 480.5 252.5 Q497 283 504.5 318 Q512 353 513 382 Z " />
<glyph glyph-name="A" unicode="A" horiz-adv-x="580" d="M459 0 Q453 42 447 82.5 Q441 123 434 165 L129 165 L40 0 L-31 0 Q65 175 160.5 348 Q256 521 353 696 L415 696 L529 0 L459 0 Z M368 616 Q363 606 347.5 576.5 Q332 547 310.5 507 Q289 467 265 422 Q241 377 219.5 336.5 Q198 296 181.5 265 Q165 234 159 223 L427 223 Q424 244 419.5 276 Q415 308 409.5 345 Q404 382 398.5 422 Q393 462 387.5 498.5 Q382 535 377.5 565.5 Q373 596 370 616 L368 616 Z " />
<glyph glyph-name="B" unicode="B" horiz-adv-x="580" d="M35 0 L171 696 L406 696 Q490 696 540.5 655.5 Q591 615 588 534 Q586 472 549 424 Q512 376 443 358 L442 355 Q469 348 488.5 333 Q508 318 520.5 298.5 Q533 279 538.5 255.5 Q544 232 543 207 Q541 160 523 122 Q505 84 475 57 Q445 30 406.5 15 Q368 0 325 0 L35 0 Z M226 637 L176 386 L355 386 Q386 386 415.5 396 Q445 406 467.5 424 Q490 442 504.5 468 Q519 494 521 526 Q522 553 513 573.5 Q504 594 486.5 608.5 Q469 623 445 630 Q421 637 393 637 L226 637 Z M166 327 L113 62 L313 62 Q346 62 375 72.5 Q404 83 426 102.5 Q448 122 461 149.5 Q474 177 476 210 Q478 263 445.5 295 Q413 327 357 327 L166 327 Z " />
<glyph glyph-name="C" unicode="C" horiz-adv-x="536" d="M517 138 Q477 68 410.5 31 Q344 -6 263 -6 Q201 -6 158 15.5 Q115 37 90 73 Q65 109 57.5 156.5 Q50 204 61 255 L100 453 Q110 503 131.5 548 Q153 593 187.5 627 Q222 661 269 681 Q316 701 378 701 Q459 701 511.5 663 Q564 625 585 562 L518 533 Q507 578 470.5 607.5 Q434 637 380 637 Q331 637 294 621 Q257 605 231 578.5 Q205 552 188.5 517 Q172 482 165 445 L128 252 Q120 214 123.5 179 Q127 144 143.5 117 Q160 90 190.5 73.5 Q221 57 268 57 Q327 57 375.5 87 Q424 117 455 168 L517 138 Z " />
<glyph glyph-name="D" unicode="D" horiz-adv-x="604" d="M393 696 Q435 696 473 686 Q511 676 539.5 654 Q568 632 585 597 Q602 562 602 513 Q602 468 594 410.5 Q586 353 574 298 Q562 243 547.5 197.5 Q533 152 521 131 Q497 91 469 65.5 Q441 40 409.5 25.5 Q378 11 343.5 5.5 Q309 0 273 0 L36 0 L171 696 L393 696 Z M226 634 L114 62 L274 62 Q327 62 365.5 77 Q404 92 431 120 Q458 148 475 187.5 Q492 227 501 276 L525 403 Q534 448 534 486 Q534 558 497 596 Q460 634 376 634 L226 634 Z " />
<glyph glyph-name="E" unicode="E" horiz-adv-x="525" d="M35 0 L171 696 L581 696 L569 634 L225 634 L177 382 L481 382 L469 322 L165 322 L114 62 L487 62 L475 0 L35 0 Z " />
<glyph glyph-name="F" unicode="F" horiz-adv-x="506" d="M226 634 L177 379 L480 379 L468 319 L165 319 L103 0 L35 0 L171 696 L586 696 L574 634 L226 634 Z " />
<glyph glyph-name="G" unicode="G" horiz-adv-x="580" d="M257 55 Q298 55 333 69 Q368 83 395.5 108 Q423 133 441.5 166 Q460 199 468 238 L481 301 L331 301 L343 362 L560 362 L534 235 Q524 182 500 137.5 Q476 93 439 61 Q402 29 354 11.5 Q306 -6 248 -6 Q186 -6 143.5 15 Q101 36 76.5 72 Q52 108 45.5 155 Q39 202 50 253 L89 451 Q99 501 120.5 546 Q142 591 176.5 625 Q211 659 258 679 Q305 699 367 699 Q448 699 500.5 661 Q553 623 574 560 L507 531 Q496 576 459.5 605.5 Q423 635 369 635 Q320 635 283 619 Q246 603 220 576.5 Q194 550 177.5 515 Q161 480 154 443 L117 250 Q109 212 112.5 177 Q116 142 132.5 115 Q149 88 179.5 71.5 Q210 55 257 55 Z " />
<glyph glyph-name="H" unicode="H" horiz-adv-x="629" d="M436 0 L498 322 L165 322 L102 0 L35 0 L171 696 L237 696 L176 382 L510 382 L571 696 L638 696 L502 0 L436 0 Z " />
<glyph glyph-name="I" unicode="I" horiz-adv-x="222" d="M37 0 L173 696 L239 696 L104 0 L37 0 Z " />
<glyph glyph-name="J" unicode="J" horiz-adv-x="449" d="M381 205 Q369 145 347.5 104.5 Q326 64 295 39.5 Q264 15 226 4.5 Q188 -6 143 -6 Q97 -6 59 11.5 Q21 29 -1 58 L48 103 Q87 56 140 56 Q170 56 198.5 63.5 Q227 71 250 90.5 Q273 110 291 142 Q309 174 318 224 L410 696 L476 696 L381 205 Z " />
<glyph glyph-name="K" unicode="K" horiz-adv-x="600" d="M469 0 Q434 94 398.5 188 Q363 282 328 376 L137 186 L101 0 L35 0 L171 696 L236 696 Q216 593 196.5 491 Q177 389 157 286 L159 286 L186 313 L342 473 Q454 584 565 696 L645 696 L379 428 Q421 320 461 214 Q501 108 542 0 L469 0 L469 0 Z " />
<glyph glyph-name="L" unicode="L" horiz-adv-x="525" d="M35 0 L171 696 L237 696 L113 62 L470 62 L459 0 L35 0 Z " />
<glyph glyph-name="M" unicode="M" horiz-adv-x="730" d="M664 542 L661 542 L562 384 L379 106 L322 106 Q311 151 292.5 219 Q274 287 255 361 L208 542 L206 542 L101 0 L35 0 L171 696 L236 696 Q256 618 276 541.5 Q296 465 316 388 L365 188 L367 188 L485 373 L693 696 L759 696 L623 0 L558 0 L664 542 Z " />
<glyph glyph-name="N" unicode="N" horiz-adv-x="655" d="M475 0 Q468 16 454 47.5 Q440 79 423 117.5 Q406 156 387 198.5 Q368 241 351 279.5 Q334 318 320 349 Q306 380 298 397 L217 586 L215 586 Q210 560 201 513.5 Q192 467 181 410.5 Q170 354 158.5 292.5 Q147 231 136 174.5 Q125 118 116.5 72 Q108 26 103 0 L36 0 L172 696 L238 696 Q245 680 258.5 649.5 Q272 619 288.5 581 Q305 543 323.5 502 Q342 461 358.5 423 Q375 385 388.5 354.5 Q402 324 410 308 L495 110 L497 110 Q502 136 511 182 Q520 228 531 284.5 Q542 341 554 402.5 Q566 464 577 520.5 Q588 577 596.5 623.5 Q605 670 610 696 L675 696 L540 0 L475 0 Z " />
<glyph glyph-name="O" unicode="O" horiz-adv-x="573" d="M361 701 Q423 701 468.5 680 Q514 659 541 623.5 Q568 588 577 542 Q586 496 576 445 Q567 397 557 347 Q547 297 537 248 Q525 191 504 144 Q483 97 450.5 63.5 Q418 30 372.5 12 Q327 -6 265 -6 Q211 -6 170 9.5 Q129 25 101.5 52 Q74 79 60 115.5 Q46 152 46 194 Q46 219 50.5 250.5 Q55 282 61.5 316 Q68 350 76 384.5 Q84 419 91 450 Q101 500 121 545.5 Q141 591 173 625.5 Q205 660 251 680.5 Q297 701 361 701 Z M355 640 Q308 640 273.5 623.5 Q239 607 215 579.5 Q191 552 176 517 Q161 482 154 446 L116 250 Q109 212 113 177 Q117 142 135 114 Q153 86 187 69.5 Q221 53 273 53 Q316 53 349 68 Q382 83 406 109.5 Q430 136 446.5 172.5 Q463 209 472 252 Q478 279 484.5 308 Q491 337 497 366 Q503 395 507.5 422 Q512 449 514 473 Q519 507 509.5 537.5 Q500 568 479 591 Q458 614 426 627 Q394 640 355 640 Z " />
<glyph glyph-name="P" unicode="P" horiz-adv-x="553" d="M103 0 L36 0 L172 696 L410 696 Q451 696 485.5 685.5 Q520 675 545.5 654 Q571 633 585 600.5 Q599 568 599 525 Q599 472 579.5 429 Q560 386 526.5 354.5 Q493 323 448 306 Q403 289 352 289 L159 289 L103 0 Z M529 516 Q529 576 493 605 Q457 634 400 634 L226 634 L171 352 L356 352 Q392 352 423.5 364 Q455 376 478.5 397.5 Q502 419 515.5 449.5 Q529 480 529 516 Z " />
<glyph glyph-name="Q" unicode="Q" horiz-adv-x="580" d="M361 701 Q423 701 468.5 680 Q514 659 541 623.5 Q568 588 577 542 Q586 496 576 445 Q567 397 557 347 Q547 297 537 248 Q528 204 514 167 Q500 130 480 99 L547 34 L502 -10 L438 51 Q406 24 363.5 9 Q321 -6 265 -6 Q211 -6 170 9.5 Q129 25 101.5 52 Q74 79 60 115.5 Q46 152 46 194 Q46 219 50.5 250.5 Q55 282 61.5 316 Q68 350 76 384.5 Q84 419 91 450 Q101 500 121 545.5 Q141 591 173 625.5 Q205 660 251 680.5 Q297 701 361 701 Z M355 640 Q308 640 273.5 623.5 Q239 607 215 579.5 Q191 552 176 517 Q161 482 154 446 L116 250 Q109 212 113 177 Q117 142 135 114 Q153 86 187 69.5 Q221 53 273 53 Q310 53 339.5 64.5 Q369 76 392 96 L298 186 L345 231 L432 146 Q446 169 455.5 195.5 Q465 222 472 252 Q478 279 484.5 308 Q491 337 497 366 Q503 395 507.5 422 Q512 449 514 473 Q519 507 509.5 537.5 Q500 568 479 591 Q458 614 426 627 Q394 640 355 640 Z " />
<glyph glyph-name="R" unicode="R" horiz-adv-x="580" d="M434 0 L339 314 L164 314 L103 0 L36 0 L172 696 L435 696 Q475 696 507.5 684 Q540 672 562.5 649 Q585 626 595.5 593 Q606 560 603 518 Q597 433 544 383 Q491 333 410 320 L511 0 L434 0 Z M536 518 Q538 549 529.5 572 Q521 595 504 609 Q487 623 462.5 630 Q438 637 410 637 L227 637 L175 374 L367 374 Q399 374 428.5 383.5 Q458 393 481.5 411 Q505 429 519.5 456 Q534 483 536 518 Z " />
<glyph glyph-name="S" unicode="S" horiz-adv-x="527" d="M346 702 Q399 702 451 687.5 Q503 673 542 646 L502 591 Q469 614 426.5 626 Q384 638 339 638 Q310 638 280.5 630 Q251 622 227 605 Q203 588 187.5 561.5 Q172 535 172 499 Q172 471 185.5 451.5 Q199 432 218.5 419.5 Q238 407 260 399.5 Q282 392 299 388 Q335 379 371 366.5 Q407 354 436.5 334 Q466 314 484.5 282.5 Q503 251 503 205 Q503 152 481.5 112 Q460 72 423.5 46 Q387 20 338.5 7 Q290 -6 236 -6 Q169 -6 109 13 Q49 32 4 74 L49 124 Q86 92 135 75 Q184 58 238 58 Q275 58 310 66.5 Q345 75 371.5 92 Q398 109 414 136 Q430 163 430 199 Q430 228 418 248.5 Q406 269 386.5 283 Q367 297 342 306 Q317 315 292 321 Q260 328 226.5 339 Q193 350 166 369 Q139 388 122 416.5 Q105 445 105 488 Q105 537 122.5 576.5 Q140 616 172 644 Q204 672 248 687 Q292 702 346 702 Z " />
<glyph glyph-name="T" unicode="T" horiz-adv-x="473" d="M354 637 L230 0 L164 0 L287 637 L88 637 L99 696 L564 696 L553 637 L354 637 Z " />
<glyph glyph-name="U" unicode="U" horiz-adv-x="600" d="M542 229 Q531 176 507.5 132.5 Q484 89 449 58.5 Q414 28 367.5 11 Q321 -6 266 -6 Q216 -6 175 11.5 Q134 29 107 61 Q80 93 69 138 Q58 183 69 239 L158 696 L224 696 L137 251 Q129 209 133.5 173.5 Q138 138 155.5 111.5 Q173 85 202 70.5 Q231 56 272 56 Q350 56 405 105.5 Q460 155 477 241 L566 696 L633 696 L542 229 L542 229 Z " />
<glyph glyph-name="V" unicode="V" horiz-adv-x="525" d="M192 0 L103 696 L171 696 Q175 664 180.5 617 Q186 570 192.5 516 Q199 462 205.5 405 Q212 348 218 294 Q225 238 230 190 Q235 142 239 109 L243 109 L343 312 L536 696 L610 696 Q519 521 429 348 Q339 175 248 0 L192 0 Z " />
<glyph glyph-name="W" unicode="W" horiz-adv-x="800" d="M573 0 L513 0 L486 361 L471 573 L469 573 L382 383 Q337 286 293.5 191 Q250 96 205 0 L145 0 Q137 175 128.5 348 Q120 521 111 696 L177 696 Q181 568 184.5 479.5 Q188 391 190.5 327.5 Q193 264 194.5 218.5 Q196 173 198 130 L201 130 L304 357 Q344 442 383.5 526.5 Q423 611 462 696 L523 696 L549 364 Q552 328 554.5 293 Q557 258 559.5 227 Q562 196 563.5 170.5 Q565 145 567 129 L570 129 L647 315 Q688 411 727.5 505 Q767 599 807 696 L877 696 L573 0 Z " />
<glyph glyph-name="X" unicode="X" horiz-adv-x="502" d="M386 0 L273 305 L43 0 L-31 0 L247 358 L118 696 L188 696 L290 411 L503 696 L577 696 L316 357 L457 0 L386 0 Z " />
<glyph glyph-name="Y" unicode="Y" horiz-adv-x="482" d="M231 0 L168 0 L224 287 Q193 390 162 491.5 Q131 593 99 696 L164 696 Q178 646 194 594 Q210 542 230 474 Q239 441 249 405 Q259 369 264 348 L360 491 Q364 497 375 513 Q386 529 400 549.5 Q414 570 430 593.5 Q446 617 460 637.5 Q474 658 484.5 674 Q495 690 499 696 L570 696 Q499 593 429 491.5 Q359 390 287 287 L231 0 Z " />
<glyph glyph-name="Z" unicode="Z" horiz-adv-x="487" d="M-8 0 L4 60 L463 637 L130 637 L141 696 L550 696 L539 641 L79 62 L427 62 L415 0 L-8 0 Z " />
<glyph glyph-name="bracketleft" unicode="&#x5b;" horiz-adv-x="243" d="M12 -107 L168 698 L321 698 L313 652 L218 652 L80 -62 L174 -62 L165 -107 L12 -107 Z " />
<glyph glyph-name="backslash" unicode="&#x5c;" horiz-adv-x="305" d="M98 725 L148 725 L251 -42 L200 -42 L98 725 Z " />
<glyph glyph-name="bracketright" unicode="&#x5d;" horiz-adv-x="243" d="M-31 -107 L-22 -62 L72 -62 L210 652 L117 652 L126 698 L278 698 L121 -107 L-31 -107 Z " />
<glyph glyph-name="asciicircum" unicode="&#x5e;" horiz-adv-x="484" d="M57 330 L315 694 L363 694 L478 331 L425 331 L330 635 Q324 626 308 602.5 Q292 579 270 548 Q248 517 224 482.5 Q200 448 178 417.5 Q156 387 139.5 363 Q123 339 118 330 L57 330 Z " />
<glyph glyph-name="underscore" unicode="&#x5f;" horiz-adv-x="487" d="M-63 -118 L-53 -69 L434 -69 L424 -118 L-63 -118 Z " />
<glyph glyph-name="grave" unicode="&#x60;" horiz-adv-x="483" d="M316 559 L221 722 L275 741 L354 573 L316 559 Z " />
<glyph glyph-name="a" unicode="a" horiz-adv-x="493" d="M286 501 Q305 501 324.5 496.5 Q344 492 361 482.5 Q378 473 391.5 459 Q405 445 411 426 L414 427 L429 495 L489 495 L392 0 L330 0 L344 65 L341 67 Q311 30 276.5 12 Q242 -6 194 -6 Q155 -6 127.5 7 Q100 20 82.5 43.5 Q65 67 57 98.5 Q49 130 49 166 Q49 201 55 239.5 Q61 278 73 315 Q85 352 104.5 386 Q124 420 150 445.5 Q176 471 210 486 Q244 501 286 501 Z M111 168 Q111 147 116 126.5 Q121 106 133 90 Q145 74 164 64 Q183 54 212 54 Q259 54 292.5 82 Q326 110 348 151.5 Q370 193 380 240 Q390 287 390 325 Q390 376 366 410.5 Q342 445 289 445 Q236 445 202 414.5 Q168 384 147.5 340.5 Q127 297 119 249.5 Q111 202 111 168 Z " />
<glyph glyph-name="b" unicode="b" horiz-adv-x="471" d="M216 -6 Q173 -6 141 9 Q109 24 89 63 L87 63 L72 0 L12 0 L153 725 L214 725 L159 432 L161 432 Q191 467 229.5 484 Q268 501 310 501 Q348 501 375 489 Q402 477 419.5 456 Q437 435 445 406 Q453 377 453 343 Q453 287 440.5 225.5 Q428 164 400 112.5 Q372 61 326.5 27.5 Q281 -6 216 -6 Z M286 443 Q238 443 205 415 Q172 387 151.5 345.5 Q131 304 122 256.5 Q113 209 113 170 Q113 145 118 123.5 Q123 102 134.5 86 Q146 70 165 60.5 Q184 51 211 51 Q259 51 292.5 78.5 Q326 106 347 147.5 Q368 189 377.5 236.5 Q387 284 387 325 Q387 376 365 409.5 Q343 443 286 443 Z " />
<glyph glyph-name="c" unicode="c" horiz-adv-x="414" d="M371 56 Q336 27 294 10.5 Q252 -6 206 -6 Q116 -6 73.5 46.5 Q31 99 31 185 Q31 245 47.5 302 Q64 359 97 403 Q130 447 179.5 474 Q229 501 295 501 Q337 501 376.5 485.5 Q416 470 443 439 L393 393 Q373 414 346 427.5 Q319 441 290 441 Q239 441 202 419 Q165 397 141 361.5 Q117 326 105.5 281.5 Q94 237 94 192 Q94 127 124 90.5 Q154 54 222 54 Q251 54 283 69.5 Q315 85 338 101 L371 56 L371 56 Z " />
<glyph glyph-name="d" unicode="d" horiz-adv-x="471" d="M320 0 Q323 17 327 32.5 Q331 48 334 65 Q333 65 333 65.5 Q333 66 332 66 Q301 31 262 12.5 Q223 -6 175 -6 Q136 -6 110 6.5 Q84 19 68 40.5 Q52 62 45 92 Q38 122 38 157 Q38 211 50 271.5 Q62 332 90 383 Q118 434 162.5 467 Q207 500 273 500 Q318 500 351.5 479.5 Q385 459 401 424 L402 424 L462 726 L523 726 L381 0 L320 0 Z M274 442 Q238 442 211.5 427.5 Q185 413 166 389 Q147 365 134.5 335.5 Q122 306 115 276.5 Q108 247 105.5 220 Q103 193 103 175 Q103 148 107.5 126 Q112 104 123 88 Q134 72 153.5 63 Q173 54 203 54 Q236 54 261.5 68 Q287 82 306 105 Q325 128 338 156.5 Q351 185 359.5 214 Q368 243 371.5 269.5 Q375 296 375 314 Q375 337 370.5 360 Q366 383 355 401 Q344 419 324 430.5 Q304 442 274 442 Z " />
<glyph glyph-name="e" unicode="e" horiz-adv-x="462" d="M285 501 Q366 501 410 465 Q454 429 454 369 Q454 337 441 307.5 Q428 278 395 255.5 Q362 233 306 219.5 Q250 206 163 206 Q152 206 135 206.5 Q118 207 104 208 Q101 182 101 171 Q101 106 130 78.5 Q159 51 213 51 Q228 51 246 54.5 Q264 58 282 64 Q300 70 317.5 78 Q335 86 348 95 L379 50 Q343 24 296.5 9 Q250 -6 205 -6 Q120 -6 80.5 39 Q41 84 41 171 Q41 228 54.5 286.5 Q68 345 97.5 393 Q127 441 173.5 471 Q220 501 285 501 Z M282 444 Q241 444 212 428 Q183 412 163 386.5 Q143 361 131.5 329 Q120 297 114 264 Q131 262 148 262 Q165 262 177 262 Q247 262 289 272.5 Q331 283 353.5 298 Q376 313 383 330.5 Q390 348 390 362 Q390 400 362 422 Q334 444 282 444 Z " />
<glyph glyph-name="f" unicode="f" horiz-adv-x="261" d="M92 -79 Q81 -133 45 -170 Q9 -207 -55 -207 Q-77 -207 -97 -203 L-85 -147 Q-77 -149 -69.5 -148.5 Q-62 -148 -55 -148 Q-31 -148 -15.5 -140.5 Q0 -133 9.5 -121 Q19 -109 23.5 -95 Q28 -81 31 -68 L131 441 L62 441 L72 495 L142 495 L164 603 Q170 630 180.5 653.5 Q191 677 208.5 694.5 Q226 712 250.5 721.5 Q275 731 309 731 Q332 731 352 727 L342 671 Q332 673 323.5 672.5 Q315 672 307 672 Q283 672 268 664.5 Q253 657 244 645 Q235 633 231 619 Q227 605 224 592 L204 495 L303 495 L292 441 L194 441 L92 -79 Z " />
<glyph glyph-name="g" unicode="g" horiz-adv-x="495" d="M484 496 Q461 371 437 248 Q413 125 389 0 Q380 -48 363 -86 Q346 -124 318.5 -151 Q291 -178 252 -192.5 Q213 -207 159 -207 Q141 -207 120.5 -203.5 Q100 -200 80 -192.5 Q60 -185 42.5 -174.5 Q25 -164 12 -150 Q23 -139 32 -127.5 Q41 -116 52 -104 Q75 -124 104 -136 Q133 -148 163 -148 Q200 -148 227 -137 Q254 -126 273.5 -106.5 Q293 -87 305 -60 Q317 -33 325 -1 Q330 17 333 35.5 Q336 54 341 73 L339 73 Q307 31 268 13 Q229 -5 182 -5 Q143 -5 117 7.5 Q91 20 75 41.5 Q59 63 52 93 Q45 123 45 158 Q45 194 50 233.5 Q55 273 67 311 Q79 349 97 383.5 Q115 418 141 444.5 Q167 471 201 486.5 Q235 502 279 502 Q322 502 355.5 483.5 Q389 465 408 425 L409 425 L423 496 L484 496 Z M383 323 Q383 348 377 370 Q371 392 358.5 408.5 Q346 425 326 434.5 Q306 444 279 444 Q231 444 198.5 416.5 Q166 389 146 347.5 Q126 306 117.5 258 Q109 210 109 170 Q109 144 113 123 Q117 102 128 87 Q139 72 157 63.5 Q175 55 204 55 Q252 55 285.5 82.5 Q319 110 341 150.5 Q363 191 373 238 Q383 285 383 323 Z " />
<glyph glyph-name="h" unicode="h" horiz-adv-x="512" d="M343 0 L403 307 Q414 365 392.5 402 Q371 439 309 439 Q281 439 254.5 429 Q228 419 206.5 401 Q185 383 169 357.5 Q153 332 147 300 L88 0 L27 0 L168 727 L229 727 L170 424 L173 424 Q205 464 248 482.5 Q291 501 332 501 Q366 501 395 490 Q424 479 443 456.5 Q462 434 469.5 400.5 Q477 367 468 322 L406 0 L343 0 Z " />
<glyph glyph-name="i" unicode="i" horiz-adv-x="208" d="M154 631 L167 696 L231 696 L218 631 L154 631 Z M33 0 L129 495 L191 495 L95 0 L33 0 Z " />
<glyph glyph-name="j" unicode="j" horiz-adv-x="226" d="M92 -72 Q81 -132 42 -167.5 Q3 -203 -57 -203 L-87 -203 L-77 -146 Q-75 -146 -64.5 -146.5 Q-54 -147 -53 -146 Q-21 -145 0.5 -125 Q22 -105 30 -67 L139 495 L202 495 L92 -72 Z M166 631 Q166 634 168 643.5 Q170 653 172 663.5 Q174 674 175.5 683.5 Q177 693 178 696 L243 696 L230 631 L166 631 Z " />
<glyph glyph-name="k" unicode="k" horiz-adv-x="483" d="M249 265 Q215 233 182 202 Q149 171 116 139 L89 0 L28 0 L169 727 L230 727 L133 227 L135 227 L158 249 Q179 270 214.5 303 Q250 336 288.5 372 Q327 408 362.5 441 Q398 474 419 495 L494 495 L296 305 Q331 228 364.5 152 Q398 76 433 0 L367 0 L249 265 Z " />
<glyph glyph-name="l" unicode="l" horiz-adv-x="226" d="M143 0 Q90 0 63 27.5 Q36 55 48 114 L168 725 L230 725 L112 120 Q106 91 117 74 Q128 57 163 57 L179 57 L167 0 L143 0 Z " />
<glyph glyph-name="m" unicode="m" horiz-adv-x="838" d="M723 307 Q728 334 728 358 Q728 382 718.5 400 Q709 418 688 428.5 Q667 439 631 439 Q603 439 576 429 Q549 419 527 401 Q505 383 489.5 357.5 Q474 332 468 300 L410 0 L348 0 L407 307 Q412 332 411.5 356 Q411 380 401.5 398.5 Q392 417 370.5 428.5 Q349 440 312 440 Q284 440 258 430 Q232 420 211 402 Q190 384 174.5 358 Q159 332 153 300 L94 0 L33 0 L129 495 L190 495 Q187 478 184 460 Q181 442 177 425 L179 425 Q211 465 253 482.5 Q295 500 335 500 Q390 500 424 477.5 Q458 455 472 415 L472 416 Q473 416 473 415 Q512 462 555.5 481 Q599 500 651 500 Q690 500 719 486 Q748 472 766 448 Q784 424 790 392 Q796 360 789 324 L725 0 L663 0 L723 307 Z " />
<glyph glyph-name="n" unicode="n" horiz-adv-x="506" d="M339 0 L399 307 Q405 336 404.5 360.5 Q404 385 393.5 402.5 Q383 420 361 430 Q339 440 301 440 Q274 440 248 430 Q222 420 200.5 401.5 Q179 383 164 357 Q149 331 143 300 L85 0 L24 0 L120 495 L181 495 L168 426 L170 426 Q202 466 245.5 483.5 Q289 501 330 501 Q364 501 392.5 489.5 Q421 478 440 456.5 Q459 435 466.5 403 Q474 371 466 331 L402 0 L339 0 Z " />
<glyph glyph-name="o" unicode="o" horiz-adv-x="489" d="M287 501 Q326 501 357.5 488.5 Q389 476 411.5 453.5 Q434 431 446.5 399.5 Q459 368 459 329 Q459 270 447 210 Q435 150 407 102 Q379 54 333 24 Q287 -6 220 -6 Q134 -6 87.5 37 Q41 80 41 161 Q41 228 55.5 289.5 Q70 351 100 398 Q130 445 176.5 473 Q223 501 287 501 Z M278 445 Q228 445 194 417 Q160 389 140 347.5 Q120 306 111.5 257.5 Q103 209 103 168 Q103 151 107.5 130.5 Q112 110 124.5 92 Q137 74 159.5 62 Q182 50 217 50 Q266 50 300 74.5 Q334 99 355 138 Q376 177 385.5 225.5 Q395 274 395 323 Q395 386 361 415.5 Q327 445 278 445 Z " />
<glyph glyph-name="p" unicode="p" horiz-adv-x="494" d="M181 495 L168 427 L170 426 Q201 461 239.5 481 Q278 501 326 501 Q363 501 389 488 Q415 475 431.5 453 Q448 431 455.5 400.5 Q463 370 463 336 Q463 282 451 222 Q439 162 412 111 Q385 60 341 27 Q297 -6 234 -6 Q190 -6 155 13.5 Q120 33 100 71 L99 70 L46 -201 L-15 -201 L120 495 L181 495 Z M126 179 Q126 155 131 132.5 Q136 110 147.5 93 Q159 76 178 66 Q197 56 225 56 Q276 56 309.5 83 Q343 110 362.5 150.5 Q382 191 389.5 238 Q397 285 397 325 Q397 376 375 408.5 Q353 441 298 441 Q251 441 218.5 414.5 Q186 388 165.5 348 Q145 308 135.5 262.5 Q126 217 126 179 Z " />
<glyph glyph-name="q" unicode="q" horiz-adv-x="494" d="M285 501 Q331 501 362.5 481 Q394 461 411 426 L413 427 L427 495 L489 495 L358 -201 L291 -201 L344 70 L343 71 Q312 36 276 15 Q240 -6 193 -6 Q154 -6 126.5 7.5 Q99 21 81.5 44 Q64 67 56 97.5 Q48 128 48 163 Q48 217 60.5 276.5 Q73 336 100.5 386 Q128 436 173.5 468.5 Q219 501 285 501 Z M116 172 Q116 147 121 125.5 Q126 104 138 88.5 Q150 73 169 64.5 Q188 56 216 56 Q262 56 294.5 83.5 Q327 111 347.5 151.5 Q368 192 377.5 238 Q387 284 387 322 Q387 347 382 369 Q377 391 366 407.5 Q355 424 336.5 433.5 Q318 443 290 443 Q240 443 206.5 415.5 Q173 388 153 347.5 Q133 307 124.5 259.5 Q116 212 116 172 Z " />
<glyph glyph-name="r" unicode="r" horiz-adv-x="349" d="M365 424 Q351 432 333 436 Q315 440 303 440 Q274 440 248.5 429.5 Q223 419 202.5 399.5 Q182 380 167.5 353 Q153 326 147 293 L90 0 L28 0 L124 495 L186 495 L171 419 L174 419 Q206 467 249 484.5 Q292 502 334 501 Q378 499 398 486 L365 424 Z " />
<glyph glyph-name="s" unicode="s" horiz-adv-x="437" d="M192 -6 Q166 -6 139.5 -1.5 Q113 3 87.5 11.5 Q62 20 39 33 Q16 46 -2 63 L40 111 Q68 80 109 66 Q150 52 193 52 Q218 52 242.5 56.5 Q267 61 286 71 Q305 81 316.5 97 Q328 113 328 137 Q328 177 302 195 Q276 213 234 224 Q208 230 180.5 237.5 Q153 245 130 258.5 Q107 272 92 294.5 Q77 317 77 354 Q77 394 93 422 Q109 450 135 467.5 Q161 485 195.5 493 Q230 501 266 501 Q307 501 349.5 489.5 Q392 478 424 449 L385 400 Q356 422 326.5 432.5 Q297 443 262 443 Q241 443 219.5 439 Q198 435 180.5 424.5 Q163 414 152 397 Q141 380 141 355 Q141 337 150.5 324.5 Q160 312 176 304 Q192 296 212 290 Q232 284 253 279 Q279 273 304 264.5 Q329 256 348.5 241.5 Q368 227 380 204.5 Q392 182 392 148 Q392 109 376.5 80 Q361 51 334 32 Q307 13 270.5 3.5 Q234 -6 192 -6 Z " />
<glyph glyph-name="t" unicode="t" horiz-adv-x="266" d="M152 0 Q111 0 87 20 Q63 40 62 79 Q62 93 65 110 Q82 193 97.5 275.5 Q113 358 130 440 L66 440 L77 495 L140 495 Q147 527 153 559 Q159 591 165 623 L227 623 Q220 591 214 559 Q208 527 202 495 L285 495 L275 440 L191 440 L130 128 Q127 113 127 99 Q127 80 137.5 67.5 Q148 55 177 55 L213 55 L202 0 L152 0 Z " />
<glyph glyph-name="u" unicode="u" horiz-adv-x="515" d="M343 0 L357 68 L354 68 Q322 28 280 11 Q238 -6 198 -6 Q122 -6 83.5 42 Q45 90 62 180 L123 495 L184 495 L125 189 Q113 125 136 89.5 Q159 54 227 54 Q254 54 279 64 Q304 74 325 93 Q346 112 361 138 Q376 164 382 196 L440 495 L502 495 L406 0 L343 0 Z " />
<glyph glyph-name="v" unicode="v" horiz-adv-x="424" d="M455 494 Q390 352 322 231.5 Q254 111 178 0 L125 0 L42 494 L107 494 L145 258 Q152 214 157.5 167.5 Q163 121 166 75 L169 75 Q200 126 228.5 176 Q257 226 283.5 277 Q310 328 335.5 381.5 Q361 435 387 494 L455 494 Z " />
<glyph glyph-name="w" unicode="w" horiz-adv-x="697" d="M368 416 Q343 357 319 304.5 Q295 252 270 201.5 Q245 151 218 101.5 Q191 52 161 0 L100 0 L44 496 L108 496 L134 205 Q136 176 138 141 Q140 106 142 73 L145 73 Q198 167 245.5 272.5 Q293 378 346 496 L417 496 L448 218 Q452 186 455 149 Q458 112 458 71 L460 71 Q515 171 566 281 Q617 391 660 496 L726 496 Q697 425 668 362.5 Q639 300 608.5 240.5 Q578 181 545 122 Q512 63 475 0 L415 0 L382 275 Q380 299 376.5 336.5 Q373 374 372 416 L368 416 Z " />
<glyph glyph-name="x" unicode="x" horiz-adv-x="433" d="M298 0 L212 206 Q200 192 177 163.5 Q154 135 129 103.5 Q104 72 81 43.5 Q58 15 47 0 L-30 0 L184 255 L75 496 L146 496 L225 299 Q236 313 258 340 Q280 367 303.5 397 Q327 427 348.5 454.5 Q370 482 381 496 L459 496 L253 252 L369 0 L298 0 Z " />
<glyph glyph-name="y" unicode="y" horiz-adv-x="409" d="M453 495 Q396 340 338 213.5 Q280 87 220 -10 Q198 -45 171 -77.5 Q144 -110 111 -135.5 Q78 -161 37.5 -177.5 Q-3 -194 -52 -197 L-54 -142 Q-2 -136 46.5 -109 Q95 -82 137 -23 L55 495 L121 495 L155 257 Q162 207 169.5 149 Q177 91 179 34 L182 34 Q248 146 298.5 265 Q349 384 388 495 L453 495 Z " />
<glyph glyph-name="z" unicode="z" horiz-adv-x="419" d="M-14 0 L-3 52 L350 440 L87 440 L97 495 L434 495 L424 441 L75 58 L349 58 L338 0 L-14 0 Z " />
<glyph glyph-name="braceleft" unicode="&#x7b;" horiz-adv-x="243" d="M127 -106 Q89 -106 67 -77.5 Q45 -49 54 -1 L81 138 Q93 197 84 232.5 Q75 268 35 276 L42 315 Q64 319 80.5 332.5 Q97 346 109.5 365.5 Q122 385 130 408 Q138 431 143 455 L169 590 Q179 638 208 667 Q237 696 275 696 L331 696 L323 654 L286 654 Q270 654 258.5 645.5 Q247 637 239 623.5 Q231 610 226.5 594.5 Q222 579 219 564 L193 434 Q187 402 175.5 378 Q164 354 150 337.5 Q136 321 122 311 Q108 301 98 298 L97 296 Q106 293 116.5 283 Q127 273 134 256.5 Q141 240 144 216.5 Q147 193 141 163 L114 26 Q111 11 110 -5 Q109 -21 112 -34.5 Q115 -48 123 -56.5 Q131 -65 146 -65 L183 -65 L175 -106 L127 -106 Z " />
<glyph glyph-name="bar" unicode="&#x7c;" horiz-adv-x="189" d="M71 -162 L71 716 L121 716 L121 -162 L71 -162 Z " />
<glyph glyph-name="braceright" unicode="&#x7d;" horiz-adv-x="243" d="M242 276 Q199 268 176 232.5 Q153 197 142 138 L115 -1 Q106 -49 77 -77.5 Q48 -106 10 -106 L-47 -106 L-39 -65 L-1 -65 Q14 -65 25 -56.5 Q36 -48 44 -34.5 Q52 -21 57 -5 Q62 11 65 26 L92 163 Q98 193 109.5 216.5 Q121 240 135 256.5 Q149 273 163 283 Q177 293 188 296 L189 298 Q180 301 169.5 311 Q159 321 151.5 337.5 Q144 354 141.5 378 Q139 402 145 434 L170 564 Q173 579 175 594.5 Q177 610 175 623.5 Q173 637 165 645.5 Q157 654 139 654 L101 654 L108 693 L163 693 Q206 693 222.5 664 Q239 635 230 590 L203 455 Q198 431 197.5 408 Q197 385 201.5 365.5 Q206 346 217.5 332.5 Q229 319 249 315 L242 276 L242 276 Z " />
<glyph glyph-name="asciitilde" unicode="&#x7e;" horiz-adv-x="484" d="M475 296 Q450 255 420.5 234.5 Q391 214 349 214 Q326 214 301 224 Q276 234 251 245.5 Q226 257 202 267 Q178 277 156 277 Q130 277 111 264.5 Q92 252 69 229 L34 256 Q64 297 97.5 315 Q131 333 166 333 Q191 333 215 323 Q239 313 263 301.5 Q287 290 310 280 Q333 270 357 270 Q380 270 398.5 282 Q417 294 439 323 L475 296 Z " />
<glyph glyph-name="Euro" unicode="&#x20ac;" horiz-adv-x="484" d="M155 379 L144 318 L371 318 L362 273 L135 273 L128 239 Q121 203 123.5 169.5 Q126 136 139.5 110 Q153 84 179 68 Q205 52 245 52 Q299 52 340.5 81 Q382 110 412 157 L470 129 Q432 65 372 29.5 Q312 -6 240 -6 Q184 -6 146 13.5 Q108 33 86.5 67 Q65 101 59.5 147 Q54 193 64 245 L69 273 L26 273 L36 318 L78 318 L89 379 L46 379 L56 424 L98 424 L104 454 Q114 505 135 549.5 Q156 594 188.5 628 Q221 662 265 681.5 Q309 701 364 701 Q436 701 481 665 Q526 629 545 569 L481 543 Q469 585 437 613 Q405 641 360 641 Q318 641 285.5 625 Q253 609 229.5 582.5 Q206 556 191 521.5 Q176 487 169 451 L164 424 L391 424 L382 379 L155 379 Z " />
<glyph glyph-name="quotesinglbase" unicode="&#x201a;" horiz-adv-x="213" d="M34 -106 L-6 -106 L44 0 L22 0 L39 89 L120 89 L104 2 L34 -106 Z " />
<glyph glyph-name="florin" unicode="&#x192;" horiz-adv-x="484" d="M156 417 L254 417 L274 507 Q282 543 296.5 577.5 Q311 612 333.5 639.5 Q356 667 388.5 683.5 Q421 700 466 700 Q486 700 506 696.5 Q526 693 542 688 Q537 675 531.5 659.5 Q526 644 522 630 Q507 635 489.5 638 Q472 641 458 641 Q413 641 384.5 605.5 Q356 570 342 509 L321 417 L430 417 L424 360 L308 360 L251 111 Q240 65 225.5 28 Q211 -9 189.5 -35.5 Q168 -62 138.5 -76.5 Q109 -91 69 -91 Q50 -91 27 -87 Q4 -83 -15 -76 Q-10 -62 -4 -49 Q2 -36 8 -23 Q38 -35 67 -35 Q112 -35 139 1 Q166 37 182 109 L240 360 L151 360 L156 417 Z " />
<glyph glyph-name="quotedblbase" unicode="&#x201e;" horiz-adv-x="356" d="M46 -106 L6 -106 L56 0 L33 0 L50 89 L132 89 L116 2 L46 -106 Z M218 -106 L179 -106 L228 0 L206 0 L223 89 L305 89 L289 2 L218 -106 Z " />
<glyph glyph-name="ellipsis" unicode="&#x2026;" horiz-adv-x="692" d="M31 0 L48 88 L127 88 L110 0 L31 0 Z M255 0 L272 88 L352 88 L335 0 L255 0 Z M484 0 L501 88 L582 88 L565 0 L484 0 Z " />
<glyph glyph-name="dagger" unicode="&#x2020;" horiz-adv-x="448" d="M293 400 L178 -190 L115 -190 L230 400 L60 400 L71 454 L241 454 L287 696 L350 696 L303 454 L474 454 L463 400 L293 400 Z " />
<glyph glyph-name="daggerdbl" unicode="&#x2021;" horiz-adv-x="457" d="M234 400 L61 400 L72 454 L245 454 L291 696 L355 696 L308 454 L482 454 L472 400 L298 400 L254 178 L429 178 L418 125 L244 125 L183 -190 L119 -190 L180 125 L8 125 L18 178 L192 178 L234 400 Z " />
<glyph glyph-name="circumflex" unicode="&#x2c6;" horiz-adv-x="487" d="M351 665 L194 560 L169 590 L337 729 L383 729 L491 592 L454 561 L351 665 Z " />
<glyph glyph-name="perthousand" unicode="&#x2030;" horiz-adv-x="1071" d="M613 420 Q643 420 665.5 409.5 Q688 399 702 381.5 Q716 364 721 341 Q726 318 721 293 L685 111 Q674 58 641.5 27.5 Q609 -3 546 -3 Q517 -3 494.5 6.5 Q472 16 458.5 33 Q445 50 440 73.5 Q435 97 440 126 L473 304 Q483 355 519 387.5 Q555 420 613 420 Z M609 375 Q571 375 551 352.5 Q531 330 523 299 L490 122 Q483 87 498.5 64.5 Q514 42 547 42 Q568 42 583.5 48 Q599 54 609.5 64.5 Q620 75 626 89 Q632 103 636 119 L671 292 Q674 305 673.5 319.5 Q673 334 666.5 346.5 Q660 359 646.5 367 Q633 375 609 375 Z M255 699 Q285 699 307.5 688.5 Q330 678 344 660.5 Q358 643 363 620 Q368 597 363 572 L327 390 Q316 337 283.5 306.5 Q251 276 188 276 Q159 276 136.5 285.5 Q114 295 100.5 312 Q87 329 82 352.5 Q77 376 82 405 L115 583 Q125 634 161 666.5 Q197 699 255 699 Z M251 654 Q213 654 193 631.5 Q173 609 165 578 L132 401 Q125 366 140.5 343.5 Q156 321 189 321 Q210 321 225.5 327 Q241 333 251.5 343.5 Q262 354 268 368 Q274 382 278 398 L313 571 Q316 584 315.5 598.5 Q315 613 308.5 625.5 Q302 638 288.5 646 Q275 654 251 654 Z M139 -17 L89 -17 L663 722 L714 722 L139 -17 Z M925 420 Q955 420 977.5 409.5 Q1000 399 1014 381.5 Q1028 364 1033 341 Q1038 318 1033 293 L997 111 Q986 58 953.5 27.5 Q921 -3 858 -3 Q829 -3 806.5 6.5 Q784 16 770.5 33 Q757 50 752 73.5 Q747 97 752 126 L785 304 Q795 355 831 387.5 Q867 420 925 420 Z M921 375 Q883 375 863 352.5 Q843 330 835 299 L802 122 Q795 87 810.5 64.5 Q826 42 859 42 Q880 42 895.5 48 Q911 54 921.5 64.5 Q932 75 938 89 Q944 103 948 119 L983 292 Q986 305 985.5 319.5 Q985 334 978.5 346.5 Q972 359 958.5 367 Q945 375 921 375 Z " />
<glyph glyph-name="Scaron" unicode="&#x160;" horiz-adv-x="543" d="M346 702 Q399 702 451 687.5 Q503 673 542 646 L502 591 Q469 614 426.5 626 Q384 638 339 638 Q310 638 280.5 630 Q251 622 227 605 Q203 588 187.5 561.5 Q172 535 172 499 Q172 471 185.5 451.5 Q199 432 218.5 419.5 Q238 407 260 399.5 Q282 392 299 388 Q335 379 371 366.5 Q407 354 436.5 334 Q466 314 484.5 282.5 Q503 251 503 205 Q503 152 481.5 112 Q460 72 423.5 46 Q387 20 338.5 7 Q290 -6 236 -6 Q169 -6 109 13 Q49 32 4 74 L49 124 Q86 92 135 75 Q184 58 238 58 Q275 58 310 66.5 Q345 75 371.5 92 Q398 109 414 136 Q430 163 430 199 Q430 228 418 248.5 Q406 269 386.5 283 Q367 297 342 306 Q317 315 292 321 Q260 328 226.5 339 Q193 350 166 369 Q139 388 122 416.5 Q105 445 105 488 Q105 537 122.5 576.5 Q140 616 172 644 Q204 672 248 687 Q292 702 346 702 Z M370 799 L533 886 L551 856 L386 736 L341 736 L229 855 L258 882 L370 799 Z " />
<glyph glyph-name="guilsinglleft" unicode="&#x2039;" horiz-adv-x="293" d="M252 405 L97 226 L181 46 L119 46 L33 226 L189 405 L252 405 Z " />
<glyph glyph-name="OE" unicode="&#x152;" horiz-adv-x="804" d="M334 0 Q316 -4 296 -5 Q276 -6 254 -6 Q202 -6 163 9.5 Q124 25 98 52 Q72 79 59 115.5 Q46 152 46 194 Q46 219 50.5 250.5 Q55 282 61.5 316 Q68 350 76 384.5 Q84 419 91 450 Q101 500 122.5 545.5 Q144 591 178 626 Q212 661 260 681.5 Q308 702 372 702 Q418 702 452 695 L872 696 Q870 680 866.5 664.5 Q863 649 860 634 L504 634 L456 381 L759 381 L748 322 L444 322 L393 61 L749 61 L737 0 L334 0 Z M262 53 Q279 53 295 54 Q311 55 325 59 L437 631 Q408 641 365 641 Q317 641 280.5 624 Q244 607 218.5 579.5 Q193 552 177 517 Q161 482 154 446 L116 250 Q109 212 113 177 Q117 142 134.5 114 Q152 86 183.5 69.5 Q215 53 262 53 Z " />
<glyph glyph-name="Zcaron" unicode="&#x17d;" horiz-adv-x="487" d="M-8 0 L4 60 L463 637 L130 637 L141 696 L550 696 L539 641 L79 62 L427 62 L415 0 L-8 0 Z M374 799 L537 886 L555 856 L390 736 L345 736 L233 855 L262 882 L374 799 Z " />
<glyph glyph-name="quoteleft" unicode="&#x2018;" horiz-adv-x="205" d="M250 728 L200 621 L222 621 Q218 599 213.5 577.5 Q209 556 205 533 L123 533 Q128 555 132 577 Q136 599 140 621 L210 728 L250 728 Z " />
<glyph glyph-name="quoteright" unicode="&#x2019;" horiz-adv-x="205" d="M123 533 L173 640 L151 640 L169 728 L250 728 L233 640 L163 533 L123 533 Z " />
<glyph glyph-name="quotedblleft" unicode="&#x201c;" horiz-adv-x="279" d="M345 728 L295 621 L317 621 Q313 599 308.5 577.5 Q304 556 300 533 L218 533 L235 621 L305 728 L345 728 Z M223 728 L174 621 L196 621 L178 533 L97 533 Q101 555 105 577 Q109 599 114 621 L184 728 L223 728 Z " />
<glyph glyph-name="quotedblright" unicode="&#x201d;" horiz-adv-x="279" d="M225 533 L275 640 L253 640 Q257 662 261.5 683.5 Q266 705 270 728 L352 728 L335 640 L265 533 L225 533 Z M104 533 L153 640 L131 640 L149 728 L230 728 Q226 706 222 684 Q218 662 213 640 L143 533 L104 533 Z " />
<glyph glyph-name="bullet" unicode="&#x2022;" horiz-adv-x="381" d="M305 267 Q305 244 296 223.5 Q287 203 272 188 Q257 173 236.5 164 Q216 155 193 155 Q170 155 149.5 164 Q129 173 114 188 Q99 203 90 223.5 Q81 244 81 267 Q81 290 90 310.5 Q99 331 114 346 Q129 361 149.5 370 Q170 379 193 379 Q216 379 236.5 370 Q257 361 272 346 Q287 331 296 310.5 Q305 290 305 267 Z " />
<glyph glyph-name="endash" unicode="&#x2013;" horiz-adv-x="487" d="M25 236 L37 297 L485 297 L473 236 L25 236 Z " />
<glyph glyph-name="emdash" unicode="&#x2014;" horiz-adv-x="878" d="M17 236 L29 297 L857 297 L845 236 L17 236 Z " />
<glyph glyph-name="tilde" unicode="&#x2dc;" horiz-adv-x="487" d="M274 689 Q292 689 309.5 682 Q327 675 344 667 Q361 659 377 652 Q393 645 408 645 Q423 645 437.5 654 Q452 663 471 686 L507 663 Q485 621 457.5 604.5 Q430 588 401 588 Q383 588 365.5 594.5 Q348 601 330.5 609 Q313 617 297 623.5 Q281 630 267 630 Q249 630 236 622 Q223 614 202 594 L168 617 Q192 655 219 672 Q246 689 274 689 Z " />
<glyph glyph-name="trademark" unicode="&#x2122;" horiz-adv-x="825" d="M710 301 L709 581 L595 359 L555 359 L440 581 L440 301 L392 301 L392 695 L440 695 L577 426 Q581 434 591.5 455 Q602 476 615.5 503 Q629 530 644.5 560.5 Q660 591 673.5 618 Q687 645 697.5 666 Q708 687 712 695 L758 695 L758 301 L710 301 Z M210 649 L210 302 L161 302 L161 649 L38 649 L38 696 L332 696 L332 649 L210 649 Z " />
<glyph glyph-name="scaron" unicode="&#x161;" horiz-adv-x="457" d="M192 -6 Q166 -6 139.5 -1.5 Q113 3 87.5 11.5 Q62 20 39 33 Q16 46 -2 63 L40 111 Q68 80 109 66 Q150 52 193 52 Q218 52 242.5 56.5 Q267 61 286 71 Q305 81 316.5 97 Q328 113 328 137 Q328 177 302 195 Q276 213 234 224 Q208 230 180.5 237.5 Q153 245 130 258.5 Q107 272 92 294.5 Q77 317 77 354 Q77 394 93 422 Q109 450 135 467.5 Q161 485 195.5 493 Q230 501 266 501 Q307 501 349.5 489.5 Q392 478 424 449 L385 400 Q356 422 326.5 432.5 Q297 443 262 443 Q241 443 219.5 439 Q198 435 180.5 424.5 Q163 414 152 397 Q141 380 141 355 Q141 337 150.5 324.5 Q160 312 176 304 Q192 296 212 290 Q232 284 253 279 Q279 273 304 264.5 Q329 256 348.5 241.5 Q368 227 380 204.5 Q392 182 392 148 Q392 109 376.5 80 Q361 51 334 32 Q307 13 270.5 3.5 Q234 -6 192 -6 Z M449 722 L473 693 L312 555 L267 555 L153 694 L189 723 L297 619 L449 722 Z " />
<glyph glyph-name="guilsinglright" unicode="&#x203a;" horiz-adv-x="284" d="M22 46 L176 226 L92 405 L154 405 L241 226 L84 46 L22 46 Z " />
<glyph glyph-name="oe" unicode="&#x153;" horiz-adv-x="809" d="M284 501 Q342 501 385 471 Q428 441 443 393 Q443 393 445 392 Q474 440 519 470.5 Q564 501 630 501 Q711 501 754.5 465 Q798 429 798 369 Q798 337 785 307.5 Q772 278 739.5 255.5 Q707 233 651 219.5 Q595 206 508 206 Q496 206 479.5 206.5 Q463 207 449 208 Q447 195 446.5 186 Q446 177 446 170 Q446 105 474.5 78 Q503 51 558 51 Q573 51 591 54.5 Q609 58 627.5 64 Q646 70 663 78 Q680 86 694 94 L724 49 Q688 23 641.5 8.5 Q595 -6 550 -6 Q425 -6 397 93 Q384 74 366 56.5 Q348 39 325.5 25 Q303 11 275.5 2.5 Q248 -6 217 -6 Q131 -6 85 36.5 Q39 79 39 160 Q39 227 54 288.5 Q69 350 99.5 397.5 Q130 445 176 473 Q222 501 284 501 Z M276 445 Q226 445 192 417.5 Q158 390 138 348 Q118 306 109.5 257 Q101 208 101 167 Q101 150 105.5 129.5 Q110 109 122.5 91.5 Q135 74 156.5 62 Q178 50 212 50 Q265 50 300 74.5 Q335 99 355.5 138.5 Q376 178 384.5 226.5 Q393 275 393 323 Q393 386 359 415.5 Q325 445 276 445 Z M627 443 Q586 443 557 427 Q528 411 508 385.5 Q488 360 476.5 328 Q465 296 459 263 Q476 261 493 261 Q510 261 522 261 Q592 261 634 271.5 Q676 282 698.5 297 Q721 312 728.5 329.5 Q736 347 736 362 Q736 400 708 421.5 Q680 443 627 443 Z " />
<glyph glyph-name="zcaron" unicode="&#x17e;" horiz-adv-x="419" d="M-14 0 L-3 52 L350 440 L87 440 L97 495 L434 495 L424 441 L75 58 L349 58 L338 0 L-14 0 Z M426 722 L450 693 L289 555 L244 555 L130 694 L166 723 L274 619 L426 722 Z " />
<glyph glyph-name="Ydieresis" unicode="&#x178;" horiz-adv-x="482" d="M231 0 L168 0 L224 287 Q193 390 162 491.5 Q131 593 99 696 L164 696 Q178 646 194 594 Q210 542 230 474 Q239 441 249 405 Q259 369 264 348 L360 491 Q364 497 375 513 Q386 529 400 549.5 Q414 570 430 593.5 Q446 617 460 637.5 Q474 658 484.5 674 Q495 690 499 696 L570 696 Q499 593 429 491.5 Q359 390 287 287 L231 0 Z M224 751 L238 822 L310 822 L296 751 L224 751 Z M403 751 L417 822 L489 822 L475 751 L403 751 Z " />
<glyph glyph-name="exclamdown" unicode="&#xa1;" horiz-adv-x="226" d="M127 312 L172 312 L80 -202 L17 -202 L127 312 Z M219 494 L204 415 L132 415 L147 494 L219 494 Z " />
<glyph glyph-name="cent" unicode="&#xa2;" horiz-adv-x="484" d="M401 56 Q367 28 326.5 12 Q286 -4 241 -6 L220 -115 L184 -115 L205 -4 Q131 4 96 55 Q61 106 61 185 Q61 242 76.5 297 Q92 352 122.5 395.5 Q153 439 198.5 467 Q244 495 304 500 L324 604 L360 604 L339 500 Q377 498 412.5 482.5 Q448 467 473 439 L423 393 Q405 413 380 426 Q355 439 328 441 L252 54 Q281 54 313 69.5 Q345 85 368 101 L401 56 Z M124 192 Q124 136 146 101 Q168 66 217 57 L292 439 Q248 433 216.5 409 Q185 385 164.5 350.5 Q144 316 134 275 Q124 234 124 192 Z " />
<glyph glyph-name="sterling" unicode="&#xa3;" horiz-adv-x="484" d="M209 298 Q195 232 169.5 172 Q144 112 95 59 L415 59 Q415 56 413.5 47.5 Q412 39 410 29 Q408 19 406.5 10.5 Q405 2 404 0 L6 0 L16 51 Q64 102 99 163 Q134 224 149 298 L59 298 L69 348 L149 348 Q148 383 141 419.5 Q134 456 134 494 Q134 534 147.5 571.5 Q161 609 187 637.5 Q213 666 250.5 683 Q288 700 335 700 Q398 700 440 678.5 Q482 657 508 601 L453 573 Q436 611 407 626.5 Q378 642 332 642 Q303 642 279.5 631 Q256 620 238.5 599.5 Q221 579 211.5 551.5 Q202 524 202 491 Q202 456 208.5 423 Q215 390 215 348 L362 348 L352 298 L209 298 Z " />
<glyph glyph-name="currency" unicode="&#xa4;" horiz-adv-x="535" d="M59 498 Q68 508 78 517.5 Q88 527 97 536 L160 473 Q213 511 275 511 Q333 511 387 474 L450 537 L488 498 L425 436 Q465 379 465 321 Q465 291 455 263 Q445 235 427 208 Q432 203 440.5 194.5 Q449 186 458.5 177 Q468 168 476.5 160 Q485 152 490 146 Q471 126 451 107 L389 170 Q339 132 275 130 Q212 132 159 171 L96 108 Q88 116 76.5 127.5 Q65 139 58 147 L121 209 Q85 263 85 321 Q84 351 94 379.5 Q104 408 123 435 L59 498 Z M141 321 Q141 293 151.5 269 Q162 245 180 227 Q198 209 222 198.5 Q246 188 274 188 Q302 188 326.5 198.5 Q351 209 369 227 Q387 245 397.5 269 Q408 293 408 321 Q408 349 397.5 373.5 Q387 398 369 416 Q351 434 326.5 444.5 Q302 455 274 455 Q246 455 222 444.5 Q198 434 180 416 Q162 398 151.5 373.5 Q141 349 141 321 Z " />
<glyph glyph-name="yen" unicode="&#xa5;" horiz-adv-x="484" d="M402 206 Q399 195 397 184.5 Q395 174 393 163 L231 163 Q223 121 215 81 Q207 41 199 0 L139 0 Q147 41 155 81 Q163 121 171 163 L12 163 Q14 174 16 184.5 Q18 195 20 206 L179 206 L195 287 L189 310 L39 310 Q42 321 44 331.5 Q46 342 48 353 L176 353 Q150 439 125 524 Q100 609 74 696 L139 696 Q153 647 166.5 598.5 Q180 550 194 501 L236 343 L332 493 Q367 544 400.5 594.5 Q434 645 468 696 L536 696 Q477 609 418.5 524 Q360 439 301 353 L430 353 L421 310 L272 310 L256 287 Q251 267 248 246.5 Q245 226 240 206 L402 206 L402 206 Z " />
<glyph glyph-name="brokenbar" unicode="&#xa6;" horiz-adv-x="189" d="M71 304 L71 716 L121 716 L121 304 L71 304 Z M121 247 L121 -162 L71 -162 L71 247 L121 247 Z " />
<glyph glyph-name="section" unicode="&#xa7;" horiz-adv-x="457" d="M317 647 Q291 647 269 639.5 Q247 632 230 618.5 Q213 605 203.5 586 Q194 567 194 545 Q194 525 204.5 510.5 Q215 496 231.5 484.5 Q248 473 269.5 463.5 Q291 454 314 446 Q336 438 359.5 426.5 Q383 415 402 398.5 Q421 382 433 359.5 Q445 337 445 307 Q445 264 424.5 231.5 Q404 199 371 172 Q380 156 385.5 138 Q391 120 391 100 Q391 63 376 31 Q361 -1 333 -25 Q305 -49 266.5 -63 Q228 -77 180 -77 Q154 -77 129.5 -71.5 Q105 -66 83 -56.5 Q61 -47 43.5 -34 Q26 -21 14 -6 Q23 4 33 13.5 Q43 23 53 33 Q78 4 111.5 -9 Q145 -22 181 -22 Q210 -22 237 -15 Q264 -8 284.5 6 Q305 20 317.5 41.5 Q330 63 330 93 Q330 129 300 151 Q270 173 216 193 Q150 218 115 247.5 Q80 277 80 323 Q80 364 98.5 399 Q117 434 158 463 Q144 480 135.5 497 Q127 514 127 540 Q127 579 143.5 609.5 Q160 640 186.5 660.5 Q213 681 247.5 691.5 Q282 702 318 702 Q366 702 408.5 688 Q451 674 479 646 Q468 635 459 623 Q450 611 439 600 Q412 626 380.5 636.5 Q349 647 317 647 Z M139 338 Q139 310 162 290.5 Q185 271 216.5 256.5 Q248 242 280.5 230.5 Q313 219 332 207 Q356 224 370.5 249 Q385 274 385 302 Q385 329 370 344 Q355 359 329.5 371.5 Q304 384 270.5 397 Q237 410 201 433 Q174 416 156.5 390 Q139 364 139 338 Z " />
<glyph glyph-name="dieresis" unicode="&#xa8;" horiz-adv-x="480" d="M346 602 L359 674 L430 674 L416 602 L346 602 Z M163 602 L177 674 L247 674 L233 602 L163 602 Z " />
<glyph glyph-name="copyright" unicode="&#xa9;" horiz-adv-x="792" d="M542 213 Q525 169 489 144.5 Q453 120 402 120 Q364 120 336 132.5 Q308 145 289 167 Q270 189 261 217.5 Q252 246 252 278 L252 396 Q252 427 261.5 455.5 Q271 484 290 505.5 Q309 527 337 539.5 Q365 552 402 552 Q453 552 488.5 528 Q524 504 541 463 L494 441 Q482 468 458.5 485.5 Q435 503 403 503 Q377 503 358.5 494 Q340 485 327 470 Q314 455 308 435 Q302 415 302 394 L302 280 Q302 259 308 238.5 Q314 218 327 202.5 Q340 187 358.5 177.5 Q377 168 403 168 Q436 168 459 186.5 Q482 205 494 235 L542 213 Z M399 -9 Q325 -9 261.5 17.5 Q198 44 152 91 Q106 138 80 202 Q54 266 54 341 Q54 416 80.5 480.5 Q107 545 153.5 592 Q200 639 263 665.5 Q326 692 399 692 Q472 692 535.5 665.5 Q599 639 645.5 592 Q692 545 718.5 480.5 Q745 416 745 341 Q745 266 718.5 202 Q692 138 645.5 91 Q599 44 535.5 17.5 Q472 -9 399 -9 Z M399 644 Q336 644 282.5 621 Q229 598 189.5 557 Q150 516 127.5 460.5 Q105 405 105 341 Q105 277 127.5 222 Q150 167 189.5 126.5 Q229 86 282.5 62.5 Q336 39 399 39 Q462 39 516 62.5 Q570 86 609 126.5 Q648 167 670.5 222 Q693 277 693 341 Q693 405 670.5 460.5 Q648 516 609 557 Q570 598 516 621 Q462 644 399 644 Z " />
<glyph glyph-name="ordfeminine" unicode="&#xaa;" horiz-adv-x="341" d="M224 610 Q250 610 273 599.5 Q296 589 311 568 L319 606 L367 606 L307 280 L256 280 L264 326 Q245 303 221 289.5 Q197 276 167 276 Q112 276 87.5 309 Q63 342 62 391 Q62 425 71 464 Q80 503 99.5 535 Q119 567 149.5 588.5 Q180 610 224 610 Z M115 392 Q115 379 118.5 367 Q122 355 129.5 345.5 Q137 336 149 330 Q161 324 180 324 Q209 324 230.5 341 Q252 358 265.5 383.5 Q279 409 285 438.5 Q291 468 291 493 Q291 524 276 543.5 Q261 563 228 563 Q195 563 173.5 544.5 Q152 526 139 499.5 Q126 473 120.5 443.5 Q115 414 115 392 Z " />
<glyph glyph-name="guillemotleft" unicode="&#xab;" horiz-adv-x="433" d="M298 46 L212 226 L365 405 L429 405 L275 225 L358 46 L298 46 Z M143 46 L57 226 L210 405 L275 405 L121 225 L204 46 L143 46 Z " />
<glyph glyph-name="logicalnot" unicode="&#xac;" horiz-adv-x="484" d="M427 69 L367 69 L404 262 L38 262 L48 313 L475 313 L427 69 Z " />
<glyph glyph-name="sfthyphen" unicode="&#xad;" horiz-adv-x="381" d="M58 237 L70 297 L346 297 L334 237 L58 237 Z " />
<glyph glyph-name="registered" unicode="&#xae;" horiz-adv-x="553" d="M484 492 Q484 447 468.5 409 Q453 371 425 343.5 Q397 316 359.5 300 Q322 284 277 284 Q233 284 195 300 Q157 316 129 343.5 Q101 371 85.5 409 Q70 447 70 492 Q70 537 86 575.5 Q102 614 130 642 Q158 670 195.5 686 Q233 702 277 702 Q321 702 359 686 Q397 670 424.5 642 Q452 614 468 575.5 Q484 537 484 492 Z M451 492 Q451 530 437.5 563 Q424 596 400.5 620 Q377 644 345.5 658 Q314 672 277 672 Q240 672 208.5 658 Q177 644 153.5 620 Q130 596 117 563 Q104 530 104 492 Q104 454 117 421.5 Q130 389 153 365 Q176 341 207.5 327.5 Q239 314 277 314 Q314 314 346 327.5 Q378 341 401 365 Q424 389 437.5 421.5 Q451 454 451 492 Z M285 475 L234 475 L234 371 L200 371 L200 613 L299 613 Q330 613 350.5 595 Q371 577 371 546 Q371 522 357 504.5 Q343 487 320 480 L377 371 L338 371 L285 475 Z M234 583 L234 507 L293 507 Q312 507 324.5 517 Q337 527 337 546 Q337 566 324.5 574.5 Q312 583 294 583 L234 583 Z " />
<glyph glyph-name="macron" unicode="&#xaf;" horiz-adv-x="485" d="M196 603 L207 662 L469 662 L457 603 L196 603 Z " />
<glyph glyph-name="degree" unicode="&#xb0;" horiz-adv-x="374" d="M315 572 Q315 545 305 522 Q295 499 277.5 481.5 Q260 464 237 454 Q214 444 187 444 Q160 444 136.5 454 Q113 464 95.5 481.5 Q78 499 68 522 Q58 545 58 572 Q58 599 68 622.5 Q78 646 95.5 663.5 Q113 681 136.5 691 Q160 701 187 701 Q216 701 239.5 691 Q263 681 280 663.5 Q297 646 306 622.5 Q315 599 315 572 Z M272 572 Q272 590 265.5 605.5 Q259 621 247.5 632.5 Q236 644 220.5 651 Q205 658 187 658 Q169 658 153.5 651 Q138 644 126.5 632.5 Q115 621 108.5 605.5 Q102 590 102 572 Q102 537 126 512.5 Q150 488 187 488 Q222 488 247 512 Q272 536 272 572 Z " />
<glyph glyph-name="plusminus" unicode="&#xb1;" horiz-adv-x="484" d="M283 281 L248 100 L198 100 L233 281 L48 281 L58 332 L243 332 L278 512 L328 512 L293 332 L478 332 L468 281 L283 281 Z M-6 0 L3 51 L424 51 L415 0 L-6 0 Z " />
<glyph glyph-name="twosuperior" unicode="&#xb2;" horiz-adv-x="299" d="M15 370 L24 416 L242 625 Q278 658 278 692 Q278 714 261 728 Q244 742 215 742 Q186 742 163 723.5 Q140 705 128 677 L75 689 Q94 734 132 761 Q170 788 218 788 Q267 788 299.5 765 Q332 742 332 696 Q332 667 319 644 Q306 621 284 600 Q268 586 242 561 Q216 536 188 509 Q160 482 134 457.5 Q108 433 92 418 L276 418 L267 370 L15 370 Z " />
<glyph glyph-name="threesuperior" unicode="&#xb3;" horiz-adv-x="299" d="M216 789 Q270 789 299.5 763 Q329 737 329 697 Q329 668 313 638 Q297 608 255 588 Q278 575 288 555 Q298 535 298 514 Q298 481 286.5 454 Q275 427 254 407.5 Q233 388 204.5 377 Q176 366 142 366 Q123 366 104 370.5 Q85 375 70 385.5 Q55 396 44.5 413 Q34 430 32 454 L83 463 Q86 437 103.5 424.5 Q121 412 146 412 Q188 412 217 439 Q246 466 246 510 Q246 536 230 550.5 Q214 565 185 565 L148 565 L157 609 L187 609 Q225 609 250.5 632 Q276 655 276 688 Q276 713 259.5 728.5 Q243 744 214 744 Q190 744 167 730 Q144 716 133 690 L82 699 Q99 741 135.5 765 Q172 789 216 789 Z " />
<glyph glyph-name="acute" unicode="&#xb4;" horiz-adv-x="487" d="M296 573 L394 739 L455 717 L333 557 L296 573 Z " />
<glyph glyph-name="&amp;#xb5;" unicode="&#xb5;" horiz-adv-x="508" d="M-10 -200 Q23 -25 57 147.5 Q91 320 124 495 L185 495 L125 188 Q112 119 139.5 85.5 Q167 52 227 52 Q283 52 326.5 91.5 Q370 131 383 195 L441 495 L502 495 L406 0 L345 0 Q348 17 351 34 Q354 51 358 68 L355 68 Q323 28 281 11.5 Q239 -5 199 -5 Q167 -5 141 6 Q115 17 99 37 L96 37 L50 -200 L-10 -200 Z " />
<glyph glyph-name="&amp;#x3bc;" unicode="&#x3bc;" horiz-adv-x="508" d="M-10 -200 Q23 -25 57 147.5 Q91 320 124 495 L185 495 L125 188 Q112 119 139.5 85.5 Q167 52 227 52 Q283 52 326.5 91.5 Q370 131 383 195 L441 495 L502 495 L406 0 L345 0 Q348 17 351 34 Q354 51 358 68 L355 68 Q323 28 281 11.5 Q239 -5 199 -5 Q167 -5 141 6 Q115 17 99 37 L96 37 L50 -200 L-10 -200 Z " />
<glyph glyph-name="paragraph" unicode="&#xb6;" horiz-adv-x="529" d="M341 661 Q317 474 294 289.5 Q271 105 247 -81 L187 -81 Q200 25 212.5 130 Q225 235 239 341 Q158 341 114.5 380 Q71 419 71 494 Q71 533 84.5 572.5 Q98 612 124.5 643.5 Q151 675 189.5 694.5 Q228 714 279 714 L554 714 Q552 700 550 687.5 Q548 675 546 661 L493 661 L400 -81 L340 -81 L433 661 L341 661 Z " />
<glyph glyph-name="periodcentered" unicode="&#xb7;" horiz-adv-x="206" d="M74 224 L91 313 L172 313 L155 224 L74 224 Z " />
<glyph glyph-name="cedilla" unicode="&#xb8;" horiz-adv-x="423" d="M223 -117 Q223 -93 200.5 -83 Q178 -73 154 -74 L141 -62 L186 30 L222 27 L189 -41 Q213 -43 229.5 -50 Q246 -57 256 -67 Q266 -77 270.5 -89 Q275 -101 275 -112 Q275 -127 268 -143 Q261 -159 246.5 -171.5 Q232 -184 210.5 -192.5 Q189 -201 159 -201 Q146 -201 121 -199 Q96 -197 73 -187 L89 -150 Q108 -158 127.5 -160.5 Q147 -163 161 -163 Q170 -163 180.5 -160.5 Q191 -158 200.5 -153 Q210 -148 216.5 -139 Q223 -130 223 -117 Z " />
<glyph glyph-name="onesuperior" unicode="&#xb9;" horiz-adv-x="248" d="M157 370 L105 370 L176 730 L107 690 L120 745 L189 786 L238 786 L157 370 Z " />
<glyph glyph-name="ordmasculine" unicode="&#xba;" horiz-adv-x="338" d="M234 610 Q289 610 323 579 Q357 548 358 495 Q359 457 351 418.5 Q343 380 324 348 Q305 316 273 296 Q241 276 194 276 Q127 276 97 308 Q67 340 66 388 Q65 432 74.5 472.5 Q84 513 105 543.5 Q126 574 158 592 Q190 610 234 610 Z M230 566 Q197 566 175 548.5 Q153 531 140 504.5 Q127 478 122 447.5 Q117 417 117 392 Q117 381 120 369 Q123 357 131.5 346 Q140 335 154 328 Q168 321 191 321 Q224 321 246.5 335 Q269 349 282.5 372 Q296 395 301.5 426 Q307 457 306 492 Q305 530 283 548 Q261 566 230 566 Z " />
<glyph glyph-name="guillemotright" unicode="&#xbb;" horiz-adv-x="433" d="M22 46 L176 225 L92 404 L154 404 L240 225 L84 46 L22 46 Z M176 46 L331 225 L247 404 L307 404 L394 225 L238 46 L176 46 Z " />
<glyph glyph-name="onequarter" unicode="&#xbc;" horiz-adv-x="770" d="M198 280 L146 280 L217 640 L148 600 L161 655 L230 696 L279 696 L198 280 Z M123 -17 L73 -17 L647 722 L698 722 L123 -17 Z M632 63 Q631 58 629 49.5 Q627 41 625 31.5 Q623 22 621 13 Q619 4 619 0 L568 0 L580 63 L385 63 L394 107 L608 416 L666 416 L453 109 L588 109 Q590 118 593.5 135 Q597 152 600.5 170 Q604 188 607 205 Q610 222 612 231 L664 231 L640 109 L678 109 L669 63 L632 63 Z " />
<glyph glyph-name="onehalf" unicode="&#xbd;" horiz-adv-x="770" d="M195 280 L143 280 L214 640 L145 600 L158 655 L227 696 L276 696 L195 280 Z M94 -17 L44 -17 L618 722 L669 722 L94 -17 Z M407 0 L416 45 L634 255 Q670 289 670 321 Q670 343 653 357.5 Q636 372 607 372 Q578 372 555 353.5 Q532 335 520 307 L467 318 Q486 364 524 391 Q562 418 610 418 Q659 418 691.5 395 Q724 372 724 326 Q724 297 711 273.5 Q698 250 676 230 Q660 215 634 190.5 Q608 166 580 139 Q552 112 526 87.5 Q500 63 484 48 L668 48 L659 0 L407 0 Z " />
<glyph glyph-name="threequarters" unicode="&#xbe;" horiz-adv-x="770" d="M222 699 Q276 699 305.5 673 Q335 647 335 607 Q335 578 319 548 Q303 518 261 498 Q284 485 294 465 Q304 445 304 424 Q304 391 292.5 364 Q281 337 260 317.5 Q239 298 210.5 287 Q182 276 148 276 Q129 276 110 280.5 Q91 285 76 295.5 Q61 306 50.5 323 Q40 340 38 364 L89 373 Q92 347 109.5 334.5 Q127 322 152 322 Q194 322 223 349 Q252 376 252 420 Q252 446 236 460.5 Q220 475 191 475 L154 475 L163 519 L193 519 Q231 519 256.5 542 Q282 565 282 598 Q282 623 265.5 638.5 Q249 654 220 654 Q196 654 173 640 Q150 626 139 600 L88 609 Q105 651 141.5 675 Q178 699 222 699 Z M158 -17 L108 -17 L682 722 L733 722 L158 -17 Z M667 63 Q666 58 664 49.5 Q662 41 660 31.5 Q658 22 656 13 Q654 4 654 0 L603 0 L615 63 L420 63 L429 107 L643 416 L701 416 L488 109 L623 109 Q625 118 628.5 135 Q632 152 635.5 170 Q639 188 642 205 Q645 222 647 231 L699 231 L675 109 L713 109 L704 63 L667 63 Z " />
<glyph glyph-name="questiondown" unicode="&#xbf;" horiz-adv-x="471" d="M441 -29 Q427 -77 404.5 -110.5 Q382 -144 352.5 -164.5 Q323 -185 287.5 -194 Q252 -203 211 -203 Q173 -203 141.5 -192 Q110 -181 87.5 -161.5 Q65 -142 52.5 -115 Q40 -88 40 -55 Q40 -19 50.5 9 Q61 37 78.5 60.5 Q96 84 117.5 103.5 Q139 123 160 142 Q192 170 220 199.5 Q248 229 256 267 L268 325 L334 325 L322 265 Q315 230 295 200 Q275 170 246 144 Q232 130 217.5 116.5 Q203 103 188 89 Q173 75 159 60.5 Q145 46 134 29.5 Q123 13 116 -4.5 Q109 -22 109 -40 Q109 -57 114.5 -75 Q120 -93 133 -107.5 Q146 -122 167 -131.5 Q188 -141 219 -141 Q253 -141 280 -128.5 Q307 -116 326.5 -96.5 Q346 -77 357.5 -55 Q369 -33 374 -13 L441 -29 Z M369 497 L354 417 L281 417 L297 497 L369 497 Z " />
<glyph glyph-name="Agrave" unicode="&#xc0;" horiz-adv-x="580" d="M459 0 Q453 42 447 82.5 Q441 123 434 165 L129 165 L40 0 L-31 0 Q65 175 160.5 348 Q256 521 353 696 L415 696 L529 0 L459 0 Z M368 616 Q363 606 347.5 576.5 Q332 547 310.5 507 Q289 467 265 422 Q241 377 219.5 336.5 Q198 296 181.5 265 Q165 234 159 223 L427 223 Q424 244 419.5 276 Q415 308 409.5 345 Q404 382 398.5 422 Q393 462 387.5 498.5 Q382 535 377.5 565.5 Q373 596 370 616 L368 616 Z M392 734 L218 832 L256 882 L416 767 L392 734 Z " />
<glyph glyph-name="Aacute" unicode="&#xc1;" horiz-adv-x="580" d="M459 0 Q453 42 447 82.5 Q441 123 434 165 L129 165 L40 0 L-31 0 Q65 175 160.5 348 Q256 521 353 696 L415 696 L529 0 L459 0 Z M368 616 L281 450 L159 223 L427 223 Q424 244 419.5 276 Q415 308 409.5 345 Q404 382 398.5 422 Q393 462 387.5 498.5 Q382 535 377.5 565.5 Q373 596 370 616 L368 616 Z M351 766 Q392 795 432.5 823.5 Q473 852 514 881 Q524 868 533 855.5 Q542 843 552 831 L374 733 L351 766 Z " />
<glyph glyph-name="Acircumflex" unicode="&#xc2;" horiz-adv-x="580" d="M459 0 Q453 42 447 82.5 Q441 123 434 165 L129 165 L40 0 L-31 0 Q65 175 160.5 348 Q256 521 353 696 L415 696 L529 0 L459 0 Z M368 616 Q363 606 347.5 576.5 Q332 547 310.5 507 Q289 467 265 422 Q241 377 219.5 336.5 Q198 296 181.5 265 Q165 234 159 223 L427 223 Q424 244 419.5 276 Q415 308 409.5 345 Q404 382 398.5 422 Q393 462 387.5 498.5 Q382 535 377.5 565.5 Q373 596 370 616 L368 616 Z M405 822 L244 735 L227 765 L392 885 L437 885 L548 766 L518 737 L405 822 Z " />
<glyph glyph-name="Atilde" unicode="&#xc3;" horiz-adv-x="580" d="M459 0 Q453 42 447 82.5 Q441 123 434 165 L129 165 L40 0 L-31 0 Q65 175 160.5 348 Q256 521 353 696 L415 696 L529 0 L459 0 Z M368 616 Q363 606 347.5 576.5 Q332 547 310.5 507 Q289 467 265 422 Q241 377 219.5 336.5 Q198 296 181.5 265 Q165 234 159 223 L427 223 Q424 244 419.5 276 Q415 308 409.5 345 Q404 382 398.5 422 Q393 462 387.5 498.5 Q382 535 377.5 565.5 Q373 596 370 616 L368 616 Z M333 845 Q351 845 368.5 838 Q386 831 403 823 Q420 815 436 808 Q452 801 467 801 Q482 801 496.5 810 Q511 819 530 842 L566 819 Q544 777 516.5 760.5 Q489 744 460 744 Q442 744 424.5 750.5 Q407 757 389.5 765 Q372 773 356 779.5 Q340 786 326 786 Q308 786 295 778 Q282 770 261 750 L227 773 Q251 811 278 828 Q305 845 333 845 Z " />
<glyph glyph-name="Adieresis" unicode="&#xc4;" horiz-adv-x="580" d="M459 0 Q453 42 447 82.5 Q441 123 434 165 L129 165 L40 0 L-31 0 Q65 175 160.5 348 Q256 521 353 696 L415 696 L529 0 L459 0 Z M368 616 Q363 606 347.5 576.5 Q332 547 310.5 507 Q289 467 265 422 Q241 377 219.5 336.5 Q198 296 181.5 265 Q165 234 159 223 L427 223 Q424 244 419.5 276 Q415 308 409.5 345 Q404 382 398.5 422 Q393 462 387.5 498.5 Q382 535 377.5 565.5 Q373 596 370 616 L368 616 Z M449 751 L463 822 L535 822 L521 751 L449 751 Z M270 751 L284 822 L356 822 L342 751 L270 751 Z " />
<glyph glyph-name="Aring" unicode="&#xc5;" horiz-adv-x="580" d="M459 0 Q453 42 447 82.5 Q441 123 434 165 L129 165 L40 0 L-31 0 Q65 175 160.5 348 Q256 521 353 696 L415 696 L529 0 L459 0 Z M368 616 Q363 606 347.5 576.5 Q332 547 310.5 507 Q289 467 265 422 Q241 377 219.5 336.5 Q198 296 181.5 265 Q165 234 159 223 L427 223 Q424 244 419.5 276 Q415 308 409.5 345 Q404 382 398.5 422 Q393 462 387.5 498.5 Q382 535 377.5 565.5 Q373 596 370 616 L368 616 Z M392 713 Q357 713 335 735 Q313 757 313 789 Q313 812 322 832.5 Q331 853 346 868.5 Q361 884 382 893 Q403 902 427 902 Q462 902 484.5 879.5 Q507 857 507 824 Q507 799 497 778.5 Q487 758 471 743.5 Q455 729 434 721 Q413 713 392 713 Z M420 866 Q392 866 371 845 Q350 824 350 796 Q350 776 363 762.5 Q376 749 398 749 Q411 749 424 754.5 Q437 760 447 770 Q457 780 463 792.5 Q469 805 469 819 Q469 839 455.5 852.5 Q442 866 420 866 Z " />
<glyph glyph-name="AE" unicode="&#xc6;" horiz-adv-x="949" d="M448 0 L475 195 L199 195 L49 0 L-23 0 L516 696 L976 696 L968 634 L605 634 L569 382 L879 382 L871 322 L561 322 L524 62 L888 62 L879 0 L448 0 Z M245 253 L483 253 L537 631 L245 253 Z " />
<glyph glyph-name="Ccedilla" unicode="&#xc7;" horiz-adv-x="536" d="M284 -117 Q284 -93 261.5 -83 Q239 -73 215 -74 L202 -62 Q209 -47 215.5 -32.5 Q222 -18 230 -4 Q177 2 140.5 25 Q104 48 83 83 Q62 118 56.5 162.5 Q51 207 61 255 L100 453 Q110 503 131.5 548 Q153 593 187.5 627 Q222 661 269 681 Q316 701 378 701 Q459 701 511.5 663 Q564 625 585 562 L518 533 Q507 578 470.5 607.5 Q434 637 380 637 Q331 637 294 621 Q257 605 231 578.5 Q205 552 188.5 517 Q172 482 165 445 L128 252 Q120 214 123.5 179 Q127 144 143.5 117 Q160 90 190.5 73.5 Q221 57 268 57 Q327 57 375.5 87 Q424 117 455 168 L517 138 Q477 69 412 32.5 Q347 -4 267 -6 Q257 -25 250 -41 Q274 -43 290.5 -50 Q307 -57 317 -67 Q327 -77 331.5 -89 Q336 -101 336 -112 Q336 -127 329 -143 Q322 -159 307.5 -171.5 Q293 -184 271.5 -192.5 Q250 -201 220 -201 Q207 -201 182 -199 Q157 -197 134 -187 L150 -150 Q169 -158 188.5 -160.5 Q208 -163 222 -163 Q231 -163 241.5 -160.5 Q252 -158 261.5 -153 Q271 -148 277.5 -139 Q284 -130 284 -117 Z " />
<glyph glyph-name="Egrave" unicode="&#xc8;" horiz-adv-x="525" d="M35 0 L171 696 L581 696 L569 634 L225 634 L177 382 L481 382 L469 322 L165 322 L114 62 L487 62 L475 0 L35 0 Z M401 734 L227 832 L265 882 L425 767 L401 734 Z " />
<glyph glyph-name="Eacute" unicode="&#xc9;" horiz-adv-x="525" d="M339 767 L502 882 L540 832 L362 734 L339 767 Z M35 0 L171 696 L594 696 L582 634 L225 634 L177 382 L481 382 L469 322 L165 322 L114 62 L470 62 L459 0 L35 0 Z " />
<glyph glyph-name="Ecircumflex" unicode="&#xca;" horiz-adv-x="525" d="M35 0 L171 696 L581 696 L569 634 L225 634 L177 382 L481 382 L469 322 L165 322 L114 62 L487 62 L475 0 L35 0 Z M410 822 L249 735 L232 765 L397 885 L442 885 L553 766 L523 737 L410 822 Z " />
<glyph glyph-name="Edieresis" unicode="&#xcb;" horiz-adv-x="525" d="M35 0 L171 696 L581 696 L569 634 L225 634 L177 382 L481 382 L469 322 L165 322 L114 62 L487 62 L475 0 L35 0 Z M440 751 L454 822 L526 822 L512 751 L440 751 Z M261 751 L275 822 L347 822 L333 751 L261 751 Z " />
<glyph glyph-name="Igrave" unicode="&#xcc;" horiz-adv-x="222" d="M37 0 L173 696 L239 696 L104 0 L37 0 Z M218 734 L44 832 L82 882 L242 767 L218 734 Z " />
<glyph glyph-name="Iacute" unicode="&#xcd;" horiz-adv-x="222" d="M190 767 L353 882 L391 832 L213 734 L190 767 Z M37 0 L173 696 L239 696 L104 0 L37 0 Z " />
<glyph glyph-name="Icircumflex" unicode="&#xce;" horiz-adv-x="222" d="M37 0 L173 696 L239 696 L104 0 L37 0 Z M235 822 L74 735 L57 765 L222 885 L267 885 L378 766 L348 737 L235 822 Z " />
<glyph glyph-name="Idieresis" unicode="&#xcf;" horiz-adv-x="222" d="M37 0 L173 696 L239 696 L104 0 L37 0 Z M271 763 L286 833 L356 833 L343 763 L271 763 Z M95 763 L109 833 L179 833 L165 763 L95 763 Z " />
<glyph glyph-name="Eth" unicode="&#xd0;" horiz-adv-x="604" d="M22 341 Q24 354 26.5 366 Q29 378 32 391 L111 391 L171 696 L393 696 Q435 696 473 686 Q511 676 539.5 654 Q568 632 585 597 Q602 562 602 513 Q602 468 594 410.5 Q586 353 574 298 Q562 243 547.5 197.5 Q533 152 521 131 Q497 91 469 65.5 Q441 40 409.5 25.5 Q378 11 343.5 5.5 Q309 0 273 0 L36 0 L102 341 L22 341 Z M226 634 L178 391 L315 391 L304 341 L169 341 L114 62 L274 62 Q327 62 365.5 77 Q404 92 431 120 Q458 148 475 187.5 Q492 227 501 276 L525 403 Q534 448 534 486 Q534 558 497 596 Q460 634 376 634 L226 634 Z " />
<glyph glyph-name="Ntilde" unicode="&#xd1;" horiz-adv-x="655" d="M475 0 Q468 16 454 47.5 Q440 79 423 117.5 Q406 156 387 198.5 Q368 241 351 279.5 Q334 318 320 349 Q306 380 298 397 L217 586 L215 586 Q210 560 201 513.5 Q192 467 181 410.5 Q170 354 158.5 292.5 Q147 231 136 174.5 Q125 118 116.5 72 Q108 26 103 0 L36 0 L172 696 L238 696 Q245 680 258.5 649.5 Q272 619 288.5 581 Q305 543 323.5 502 Q342 461 358.5 423 Q375 385 388.5 354.5 Q402 324 410 308 L495 110 L497 110 Q502 136 511 182 Q520 228 531 284.5 Q542 341 554 402.5 Q566 464 577 520.5 Q588 577 596.5 623.5 Q605 670 610 696 L675 696 L540 0 L475 0 Z M378 838 Q396 838 413.5 831 Q431 824 448 816 Q465 808 481 801 Q497 794 512 794 Q527 794 541.5 803 Q556 812 575 835 L611 812 Q589 770 561.5 753.5 Q534 737 505 737 Q487 737 469.5 743.5 Q452 750 434.5 758 Q417 766 401 772.5 Q385 779 371 779 Q353 779 340 771 Q327 763 306 743 L272 766 Q296 804 323 821 Q350 838 378 838 Z " />
<glyph glyph-name="Ograve" unicode="&#xd2;" horiz-adv-x="573" d="M361 701 Q423 701 468.5 680 Q514 659 541 623.5 Q568 588 577 542 Q586 496 576 445 Q567 397 557 347 Q547 297 537 248 Q525 191 504 144 Q483 97 450.5 63.5 Q418 30 372.5 12 Q327 -6 265 -6 Q211 -6 170 9.5 Q129 25 101.5 52 Q74 79 60 115.5 Q46 152 46 194 Q46 219 50.5 250.5 Q55 282 61.5 316 Q68 350 76 384.5 Q84 419 91 450 Q101 500 121 545.5 Q141 591 173 625.5 Q205 660 251 680.5 Q297 701 361 701 Z M355 640 Q308 640 273.5 623.5 Q239 607 215 579.5 Q191 552 176 517 Q161 482 154 446 L116 250 Q109 212 113 177 Q117 142 135 114 Q153 86 187 69.5 Q221 53 273 53 Q316 53 349 68 Q382 83 406 109.5 Q430 136 446.5 172.5 Q463 209 472 252 Q478 279 484.5 308 Q491 337 497 366 Q503 395 507.5 422 Q512 449 514 473 Q519 507 509.5 537.5 Q500 568 479 591 Q458 614 426 627 Q394 640 355 640 Z M439 734 L265 832 L303 882 L463 767 L439 734 Z " />
<glyph glyph-name="Oacute" unicode="&#xd3;" horiz-adv-x="573" d="M361 701 Q423 701 468.5 680 Q514 659 541 623.5 Q568 588 577 542 Q586 496 576 445 Q567 397 557 347 Q547 297 537 248 Q525 191 504 144 Q483 97 450.5 63.5 Q418 30 372.5 12 Q327 -6 265 -6 Q211 -6 170 9.5 Q129 25 101.5 52 Q74 79 60 115.5 Q46 152 46 194 Q46 219 50.5 250.5 Q55 282 61.5 316 Q68 350 76 384.5 Q84 419 91 450 Q101 500 121 545.5 Q141 591 173 625.5 Q205 660 251 680.5 Q297 701 361 701 Z M355 640 Q308 640 273.5 623.5 Q239 607 215 579.5 Q191 552 176 517 Q161 482 154 446 L116 250 Q109 212 113 177 Q117 142 135 114 Q153 86 187 69.5 Q221 53 273 53 Q316 53 349 68 Q382 83 406 109.5 Q430 136 446.5 172.5 Q463 209 472 252 Q478 279 484.5 308 Q491 337 497 366 Q503 395 507.5 422 Q512 449 514 473 Q519 507 509.5 537.5 Q500 568 479 591 Q458 614 426 627 Q394 640 355 640 Z M345 766 Q386 795 426.5 823.5 Q467 852 508 881 Q518 868 527 855.5 Q536 843 546 831 L368 733 L345 766 Z " />
<glyph glyph-name="Ocircumflex" unicode="&#xd4;" horiz-adv-x="573" d="M361 701 Q423 701 468.5 680 Q514 659 541 623.5 Q568 588 577 542 Q586 496 576 445 Q567 397 557 347 Q547 297 537 248 Q525 191 504 144 Q483 97 450.5 63.5 Q418 30 372.5 12 Q327 -6 265 -6 Q211 -6 170 9.5 Q129 25 101.5 52 Q74 79 60 115.5 Q46 152 46 194 Q46 219 50.5 250.5 Q55 282 61.5 316 Q68 350 76 384.5 Q84 419 91 450 Q101 500 121 545.5 Q141 591 173 625.5 Q205 660 251 680.5 Q297 701 361 701 Z M355 640 Q308 640 273.5 623.5 Q239 607 215 579.5 Q191 552 176 517 Q161 482 154 446 L116 250 Q109 212 113 177 Q117 142 135 114 Q153 86 187 69.5 Q221 53 273 53 Q316 53 349 68 Q382 83 406 109.5 Q430 136 446.5 172.5 Q463 209 472 252 Q478 279 484.5 308 Q491 337 497 366 Q503 395 507.5 422 Q512 449 514 473 Q519 507 509.5 537.5 Q500 568 479 591 Q458 614 426 627 Q394 640 355 640 Z M412 822 L251 735 L234 765 L399 885 L444 885 L555 766 L525 737 L412 822 Z " />
<glyph glyph-name="Otilde" unicode="&#xd5;" horiz-adv-x="573" d="M361 701 Q423 701 468.5 680 Q514 659 541 623.5 Q568 588 577 542 Q586 496 576 445 Q567 397 557 347 Q547 297 537 248 Q525 191 504 144 Q483 97 450.5 63.5 Q418 30 372.5 12 Q327 -6 265 -6 Q211 -6 170 9.5 Q129 25 101.5 52 Q74 79 60 115.5 Q46 152 46 194 Q46 219 50.5 250.5 Q55 282 61.5 316 Q68 350 76 384.5 Q84 419 91 450 Q101 500 121 545.5 Q141 591 173 625.5 Q205 660 251 680.5 Q297 701 361 701 Z M355 640 Q308 640 273.5 623.5 Q239 607 215 579.5 Q191 552 176 517 Q161 482 154 446 L116 250 Q109 212 113 177 Q117 142 135 114 Q153 86 187 69.5 Q221 53 273 53 Q316 53 349 68 Q382 83 406 109.5 Q430 136 446.5 172.5 Q463 209 472 252 Q478 279 484.5 308 Q491 337 497 366 Q503 395 507.5 422 Q512 449 514 473 Q519 507 509.5 537.5 Q500 568 479 591 Q458 614 426 627 Q394 640 355 640 Z M349 845 Q367 845 384.5 838 Q402 831 419 823 Q436 815 452 808 Q468 801 483 801 Q498 801 512.5 810 Q527 819 546 842 L582 819 Q560 777 532.5 760.5 Q505 744 476 744 Q458 744 440.5 750.5 Q423 757 405.5 765 Q388 773 372 779.5 Q356 786 342 786 Q324 786 311 778 Q298 770 277 750 L243 773 Q267 811 294 828 Q321 845 349 845 Z " />
<glyph glyph-name="Odieresis" unicode="&#xd6;" horiz-adv-x="573" d="M361 701 Q423 701 468.5 680 Q514 659 541 623.5 Q568 588 577 542 Q586 496 576 445 Q567 397 557 347 Q547 297 537 248 Q525 191 504 144 Q483 97 450.5 63.5 Q418 30 372.5 12 Q327 -6 265 -6 Q211 -6 170 9.5 Q129 25 101.5 52 Q74 79 60 115.5 Q46 152 46 194 Q46 219 50.5 250.5 Q55 282 61.5 316 Q68 350 76 384.5 Q84 419 91 450 Q101 500 121 545.5 Q141 591 173 625.5 Q205 660 251 680.5 Q297 701 361 701 Z M355 640 Q308 640 273.5 623.5 Q239 607 215 579.5 Q191 552 176 517 Q161 482 154 446 L116 250 Q109 212 113 177 Q117 142 135 114 Q153 86 187 69.5 Q221 53 273 53 Q316 53 349 68 Q382 83 406 109.5 Q430 136 446.5 172.5 Q463 209 472 252 Q478 279 484.5 308 Q491 337 497 366 Q503 395 507.5 422 Q512 449 514 473 Q519 507 509.5 537.5 Q500 568 479 591 Q458 614 426 627 Q394 640 355 640 Z M451 751 L465 822 L537 822 L523 751 L451 751 Z M272 751 L286 822 L358 822 L344 751 L272 751 Z " />
<glyph glyph-name="multiply" unicode="&#xd7;" horiz-adv-x="541" d="M314 245 L445 78 L405 48 L274 215 L80 56 L50 95 L244 254 L118 416 L157 447 L284 285 L477 443 L507 403 L314 245 Z " />
<glyph glyph-name="Oslash" unicode="&#xd8;" horiz-adv-x="583" d="M372 701 Q426 701 465.5 685 Q505 669 531 641 L580 699 L610 676 L554 610 Q574 576 579.5 533.5 Q585 491 576 445 Q567 397 557 347 Q547 297 537 248 Q525 191 501 144 Q477 97 442 63.5 Q407 30 360 12 Q313 -6 255 -6 Q198 -6 156 13 Q114 32 88 64 L32 -2 L2 21 L67 97 Q46 140 46 194 Q46 219 50.5 250.5 Q55 282 61.5 316 Q68 350 76 384.5 Q84 419 91 450 Q101 500 122.5 545.5 Q144 591 178 625.5 Q212 660 260 680.5 Q308 701 372 701 Z M514 473 Q520 516 506 553 L133 116 Q150 87 182 70 Q214 53 263 53 Q303 53 337.5 68 Q372 83 398.5 109.5 Q425 136 444 172.5 Q463 209 472 252 Q478 279 484.5 308 Q491 337 497 366 Q503 395 507.5 422 Q512 449 514 473 Z M365 640 Q318 640 282 623.5 Q246 607 220 579.5 Q194 552 177.5 517 Q161 482 154 446 L116 250 Q111 225 111 201.5 Q111 178 117 156 L486 588 Q466 612 436 626 Q406 640 365 640 Z " />
<glyph glyph-name="Ugrave" unicode="&#xd9;" horiz-adv-x="600" d="M542 229 Q531 176 507.5 132.5 Q484 89 449 58.5 Q414 28 367.5 11 Q321 -6 266 -6 Q216 -6 175 11.5 Q134 29 107 61 Q80 93 69 138 Q58 183 69 239 L158 696 L224 696 L137 251 Q129 209 133.5 173.5 Q138 138 155.5 111.5 Q173 85 202 70.5 Q231 56 272 56 Q350 56 405 105.5 Q460 155 477 241 L566 696 L633 696 L542 229 Z M435 734 L261 832 L299 882 L459 767 L435 734 Z " />
<glyph glyph-name="Uacute" unicode="&#xda;" horiz-adv-x="600" d="M339 767 L502 882 L540 832 L362 734 L339 767 Z M542 229 Q531 176 507.5 132.5 Q484 89 449 58.5 Q414 28 367.5 11 Q321 -6 266 -6 Q216 -6 175 11.5 Q134 29 107 61 Q80 93 69 138 Q58 183 69 239 L158 696 L224 696 L137 251 Q129 209 133.5 173.5 Q138 138 155.5 111.5 Q173 85 202 70.5 Q231 56 272 56 Q350 56 405 105.5 Q460 155 477 241 L566 696 L633 696 L542 229 Z " />
<glyph glyph-name="Ucircumflex" unicode="&#xdb;" horiz-adv-x="600" d="M542 229 Q531 176 507.5 132.5 Q484 89 449 58.5 Q414 28 367.5 11 Q321 -6 266 -6 Q216 -6 175 11.5 Q134 29 107 61 Q80 93 69 138 Q58 183 69 239 L158 696 L224 696 L137 251 Q129 209 133.5 173.5 Q138 138 155.5 111.5 Q173 85 202 70.5 Q231 56 272 56 Q350 56 405 105.5 Q460 155 477 241 L566 696 L633 696 L542 229 Z M425 822 L264 735 L247 765 L412 885 L457 885 L568 766 L538 737 L425 822 Z " />
<glyph glyph-name="Udieresis" unicode="&#xdc;" horiz-adv-x="600" d="M542 229 Q531 176 507.5 132.5 Q484 89 449 58.5 Q414 28 367.5 11 Q321 -6 266 -6 Q216 -6 175 11.5 Q134 29 107 61 Q80 93 69 138 Q58 183 69 239 L158 696 L224 696 L137 251 Q129 209 133.5 173.5 Q138 138 155.5 111.5 Q173 85 202 70.5 Q231 56 272 56 Q350 56 405 105.5 Q460 155 477 241 L566 696 L633 696 L542 229 Z M451 751 L465 822 L537 822 L523 751 L451 751 Z M272 751 L286 822 L358 822 L344 751 L272 751 Z " />
<glyph glyph-name="Yacute" unicode="&#xdd;" horiz-adv-x="482" d="M231 0 L168 0 L224 287 Q193 390 162 491.5 Q131 593 99 696 L164 696 Q178 646 194 594 Q210 542 230 474 Q239 441 249 405 Q259 369 264 348 L360 491 Q364 497 375 513 Q386 529 400 549.5 Q414 570 430 593.5 Q446 617 460 637.5 Q474 658 484.5 674 Q495 690 499 696 L570 696 Q499 593 429 491.5 Q359 390 287 287 L231 0 Z M288 766 Q329 795 369.5 823.5 Q410 852 451 881 Q461 868 470 855.5 Q479 843 489 831 L311 733 L288 766 Z " />
<glyph glyph-name="Thorn" unicode="&#xde;" horiz-adv-x="564" d="M171 694 L239 694 L213 559 L396 559 Q433 559 466.5 549 Q500 539 525 518 Q550 497 564.5 466 Q579 435 579 393 Q579 354 563.5 311.5 Q548 269 517.5 233.5 Q487 198 440.5 175 Q394 152 331 152 L134 152 L105 0 L37 0 L171 694 Z M336 214 Q376 214 408 229.5 Q440 245 462 269.5 Q484 294 495.5 324 Q507 354 507 382 Q507 436 474.5 466.5 Q442 497 387 497 L202 497 L147 214 L336 214 Z " />
<glyph glyph-name="germandbls" unicode="&#xdf;" horiz-adv-x="503" d="M341 722 Q380 722 409 709.5 Q438 697 456.5 676.5 Q475 656 484 629 Q493 602 493 573 Q493 552 487 528 Q481 504 468 481.5 Q455 459 435 440.5 Q415 422 387 412 Q429 397 446 362 Q463 327 463 282 Q463 226 447 174 Q431 122 401 82.5 Q371 43 328.5 19.5 Q286 -4 233 -4 Q222 -4 212.5 -2.5 Q203 -1 193 1 L202 58 Q213 54 231 54 Q273 54 304.5 77 Q336 100 357.5 135 Q379 170 390 210 Q401 250 401 285 Q401 329 379 356 Q357 383 309 383 L282 383 L293 437 Q327 437 352.5 448.5 Q378 460 395.5 478.5 Q413 497 421.5 520.5 Q430 544 430 567 Q430 586 424.5 604 Q419 622 407 636 Q395 650 376.5 658.5 Q358 667 332 667 Q300 667 277 656 Q254 645 237.5 627.5 Q221 610 211 589 Q201 568 196 549 Q191 524 182.5 481.5 Q174 439 164 387 Q154 335 143 278.5 Q132 222 121.5 169 Q111 116 102.5 71.5 Q94 27 89 0 L26 0 L129 532 Q145 618 198 670 Q251 722 341 722 Z " />
<glyph glyph-name="agrave" unicode="&#xe0;" horiz-adv-x="493" d="M286 501 Q305 501 324.5 496.5 Q344 492 361 482.5 Q378 473 391.5 459 Q405 445 411 426 L414 427 L429 495 L489 495 L392 0 L330 0 L344 65 L341 67 Q311 30 276.5 12 Q242 -6 194 -6 Q155 -6 127.5 7 Q100 20 82.5 43.5 Q65 67 57 98.5 Q49 130 49 166 Q49 201 55 239.5 Q61 278 73 315 Q85 352 104.5 386 Q124 420 150 445.5 Q176 471 210 486 Q244 501 286 501 Z M111 168 Q111 147 116 126.5 Q121 106 133 90 Q145 74 164 64 Q183 54 212 54 Q259 54 292.5 82 Q326 110 348 151.5 Q370 193 380 240 Q390 287 390 325 Q390 376 366 410.5 Q342 445 289 445 Q236 445 202 414.5 Q168 384 147.5 340.5 Q127 297 119 249.5 Q111 202 111 168 Z M331 559 L236 722 L290 741 L369 573 L331 559 Z " />
<glyph glyph-name="aacute" unicode="&#xe1;" horiz-adv-x="493" d="M286 501 Q305 501 324.5 496.5 Q344 492 361 482.5 Q378 473 391.5 459 Q405 445 411 426 L414 427 L429 495 L489 495 L392 0 L330 0 L344 65 L341 67 Q311 30 276.5 12 Q242 -6 194 -6 Q155 -6 127.5 7 Q100 20 82.5 43.5 Q65 67 57 98.5 Q49 130 49 166 Q49 201 55 239.5 Q61 278 73 315 Q85 352 104.5 386 Q124 420 150 445.5 Q176 471 210 486 Q244 501 286 501 Z M111 168 Q111 147 116 126.5 Q121 106 133 90 Q145 74 164 64 Q183 54 212 54 Q259 54 292.5 82 Q326 110 348 151.5 Q370 193 380 240 Q390 287 390 325 Q390 376 366 410.5 Q342 445 289 445 Q236 445 202 414.5 Q168 384 147.5 340.5 Q127 297 119 249.5 Q111 202 111 168 Z M277 573 L375 739 L436 717 L314 557 L277 573 Z " />
<glyph glyph-name="acircumflex" unicode="&#xe2;" horiz-adv-x="493" d="M286 501 Q305 501 324.5 496.5 Q344 492 361 482.5 Q378 473 391.5 459 Q405 445 411 426 L414 427 L429 495 L489 495 L392 0 L330 0 L344 65 L341 67 Q311 30 276.5 12 Q242 -6 194 -6 Q155 -6 127.5 7 Q100 20 82.5 43.5 Q65 67 57 98.5 Q49 130 49 166 Q49 201 55 239.5 Q61 278 73 315 Q85 352 104.5 386 Q124 420 150 445.5 Q176 471 210 486 Q244 501 286 501 Z M111 168 Q111 147 116 126.5 Q121 106 133 90 Q145 74 164 64 Q183 54 212 54 Q259 54 292.5 82 Q326 110 348 151.5 Q370 193 380 240 Q390 287 390 325 Q390 376 366 410.5 Q342 445 289 445 Q236 445 202 414.5 Q168 384 147.5 340.5 Q127 297 119 249.5 Q111 202 111 168 Z M351 665 L194 560 L169 590 L337 729 L383 729 L491 592 L454 561 L351 665 Z " />
<glyph glyph-name="atilde" unicode="&#xe3;" horiz-adv-x="493" d="M286 501 Q305 501 324.5 496.5 Q344 492 361 482.5 Q378 473 391.5 459 Q405 445 411 426 L414 427 L429 495 L489 495 L392 0 L330 0 L344 65 L341 67 Q311 30 276.5 12 Q242 -6 194 -6 Q155 -6 127.5 7 Q100 20 82.5 43.5 Q65 67 57 98.5 Q49 130 49 166 Q49 201 55 239.5 Q61 278 73 315 Q85 352 104.5 386 Q124 420 150 445.5 Q176 471 210 486 Q244 501 286 501 Z M111 168 Q111 147 116 126.5 Q121 106 133 90 Q145 74 164 64 Q183 54 212 54 Q259 54 292.5 82 Q326 110 348 151.5 Q370 193 380 240 Q390 287 390 325 Q390 376 366 410.5 Q342 445 289 445 Q236 445 202 414.5 Q168 384 147.5 340.5 Q127 297 119 249.5 Q111 202 111 168 Z M278 689 Q296 689 313.5 682 Q331 675 348 667 Q365 659 381 652 Q397 645 412 645 Q427 645 441.5 654 Q456 663 475 686 L511 663 Q489 621 461.5 604.5 Q434 588 405 588 Q387 588 369.5 594.5 Q352 601 334.5 609 Q317 617 301 623.5 Q285 630 271 630 Q253 630 240 622 Q227 614 206 594 L172 617 Q196 655 223 672 Q250 689 278 689 Z " />
<glyph glyph-name="adieresis" unicode="&#xe4;" horiz-adv-x="493" d="M286 501 Q305 501 324.5 496.5 Q344 492 361 482.5 Q378 473 391.5 459 Q405 445 411 426 L414 427 L429 495 L489 495 L392 0 L330 0 L344 65 L341 67 Q311 30 276.5 12 Q242 -6 194 -6 Q155 -6 127.5 7 Q100 20 82.5 43.5 Q65 67 57 98.5 Q49 130 49 166 Q49 201 55 239.5 Q61 278 73 315 Q85 352 104.5 386 Q124 420 150 445.5 Q176 471 210 486 Q244 501 286 501 Z M111 168 Q111 147 116 126.5 Q121 106 133 90 Q145 74 164 64 Q183 54 212 54 Q259 54 292.5 82 Q326 110 348 151.5 Q370 193 380 240 Q390 287 390 325 Q390 376 366 410.5 Q342 445 289 445 Q236 445 202 414.5 Q168 384 147.5 340.5 Q127 297 119 249.5 Q111 202 111 168 Z M382 602 L395 674 L466 674 L452 602 L382 602 Z M199 602 L213 674 L283 674 L269 602 L199 602 Z " />
<glyph glyph-name="aring" unicode="&#xe5;" horiz-adv-x="493" d="M286 501 Q305 501 324.5 496.5 Q344 492 361 482.5 Q378 473 391.5 459 Q405 445 411 426 L414 427 L429 495 L489 495 L392 0 L330 0 L344 65 L341 67 Q311 30 276.5 12 Q242 -6 194 -6 Q155 -6 127.5 7 Q100 20 82.5 43.5 Q65 67 57 98.5 Q49 130 49 166 Q49 201 55 239.5 Q61 278 73 315 Q85 352 104.5 386 Q124 420 150 445.5 Q176 471 210 486 Q244 501 286 501 Z M111 168 Q111 147 116 126.5 Q121 106 133 90 Q145 74 164 64 Q183 54 212 54 Q259 54 292.5 82 Q326 110 348 151.5 Q370 193 380 240 Q390 287 390 325 Q390 376 366 410.5 Q342 445 289 445 Q236 445 202 414.5 Q168 384 147.5 340.5 Q127 297 119 249.5 Q111 202 111 168 Z M322 549 Q287 549 265 571 Q243 593 243 625 Q243 648 252 668.5 Q261 689 276 704.5 Q291 720 312 729 Q333 738 357 738 Q392 738 414.5 715.5 Q437 693 437 660 Q437 635 427 614.5 Q417 594 401 579.5 Q385 565 364 557 Q343 549 322 549 Z M350 702 Q322 702 301 681 Q280 660 280 632 Q280 612 293 598.5 Q306 585 328 585 Q341 585 354 590.5 Q367 596 377 606 Q387 616 393 628.5 Q399 641 399 655 Q399 675 385.5 688.5 Q372 702 350 702 Z " />
<glyph glyph-name="ae" unicode="&#xe6;" horiz-adv-x="804" d="M711 49 Q675 23 628.5 8.5 Q582 -6 537 -6 Q472 -6 434.5 19.5 Q397 45 383 94 Q351 46 299 20 Q247 -6 171 -6 Q140 -6 114 3.5 Q88 13 68.5 29.5 Q49 46 38 69 Q27 92 27 120 Q27 158 41 188 Q55 218 79.5 239 Q104 260 138.5 271 Q173 282 214 282 Q240 282 260 281 Q280 280 299 278 Q318 276 337 273.5 Q356 271 381 268 Q387 298 392 321.5 Q397 345 397 366 Q397 404 373 423 Q349 442 291 442 Q244 442 210 430.5 Q176 419 150 398 L115 441 Q154 473 202 487 Q250 501 295 501 Q323 501 349 497.5 Q375 494 396 485 Q417 476 432.5 461.5 Q448 447 456 425 Q485 459 524.5 480 Q564 501 617 501 Q698 501 741.5 465.5 Q785 430 785 370 Q785 338 772 309 Q759 280 728.5 257.5 Q698 235 648.5 221 Q599 207 526 206 Q505 206 483 206.5 Q461 207 436 208 Q434 195 433.5 186 Q433 177 433 170 Q433 101 461.5 76 Q490 51 545 51 Q574 51 611 61.5 Q648 72 682 95 L711 49 Z M87 133 Q87 95 110.5 72.5 Q134 50 193 50 Q221 50 249 58 Q277 66 299.5 80.5 Q322 95 338 115.5 Q354 136 359 161 L370 217 Q348 220 330 222.5 Q312 225 295 227 Q278 229 260.5 230 Q243 231 222 231 Q166 231 129 205 Q92 179 87 133 Z M614 443 Q573 443 544 427 Q515 411 495 385.5 Q475 360 463.5 328 Q452 296 446 263 Q489 260 526 260 Q584 261 622 270 Q660 279 682.5 293.5 Q705 308 714 326 Q723 344 723 362 Q723 400 695 421.5 Q667 443 614 443 Z " />
<glyph glyph-name="ccedilla" unicode="&#xe7;" horiz-adv-x="414" d="M223 -117 Q223 -93 200.5 -83 Q178 -73 154 -74 L141 -62 L169 -3 Q98 7 64.5 57 Q31 107 31 185 Q31 245 47.5 302 Q64 359 97 403 Q130 447 179.5 474 Q229 501 295 501 Q337 501 376.5 485.5 Q416 470 443 439 L393 393 Q373 414 346 427.5 Q319 441 290 441 Q239 441 202 419 Q165 397 141 361.5 Q117 326 105.5 281.5 Q94 237 94 192 Q94 127 124 90.5 Q154 54 222 54 Q251 54 283 69.5 Q315 85 338 101 L371 56 Q336 27 294 10.5 Q252 -6 206 -6 Q196 -25 189 -41 Q213 -43 229.5 -50 Q246 -57 256 -67 Q266 -77 270.5 -89 Q275 -101 275 -112 Q275 -127 268 -143 Q261 -159 246.5 -171.5 Q232 -184 210.5 -192.5 Q189 -201 159 -201 Q146 -201 121 -199 Q96 -197 73 -187 L89 -150 Q108 -158 127.5 -160.5 Q147 -163 161 -163 Q170 -163 180.5 -160.5 Q191 -158 200.5 -153 Q210 -148 216.5 -139 Q223 -130 223 -117 Z " />
<glyph glyph-name="egrave" unicode="&#xe8;" horiz-adv-x="462" d="M285 501 Q366 501 410 465 Q454 429 454 369 Q454 337 441 307.5 Q428 278 395 255.5 Q362 233 306 219.5 Q250 206 163 206 Q152 206 135 206.5 Q118 207 104 208 Q101 182 101 171 Q101 106 130 78.5 Q159 51 213 51 Q228 51 246 54.5 Q264 58 282 64 Q300 70 317.5 78 Q335 86 348 95 L379 50 Q343 24 296.5 9 Q250 -6 205 -6 Q120 -6 80.5 39 Q41 84 41 171 Q41 228 54.5 286.5 Q68 345 97.5 393 Q127 441 173.5 471 Q220 501 285 501 Z M282 444 Q241 444 212 428 Q183 412 163 386.5 Q143 361 131.5 329 Q120 297 114 264 Q131 262 148 262 Q165 262 177 262 Q247 262 289 272.5 Q331 283 353.5 298 Q376 313 383 330.5 Q390 348 390 362 Q390 400 362 422 Q334 444 282 444 Z M307 559 L212 722 L266 741 L345 573 L307 559 Z " />
<glyph glyph-name="eacute" unicode="&#xe9;" horiz-adv-x="462" d="M285 501 Q366 501 410 465 Q454 429 454 369 Q454 337 441 307.5 Q428 278 395 255.5 Q362 233 306 219.5 Q250 206 163 206 Q152 206 135 206.5 Q118 207 104 208 Q101 182 101 171 Q101 106 130 78.5 Q159 51 213 51 Q228 51 246 54.5 Q264 58 282 64 Q300 70 317.5 78 Q335 86 348 95 L379 50 Q343 24 296.5 9 Q250 -6 205 -6 Q120 -6 80.5 39 Q41 84 41 171 Q41 228 54.5 286.5 Q68 345 97.5 393 Q127 441 173.5 471 Q220 501 285 501 Z M282 444 Q241 444 212 428 Q183 412 163 386.5 Q143 361 131.5 329 Q120 297 114 264 Q131 262 148 262 Q165 262 177 262 Q247 262 289 272.5 Q331 283 353.5 298 Q376 313 383 330.5 Q390 348 390 362 Q390 400 362 422 Q334 444 282 444 Z M267 573 L365 739 L426 717 L304 557 L267 573 Z " />
<glyph glyph-name="ecircumflex" unicode="&#xea;" horiz-adv-x="462" d="M285 501 Q366 501 410 465 Q454 429 454 369 Q454 337 441 307.5 Q428 278 395 255.5 Q362 233 306 219.5 Q250 206 163 206 Q152 206 135 206.5 Q118 207 104 208 Q101 182 101 171 Q101 106 130 78.5 Q159 51 213 51 Q228 51 246 54.5 Q264 58 282 64 Q300 70 317.5 78 Q335 86 348 95 L379 50 Q343 24 296.5 9 Q250 -6 205 -6 Q120 -6 80.5 39 Q41 84 41 171 Q41 228 54.5 286.5 Q68 345 97.5 393 Q127 441 173.5 471 Q220 501 285 501 Z M282 444 Q241 444 212 428 Q183 412 163 386.5 Q143 361 131.5 329 Q120 297 114 264 Q131 262 148 262 Q165 262 177 262 Q247 262 289 272.5 Q331 283 353.5 298 Q376 313 383 330.5 Q390 348 390 362 Q390 400 362 422 Q334 444 282 444 Z M329 665 L172 560 L147 590 L315 729 L361 729 L469 592 L432 561 L329 665 Z " />
<glyph glyph-name="edieresis" unicode="&#xeb;" horiz-adv-x="462" d="M285 501 Q366 501 410 465 Q454 429 454 369 Q454 337 441 307.5 Q428 278 395 255.5 Q362 233 306 219.5 Q250 206 163 206 Q152 206 135 206.5 Q118 207 104 208 Q101 182 101 171 Q101 106 130 78.5 Q159 51 213 51 Q228 51 246 54.5 Q264 58 282 64 Q300 70 317.5 78 Q335 86 348 95 L379 50 Q343 24 296.5 9 Q250 -6 205 -6 Q120 -6 80.5 39 Q41 84 41 171 Q41 228 54.5 286.5 Q68 345 97.5 393 Q127 441 173.5 471 Q220 501 285 501 Z M282 444 Q241 444 212 428 Q183 412 163 386.5 Q143 361 131.5 329 Q120 297 114 264 Q131 262 148 262 Q165 262 177 262 Q247 262 289 272.5 Q331 283 353.5 298 Q376 313 383 330.5 Q390 348 390 362 Q390 400 362 422 Q334 444 282 444 Z M371 602 L384 674 L455 674 L441 602 L371 602 Z M188 602 L202 674 L272 674 L258 602 L188 602 Z " />
<glyph glyph-name="igrave" unicode="&#xec;" horiz-adv-x="208" d="M53 0 L149 495 L211 495 L115 0 L53 0 Z M171 559 L76 722 L130 741 L209 573 L171 559 Z " />
<glyph glyph-name="iacute" unicode="&#xed;" horiz-adv-x="208" d="M33 0 L129 495 L191 495 L95 0 L33 0 Z M146 573 L244 739 L305 717 L183 557 L146 573 Z " />
<glyph glyph-name="icircumflex" unicode="&#xee;" horiz-adv-x="244" d="M53 0 L149 495 L211 495 L115 0 L53 0 Z M217 665 L60 560 L35 590 L203 729 L249 729 L357 592 L320 561 L217 665 Z " />
<glyph glyph-name="idieresis" unicode="&#xef;" horiz-adv-x="208" d="M33 0 L129 495 L191 495 L95 0 L33 0 Z M234 602 L247 674 L318 674 L304 602 L234 602 Z M51 602 L65 674 L135 674 L121 602 L51 602 Z " />
<glyph glyph-name="eth" unicode="&#xf0;" horiz-adv-x="493" d="M270 476 Q294 476 317.5 468.5 Q341 461 360.5 447.5 Q380 434 393.5 414.5 Q407 395 412 372 L416 372 Q418 387 419 401 Q420 415 420 430 Q420 470 413.5 506 Q407 542 393 573 L325 529 Q320 537 316 543 Q312 549 307 556 L377 600 Q356 632 323 651.5 Q290 671 242 675 Q250 701 259 726 Q321 720 363.5 696 Q406 672 432 634 L520 690 L537 663 L448 607 Q465 574 472.5 534.5 Q480 495 480 453 Q480 413 476.5 363.5 Q473 314 462.5 263 Q452 212 433.5 163.5 Q415 115 385 77.5 Q355 40 311.5 17 Q268 -6 208 -6 Q127 -6 81 35.5 Q35 77 33 152 Q33 222 48 281.5 Q63 341 92.5 384 Q122 427 166.5 451.5 Q211 476 270 476 Z M268 420 Q218 420 184.5 395.5 Q151 371 131 333.5 Q111 296 102 251.5 Q93 207 93 166 Q93 114 122 81.5 Q151 49 211 49 Q254 49 286.5 68.5 Q319 88 340.5 122.5 Q362 157 373 204 Q384 251 384 305 Q384 359 351 389.5 Q318 420 268 420 Z " />
<glyph glyph-name="ntilde" unicode="&#xf1;" horiz-adv-x="506" d="M339 0 L399 307 Q405 336 404.5 360.5 Q404 385 393.5 402.5 Q383 420 361 430 Q339 440 301 440 Q274 440 248 430 Q222 420 200.5 401.5 Q179 383 164 357 Q149 331 143 300 L85 0 L24 0 L120 495 L181 495 L168 426 L170 426 Q202 466 245.5 483.5 Q289 501 330 501 Q364 501 392.5 489.5 Q421 478 440 456.5 Q459 435 466.5 403 Q474 371 466 331 L402 0 L339 0 Z M268 689 Q286 689 303.5 682 Q321 675 338 667 Q355 659 371 652 Q387 645 402 645 Q417 645 431.5 654 Q446 663 465 686 L501 663 Q479 621 451.5 604.5 Q424 588 395 588 Q377 588 359.5 594.5 Q342 601 324.5 609 Q307 617 291 623.5 Q275 630 261 630 Q243 630 230 622 Q217 614 196 594 L162 617 Q186 655 213 672 Q240 689 268 689 Z " />
<glyph glyph-name="ograve" unicode="&#xf2;" horiz-adv-x="489" d="M303 559 L208 722 L262 741 L341 573 L303 559 Z M287 501 Q326 501 357.5 488.5 Q389 476 411.5 453.5 Q434 431 446.5 399.5 Q459 368 459 329 Q459 270 447 210 Q435 150 407 102 Q379 54 333 24 Q287 -6 220 -6 Q134 -6 87.5 37 Q41 80 41 161 Q41 228 55.5 289.5 Q70 351 100 398 Q130 445 176.5 473 Q223 501 287 501 Z M278 445 Q228 445 194 417 Q160 389 140 347.5 Q120 306 111.5 257.5 Q103 209 103 168 Q103 151 107.5 130.5 Q112 110 124.5 92 Q137 74 159.5 62 Q182 50 217 50 Q266 50 300 74.5 Q334 99 355 138 Q376 177 385.5 225.5 Q395 274 395 323 Q395 386 361 415.5 Q327 445 278 445 Z " />
<glyph glyph-name="oacute" unicode="&#xf3;" horiz-adv-x="489" d="M286 573 L384 739 L445 717 L323 557 L286 573 Z M287 501 Q326 501 357.5 488.5 Q389 476 411.5 453.5 Q434 431 446.5 399.5 Q459 368 459 329 Q459 270 447 210 Q435 150 407 102 Q379 54 333 24 Q287 -6 220 -6 Q134 -6 87.5 37 Q41 80 41 161 Q41 228 55.5 289.5 Q70 351 100 398 Q130 445 176.5 473 Q223 501 287 501 Z M278 445 Q228 445 194 417 Q160 389 140 347.5 Q120 306 111.5 257.5 Q103 209 103 168 Q103 151 107.5 130.5 Q112 110 124.5 92 Q137 74 159.5 62 Q182 50 217 50 Q266 50 300 74.5 Q334 99 355 138 Q376 177 385.5 225.5 Q395 274 395 323 Q395 386 361 415.5 Q327 445 278 445 Z " />
<glyph glyph-name="ocircumflex" unicode="&#xf4;" horiz-adv-x="489" d="M348 665 L191 560 L166 590 L334 729 L380 729 L488 592 L451 561 L348 665 Z M287 501 Q326 501 357.5 488.5 Q389 476 411.5 453.5 Q434 431 446.5 399.5 Q459 368 459 329 Q459 270 447 210 Q435 150 407 102 Q379 54 333 24 Q287 -6 220 -6 Q134 -6 87.5 37 Q41 80 41 161 Q41 228 55.5 289.5 Q70 351 100 398 Q130 445 176.5 473 Q223 501 287 501 Z M278 445 Q228 445 194 417 Q160 389 140 347.5 Q120 306 111.5 257.5 Q103 209 103 168 Q103 151 107.5 130.5 Q112 110 124.5 92 Q137 74 159.5 62 Q182 50 217 50 Q266 50 300 74.5 Q334 99 355 138 Q376 177 385.5 225.5 Q395 274 395 323 Q395 386 361 415.5 Q327 445 278 445 Z " />
<glyph glyph-name="otilde" unicode="&#xf5;" horiz-adv-x="489" d="M268 689 Q286 689 303.5 682 Q321 675 338 667 Q355 659 371 652 Q387 645 402 645 Q417 645 431.5 654 Q446 663 465 686 L501 663 Q479 621 451.5 604.5 Q424 588 395 588 Q377 588 359.5 594.5 Q342 601 324.5 609 Q307 617 291 623.5 Q275 630 261 630 Q243 630 230 622 Q217 614 196 594 L162 617 Q186 655 213 672 Q240 689 268 689 Z M287 501 Q326 501 357.5 488.5 Q389 476 411.5 453.5 Q434 431 446.5 399.5 Q459 368 459 329 Q459 270 447 210 Q435 150 407 102 Q379 54 333 24 Q287 -6 220 -6 Q134 -6 87.5 37 Q41 80 41 161 Q41 228 55.5 289.5 Q70 351 100 398 Q130 445 176.5 473 Q223 501 287 501 Z M278 445 Q228 445 194 417 Q160 389 140 347.5 Q120 306 111.5 257.5 Q103 209 103 168 Q103 151 107.5 130.5 Q112 110 124.5 92 Q137 74 159.5 62 Q182 50 217 50 Q266 50 300 74.5 Q334 99 355 138 Q376 177 385.5 225.5 Q395 274 395 323 Q395 386 361 415.5 Q327 445 278 445 Z " />
<glyph glyph-name="odieresis" unicode="&#xf6;" horiz-adv-x="489" d="M364 602 L377 674 L448 674 L434 602 L364 602 Z M181 602 L195 674 L265 674 L251 602 L181 602 Z M287 501 Q326 501 357.5 488.5 Q389 476 411.5 453.5 Q434 431 446.5 399.5 Q459 368 459 329 Q459 270 447 210 Q435 150 407 102 Q379 54 333 24 Q287 -6 220 -6 Q134 -6 87.5 37 Q41 80 41 161 Q41 228 55.5 289.5 Q70 351 100 398 Q130 445 176.5 473 Q223 501 287 501 Z M278 445 Q228 445 194 417 Q160 389 140 347.5 Q120 306 111.5 257.5 Q103 209 103 168 Q103 151 107.5 130.5 Q112 110 124.5 92 Q137 74 159.5 62 Q182 50 217 50 Q266 50 300 74.5 Q334 99 355 138 Q376 177 385.5 225.5 Q395 274 395 323 Q395 386 361 415.5 Q327 445 278 445 Z " />
<glyph glyph-name="divide" unicode="&#xf7;" horiz-adv-x="484" d="M304 508 Q321 508 331.5 497.5 Q342 487 342 470 Q342 447 324.5 430 Q307 413 285 413 Q267 413 256 424 Q245 435 245 452 Q245 475 263.5 491.5 Q282 508 304 508 Z M37 262 L47 312 L481 312 L470 262 L37 262 Z M236 160 Q253 160 264 150 Q275 140 275 123 Q275 99 257.5 82 Q240 65 218 65 Q200 65 189 76 Q178 87 178 104 Q178 127 196 143.5 Q214 160 236 160 Z " />
<glyph glyph-name="oslash" unicode="&#xf8;" horiz-adv-x="502" d="M287 501 Q327 501 359.5 488 Q392 475 415 451 L474 516 L500 494 L436 423 Q459 383 459 329 Q459 270 447 210 Q435 150 407 102 Q379 54 333 24 Q287 -6 220 -6 Q133 -6 87 38 L36 -18 L10 5 L65 65 Q41 104 41 161 Q41 228 55.5 289.5 Q70 351 100 398 Q130 445 176.5 473 Q223 501 287 501 Z M278 445 Q228 445 194 417 Q160 389 140 347.5 Q120 306 111.5 257.5 Q103 209 103 168 Q103 156 104.5 143 Q106 130 111 117 L371 403 Q355 424 331 434.5 Q307 445 278 445 Z M395 323 Q395 350 388 370 L130 85 Q143 70 164 60 Q185 50 217 50 Q266 50 300 74.5 Q334 99 355 138 Q376 177 385.5 225.5 Q395 274 395 323 Z " />
<glyph glyph-name="ugrave" unicode="&#xf9;" horiz-adv-x="515" d="M318 559 L223 722 L278 741 L355 573 L318 559 Z M343 0 L357 68 L354 68 Q322 28 280 11 Q238 -6 198 -6 Q122 -6 83.5 42 Q45 90 62 180 L123 495 L184 495 L125 189 Q113 125 136 89.5 Q159 54 227 54 Q254 54 279 64 Q304 74 325 93 Q346 112 361 138 Q376 164 382 196 L440 495 L502 495 L406 0 L343 0 Z " />
<glyph glyph-name="uacute" unicode="&#xfa;" horiz-adv-x="515" d="M343 0 L357 68 L354 68 Q322 28 280 11 Q238 -6 198 -6 Q122 -6 83.5 42 Q45 90 62 180 L123 495 L184 495 L125 189 Q113 125 136 89.5 Q159 54 227 54 Q254 54 279 64 Q304 74 325 93 Q346 112 361 138 Q376 164 382 196 L440 495 L502 495 L406 0 L343 0 Z M281 573 L379 739 L440 717 L318 557 L281 573 Z " />
<glyph glyph-name="ucircumflex" unicode="&#xfb;" horiz-adv-x="515" d="M343 0 L357 68 L354 68 Q322 28 280 11 Q238 -6 198 -6 Q122 -6 83.5 42 Q45 90 62 180 L123 495 L184 495 L125 189 Q113 125 136 89.5 Q159 54 227 54 Q254 54 279 64 Q304 74 325 93 Q346 112 361 138 Q376 164 382 196 L440 495 L502 495 L406 0 L343 0 Z M347 665 L190 560 L165 590 L333 729 L379 729 L487 592 L450 561 L347 665 Z " />
<glyph glyph-name="udieresis" unicode="&#xfc;" horiz-adv-x="515" d="M343 0 L357 68 L354 68 Q322 28 280 11 Q238 -6 198 -6 Q122 -6 83.5 42 Q45 90 62 180 L123 495 L184 495 L125 189 Q113 125 136 89.5 Q159 54 227 54 Q254 54 279 64 Q304 74 325 93 Q346 112 361 138 Q376 164 382 196 L440 495 L502 495 L406 0 L343 0 Z M383 602 L396 674 L467 674 L453 602 L383 602 Z M200 602 L214 674 L284 674 L270 602 L200 602 Z " />
<glyph glyph-name="yacute" unicode="&#xfd;" horiz-adv-x="409" d="M453 495 Q396 340 338 213.5 Q280 87 220 -10 Q198 -45 171 -77.5 Q144 -110 111 -135.5 Q78 -161 37.5 -177.5 Q-3 -194 -52 -197 L-54 -142 Q-2 -136 46.5 -109 Q95 -82 137 -23 L55 495 L121 495 L155 257 Q162 207 169.5 149 Q177 91 179 34 L182 34 Q248 146 298.5 265 Q349 384 388 495 L453 495 Z M225 573 L323 739 L384 717 L262 557 L225 573 Z " />
<glyph glyph-name="thorn" unicode="&#xfe;" horiz-adv-x="497" d="M220 696 L167 426 Q168 426 168.5 425.5 Q169 425 170 425 Q205 467 244.5 484 Q284 501 326 501 Q365 501 391.5 488 Q418 475 433.5 452.5 Q449 430 456 399.5 Q463 369 463 335 Q463 282 450.5 222.5 Q438 163 410 112.5 Q382 62 336.5 28.5 Q291 -5 225 -5 Q177 -5 148 15.5 Q119 36 100 71 Q99 71 99 70.5 Q99 70 98 70 L46 -200 L-15 -200 Q28 25 71 247.5 Q114 470 158 696 L220 696 Z M301 440 Q268 440 242 426.5 Q216 413 196.5 390.5 Q177 368 163.5 340 Q150 312 141.5 283.5 Q133 255 129.5 227.5 Q126 200 126 180 Q126 154 131 131.5 Q136 109 147 92 Q158 75 177 65.5 Q196 56 223 56 Q275 56 308.5 84.5 Q342 113 362 154 Q382 195 390 241.5 Q398 288 398 324 Q398 348 393 369.5 Q388 391 377 406.5 Q366 422 347 431 Q328 440 301 440 Z " />
<glyph glyph-name="ydieresis" unicode="&#xff;" horiz-adv-x="409" d="M453 495 Q396 340 338 213.5 Q280 87 220 -10 Q198 -45 171 -77.5 Q144 -110 111 -135.5 Q78 -161 37.5 -177.5 Q-3 -194 -52 -197 L-54 -142 Q-2 -136 46.5 -109 Q95 -82 137 -23 L55 495 L121 495 L155 257 Q162 207 169.5 149 Q177 91 179 34 L182 34 Q248 146 298.5 265 Q349 384 388 495 L453 495 Z M311 602 L324 674 L395 674 L381 602 L311 602 Z M128 602 L142 674 L212 674 L198 602 L128 602 Z " />
<glyph glyph-name="numbersign" unicode="&#x23;" horiz-adv-x="489" d="M26 264 L126 264 L182 434 L87 434 L96 479 L197 479 L268 694 L315 694 L243 479 L372 479 L443 694 L490 694 L419 479 L519 479 L511 434 L405 434 L349 264 L449 264 L440 220 L333 220 L263 0 L215 0 L286 220 L158 220 L86 0 L38 0 L110 220 L16 220 L26 264 Z M173 264 L302 264 L357 434 L229 434 L173 264 Z " />
<glyph glyph-name="Amacron" unicode="&#x100;" horiz-adv-x="580" d="M459 0 Q453 42 447 82.5 Q441 123 434 165 L129 165 L40 0 L-31 0 Q65 175 160.5 348 Q256 521 353 696 L415 696 L529 0 L459 0 Z M368 616 Q363 606 347.5 576.5 Q332 547 310.5 507 Q289 467 265 422 Q241 377 219.5 336.5 Q198 296 181.5 265 Q165 234 159 223 L427 223 Q424 244 419.5 276 Q415 308 409.5 345 Q404 382 398.5 422 Q393 462 387.5 498.5 Q382 535 377.5 565.5 Q373 596 370 616 L368 616 Z M266 768 L278 825 L539 825 L528 768 L266 768 Z " />
<glyph glyph-name="amacron" unicode="&#x101;" horiz-adv-x="493" d="M286 501 Q305 501 324.5 496.5 Q344 492 361 482.5 Q378 473 391.5 459 Q405 445 411 426 L414 427 L429 495 L489 495 L392 0 L330 0 L344 65 L341 67 Q311 30 276.5 12 Q242 -6 194 -6 Q155 -6 127.5 7 Q100 20 82.5 43.5 Q65 67 57 98.5 Q49 130 49 166 Q49 201 55 239.5 Q61 278 73 315 Q85 352 104.5 386 Q124 420 150 445.5 Q176 471 210 486 Q244 501 286 501 Z M111 168 Q111 147 116 126.5 Q121 106 133 90 Q145 74 164 64 Q183 54 212 54 Q259 54 292.5 82 Q326 110 348 151.5 Q370 193 380 240 Q390 287 390 325 Q390 376 366 410.5 Q342 445 289 445 Q236 445 202 414.5 Q168 384 147.5 340.5 Q127 297 119 249.5 Q111 202 111 168 Z M193 603 L204 662 L466 662 L454 603 L193 603 Z " />
<glyph glyph-name="Abreve" unicode="&#x102;" horiz-adv-x="580" d="M459 0 Q453 42 447 82.5 Q441 123 434 165 L129 165 L40 0 L-31 0 Q65 175 160.5 348 Q256 521 353 696 L415 696 L529 0 L459 0 Z M368 616 Q363 606 347.5 576.5 Q332 547 310.5 507 Q289 467 265 422 Q241 377 219.5 336.5 Q198 296 181.5 265 Q165 234 159 223 L427 223 Q424 244 419.5 276 Q415 308 409.5 345 Q404 382 398.5 422 Q393 462 387.5 498.5 Q382 535 377.5 565.5 Q373 596 370 616 L368 616 Z M332 857 Q328 828 345.5 808.5 Q363 789 396 789 Q434 789 458 810 Q482 831 489 857 L548 857 Q543 836 531 815 Q519 794 499.5 776.5 Q480 759 452.5 748 Q425 737 389 737 Q354 737 331 748.5 Q308 760 295 778 Q282 796 277.5 817 Q273 838 276 857 L332 857 Z " />
<glyph glyph-name="abreve" unicode="&#x103;" horiz-adv-x="493" d="M286 501 Q305 501 324.5 496.5 Q344 492 361 482.5 Q378 473 391.5 459 Q405 445 411 426 L414 427 L429 495 L489 495 L392 0 L330 0 L344 65 L341 67 Q311 30 276.5 12 Q242 -6 194 -6 Q155 -6 127.5 7 Q100 20 82.5 43.5 Q65 67 57 98.5 Q49 130 49 166 Q49 201 55 239.5 Q61 278 73 315 Q85 352 104.5 386 Q124 420 150 445.5 Q176 471 210 486 Q244 501 286 501 Z M111 168 Q111 147 116 126.5 Q121 106 133 90 Q145 74 164 64 Q183 54 212 54 Q259 54 292.5 82 Q326 110 348 151.5 Q370 193 380 240 Q390 287 390 325 Q390 376 366 410.5 Q342 445 289 445 Q236 445 202 414.5 Q168 384 147.5 340.5 Q127 297 119 249.5 Q111 202 111 168 Z M264 703 Q262 678 279.5 655 Q297 632 332 632 Q367 632 392.5 653.5 Q418 675 425 703 L484 703 Q478 681 466 658.5 Q454 636 435 618 Q416 600 390 589 Q364 578 329 578 Q261 578 232.5 614 Q204 650 209 703 L264 703 Z " />
<glyph glyph-name="Aogonek" unicode="&#x104;" horiz-adv-x="580" d="M477 -177 Q441 -177 421 -157 Q401 -137 401 -108 Q401 -86 413.5 -59.5 Q426 -33 459 0 Q453 42 447 82.5 Q441 123 434 165 L129 165 L40 0 L-31 0 Q65 175 160.5 348 Q256 521 353 696 L415 696 L529 0 L507 0 Q481 -27 468.5 -51 Q456 -75 456 -95 Q456 -130 499 -130 Q511 -130 526 -126.5 Q541 -123 558 -115 L567 -154 Q547 -165 523.5 -171 Q500 -177 477 -177 Z M368 616 Q363 606 347.5 576.5 Q332 547 310.5 507 Q289 467 265 422 Q241 377 219.5 336.5 Q198 296 181.5 265 Q165 234 159 223 L427 223 Q424 244 419.5 276 Q415 308 409.5 345 Q404 382 398.5 422 Q393 462 387.5 498.5 Q382 535 377.5 565.5 Q373 596 370 616 L368 616 Z " />
<glyph glyph-name="aogonek" unicode="&#x105;" horiz-adv-x="493" d="M348 -177 Q312 -177 292 -157 Q272 -137 272 -108 Q272 -86 284.5 -59.5 Q297 -33 330 0 L344 65 L341 67 Q311 30 276.5 12 Q242 -6 194 -6 Q155 -6 127.5 7 Q100 20 82.5 43.5 Q65 67 57 98.5 Q49 130 49 166 Q49 201 55 239.5 Q61 278 73 315 Q85 352 104.5 386 Q124 420 150 445.5 Q176 471 210 486 Q244 501 286 501 Q305 501 324.5 496.5 Q344 492 361 482.5 Q378 473 391.5 459 Q405 445 411 426 L414 427 L429 495 L489 495 L392 0 L378 0 Q352 -27 339.5 -51 Q327 -75 327 -95 Q327 -130 370 -130 Q382 -130 397 -126.5 Q412 -123 429 -115 L438 -154 Q418 -165 394.5 -171 Q371 -177 348 -177 Z M111 168 Q111 147 116 126.5 Q121 106 133 90 Q145 74 164 64 Q183 54 212 54 Q259 54 292.5 82 Q326 110 348 151.5 Q370 193 380 240 Q390 287 390 325 Q390 376 366 410.5 Q342 445 289 445 Q236 445 202 414.5 Q168 384 147.5 340.5 Q127 297 119 249.5 Q111 202 111 168 Z " />
<glyph glyph-name="Cacute" unicode="&#x106;" horiz-adv-x="536" d="M333 767 L496 882 L534 832 L356 734 L333 767 Z M517 138 Q477 68 410.5 31 Q344 -6 263 -6 Q201 -6 158 15.5 Q115 37 90 73 Q65 109 57.5 156.5 Q50 204 61 255 L100 453 Q110 503 131.5 548 Q153 593 187.5 627 Q222 661 269 681 Q316 701 378 701 Q459 701 511.5 663 Q564 625 585 562 L518 533 Q507 578 470.5 607.5 Q434 637 380 637 Q332 637 295 621 Q258 605 232 578.5 Q206 552 189 517 Q172 482 165 445 L128 252 Q120 214 124.5 179 Q129 144 145.5 117 Q162 90 192.5 73.5 Q223 57 268 57 Q327 57 375.5 87 Q424 117 455 168 L517 138 Z " />
<glyph glyph-name="cacute" unicode="&#x107;" horiz-adv-x="414" d="M371 56 Q336 27 294 10.5 Q252 -6 206 -6 Q116 -6 73.5 46.5 Q31 99 31 185 Q31 245 47.5 302 Q64 359 97 403 Q130 447 179.5 474 Q229 501 295 501 Q337 501 376.5 485.5 Q416 470 443 439 L393 393 Q373 414 346 427.5 Q319 441 290 441 Q239 441 202 419 Q165 397 141 361.5 Q117 326 105.5 281.5 Q94 237 94 192 Q94 127 124 90.5 Q154 54 222 54 Q251 54 283 69.5 Q315 85 338 101 L371 56 Z M253 573 L351 739 L412 717 L290 557 L253 573 Z " />
<glyph glyph-name="Ccircumflex" unicode="&#x108;" horiz-adv-x="536" d="M517 138 Q477 68 410.5 31 Q344 -6 263 -6 Q201 -6 158 15.5 Q115 37 90 73 Q65 109 57.5 156.5 Q50 204 61 255 L100 453 Q110 503 131.5 548 Q153 593 187.5 627 Q222 661 269 681 Q316 701 378 701 Q459 701 511.5 663 Q564 625 585 562 L518 533 Q507 578 470.5 607.5 Q434 637 380 637 Q331 637 294 621 Q257 605 231 578.5 Q205 552 188.5 517 Q172 482 165 445 L128 252 Q120 214 123.5 179 Q127 144 143.5 117 Q160 90 190.5 73.5 Q221 57 268 57 Q327 57 375.5 87 Q424 117 455 168 L517 138 Z M414 822 L253 735 L236 765 L401 885 L446 885 L557 766 L527 737 L414 822 Z " />
<glyph glyph-name="ccircumflex" unicode="&#x109;" horiz-adv-x="414" d="M371 56 Q336 27 294 10.5 Q252 -6 206 -6 Q116 -6 73.5 46.5 Q31 99 31 185 Q31 245 47.5 302 Q64 359 97 403 Q130 447 179.5 474 Q229 501 295 501 Q337 501 376.5 485.5 Q416 470 443 439 L393 393 Q373 414 346 427.5 Q319 441 290 441 Q239 441 202 419 Q165 397 141 361.5 Q117 326 105.5 281.5 Q94 237 94 192 Q94 127 124 90.5 Q154 54 222 54 Q251 54 283 69.5 Q315 85 338 101 L371 56 Z M330 665 L173 560 L148 590 L316 729 L362 729 L470 592 L433 561 L330 665 Z " />
<glyph glyph-name="Cdotaccent" unicode="&#x10a;" horiz-adv-x="536" d="M517 138 Q477 68 410.5 31 Q344 -6 263 -6 Q201 -6 158 15.5 Q115 37 90 73 Q65 109 57.5 156.5 Q50 204 61 255 L100 453 Q110 503 131.5 548 Q153 593 187.5 627 Q222 661 269 681 Q316 701 378 701 Q459 701 511.5 663 Q564 625 585 562 L518 533 Q507 578 470.5 607.5 Q434 637 380 637 Q331 637 294 621 Q257 605 231 578.5 Q205 552 188.5 517 Q172 482 165 445 L128 252 Q120 214 123.5 179 Q127 144 143.5 117 Q160 90 190.5 73.5 Q221 57 268 57 Q327 57 375.5 87 Q424 117 455 168 L517 138 Z M371 752 L385 824 L456 824 L442 752 L371 752 Z " />
<glyph glyph-name="cdotaccent" unicode="&#x10b;" horiz-adv-x="414" d="M371 56 Q336 27 294 10.5 Q252 -6 206 -6 Q116 -6 73.5 46.5 Q31 99 31 185 Q31 245 47.5 302 Q64 359 97 403 Q130 447 179.5 474 Q229 501 295 501 Q337 501 376.5 485.5 Q416 470 443 439 L393 393 Q373 414 346 427.5 Q319 441 290 441 Q239 441 202 419 Q165 397 141 361.5 Q117 326 105.5 281.5 Q94 237 94 192 Q94 127 124 90.5 Q154 54 222 54 Q251 54 283 69.5 Q315 85 338 101 L371 56 Z M273 602 L287 674 L358 674 L344 602 L273 602 Z " />
<glyph glyph-name="Ccaron" unicode="&#x10c;" horiz-adv-x="536" d="M517 138 Q477 68 410.5 31 Q344 -6 263 -6 Q201 -6 158 15.5 Q115 37 90 73 Q65 109 57.5 156.5 Q50 204 61 255 L100 453 Q110 503 131.5 548 Q153 593 187.5 627 Q222 661 269 681 Q316 701 378 701 Q459 701 511.5 663 Q564 625 585 562 L518 533 Q507 578 470.5 607.5 Q434 637 380 637 Q331 637 294 621 Q257 605 231 578.5 Q205 552 188.5 517 Q172 482 165 445 L128 252 Q120 214 123.5 179 Q127 144 143.5 117 Q160 90 190.5 73.5 Q221 57 268 57 Q327 57 375.5 87 Q424 117 455 168 L517 138 Z M394 799 L557 886 L575 856 L410 736 L365 736 L253 855 L282 882 L394 799 Z " />
<glyph glyph-name="ccaron" unicode="&#x10d;" horiz-adv-x="414" d="M371 56 Q336 27 294 10.5 Q252 -6 206 -6 Q116 -6 73.5 46.5 Q31 99 31 185 Q31 245 47.5 302 Q64 359 97 403 Q130 447 179.5 474 Q229 501 295 501 Q337 501 376.5 485.5 Q416 470 443 439 L393 393 Q373 414 346 427.5 Q319 441 290 441 Q239 441 202 419 Q165 397 141 361.5 Q117 326 105.5 281.5 Q94 237 94 192 Q94 127 124 90.5 Q154 54 222 54 Q251 54 283 69.5 Q315 85 338 101 L371 56 Z M463 722 L487 693 L326 555 L281 555 L167 694 L203 723 L311 619 L463 722 Z " />
<glyph glyph-name="Dcaron" unicode="&#x10e;" horiz-adv-x="604" d="M393 696 Q435 696 473 686 Q511 676 539.5 654 Q568 632 585 597 Q602 562 602 513 Q602 468 594 410.5 Q586 353 574 298 Q562 243 547.5 197.5 Q533 152 521 131 Q497 91 469 65.5 Q441 40 409.5 25.5 Q378 11 343.5 5.5 Q309 0 273 0 L36 0 L171 696 L393 696 Z M226 634 L114 62 L274 62 Q327 62 365.5 77 Q404 92 431 120 Q458 148 475 187.5 Q492 227 501 276 L525 403 Q534 448 534 486 Q534 558 497 596 Q460 634 376 634 L226 634 Z M372 799 L535 886 L553 856 L388 736 L343 736 L231 855 L260 882 L372 799 Z " />
<glyph glyph-name="dcaron" unicode="&#x10f;" horiz-adv-x="548" d="M332 0 Q335 17 339 32.5 Q343 48 346 65 Q345 65 345 65.5 Q345 66 344 66 Q313 31 274 12.5 Q235 -6 187 -6 Q148 -6 122 6.5 Q96 19 80 40.5 Q64 62 57 92 Q50 122 50 157 Q50 211 62 271.5 Q74 332 102 383 Q130 434 174.5 467 Q219 500 285 500 Q330 500 363.5 479.5 Q397 459 413 424 L414 424 L474 726 L535 726 L393 0 L332 0 Z M286 442 Q250 442 223.5 427.5 Q197 413 178 389 Q159 365 146.5 335.5 Q134 306 127 276.5 Q120 247 117.5 220 Q115 193 115 175 Q115 148 119.5 126 Q124 104 135 88 Q146 72 165.5 63 Q185 54 215 54 Q248 54 273.5 68 Q299 82 318 105 Q337 128 350 156.5 Q363 185 371.5 214 Q380 243 383.5 269.5 Q387 296 387 314 Q387 337 382.5 360 Q378 383 367 401 Q356 419 336 430.5 Q316 442 286 442 Z M579 544 L540 544 L591 634 L564 634 L581 723 L663 723 L646 636 L579 544 Z " />
<glyph glyph-name="Dcroat" unicode="&#x110;" horiz-adv-x="604" d="M22 341 Q24 354 26.5 366 Q29 378 32 391 L111 391 L171 696 L393 696 Q435 696 473 686 Q511 676 539.5 654 Q568 632 585 597 Q602 562 602 513 Q602 468 594 410.5 Q586 353 574 298 Q562 243 547.5 197.5 Q533 152 521 131 Q497 91 469 65.5 Q441 40 409.5 25.5 Q378 11 343.5 5.5 Q309 0 273 0 L36 0 L102 341 L22 341 Z M226 634 L178 391 L315 391 L304 341 L169 341 L114 62 L274 62 Q327 62 365.5 77 Q404 92 431 120 Q458 148 475 187.5 Q492 227 501 276 L525 403 Q534 448 534 486 Q534 558 497 596 Q460 634 376 634 L226 634 Z " />
<glyph glyph-name="dcroat" unicode="&#x111;" horiz-adv-x="471" d="M339 617 L440 617 L462 726 L523 726 L502 617 L563 617 L555 573 L493 573 Q464 429 436.5 286.5 Q409 144 381 0 L320 0 L333 68 Q332 68 332 68.5 Q332 69 331 69 Q300 34 261.5 14 Q223 -6 175 -6 Q136 -6 110 6.5 Q84 19 68 40.5 Q52 62 45 92 Q38 122 38 157 Q38 211 50.5 271.5 Q63 332 91.5 383 Q120 434 165.5 467 Q211 500 277 500 Q322 500 351.5 481 Q381 462 401 424 L402 424 L431 573 L331 573 L339 617 Z M278 439 Q224 439 190.5 409.5 Q157 380 138.5 338.5 Q120 297 112.5 252 Q105 207 103 175 Q103 150 107.5 128 Q112 106 123 89.5 Q134 73 153.5 63.5 Q173 54 203 54 Q237 54 263 68 Q289 82 308.5 104.5 Q328 127 340.5 155 Q353 183 361 211.5 Q369 240 372 266.5 Q375 293 375 312 Q375 336 371 359 Q367 382 356.5 399.5 Q346 417 327 428 Q308 439 278 439 Z " />
<glyph glyph-name="Emacron" unicode="&#x112;" horiz-adv-x="525" d="M35 0 L171 696 L581 696 L569 634 L225 634 L177 382 L481 382 L469 322 L165 322 L114 62 L487 62 L475 0 L35 0 Z M263 768 L275 825 L536 825 L525 768 L263 768 Z " />
<glyph glyph-name="emacron" unicode="&#x113;" horiz-adv-x="462" d="M285 501 Q366 501 410 465 Q454 429 454 369 Q454 337 441 307.5 Q428 278 395 255.5 Q362 233 306 219.5 Q250 206 163 206 Q152 206 135 206.5 Q118 207 104 208 Q101 182 101 171 Q101 106 130 78.5 Q159 51 213 51 Q228 51 246 54.5 Q264 58 282 64 Q300 70 317.5 78 Q335 86 348 95 L379 50 Q343 24 296.5 9 Q250 -6 205 -6 Q120 -6 80.5 39 Q41 84 41 171 Q41 228 54.5 286.5 Q68 345 97.5 393 Q127 441 173.5 471 Q220 501 285 501 Z M282 444 Q241 444 212 428 Q183 412 163 386.5 Q143 361 131.5 329 Q120 297 114 264 Q131 262 148 262 Q165 262 177 262 Q247 262 289 272.5 Q331 283 353.5 298 Q376 313 383 330.5 Q390 348 390 362 Q390 400 362 422 Q334 444 282 444 Z M179 603 L190 662 L452 662 L440 603 L179 603 Z " />
<glyph glyph-name="Ebreve" unicode="&#x114;" horiz-adv-x="525" d="M35 0 L171 696 L581 696 L569 634 L225 634 L177 382 L481 382 L469 322 L165 322 L114 62 L487 62 L475 0 L35 0 Z M323 857 Q319 828 336.5 808.5 Q354 789 387 789 Q425 789 449 810 Q473 831 480 857 L539 857 Q534 836 522 815 Q510 794 490.5 776.5 Q471 759 443.5 748 Q416 737 380 737 Q345 737 322 748.5 Q299 760 286 778 Q273 796 268.5 817 Q264 838 267 857 L323 857 Z " />
<glyph glyph-name="ebreve" unicode="&#x115;" horiz-adv-x="462" d="M285 501 Q366 501 410 465 Q454 429 454 369 Q454 337 441 307.5 Q428 278 395 255.5 Q362 233 306 219.5 Q250 206 163 206 Q152 206 135 206.5 Q118 207 104 208 Q101 182 101 171 Q101 106 130 78.5 Q159 51 213 51 Q228 51 246 54.5 Q264 58 282 64 Q300 70 317.5 78 Q335 86 348 95 L379 50 Q343 24 296.5 9 Q250 -6 205 -6 Q120 -6 80.5 39 Q41 84 41 171 Q41 228 54.5 286.5 Q68 345 97.5 393 Q127 441 173.5 471 Q220 501 285 501 Z M282 444 Q241 444 212 428 Q183 412 163 386.5 Q143 361 131.5 329 Q120 297 114 264 Q131 262 148 262 Q165 262 177 262 Q247 262 289 272.5 Q331 283 353.5 298 Q376 313 383 330.5 Q390 348 390 362 Q390 400 362 422 Q334 444 282 444 Z M241 703 Q239 678 256.5 655 Q274 632 309 632 Q344 632 369.5 653.5 Q395 675 402 703 L461 703 Q455 681 443 658.5 Q431 636 412 618 Q393 600 367 589 Q341 578 306 578 Q238 578 209.5 614 Q181 650 186 703 L241 703 Z " />
<glyph glyph-name="Edotaccent" unicode="&#x116;" horiz-adv-x="525" d="M35 0 L171 696 L581 696 L569 634 L225 634 L177 382 L481 382 L469 322 L165 322 L114 62 L487 62 L475 0 L35 0 Z M347 761 L361 833 L432 833 L418 761 L347 761 Z " />
<glyph glyph-name="edotaccent" unicode="&#x117;" horiz-adv-x="462" d="M285 501 Q366 501 410 465 Q454 429 454 369 Q454 337 441 307.5 Q428 278 395 255.5 Q362 233 306 219.5 Q250 206 163 206 Q152 206 135 206.5 Q118 207 104 208 Q101 182 101 171 Q101 106 130 78.5 Q159 51 213 51 Q228 51 246 54.5 Q264 58 282 64 Q300 70 317.5 78 Q335 86 348 95 L379 50 Q343 24 296.5 9 Q250 -6 205 -6 Q120 -6 80.5 39 Q41 84 41 171 Q41 228 54.5 286.5 Q68 345 97.5 393 Q127 441 173.5 471 Q220 501 285 501 Z M282 444 Q241 444 212 428 Q183 412 163 386.5 Q143 361 131.5 329 Q120 297 114 264 Q131 262 148 262 Q165 262 177 262 Q247 262 289 272.5 Q331 283 353.5 298 Q376 313 383 330.5 Q390 348 390 362 Q390 400 362 422 Q334 444 282 444 Z M263 602 L277 674 L348 674 L334 602 L263 602 Z " />
<glyph glyph-name="Eogonek" unicode="&#x118;" horiz-adv-x="525" d="M427 -177 Q391 -177 371 -157 Q351 -137 351 -108 Q351 -86 363.5 -59.5 Q376 -33 409 0 L35 0 L171 696 L581 696 L569 634 L225 634 L177 382 L481 382 L469 322 L165 322 L114 62 L487 62 L475 0 L457 0 Q431 -27 418.5 -51 Q406 -75 406 -95 Q406 -130 449 -130 Q461 -130 476 -126.5 Q491 -123 508 -115 L517 -154 Q497 -165 473.5 -171 Q450 -177 427 -177 Z " />
<glyph glyph-name="eogonek" unicode="&#x119;" horiz-adv-x="462" d="M307 -153 Q271 -153 251 -133 Q231 -113 231 -84 Q231 -66 239 -45 Q247 -24 268 1 Q252 -2 236 -4 Q220 -6 205 -6 Q120 -6 80.5 39 Q41 84 41 171 Q41 228 54.5 286.5 Q68 345 97.5 393 Q127 441 173.5 471 Q220 501 285 501 Q366 501 410 465 Q454 429 454 369 Q454 337 441 307.5 Q428 278 395 255.5 Q362 233 306 219.5 Q250 206 163 206 Q152 206 135 206.5 Q118 207 104 208 Q101 182 101 171 Q101 106 130 78.5 Q159 51 213 51 Q228 51 246 54.5 Q264 58 282 64 Q300 70 317.5 78 Q335 86 348 95 L379 50 Q361 36 337 25 L337 24 Q311 -3 298.5 -27 Q286 -51 286 -71 Q286 -106 329 -106 Q341 -106 356 -102.5 Q371 -99 388 -91 L397 -130 Q377 -141 353.5 -147 Q330 -153 307 -153 Z M282 444 Q241 444 212 428 Q183 412 163 386.5 Q143 361 131.5 329 Q120 297 114 264 Q131 262 148 262 Q165 262 177 262 Q247 262 289 272.5 Q331 283 353.5 298 Q376 313 383 330.5 Q390 348 390 362 Q390 400 362 422 Q334 444 282 444 Z " />
<glyph glyph-name="Ecaron" unicode="&#x11a;" horiz-adv-x="525" d="M35 0 L171 696 L581 696 L569 634 L225 634 L177 382 L481 382 L469 322 L165 322 L114 62 L487 62 L475 0 L35 0 Z M376 799 L539 886 L557 856 L392 736 L347 736 L235 855 L264 882 L376 799 Z " />
<glyph glyph-name="ecaron" unicode="&#x11b;" horiz-adv-x="462" d="M285 501 Q366 501 410 465 Q454 429 454 369 Q454 337 441 307.5 Q428 278 395 255.5 Q362 233 306 219.5 Q250 206 163 206 Q152 206 135 206.5 Q118 207 104 208 Q101 182 101 171 Q101 106 130 78.5 Q159 51 213 51 Q228 51 246 54.5 Q264 58 282 64 Q300 70 317.5 78 Q335 86 348 95 L379 50 Q343 24 296.5 9 Q250 -6 205 -6 Q120 -6 80.5 39 Q41 84 41 171 Q41 228 54.5 286.5 Q68 345 97.5 393 Q127 441 173.5 471 Q220 501 285 501 Z M282 444 Q241 444 212 428 Q183 412 163 386.5 Q143 361 131.5 329 Q120 297 114 264 Q131 262 148 262 Q165 262 177 262 Q247 262 289 272.5 Q331 283 353.5 298 Q376 313 383 330.5 Q390 348 390 362 Q390 400 362 422 Q334 444 282 444 Z M460 722 L484 693 L323 555 L278 555 L164 694 L200 723 L308 619 L460 722 Z " />
<glyph glyph-name="Gcircumflex" unicode="&#x11c;" horiz-adv-x="580" d="M257 55 Q298 55 333 69 Q368 83 395.5 108 Q423 133 441.5 166 Q460 199 468 238 L481 301 L331 301 L343 362 L560 362 L534 235 Q524 182 500 137.5 Q476 93 439 61 Q402 29 354 11.5 Q306 -6 248 -6 Q186 -6 143.5 15 Q101 36 76.5 72 Q52 108 45.5 155 Q39 202 50 253 L89 451 Q99 501 120.5 546 Q142 591 176.5 625 Q211 659 258 679 Q305 699 367 699 Q448 699 500.5 661 Q553 623 574 560 L507 531 Q496 576 459.5 605.5 Q423 635 369 635 Q320 635 283 619 Q246 603 220 576.5 Q194 550 177.5 515 Q161 480 154 443 L117 250 Q109 212 112.5 177 Q116 142 132.5 115 Q149 88 179.5 71.5 Q210 55 257 55 Z M403 822 L242 735 L225 765 L390 885 L435 885 L546 766 L516 737 L403 822 Z " />
<glyph glyph-name="gcircumflex" unicode="&#x11d;" horiz-adv-x="495" d="M484 496 Q461 371 437 248 Q413 125 389 0 Q380 -48 363 -86 Q346 -124 318.5 -151 Q291 -178 252 -192.5 Q213 -207 159 -207 Q141 -207 120.5 -203.5 Q100 -200 80 -192.5 Q60 -185 42.5 -174.5 Q25 -164 12 -150 Q23 -139 32 -127.5 Q41 -116 52 -104 Q75 -124 104 -136 Q133 -148 163 -148 Q200 -148 227 -137 Q254 -126 273.5 -106.5 Q293 -87 305 -60 Q317 -33 325 -1 Q330 17 333 35.5 Q336 54 341 73 L339 73 Q307 31 268 13 Q229 -5 182 -5 Q143 -5 117 7.5 Q91 20 75 41.5 Q59 63 52 93 Q45 123 45 158 Q45 194 50 233.5 Q55 273 67 311 Q79 349 97 383.5 Q115 418 141 444.5 Q167 471 201 486.5 Q235 502 279 502 Q322 502 355.5 483.5 Q389 465 408 425 L409 425 L423 496 L484 496 Z M383 323 Q383 348 377 370 Q371 392 358.5 408.5 Q346 425 326 434.5 Q306 444 279 444 Q231 444 198.5 416.5 Q166 389 146 347.5 Q126 306 117.5 258 Q109 210 109 170 Q109 144 113 123 Q117 102 128 87 Q139 72 157 63.5 Q175 55 204 55 Q252 55 285.5 82.5 Q319 110 341 150.5 Q363 191 373 238 Q383 285 383 323 Z M340 665 L183 560 L158 590 L326 729 L372 729 L480 592 L443 561 L340 665 Z " />
<glyph glyph-name="Gbreve" unicode="&#x11e;" horiz-adv-x="580" d="M257 55 Q298 55 333 69 Q368 83 395.5 108 Q423 133 441.5 166 Q460 199 468 238 L481 301 L331 301 L343 362 L560 362 L534 235 Q524 182 500 137.5 Q476 93 439 61 Q402 29 354 11.5 Q306 -6 248 -6 Q186 -6 143.5 15 Q101 36 76.5 72 Q52 108 45.5 155 Q39 202 50 253 L89 451 Q99 501 120.5 546 Q142 591 176.5 625 Q211 659 258 679 Q305 699 367 699 Q448 699 500.5 661 Q553 623 574 560 L507 531 Q496 576 459.5 605.5 Q423 635 369 635 Q320 635 283 619 Q246 603 220 576.5 Q194 550 177.5 515 Q161 480 154 443 L117 250 Q109 212 112.5 177 Q116 142 132.5 115 Q149 88 179.5 71.5 Q210 55 257 55 Z M333 857 Q329 828 346.5 808.5 Q364 789 397 789 Q435 789 459 810 Q483 831 490 857 L549 857 Q544 836 532 815 Q520 794 500.5 776.5 Q481 759 453.5 748 Q426 737 390 737 Q355 737 332 748.5 Q309 760 296 778 Q283 796 278.5 817 Q274 838 277 857 L333 857 Z " />
<glyph glyph-name="gbreve" unicode="&#x11f;" horiz-adv-x="495" d="M484 496 Q461 371 437 248 Q413 125 389 0 Q380 -48 363 -86 Q346 -124 318.5 -151 Q291 -178 252 -192.5 Q213 -207 159 -207 Q141 -207 120.5 -203.5 Q100 -200 80 -192.5 Q60 -185 42.5 -174.5 Q25 -164 12 -150 Q23 -139 32 -127.5 Q41 -116 52 -104 Q75 -124 104 -136 Q133 -148 163 -148 Q200 -148 227 -137 Q254 -126 273.5 -106.5 Q293 -87 305 -60 Q317 -33 325 -1 Q330 17 333 35.5 Q336 54 341 73 L339 73 Q307 31 268 13 Q229 -5 182 -5 Q143 -5 117 7.5 Q91 20 75 41.5 Q59 63 52 93 Q45 123 45 158 Q45 194 50 233.5 Q55 273 67 311 Q79 349 97 383.5 Q115 418 141 444.5 Q167 471 201 486.5 Q235 502 279 502 Q322 502 355.5 483.5 Q389 465 408 425 L409 425 L423 496 L484 496 Z M383 323 Q383 348 377 370 Q371 392 358.5 408.5 Q346 425 326 434.5 Q306 444 279 444 Q231 444 198.5 416.5 Q166 389 146 347.5 Q126 306 117.5 258 Q109 210 109 170 Q109 144 113 123 Q117 102 128 87 Q139 72 157 63.5 Q175 55 204 55 Q252 55 285.5 82.5 Q319 110 341 150.5 Q363 191 373 238 Q383 285 383 323 Z M254 703 Q252 678 269.5 655 Q287 632 322 632 Q357 632 382.5 653.5 Q408 675 415 703 L474 703 Q468 681 456 658.5 Q444 636 425 618 Q406 600 380 589 Q354 578 319 578 Q251 578 222.5 614 Q194 650 199 703 L254 703 Z " />
<glyph glyph-name="Gdotaccent" unicode="&#x120;" horiz-adv-x="580" d="M257 55 Q298 55 333 69 Q368 83 395.5 108 Q423 133 441.5 166 Q460 199 468 238 L481 301 L331 301 L343 362 L560 362 L534 235 Q524 182 500 137.5 Q476 93 439 61 Q402 29 354 11.5 Q306 -6 248 -6 Q186 -6 143.5 15 Q101 36 76.5 72 Q52 108 45.5 155 Q39 202 50 253 L89 451 Q99 501 120.5 546 Q142 591 176.5 625 Q211 659 258 679 Q305 699 367 699 Q448 699 500.5 661 Q553 623 574 560 L507 531 Q496 576 459.5 605.5 Q423 635 369 635 Q320 635 283 619 Q246 603 220 576.5 Q194 550 177.5 515 Q161 480 154 443 L117 250 Q109 212 112.5 177 Q116 142 132.5 115 Q149 88 179.5 71.5 Q210 55 257 55 Z M351 752 L365 824 L436 824 L422 752 L351 752 Z " />
<glyph glyph-name="gdotaccent" unicode="&#x121;" horiz-adv-x="495" d="M484 496 Q461 371 437 248 Q413 125 389 0 Q380 -48 363 -86 Q346 -124 318.5 -151 Q291 -178 252 -192.5 Q213 -207 159 -207 Q141 -207 120.5 -203.5 Q100 -200 80 -192.5 Q60 -185 42.5 -174.5 Q25 -164 12 -150 Q23 -139 32 -127.5 Q41 -116 52 -104 Q75 -124 104 -136 Q133 -148 163 -148 Q200 -148 227 -137 Q254 -126 273.5 -106.5 Q293 -87 305 -60 Q317 -33 325 -1 Q330 17 333 35.5 Q336 54 341 73 L339 73 Q307 31 268 13 Q229 -5 182 -5 Q143 -5 117 7.5 Q91 20 75 41.5 Q59 63 52 93 Q45 123 45 158 Q45 194 50 233.5 Q55 273 67 311 Q79 349 97 383.5 Q115 418 141 444.5 Q167 471 201 486.5 Q235 502 279 502 Q322 502 355.5 483.5 Q389 465 408 425 L409 425 L423 496 L484 496 Z M383 323 Q383 348 377 370 Q371 392 358.5 408.5 Q346 425 326 434.5 Q306 444 279 444 Q231 444 198.5 416.5 Q166 389 146 347.5 Q126 306 117.5 258 Q109 210 109 170 Q109 144 113 123 Q117 102 128 87 Q139 72 157 63.5 Q175 55 204 55 Q252 55 285.5 82.5 Q319 110 341 150.5 Q363 191 373 238 Q383 285 383 323 Z M291 602 L305 674 L376 674 L362 602 L291 602 Z " />
<glyph glyph-name="Gcommaaccent" unicode="&#x122;" horiz-adv-x="580" d="M257 55 Q298 55 333 69 Q368 83 395.5 108 Q423 133 441.5 166 Q460 199 468 238 L481 301 L331 301 L343 362 L560 362 L534 235 Q524 182 500 137.5 Q476 93 439 61 Q402 29 354 11.5 Q306 -6 248 -6 Q186 -6 143.5 15 Q101 36 76.5 72 Q52 108 45.5 155 Q39 202 50 253 L89 451 Q99 501 120.5 546 Q142 591 176.5 625 Q211 659 258 679 Q305 699 367 699 Q448 699 500.5 661 Q553 623 574 560 L507 531 Q496 576 459.5 605.5 Q423 635 369 635 Q320 635 283 619 Q246 603 220 576.5 Q194 550 177.5 515 Q161 480 154 443 L117 250 Q109 212 112.5 177 Q116 142 132.5 115 Q149 88 179.5 71.5 Q210 55 257 55 Z M197 -247 L158 -247 L209 -157 L182 -157 L199 -68 L281 -68 L264 -155 L197 -247 Z " />
<glyph glyph-name="gcommaaccent" unicode="&#x123;" horiz-adv-x="495" d="M484 496 Q461 371 437 248 Q413 125 389 0 Q380 -48 362 -86.5 Q344 -125 316 -152 Q288 -179 248.5 -193 Q209 -207 156 -207 Q138 -207 118 -203.5 Q98 -200 78.5 -192.5 Q59 -185 42 -174.5 Q25 -164 12 -150 Q32 -128 52 -104 Q76 -124 102 -136 Q128 -148 159 -148 Q209 -148 240.5 -129.5 Q272 -111 291.5 -80.5 Q311 -50 322 -10 Q333 30 341 73 L339 73 Q277 -5 182 -5 Q143 -5 117 7.5 Q91 20 75.5 41.5 Q60 63 53 93 Q46 123 46 158 Q46 212 58 272 Q70 332 97.5 383 Q125 434 169.5 467.5 Q214 501 279 501 Q322 501 355.5 483 Q389 465 408 425 L409 425 L423 496 L484 496 Z M383 323 Q383 348 378 369.5 Q373 391 361.5 407 Q350 423 331 432 Q312 441 285 441 Q234 441 200.5 414 Q167 387 147 346 Q127 305 118.5 257.5 Q110 210 110 170 Q110 119 132 87.5 Q154 56 210 56 Q258 56 291 83.5 Q324 111 344.5 151.5 Q365 192 374 238.5 Q383 285 383 323 Z M400 753 L349 664 L376 664 L358 575 L277 575 L296 671 Q311 691 327.5 712 Q344 733 361 753 L400 753 Z " />
<glyph glyph-name="Hcircumflex" unicode="&#x124;" horiz-adv-x="618" d="M436 0 L498 322 L165 322 L102 0 L35 0 L171 696 L237 696 L176 382 L510 382 L571 696 L638 696 L502 0 L436 0 Z M431 822 L270 735 L253 765 L418 885 L463 885 L574 766 L544 737 L431 822 Z " />
<glyph glyph-name="hcircumflex" unicode="&#x125;" horiz-adv-x="512" d="M343 0 L403 307 Q414 365 392.5 402 Q371 439 309 439 Q281 439 254.5 429 Q228 419 206.5 401 Q185 383 169 357.5 Q153 332 147 300 L88 0 L27 0 L168 727 L229 727 L170 424 L173 424 Q205 464 248 482.5 Q291 501 332 501 Q366 501 395 490 Q424 479 443 456.5 Q462 434 469.5 400.5 Q477 367 468 322 L406 0 L343 0 Z M220 822 L59 735 L42 765 L207 885 L252 885 L363 766 L333 737 L220 822 Z " />
<glyph glyph-name="Hbar" unicode="&#x126;" horiz-adv-x="618" d="M436 0 L498 322 L165 322 L102 0 L35 0 L142 548 L81 548 L90 595 L151 595 L171 696 L237 696 L217 595 L551 595 L571 696 L638 696 L618 595 L673 595 L664 548 L609 548 L502 0 L436 0 Z M510 382 L542 548 L208 548 L176 382 L510 382 Z " />
<glyph glyph-name="hbar" unicode="&#x127;" horiz-adv-x="512" d="M343 0 L403 307 Q414 365 392.5 402 Q371 439 309 439 Q281 439 254.5 429 Q228 419 206.5 401 Q185 383 169 357.5 Q153 332 147 300 L88 0 L27 0 L140 583 L64 583 L74 631 L149 631 L168 727 L229 727 L210 631 L457 631 L448 583 L201 583 L170 424 L173 424 Q205 464 248 482.5 Q291 501 332 501 Q366 501 395 490 Q424 479 443 456.5 Q462 434 469.5 400.5 Q477 367 468 322 L406 0 L343 0 Z " />
<glyph glyph-name="Itilde" unicode="&#x128;" horiz-adv-x="222" d="M37 0 L173 696 L239 696 L104 0 L37 0 Z M159 845 Q177 845 194.5 838 Q212 831 229 823 Q246 815 262 808 Q278 801 293 801 Q308 801 322.5 810 Q337 819 356 842 L392 819 Q370 777 342.5 760.5 Q315 744 286 744 Q268 744 250.5 750.5 Q233 757 215.5 765 Q198 773 182 779.5 Q166 786 152 786 Q134 786 121 778 Q108 770 87 750 L53 773 Q77 811 104 828 Q131 845 159 845 Z " />
<glyph glyph-name="itilde" unicode="&#x129;" horiz-adv-x="263" d="M81 0 L177 495 L239 495 L143 0 L81 0 Z M165 689 Q183 689 200.5 682 Q218 675 235 667 Q252 659 268 652 Q284 645 299 645 Q314 645 328.5 654 Q343 663 362 686 L398 663 Q376 621 348.5 604.5 Q321 588 292 588 Q274 588 256.5 594.5 Q239 601 221.5 609 Q204 617 188 623.5 Q172 630 158 630 Q140 630 127 622 Q114 614 93 594 L59 617 Q83 655 110 672 Q137 689 165 689 Z " />
<glyph glyph-name="Imacron" unicode="&#x12a;" horiz-adv-x="222" d="M37 0 L173 696 L239 696 L104 0 L37 0 Z M86 768 L98 825 L359 825 L348 768 L86 768 Z " />
<glyph glyph-name="imacron" unicode="&#x12b;" horiz-adv-x="208" d="M33 0 L129 495 L191 495 L95 0 L33 0 Z M58 603 L70 662 L331 662 L320 603 L58 603 Z " />
<glyph glyph-name="Ibreve" unicode="&#x12c;" horiz-adv-x="222" d="M151 857 Q147 828 164.5 808.5 Q182 789 215 789 Q253 789 277 810 Q301 831 308 857 L367 857 Q362 836 350 815 Q338 794 318.5 776.5 Q299 759 271.5 748 Q244 737 208 737 Q173 737 150 748.5 Q127 760 114 778 Q101 796 96.5 817 Q92 838 95 857 L151 857 Z M37 0 L173 696 L239 696 L104 0 L37 0 Z " />
<glyph glyph-name="ibreve" unicode="&#x12d;" horiz-adv-x="246" d="M64 0 L160 495 L222 495 L126 0 L64 0 Z M140 709 Q138 684 155.5 661 Q173 638 208 638 Q243 638 268.5 659.5 Q294 681 301 709 L360 709 Q354 687 342 664.5 Q330 642 311 624 Q292 606 266 595 Q240 584 205 584 Q137 584 108.5 620 Q80 656 85 709 L140 709 Z " />
<glyph glyph-name="Iogonek" unicode="&#x12e;" horiz-adv-x="222" d="M65 -177 Q29 -177 9 -157 Q-11 -137 -11 -108 Q-11 -86 1.5 -59.5 Q14 -33 47 0 L37 0 L173 696 L239 696 L104 0 L95 0 Q69 -27 56.5 -51 Q44 -75 44 -95 Q44 -130 87 -130 Q99 -130 114 -126.5 Q129 -123 146 -115 L155 -154 Q135 -165 111.5 -171 Q88 -177 65 -177 Z " />
<glyph glyph-name="iogonek" unicode="&#x12f;" horiz-adv-x="208" d="M59 -177 Q23 -177 3 -157 Q-17 -137 -17 -108 Q-17 -86 -4 -59.5 Q9 -33 41 0 L33 0 L129 495 L191 495 L95 0 L89 0 Q63 -27 50.5 -51 Q38 -75 38 -95 Q38 -130 81 -130 Q93 -130 108 -126.5 Q123 -123 140 -115 L149 -154 Q129 -165 105.5 -171 Q82 -177 59 -177 Z M154 631 L167 696 L231 696 L218 631 L154 631 Z " />
<glyph glyph-name="Idotaccent" unicode="&#x130;" horiz-adv-x="222" d="M37 0 L173 696 L239 696 L104 0 L37 0 Z M181 752 L195 824 L266 824 L252 752 L181 752 Z " />
<glyph glyph-name="dotlessi" unicode="&#x131;" horiz-adv-x="208" d="M33 0 L129 495 L191 495 L95 0 L33 0 Z " />
<glyph glyph-name="IJ" unicode="&#x132;" horiz-adv-x="650" d="M37 0 L173 696 L239 696 L104 0 L37 0 Z M589 205 Q577 145 555.5 104.5 Q534 64 503 39.5 Q472 15 434 4.5 Q396 -6 351 -6 Q305 -6 267 11.5 Q229 29 207 58 L256 103 Q295 56 348 56 Q378 56 406.5 63.5 Q435 71 458 90.5 Q481 110 499 142 Q517 174 526 224 L618 696 L684 696 L589 205 Z " />
<glyph glyph-name="ij" unicode="&#x133;" horiz-adv-x="392" d="M288 -72 Q277 -132 238 -167.5 Q199 -203 139 -203 L109 -203 L119 -146 Q121 -146 131.5 -146.5 Q142 -147 143 -146 Q175 -145 196.5 -125 Q218 -105 226 -67 L335 495 L398 495 L288 -72 Z M33 0 L129 495 L191 495 L95 0 L33 0 Z M362 631 Q362 634 364 643.5 Q366 653 368 663.5 Q370 674 371.5 683.5 Q373 693 374 696 L439 696 L426 631 L362 631 Z M154 631 L167 696 L231 696 L218 631 L154 631 Z " />
<glyph glyph-name="Jcircumflex" unicode="&#x134;" horiz-adv-x="449" d="M381 206 Q369 146 347.5 105.5 Q326 65 295 40.5 Q264 16 226 5.5 Q188 -5 143 -5 Q97 -5 59 12.5 Q21 30 -1 59 L48 104 Q87 57 140 57 Q170 57 198.5 64.5 Q227 72 250 91.5 Q273 111 291 143 Q309 175 318 225 L410 697 L476 697 L381 206 Z M469 824 L308 737 L291 767 L456 887 L501 887 L612 768 L582 739 L469 824 Z " />
<glyph glyph-name="jcircumflex" unicode="&#x135;" horiz-adv-x="276" d="M-39 -146 Q-37 -146 -32 -146.5 Q-27 -147 -22 -147 Q13 -147 36.5 -127 Q60 -107 68 -67 L177 495 L240 495 Q212 352 185 211 Q158 70 130 -72 Q119 -132 80 -167.5 Q41 -203 -19 -203 L-49 -203 L-39 -146 Z M244 665 Q204 639 165.5 612.5 Q127 586 88 560 L62 590 L230 728 L275 728 L383 591 L347 561 L244 665 Z " />
<glyph glyph-name="Kcommaaccent" unicode="&#x136;" horiz-adv-x="600" d="M469 0 Q434 94 398.5 188 Q363 282 328 376 L137 186 L101 0 L35 0 L171 696 L236 696 Q216 593 196.5 491 Q177 389 157 286 L159 286 L186 313 L342 473 Q454 584 565 696 L645 696 L379 428 Q421 320 461 214 Q501 108 542 0 L469 0 Z M236 -231 L197 -231 L248 -141 L221 -141 L238 -52 L320 -52 L303 -139 L236 -231 Z " />
<glyph glyph-name="kcommaaccent" unicode="&#x137;" horiz-adv-x="483" d="M249 265 Q215 233 182 202 Q149 171 116 139 L89 0 L28 0 L169 727 L230 727 L133 227 L135 227 L158 249 Q179 270 214.5 303 Q250 336 288.5 372 Q327 408 362.5 441 Q398 474 419 495 L494 495 L296 305 Q331 228 364.5 152 Q398 76 433 0 L367 0 L249 265 Z M176 -247 L137 -247 L188 -157 L161 -157 L178 -68 L260 -68 L243 -155 L176 -247 Z " />
<glyph glyph-name="kgreenlandic" unicode="&#x138;" horiz-adv-x="479" d="M249 265 L116 139 L89 0 L28 0 L124 495 L185 495 L133 232 Q134 232 135 233 L155 251 L416 495 L494 495 L295 306 Q330 229 364.5 153 Q399 77 434 0 L365 0 L249 265 Z " />
<glyph glyph-name="Lacute" unicode="&#x139;" horiz-adv-x="525" d="M182 767 L345 882 L383 832 L205 734 L182 767 Z M35 0 L171 696 L237 696 L113 62 L470 62 L459 0 L35 0 Z " />
<glyph glyph-name="lacute" unicode="&#x13a;" horiz-adv-x="226" d="M142 0 Q97 0 70.5 20 Q44 40 44 83 Q44 96 47 113 L168 724 L229 724 Q200 572 170.5 421.5 Q141 271 111 119 Q110 114 109.5 110 Q109 106 109 101 Q109 81 121.5 69 Q134 57 163 57 L178 57 L167 0 L142 0 Z M195 746 Q190 754 184.5 762.5 Q179 771 173 779 Q214 808 254 836.5 Q294 865 335 894 Q345 882 354 869.5 Q363 857 373 844 L195 746 Z " />
<glyph glyph-name="Lcommaaccent" unicode="&#x13b;" horiz-adv-x="525" d="M35 0 L171 696 L237 696 L113 62 L470 62 L459 0 L35 0 Z M202 -247 L163 -247 L214 -157 L187 -157 L204 -68 L286 -68 L269 -155 L202 -247 Z " />
<glyph glyph-name="lcommaaccent" unicode="&#x13c;" horiz-adv-x="226" d="M143 0 Q90 0 63 27.5 Q36 55 48 114 L168 725 L230 725 L112 120 Q106 91 117 74 Q128 57 163 57 L179 57 L167 0 L143 0 Z M49 -247 L10 -247 L61 -157 L34 -157 L51 -68 L133 -68 L116 -155 L49 -247 Z " />
<glyph glyph-name="Lcaron" unicode="&#x13d;" horiz-adv-x="525" d="M35 0 L171 696 L237 696 L113 62 L470 62 L459 0 L35 0 Z M356 517 L317 517 L368 607 L341 607 L358 696 L440 696 L423 609 L356 517 Z " />
<glyph glyph-name="lcaron" unicode="&#x13e;" horiz-adv-x="285" d="M143 0 Q90 0 63 27.5 Q36 55 48 114 L168 725 L230 725 L112 120 Q106 91 117 74 Q128 57 163 57 L179 57 L167 0 L143 0 Z M296 547 L257 547 L308 637 L281 637 L298 726 L380 726 L363 639 L296 547 Z " />
<glyph glyph-name="Ldot" unicode="&#x13f;" horiz-adv-x="525" d="M35 0 L171 696 L237 696 L113 62 L470 62 L459 0 L35 0 Z M340 329 L354 401 L425 401 L411 329 L340 329 Z " />
<glyph glyph-name="ldot" unicode="&#x140;" horiz-adv-x="278" d="M228 347 L242 419 L313 419 L299 347 L228 347 Z M143 0 Q90 0 63 27.5 Q36 55 48 114 L168 725 L230 725 L112 120 Q106 91 117 74 Q128 57 163 57 L179 57 L167 0 L143 0 Z " />
<glyph glyph-name="Lslash" unicode="&#x141;" horiz-adv-x="547" d="M58 0 L108 256 L13 207 L-4 253 L120 317 L194 696 L259 696 L192 355 L337 431 L354 385 L180 294 L135 62 L492 62 L480 0 L58 0 Z " />
<glyph glyph-name="lslash" unicode="&#x142;" horiz-adv-x="236" d="M157 0 Q112 0 85.5 20 Q59 40 59 83 Q59 96 62 113 L99 305 L23 265 Q18 276 14.5 288 Q11 300 7 311 L112 365 L183 724 L244 724 L181 400 L282 452 L299 407 L170 341 Q159 285 148 230 Q137 175 126 119 Q125 114 124.5 110 Q124 106 124 101 Q124 81 136.5 69 Q149 57 178 57 L193 57 L182 0 L157 0 L157 0 Z " />
<glyph glyph-name="Nacute" unicode="&#x143;" horiz-adv-x="655" d="M475 0 Q430 100 386.5 198.5 Q343 297 298 397 L216 586 L214 586 L102 0 L36 0 L172 696 L237 696 Q246 675 267 627.5 Q288 580 314.5 520.5 Q341 461 370 395.5 Q399 330 424.5 271.5 Q450 213 469 169.5 Q488 126 495 110 Q495 110 497 109 Q525 257 553.5 402.5 Q582 548 610 696 L674 696 L539 0 L475 0 Z M382 766 Q423 795 463 823.5 Q503 852 544 881 Q554 868 563 855.5 Q572 843 582 831 L404 733 L382 766 Z " />
<glyph glyph-name="nacute" unicode="&#x144;" horiz-adv-x="506" d="M339 0 L399 307 Q405 336 404.5 360.5 Q404 385 393.5 402.5 Q383 420 361 430 Q339 440 301 440 Q274 440 248 430 Q222 420 200.5 401.5 Q179 383 164 357 Q149 331 143 300 L85 0 L24 0 L120 495 L181 495 L168 426 L170 426 Q202 466 245.5 483.5 Q289 501 330 501 Q364 501 392.5 489.5 Q421 478 440 456.5 Q459 435 466.5 403 Q474 371 466 331 L402 0 L339 0 Z M265 573 L363 739 L424 717 L302 557 L265 573 Z " />
<glyph glyph-name="Ncommaaccent" unicode="&#x145;" horiz-adv-x="655" d="M475 0 Q468 16 454 47.5 Q440 79 423 117.5 Q406 156 387 198.5 Q368 241 351 279.5 Q334 318 320 349 Q306 380 298 397 L217 586 L215 586 Q210 560 201 513.5 Q192 467 181 410.5 Q170 354 158.5 292.5 Q147 231 136 174.5 Q125 118 116.5 72 Q108 26 103 0 L36 0 L172 696 L238 696 Q245 680 258.5 649.5 Q272 619 288.5 581 Q305 543 323.5 502 Q342 461 358.5 423 Q375 385 388.5 354.5 Q402 324 410 308 L495 110 L497 110 Q502 136 511 182 Q520 228 531 284.5 Q542 341 554 402.5 Q566 464 577 520.5 Q588 577 596.5 623.5 Q605 670 610 696 L675 696 L540 0 L475 0 Z M246 -221 L207 -221 L258 -131 L231 -131 L248 -42 L330 -42 L313 -129 L246 -221 Z " />
<glyph glyph-name="ncommaaccent" unicode="&#x146;" horiz-adv-x="506" d="M339 0 L399 307 Q405 336 404.5 360.5 Q404 385 393.5 402.5 Q383 420 361 430 Q339 440 301 440 Q274 440 248 430 Q222 420 200.5 401.5 Q179 383 164 357 Q149 331 143 300 L85 0 L24 0 L120 495 L181 495 L168 426 L170 426 Q202 466 245.5 483.5 Q289 501 330 501 Q364 501 392.5 489.5 Q421 478 440 456.5 Q459 435 466.5 403 Q474 371 466 331 L402 0 L339 0 Z M159 -247 L120 -247 L171 -157 L144 -157 L161 -68 L243 -68 L226 -155 L159 -247 Z " />
<glyph glyph-name="Ncaron" unicode="&#x147;" horiz-adv-x="655" d="M475 0 Q468 16 454 47.5 Q440 79 423 117.5 Q406 156 387 198.5 Q368 241 351 279.5 Q334 318 320 349 Q306 380 298 397 L217 586 L215 586 Q210 560 201 513.5 Q192 467 181 410.5 Q170 354 158.5 292.5 Q147 231 136 174.5 Q125 118 116.5 72 Q108 26 103 0 L36 0 L172 696 L238 696 Q245 680 258.5 649.5 Q272 619 288.5 581 Q305 543 323.5 502 Q342 461 358.5 423 Q375 385 388.5 354.5 Q402 324 410 308 L495 110 L497 110 Q502 136 511 182 Q520 228 531 284.5 Q542 341 554 402.5 Q566 464 577 520.5 Q588 577 596.5 623.5 Q605 670 610 696 L675 696 L540 0 L475 0 Z M436 799 L599 886 L617 856 L452 736 L407 736 L295 855 L324 882 L436 799 Z " />
<glyph glyph-name="ncaron" unicode="&#x148;" horiz-adv-x="506" d="M339 0 L399 307 Q405 336 404.5 360.5 Q404 385 393.5 402.5 Q383 420 361 430 Q339 440 301 440 Q274 440 248 430 Q222 420 200.5 401.5 Q179 383 164 357 Q149 331 143 300 L85 0 L24 0 L120 495 L181 495 L168 426 L170 426 Q202 466 245.5 483.5 Q289 501 330 501 Q364 501 392.5 489.5 Q421 478 440 456.5 Q459 435 466.5 403 Q474 371 466 331 L402 0 L339 0 Z M462 722 L486 693 L325 555 L280 555 L166 694 L202 723 L310 619 L462 722 Z " />
<glyph glyph-name="napostrophe" unicode="&#x149;" horiz-adv-x="590" d="M423 0 L483 307 Q489 336 488.5 360.5 Q488 385 477.5 402.5 Q467 420 445 430 Q423 440 385 440 Q358 440 332 430 Q306 420 284.5 401.5 Q263 383 248 357 Q233 331 227 300 L169 0 L108 0 L204 495 L265 495 L252 426 L254 426 Q286 466 329.5 483.5 Q373 501 414 501 Q448 501 476.5 489.5 Q505 478 524 456.5 Q543 435 550.5 403 Q558 371 550 331 L486 0 L423 0 Z M97 480 L58 480 L109 570 L82 570 L99 659 L181 659 L164 572 L97 480 Z " />
<glyph glyph-name="Eng" unicode="&#x14a;" horiz-adv-x="664" d="M479 -3 Q431 103 383.5 209 Q336 315 288 422 Q284 430 274 453.5 Q264 477 253 504 Q242 531 232 554.5 Q222 578 218 586 L216 586 L103 0 L38 0 L173 696 L238 696 Q252 663 271 620 Q290 577 312 528.5 Q334 480 357.5 427 Q381 374 404 322 Q433 256 458 199 Q483 142 496 110 Q497 110 498 109 Q527 257 555 402.5 Q583 548 611 696 L675 696 L527 -73 Q516 -127 488 -150 Q460 -173 421 -173 Q401 -173 379.5 -168 Q358 -163 340 -153 L362 -106 Q377 -112 390 -116 Q403 -120 414 -120 Q457 -120 466 -72 L479 -3 L479 -3 Z " />
<glyph glyph-name="eng" unicode="&#x14b;" horiz-adv-x="500" d="M387 -73 Q376 -127 348 -150.5 Q320 -174 281 -174 Q262 -174 240 -168.5 Q218 -163 200 -153 L223 -107 Q238 -113 250 -116.5 Q262 -120 273 -120 Q293 -120 306 -107.5 Q319 -95 324 -72 L399 307 Q405 336 403 360.5 Q401 385 390 402.5 Q379 420 356.5 430 Q334 440 298 440 Q271 440 245.5 430 Q220 420 199 401.5 Q178 383 163.5 357 Q149 331 143 300 L85 0 L24 0 L120 495 L181 495 L168 426 L170 426 Q202 466 245.5 483.5 Q289 501 330 501 Q364 501 392.5 489.5 Q421 478 440 456.5 Q459 435 466.5 403 Q474 371 466 331 L387 -73 Z " />
<glyph glyph-name="Omacron" unicode="&#x14c;" horiz-adv-x="573" d="M361 701 Q423 701 468.5 680 Q514 659 541 623.5 Q568 588 577 542 Q586 496 576 445 Q567 397 557 347 Q547 297 537 248 Q525 191 504 144 Q483 97 450.5 63.5 Q418 30 372.5 12 Q327 -6 265 -6 Q211 -6 170 9.5 Q129 25 101.5 52 Q74 79 60 115.5 Q46 152 46 194 Q46 219 50.5 250.5 Q55 282 61.5 316 Q68 350 76 384.5 Q84 419 91 450 Q101 500 121 545.5 Q141 591 173 625.5 Q205 660 251 680.5 Q297 701 361 701 Z M355 640 Q308 640 273.5 623.5 Q239 607 215 579.5 Q191 552 176 517 Q161 482 154 446 L116 250 Q109 212 113 177 Q117 142 135 114 Q153 86 187 69.5 Q221 53 273 53 Q316 53 349 68 Q382 83 406 109.5 Q430 136 446.5 172.5 Q463 209 472 252 Q478 279 484.5 308 Q491 337 497 366 Q503 395 507.5 422 Q512 449 514 473 Q519 507 509.5 537.5 Q500 568 479 591 Q458 614 426 627 Q394 640 355 640 Z M267 768 L279 825 L540 825 L529 768 L267 768 Z " />
<glyph glyph-name="omacron" unicode="&#x14d;" horiz-adv-x="489" d="M291 500 Q336 500 370.5 484 Q405 468 426 439.5 Q447 411 454.5 373 Q462 335 453 290 L438 206 Q401 -6 215 -6 Q165 -6 129.5 10 Q94 26 73 55 Q52 84 45.5 123.5 Q39 163 48 211 L63 290 Q71 331 88 369 Q105 407 133 436 Q161 465 200 482.5 Q239 500 291 500 Z M281 443 Q245 443 218 430 Q191 417 172 395.5 Q153 374 141.5 346.5 Q130 319 125 291 L108 202 Q102 171 105.5 143.5 Q109 116 122 95.5 Q135 75 158.5 63 Q182 51 215 51 Q249 51 275.5 62 Q302 73 321.5 92.5 Q341 112 354 139 Q367 166 373 197 L392 294 Q398 325 393 352 Q388 379 373.5 399 Q359 419 335.5 431 Q312 443 281 443 Z M193 603 L204 662 L466 662 L454 603 L193 603 Z " />
<glyph glyph-name="Obreve" unicode="&#x14e;" horiz-adv-x="573" d="M361 701 Q423 701 468.5 680 Q514 659 541 623.5 Q568 588 577 542 Q586 496 576 445 Q567 397 557 347 Q547 297 537 248 Q525 191 504 144 Q483 97 450.5 63.5 Q418 30 372.5 12 Q327 -6 265 -6 Q211 -6 170 9.5 Q129 25 101.5 52 Q74 79 60 115.5 Q46 152 46 194 Q46 219 50.5 250.5 Q55 282 61.5 316 Q68 350 76 384.5 Q84 419 91 450 Q101 500 121 545.5 Q141 591 173 625.5 Q205 660 251 680.5 Q297 701 361 701 Z M355 640 Q308 640 273.5 623.5 Q239 607 215 579.5 Q191 552 176 517 Q161 482 154 446 L116 250 Q109 212 113 177 Q117 142 135 114 Q153 86 187 69.5 Q221 53 273 53 Q316 53 349 68 Q382 83 406 109.5 Q430 136 446.5 172.5 Q463 209 472 252 Q478 279 484.5 308 Q491 337 497 366 Q503 395 507.5 422 Q512 449 514 473 Q519 507 509.5 537.5 Q500 568 479 591 Q458 614 426 627 Q394 640 355 640 Z M330 857 Q326 828 343.5 808.5 Q361 789 394 789 Q432 789 456 810 Q480 831 487 857 L546 857 Q541 836 529 815 Q517 794 497.5 776.5 Q478 759 450.5 748 Q423 737 387 737 Q352 737 329 748.5 Q306 760 293 778 Q280 796 275.5 817 Q271 838 274 857 L330 857 Z " />
<glyph glyph-name="obreve" unicode="&#x14f;" horiz-adv-x="489" d="M291 500 Q336 500 370.5 484 Q405 468 426 439.5 Q447 411 454.5 373 Q462 335 453 290 L438 206 Q401 -6 215 -6 Q165 -6 129.5 10 Q94 26 73 55 Q52 84 45.5 123.5 Q39 163 48 211 L63 290 Q71 331 88 369 Q105 407 133 436 Q161 465 200 482.5 Q239 500 291 500 Z M281 443 Q245 443 218 430 Q191 417 172 395.5 Q153 374 141.5 346.5 Q130 319 125 291 L108 202 Q102 171 105.5 143.5 Q109 116 122 95.5 Q135 75 158.5 63 Q182 51 215 51 Q249 51 275.5 62 Q302 73 321.5 92.5 Q341 112 354 139 Q367 166 373 197 L392 294 Q398 325 393 352 Q388 379 373.5 399 Q359 419 335.5 431 Q312 443 281 443 Z M255 703 Q253 678 270.5 655 Q288 632 323 632 Q358 632 383.5 653.5 Q409 675 416 703 L475 703 Q469 681 457 658.5 Q445 636 426 618 Q407 600 381 589 Q355 578 320 578 Q252 578 223.5 614 Q195 650 200 703 L255 703 Z " />
<glyph glyph-name="Ohungarumlaut" unicode="&#x150;" horiz-adv-x="573" d="M361 701 Q423 701 468.5 680 Q514 659 541 623.5 Q568 588 577 542 Q586 496 576 445 Q567 397 557 347 Q547 297 537 248 Q525 191 504 144 Q483 97 450.5 63.5 Q418 30 372.5 12 Q327 -6 265 -6 Q211 -6 170 9.5 Q129 25 101.5 52 Q74 79 60 115.5 Q46 152 46 194 Q46 219 50.5 250.5 Q55 282 61.5 316 Q68 350 76 384.5 Q84 419 91 450 Q101 500 121 545.5 Q141 591 173 625.5 Q205 660 251 680.5 Q297 701 361 701 Z M355 640 Q308 640 273.5 623.5 Q239 607 215 579.5 Q191 552 176 517 Q161 482 154 446 L116 250 Q109 212 113 177 Q117 142 135 114 Q153 86 187 69.5 Q221 53 273 53 Q316 53 349 68 Q382 83 406 109.5 Q430 136 446.5 172.5 Q463 209 472 252 Q478 279 484.5 308 Q491 337 497 366 Q503 395 507.5 422 Q512 449 514 473 Q519 507 509.5 537.5 Q500 568 479 591 Q458 614 426 627 Q394 640 355 640 Z M264 767 L411 882 L457 832 L293 734 L264 767 Z M413 767 L576 882 L614 832 L436 734 L413 767 Z " />
<glyph glyph-name="ohungarumlaut" unicode="&#x151;" horiz-adv-x="489" d="M291 500 Q336 500 370.5 484 Q405 468 426 439.5 Q447 411 454.5 373 Q462 335 453 290 L438 206 Q401 -6 215 -6 Q165 -6 129.5 10 Q94 26 73 55 Q52 84 45.5 123.5 Q39 163 48 211 L63 290 Q71 331 88 369 Q105 407 133 436 Q161 465 200 482.5 Q239 500 291 500 Z M281 443 Q245 443 218 430 Q191 417 172 395.5 Q153 374 141.5 346.5 Q130 319 125 291 L108 202 Q102 171 105.5 143.5 Q109 116 122 95.5 Q135 75 158.5 63 Q182 51 215 51 Q249 51 275.5 62 Q302 73 321.5 92.5 Q341 112 354 139 Q367 166 373 197 L392 294 Q398 325 393 352 Q388 379 373.5 399 Q359 419 335.5 431 Q312 443 281 443 Z M330 573 L430 739 L491 717 L369 557 L330 573 Z M215 573 L313 739 L375 717 L252 557 L215 573 Z " />
<glyph glyph-name="Racute" unicode="&#x154;" horiz-adv-x="580" d="M319 767 L482 882 L520 832 L342 734 L319 767 Z M434 0 L339 314 L164 314 L103 0 L36 0 L172 696 L435 696 Q475 696 507.5 684 Q540 672 562.5 649 Q585 626 595.5 593 Q606 560 603 518 Q597 433 544 383 Q491 333 410 320 L511 0 L434 0 Z M536 518 Q538 549 529.5 572 Q521 595 504 609 Q487 623 462.5 630 Q438 637 410 637 L227 637 L175 374 L367 374 Q399 374 428.5 383.5 Q458 393 481.5 411 Q505 429 519.5 456 Q534 483 536 518 Z " />
<glyph glyph-name="racute" unicode="&#x155;" horiz-adv-x="349" d="M365 424 Q351 432 333 436 Q315 440 303 440 Q274 440 248.5 429.5 Q223 419 202.5 399.5 Q182 380 167.5 353 Q153 326 147 293 L90 0 L28 0 L124 495 L186 495 L171 419 L174 419 Q206 467 249 484.5 Q292 502 334 501 Q378 499 398 486 L365 424 Z M195 573 L293 739 L354 717 L232 557 L195 573 Z " />
<glyph glyph-name="Rcommaaccent" unicode="&#x156;" horiz-adv-x="580" d="M434 0 L339 314 L164 314 L103 0 L36 0 L172 696 L435 696 Q475 696 507.5 684 Q540 672 562.5 649 Q585 626 595.5 593 Q606 560 603 518 Q597 433 544 383 Q491 333 410 320 L511 0 L434 0 Z M536 518 Q538 549 529.5 572 Q521 595 504 609 Q487 623 462.5 630 Q438 637 410 637 L227 637 L175 374 L367 374 Q399 374 428.5 383.5 Q458 393 481.5 411 Q505 429 519.5 456 Q534 483 536 518 Z M216 -227 L177 -227 L228 -137 L201 -137 L218 -48 L300 -48 L283 -135 L216 -227 Z " />
<glyph glyph-name="rcommaaccent" unicode="&#x157;" horiz-adv-x="349" d="M365 424 Q351 432 333 436 Q315 440 303 440 Q274 440 248.5 429.5 Q223 419 202.5 399.5 Q182 380 167.5 353 Q153 326 147 293 L90 0 L28 0 L124 495 L186 495 L171 419 L174 419 Q206 467 249 484.5 Q292 502 334 501 Q378 499 398 486 L365 424 Z M8 -247 L-31 -247 L20 -157 L-7 -157 L10 -68 L92 -68 L75 -155 L8 -247 Z " />
<glyph glyph-name="Rcaron" unicode="&#x158;" horiz-adv-x="580" d="M434 0 L339 314 L164 314 L103 0 L36 0 L172 696 L435 696 Q475 696 507.5 684 Q540 672 562.5 649 Q585 626 595.5 593 Q606 560 603 518 Q597 433 544 383 Q491 333 410 320 L511 0 L434 0 Z M536 518 Q538 549 529.5 572 Q521 595 504 609 Q487 623 462.5 630 Q438 637 410 637 L227 637 L175 374 L367 374 Q399 374 428.5 383.5 Q458 393 481.5 411 Q505 429 519.5 456 Q534 483 536 518 Z M367 799 L530 886 L548 856 L383 736 L338 736 L226 855 L255 882 L367 799 Z " />
<glyph glyph-name="rcaron" unicode="&#x159;" horiz-adv-x="349" d="M365 424 Q351 432 333 436 Q315 440 303 440 Q274 440 248.5 429.5 Q223 419 202.5 399.5 Q182 380 167.5 353 Q153 326 147 293 L90 0 L28 0 L124 495 L186 495 L171 419 L174 419 Q206 467 249 484.5 Q292 502 334 501 Q378 499 398 486 L365 424 Z M388 722 L412 693 L251 555 L206 555 L92 694 L128 723 L236 619 L388 722 Z " />
<glyph glyph-name="Sacute" unicode="&#x15a;" horiz-adv-x="543" d="M358 702 Q412 702 463.5 687.5 Q515 673 556 647 Q546 633 535 618.5 Q524 604 513 591 Q478 614 434 626 Q390 638 344 638 Q313 638 282.5 628.5 Q252 619 228 600 Q204 581 189 553 Q174 525 174 489 Q174 460 188 441.5 Q202 423 222.5 411.5 Q243 400 265.5 394 Q288 388 306 385 Q345 376 382.5 366 Q420 356 449.5 337.5 Q479 319 497.5 289 Q516 259 516 212 Q516 159 494 118 Q472 77 434 49.5 Q396 22 345.5 8 Q295 -6 239 -6 Q167 -6 109.5 13.5 Q52 33 4 75 L51 124 Q89 92 139.5 75 Q190 58 247 58 Q287 58 321.5 68 Q356 78 382 97 Q408 116 423 144.5 Q438 173 438 209 Q438 238 425 257 Q412 276 392 288 Q372 300 347.5 306.5 Q323 313 300 318 Q264 324 229 334 Q194 344 166.5 362 Q139 380 122 408 Q105 436 105 480 Q105 529 124 569.5 Q143 610 176.5 639.5 Q210 669 256.5 685.5 Q303 702 358 702 Z M309 767 L472 882 L510 832 L332 734 L309 767 Z " />
<glyph glyph-name="sacute" unicode="&#x15b;" horiz-adv-x="457" d="M192 -6 Q166 -6 139.5 -1.5 Q113 3 87.5 11.5 Q62 20 39 33 Q16 46 -2 63 L40 111 Q68 80 109 66 Q150 52 193 52 Q218 52 242.5 56.5 Q267 61 286 71 Q305 81 316.5 97 Q328 113 328 137 Q328 177 302 195 Q276 213 234 224 Q208 230 180.5 237.5 Q153 245 130 258.5 Q107 272 92 294.5 Q77 317 77 354 Q77 394 93 422 Q109 450 135 467.5 Q161 485 195.5 493 Q230 501 266 501 Q307 501 349.5 489.5 Q392 478 424 449 L385 400 Q356 422 326.5 432.5 Q297 443 262 443 Q241 443 219.5 439 Q198 435 180.5 424.5 Q163 414 152 397 Q141 380 141 355 Q141 337 150.5 324.5 Q160 312 176 304 Q192 296 212 290 Q232 284 253 279 Q279 273 304 264.5 Q329 256 348.5 241.5 Q368 227 380 204.5 Q392 182 392 148 Q392 109 376.5 80 Q361 51 334 32 Q307 13 270.5 3.5 Q234 -6 192 -6 Z M243 573 L341 739 L402 717 L280 557 L243 573 Z " />
<glyph glyph-name="Scircumflex" unicode="&#x15c;" horiz-adv-x="543" d="M346 702 Q399 702 451 687.5 Q503 673 542 646 L502 591 Q469 614 426.5 626 Q384 638 339 638 Q310 638 280.5 630 Q251 622 227 605 Q203 588 187.5 561.5 Q172 535 172 499 Q172 471 185.5 451.5 Q199 432 218.5 419.5 Q238 407 260 399.5 Q282 392 299 388 Q335 379 371 366.5 Q407 354 436.5 334 Q466 314 484.5 282.5 Q503 251 503 205 Q503 152 481.5 112 Q460 72 423.5 46 Q387 20 338.5 7 Q290 -6 236 -6 Q169 -6 109 13 Q49 32 4 74 L49 124 Q86 92 135 75 Q184 58 238 58 Q275 58 310 66.5 Q345 75 371.5 92 Q398 109 414 136 Q430 163 430 199 Q430 228 418 248.5 Q406 269 386.5 283 Q367 297 342 306 Q317 315 292 321 Q260 328 226.5 339 Q193 350 166 369 Q139 388 122 416.5 Q105 445 105 488 Q105 537 122.5 576.5 Q140 616 172 644 Q204 672 248 687 Q292 702 346 702 Z M385 822 L224 735 L207 765 L372 885 L417 885 L528 766 L498 737 L385 822 Z " />
<glyph glyph-name="scircumflex" unicode="&#x15d;" horiz-adv-x="457" d="M192 -6 Q166 -6 139.5 -1.5 Q113 3 87.5 11.5 Q62 20 39 33 Q16 46 -2 63 L40 111 Q68 80 109 66 Q150 52 193 52 Q218 52 242.5 56.5 Q267 61 286 71 Q305 81 316.5 97 Q328 113 328 137 Q328 177 302 195 Q276 213 234 224 Q208 230 180.5 237.5 Q153 245 130 258.5 Q107 272 92 294.5 Q77 317 77 354 Q77 394 93 422 Q109 450 135 467.5 Q161 485 195.5 493 Q230 501 266 501 Q307 501 349.5 489.5 Q392 478 424 449 L385 400 Q356 422 326.5 432.5 Q297 443 262 443 Q241 443 219.5 439 Q198 435 180.5 424.5 Q163 414 152 397 Q141 380 141 355 Q141 337 150.5 324.5 Q160 312 176 304 Q192 296 212 290 Q232 284 253 279 Q279 273 304 264.5 Q329 256 348.5 241.5 Q368 227 380 204.5 Q392 182 392 148 Q392 109 376.5 80 Q361 51 334 32 Q307 13 270.5 3.5 Q234 -6 192 -6 Z M307 665 L150 560 L125 590 L293 729 L339 729 L447 592 L410 561 L307 665 Z " />
<glyph glyph-name="Scedilla" unicode="&#x15e;" horiz-adv-x="543" d="M269 -117 Q269 -93 246.5 -83 Q224 -73 200 -74 L187 -62 L214 -5 Q153 -3 99 16.5 Q45 36 4 74 L49 124 Q86 92 135 75 Q184 58 238 58 Q275 58 310 66.5 Q345 75 371.5 92 Q398 109 414 136 Q430 163 430 199 Q430 228 418 248.5 Q406 269 386.5 283 Q367 297 342 306 Q317 315 292 321 Q260 328 226.5 339 Q193 350 166 369 Q139 388 122 416.5 Q105 445 105 488 Q105 537 122.5 576.5 Q140 616 172 644 Q204 672 248 687 Q292 702 346 702 Q399 702 451 687.5 Q503 673 542 646 L502 591 Q469 614 426.5 626 Q384 638 339 638 Q310 638 280.5 630 Q251 622 227 605 Q203 588 187.5 561.5 Q172 535 172 499 Q172 471 185.5 451.5 Q199 432 218.5 419.5 Q238 407 260 399.5 Q282 392 299 388 Q335 379 371 366.5 Q407 354 436.5 334 Q466 314 484.5 282.5 Q503 251 503 205 Q503 154 483 115.5 Q463 77 429 50.5 Q395 24 349 10.5 Q303 -3 252 -5 L235 -41 Q259 -43 275.5 -50 Q292 -57 302 -67 Q312 -77 316.5 -89 Q321 -101 321 -112 Q321 -127 314 -143 Q307 -159 292.5 -171.5 Q278 -184 256.5 -192.5 Q235 -201 205 -201 Q192 -201 167 -199 Q142 -197 119 -187 L135 -150 Q154 -158 173.5 -160.5 Q193 -163 207 -163 Q216 -163 226.5 -160.5 Q237 -158 246.5 -153 Q256 -148 262.5 -139 Q269 -130 269 -117 Z " />
<glyph glyph-name="scedilla" unicode="&#x15f;" horiz-adv-x="457" d="M224 -117 Q224 -93 201.5 -83 Q179 -73 155 -74 L142 -62 L169 -5 Q122 -2 76 15 Q30 32 -2 63 L40 111 Q68 80 109 66 Q150 52 193 52 Q218 52 242.5 56.5 Q267 61 286 71 Q305 81 316.5 97 Q328 113 328 137 Q328 177 302 195 Q276 213 234 224 Q208 230 180.5 237.5 Q153 245 130 258.5 Q107 272 92 294.5 Q77 317 77 354 Q77 394 93 422 Q109 450 135 467.5 Q161 485 195.5 493 Q230 501 266 501 Q307 501 349.5 489.5 Q392 478 424 449 L385 400 Q356 422 326.5 432.5 Q297 443 262 443 Q241 443 219.5 439 Q198 435 180.5 424.5 Q163 414 152 397 Q141 380 141 355 Q141 337 150.5 324.5 Q160 312 176 304 Q192 296 212 290 Q232 284 253 279 Q279 273 304 264.5 Q329 256 348.5 241.5 Q368 227 380 204.5 Q392 182 392 148 Q392 111 378 83 Q364 55 339 36 Q314 17 280 6.5 Q246 -4 207 -5 L190 -41 Q214 -43 230.5 -50 Q247 -57 257 -67 Q267 -77 271.5 -89 Q276 -101 276 -112 Q276 -127 269 -143 Q262 -159 247.5 -171.5 Q233 -184 211.5 -192.5 Q190 -201 160 -201 Q147 -201 122 -199 Q97 -197 74 -187 L90 -150 Q109 -158 128.5 -160.5 Q148 -163 162 -163 Q171 -163 181.5 -160.5 Q192 -158 201.5 -153 Q211 -148 217.5 -139 Q224 -130 224 -117 Z " />
<glyph glyph-name="Tcommaaccent" unicode="&#x162;" horiz-adv-x="473" d="M226 -123 Q226 -99 203.5 -89 Q181 -79 157 -80 L144 -68 L177 0 L164 0 L287 637 L88 637 L99 696 L564 696 L553 637 L354 637 L230 0 L215 0 L192 -47 Q216 -49 232.5 -56 Q249 -63 259 -73 Q269 -83 273.5 -95 Q278 -107 278 -118 Q278 -133 271 -149 Q264 -165 249.5 -177.5 Q235 -190 213.5 -198.5 Q192 -207 162 -207 Q149 -207 124 -205 Q99 -203 76 -193 L92 -156 Q111 -164 130.5 -166.5 Q150 -169 164 -169 Q173 -169 183.5 -166.5 Q194 -164 203.5 -159 Q213 -154 219.5 -145 Q226 -136 226 -123 Z " />
<glyph glyph-name="tcommaaccent" unicode="&#x163;" horiz-adv-x="266" d="M124 -104 Q124 -80 101.5 -70 Q79 -60 55 -61 L42 -49 L79 27 Q62 47 62 79 Q62 93 65 110 Q82 193 97.5 275.5 Q113 358 130 440 L66 440 L77 495 L140 495 Q147 527 153 559 Q159 591 165 623 L227 623 Q220 591 214 559 Q208 527 202 495 L285 495 L275 440 L191 440 L130 128 Q127 113 127 99 Q127 80 137.5 67.5 Q148 55 177 55 L213 55 L202 0 L152 0 Q128 0 107 8 L90 -28 Q114 -30 130.5 -37 Q147 -44 157 -54 Q167 -64 171.5 -76 Q176 -88 176 -99 Q176 -114 169 -130 Q162 -146 147.5 -158.5 Q133 -171 111.5 -179.5 Q90 -188 60 -188 Q47 -188 22 -186 Q-3 -184 -26 -174 L-10 -137 Q9 -145 28.5 -147.5 Q48 -150 62 -150 Q71 -150 81.5 -147.5 Q92 -145 101.5 -140 Q111 -135 117.5 -126 Q124 -117 124 -104 Z " />
<glyph glyph-name="Tcaron" unicode="&#x164;" horiz-adv-x="473" d="M354 637 L230 0 L164 0 L287 637 L88 637 L99 696 L564 696 L553 637 L354 637 Z M344 799 L507 886 L525 856 L360 736 L315 736 L203 855 L232 882 L344 799 Z " />
<glyph glyph-name="tcaron" unicode="&#x165;" horiz-adv-x="313" d="M152 0 Q111 0 87 20 Q63 40 62 79 Q62 93 65 110 Q82 193 97.5 275.5 Q113 358 130 440 L66 440 L77 495 L140 495 Q147 527 153 559 Q159 591 165 623 L227 623 Q220 591 214 559 Q208 527 202 495 L285 495 L275 440 L191 440 L130 128 Q127 113 127 99 Q127 80 137.5 67.5 Q148 55 177 55 L213 55 L202 0 L152 0 Z M317 562 L278 562 L329 652 L302 652 L319 741 L401 741 L384 654 L317 562 Z " />
<glyph glyph-name="Tbar" unicode="&#x166;" horiz-adv-x="473" d="M354 637 L307 397 L457 397 L446 343 L297 343 L230 0 L164 0 L230 343 L79 343 L89 397 L240 397 L287 637 L88 637 L99 696 L564 696 L553 637 L354 637 Z " />
<glyph glyph-name="tbar" unicode="&#x167;" horiz-adv-x="266" d="M35 304 L103 304 L130 440 L66 440 L77 495 L140 495 Q147 527 153 559 Q159 591 165 623 L227 623 Q220 591 214 559 Q208 527 202 495 L285 495 L275 440 L191 440 L164 304 L245 304 L236 253 L154 253 L130 128 Q127 113 127 99 Q127 80 137.5 67.5 Q148 55 177 55 L213 55 L202 0 L152 0 Q111 0 87 20 Q63 40 62 79 Q62 93 65 110 L93 253 L25 253 L35 304 Z " />
<glyph glyph-name="Utilde" unicode="&#x168;" horiz-adv-x="600" d="M542 229 Q531 176 507.5 132.5 Q484 89 449 58.5 Q414 28 367.5 11 Q321 -6 266 -6 Q216 -6 175 11.5 Q134 29 107 61 Q80 93 69 138 Q58 183 69 239 L158 696 L224 696 L137 251 Q129 209 133.5 173.5 Q138 138 155.5 111.5 Q173 85 202 70.5 Q231 56 272 56 Q350 56 405 105.5 Q460 155 477 241 L566 696 L633 696 L542 229 Z M343 845 Q361 845 378.5 838 Q396 831 413 823 Q430 815 446 808 Q462 801 477 801 Q492 801 506.5 810 Q521 819 540 842 L576 819 Q554 777 526.5 760.5 Q499 744 470 744 Q452 744 434.5 750.5 Q417 757 399.5 765 Q382 773 366 779.5 Q350 786 336 786 Q318 786 305 778 Q292 770 271 750 L237 773 Q261 811 288 828 Q315 845 343 845 Z " />
<glyph glyph-name="utilde" unicode="&#x169;" horiz-adv-x="515" d="M343 0 L357 68 L354 68 Q322 28 280 11 Q238 -6 198 -6 Q122 -6 83.5 42 Q45 90 62 180 L123 495 L184 495 L125 189 Q113 125 136 89.5 Q159 54 227 54 Q254 54 279 64 Q304 74 325 93 Q346 112 361 138 Q376 164 382 196 L440 495 L502 495 L406 0 L343 0 Z M274 689 Q292 689 309.5 682 Q327 675 344 667 Q361 659 377 652 Q393 645 408 645 Q423 645 437.5 654 Q452 663 471 686 L507 663 Q485 621 457.5 604.5 Q430 588 401 588 Q383 588 365.5 594.5 Q348 601 330.5 609 Q313 617 297 623.5 Q281 630 267 630 Q249 630 236 622 Q223 614 202 594 L168 617 Q192 655 219 672 Q246 689 274 689 Z " />
<glyph glyph-name="Umacron" unicode="&#x16a;" horiz-adv-x="600" d="M542 229 Q531 176 507.5 132.5 Q484 89 449 58.5 Q414 28 367.5 11 Q321 -6 266 -6 Q216 -6 175 11.5 Q134 29 107 61 Q80 93 69 138 Q58 183 69 239 L158 696 L224 696 L137 251 Q129 209 133.5 173.5 Q138 138 155.5 111.5 Q173 85 202 70.5 Q231 56 272 56 Q350 56 405 105.5 Q460 155 477 241 L566 696 L633 696 L542 229 Z M266 768 L278 825 L539 825 L528 768 L266 768 Z " />
<glyph glyph-name="umacron" unicode="&#x16b;" horiz-adv-x="515" d="M343 0 L357 68 L354 68 Q322 28 280 11 Q238 -6 198 -6 Q122 -6 83.5 42 Q45 90 62 180 L123 495 L184 495 L125 189 Q113 125 136 89.5 Q159 54 227 54 Q254 54 279 64 Q304 74 325 93 Q346 112 361 138 Q376 164 382 196 L440 495 L502 495 L406 0 L343 0 Z M188 603 L199 662 L461 662 L449 603 L188 603 Z " />
<glyph glyph-name="Ubreve" unicode="&#x16c;" horiz-adv-x="600" d="M542 229 Q531 176 507.5 132.5 Q484 89 449 58.5 Q414 28 367.5 11 Q321 -6 266 -6 Q216 -6 175 11.5 Q134 29 107 61 Q80 93 69 138 Q58 183 69 239 L158 696 L224 696 L137 251 Q129 209 133.5 173.5 Q138 138 155.5 111.5 Q173 85 202 70.5 Q231 56 272 56 Q350 56 405 105.5 Q460 155 477 241 L566 696 L633 696 L542 229 Z M337 848 Q335 823 352.5 800 Q370 777 405 777 Q440 777 465.5 798 Q491 819 498 848 L558 848 Q552 826 539.5 804 Q527 782 508 764 Q489 746 462.5 735 Q436 724 401 724 Q333 724 305.5 759.5 Q278 795 283 848 L337 848 Z " />
<glyph glyph-name="ubreve" unicode="&#x16d;" horiz-adv-x="515" d="M343 0 L357 68 L354 68 Q322 28 280 11 Q238 -6 198 -6 Q122 -6 83.5 42 Q45 90 62 180 L123 495 L184 495 L125 189 Q113 125 136 89.5 Q159 54 227 54 Q254 54 279 64 Q304 74 325 93 Q346 112 361 138 Q376 164 382 196 L440 495 L502 495 L406 0 L343 0 Z M264 703 Q262 678 279.5 655 Q297 632 332 632 Q367 632 392.5 653.5 Q418 675 425 703 L484 703 Q478 681 466 658.5 Q454 636 435 618 Q416 600 390 589 Q364 578 329 578 Q261 578 232.5 614 Q204 650 209 703 L264 703 Z " />
<glyph glyph-name="Uring" unicode="&#x16e;" horiz-adv-x="600" d="M542 229 Q531 176 507.5 132.5 Q484 89 449 58.5 Q414 28 367.5 11 Q321 -6 266 -6 Q216 -6 175 11.5 Q134 29 107 61 Q80 93 69 138 Q58 183 69 239 L158 696 L224 696 L137 251 Q129 209 133.5 173.5 Q138 138 155.5 111.5 Q173 85 202 70.5 Q231 56 272 56 Q350 56 405 105.5 Q460 155 477 241 L566 696 L633 696 L542 229 Z M385 711 Q350 711 328 733 Q306 755 306 787 Q306 810 315 830.5 Q324 851 339 866.5 Q354 882 375 891 Q396 900 420 900 Q455 900 477.5 877.5 Q500 855 500 822 Q500 797 490 776.5 Q480 756 464 741.5 Q448 727 427 719 Q406 711 385 711 Z M413 864 Q385 864 364 843 Q343 822 343 794 Q343 774 356 760.5 Q369 747 391 747 Q404 747 417 752.5 Q430 758 440 768 Q450 778 456 790.5 Q462 803 462 817 Q462 837 448.5 850.5 Q435 864 413 864 Z " />
<glyph glyph-name="uring" unicode="&#x16f;" horiz-adv-x="515" d="M343 0 L357 68 L354 68 Q322 28 280 11 Q238 -6 198 -6 Q122 -6 83.5 42 Q45 90 62 180 L123 495 L184 495 L125 189 Q113 125 136 89.5 Q159 54 227 54 Q254 54 279 64 Q304 74 325 93 Q346 112 361 138 Q376 164 382 196 L440 495 L502 495 L406 0 L343 0 Z M319 549 Q284 549 262 571 Q240 593 240 625 Q240 648 249 668.5 Q258 689 273 704.5 Q288 720 309 729 Q330 738 354 738 Q389 738 411.5 715.5 Q434 693 434 660 Q434 635 424 614.5 Q414 594 398 579.5 Q382 565 361 557 Q340 549 319 549 Z M347 702 Q319 702 298 681 Q277 660 277 632 Q277 612 290 598.5 Q303 585 325 585 Q338 585 351 590.5 Q364 596 374 606 Q384 616 390 628.5 Q396 641 396 655 Q396 675 382.5 688.5 Q369 702 347 702 Z " />
<glyph glyph-name="Uhungarumlaut" unicode="&#x170;" horiz-adv-x="600" d="M542 229 Q531 176 507.5 132.5 Q484 89 449 58.5 Q414 28 367.5 11 Q321 -6 266 -6 Q216 -6 175 11.5 Q134 29 107 61 Q80 93 69 138 Q58 183 69 239 L158 696 L224 696 L137 251 Q129 209 133.5 173.5 Q138 138 155.5 111.5 Q173 85 202 70.5 Q231 56 272 56 Q350 56 405 105.5 Q460 155 477 241 L566 696 L633 696 L542 229 Z M281 767 L428 882 L474 832 L310 734 L281 767 Z M430 767 L593 882 L631 832 L453 734 L430 767 Z " />
<glyph glyph-name="uhungarumlaut" unicode="&#x171;" horiz-adv-x="515" d="M343 0 L357 68 L354 68 Q322 28 280 11 Q238 -6 198 -6 Q122 -6 83.5 42 Q45 90 62 180 L123 495 L184 495 L125 189 Q113 125 136 89.5 Q159 54 227 54 Q254 54 279 64 Q304 74 325 93 Q346 112 361 138 Q376 164 382 196 L440 495 L502 495 L406 0 L343 0 Z M358 573 L458 739 L519 717 L397 557 L358 573 Z M243 573 L341 739 L403 717 L280 557 L243 573 Z " />
<glyph glyph-name="Uogonek" unicode="&#x172;" horiz-adv-x="600" d="M264 -175 Q228 -175 208 -155 Q188 -135 188 -106 Q188 -86 199 -61 Q210 -36 239 -4 Q195 0 159 19 Q123 38 99.5 69.5 Q76 101 67.5 144 Q59 187 69 239 L158 696 L224 696 L137 251 Q129 209 133.5 173.5 Q138 138 155.5 111.5 Q173 85 202 70.5 Q231 56 272 56 Q350 56 405 105.5 Q460 155 477 241 L566 696 L633 696 L542 229 Q532 178 510 136.5 Q488 95 455.5 64.5 Q423 34 380.5 16 Q338 -2 287 -5 Q264 -30 253.5 -52.5 Q243 -75 243 -93 Q243 -128 286 -128 Q298 -128 313 -124.5 Q328 -121 345 -113 L354 -152 Q334 -163 310.5 -169 Q287 -175 264 -175 Z " />
<glyph glyph-name="uogonek" unicode="&#x173;" horiz-adv-x="515" d="M360 -177 Q324 -177 304 -157 Q284 -137 284 -108 Q284 -86 296.5 -59.5 Q309 -33 343 1 L357 68 L354 68 Q322 28 280 11 Q238 -6 198 -6 Q122 -6 83.5 42 Q45 90 62 180 L123 495 L184 495 L125 189 Q113 125 136 89.5 Q159 54 227 54 Q254 54 279 64 Q304 74 325 93 Q346 112 361 138 Q376 164 382 196 L440 495 L502 495 L406 0 L390 0 Q364 -27 351.5 -51 Q339 -75 339 -95 Q339 -130 382 -130 Q394 -130 409 -126.5 Q424 -123 441 -115 L450 -154 Q430 -165 406.5 -171 Q383 -177 360 -177 Z " />
<glyph glyph-name="Wcircumflex" unicode="&#x174;" horiz-adv-x="800" d="M573 0 L513 0 L486 361 L471 573 L469 573 L382 383 Q337 286 293.5 191 Q250 96 205 0 L145 0 Q137 175 128.5 348 Q120 521 111 696 L177 696 Q181 568 184.5 479.5 Q188 391 190.5 327.5 Q193 264 194.5 218.5 Q196 173 198 130 L201 130 L304 357 Q344 442 383.5 526.5 Q423 611 462 696 L523 696 L549 364 Q552 328 554.5 293 Q557 258 559.5 227 Q562 196 563.5 170.5 Q565 145 567 129 L570 129 L647 315 Q688 411 727.5 505 Q767 599 807 696 L877 696 L573 0 Z M529 822 L368 735 L351 765 L516 885 L561 885 L672 766 L642 737 L529 822 Z " />
<glyph glyph-name="wcircumflex" unicode="&#x175;" horiz-adv-x="697" d="M368 416 Q343 357 319 304.5 Q295 252 270 201.5 Q245 151 218 101.5 Q191 52 161 0 L100 0 L44 496 L108 496 L134 205 Q136 176 138 141 Q140 106 142 73 L145 73 Q198 167 245.5 272.5 Q293 378 346 496 L417 496 L448 218 Q452 186 455 149 Q458 112 458 71 L460 71 Q515 171 566 281 Q617 391 660 496 L726 496 Q697 425 668 362.5 Q639 300 608.5 240.5 Q578 181 545 122 Q512 63 475 0 L415 0 L382 275 Q380 299 376.5 336.5 Q373 374 372 416 L368 416 Z M427 665 L270 560 L245 590 L413 729 L459 729 L567 592 L530 561 L427 665 Z " />
<glyph glyph-name="Ycircumflex" unicode="&#x176;" horiz-adv-x="482" d="M231 0 L168 0 L224 287 Q193 390 162 491.5 Q131 593 99 696 L164 696 Q178 646 194 594 Q210 542 230 474 Q239 441 249 405 Q259 369 264 348 L360 491 Q364 497 375 513 Q386 529 400 549.5 Q414 570 430 593.5 Q446 617 460 637.5 Q474 658 484.5 674 Q495 690 499 696 L570 696 Q499 593 429 491.5 Q359 390 287 287 L231 0 Z M366 822 L205 735 L188 765 L353 885 L398 885 L509 766 L479 737 L366 822 Z " />
<glyph glyph-name="ycircumflex" unicode="&#x177;" horiz-adv-x="409" d="M453 495 Q396 340 338 213.5 Q280 87 220 -10 Q198 -45 171 -77.5 Q144 -110 111 -135.5 Q78 -161 37.5 -177.5 Q-3 -194 -52 -197 L-54 -142 Q-2 -136 46.5 -109 Q95 -82 137 -23 L55 495 L121 495 L155 257 Q162 207 169.5 149 Q177 91 179 34 L182 34 Q248 146 298.5 265 Q349 384 388 495 L453 495 Z M280 665 L123 560 L98 590 L266 729 L312 729 L420 592 L383 561 L280 665 Z " />
<glyph glyph-name="Zacute" unicode="&#x179;" horiz-adv-x="487" d="M301 767 L464 882 L502 832 L324 734 L301 767 Z M-8 0 L4 60 L463 637 L130 637 L141 696 L550 696 L539 641 L79 62 L427 62 L415 0 L-8 0 Z " />
<glyph glyph-name="zacute" unicode="&#x17a;" horiz-adv-x="419" d="M-14 0 L-3 52 L350 440 L87 440 L97 495 L434 495 L424 441 L75 58 L349 58 L338 0 L-14 0 Z M239 573 L337 739 L398 717 L276 557 L239 573 Z " />
<glyph glyph-name="Zdotaccent" unicode="&#x17b;" horiz-adv-x="487" d="M-8 0 L4 60 L463 637 L130 637 L141 696 L550 696 L539 641 L79 62 L427 62 L415 0 L-8 0 Z M315 752 L329 824 L400 824 L386 752 L315 752 Z " />
<glyph glyph-name="zdotaccent" unicode="&#x17c;" horiz-adv-x="419" d="M-14 0 L-3 52 L350 440 L87 440 L97 495 L434 495 L424 441 L75 58 L349 58 L338 0 L-14 0 Z M240 602 L254 674 L325 674 L311 602 L240 602 Z " />
<glyph glyph-name="Ohorn" unicode="&#x1a0;" horiz-adv-x="593" d="M361 701 Q412 701 450.5 687 Q489 673 517 649 Q537 649 551.5 654 Q566 659 576.5 671 Q587 683 594.5 702 Q602 721 607 749 L612 772 L670 772 L665 741 Q654 683 630.5 645.5 Q607 608 558 597 Q593 530 576 445 Q567 397 557 347 Q547 297 537 248 Q525 191 504 144 Q483 97 450.5 63.5 Q418 30 372.5 12 Q327 -6 265 -6 Q211 -6 170 9.5 Q129 25 101.5 52 Q74 79 60 115.5 Q46 152 46 194 Q46 219 50.5 250.5 Q55 282 61.5 316 Q68 350 76 384.5 Q84 419 91 450 Q101 500 121 545.5 Q141 591 173 625.5 Q205 660 251 680.5 Q297 701 361 701 Z M355 640 Q308 640 273.5 623.5 Q239 607 215 579.5 Q191 552 176 517 Q161 482 154 446 L116 250 Q109 212 113 177 Q117 142 135 114 Q153 86 187 69.5 Q221 53 273 53 Q316 53 349 68 Q382 83 406 109.5 Q430 136 446.5 172.5 Q463 209 472 252 Q478 279 484.5 308 Q491 337 497 366 Q503 395 507.5 422 Q512 449 514 473 Q519 507 509.5 537.5 Q500 568 479 591 Q458 614 426 627 Q394 640 355 640 Z " />
<glyph glyph-name="ohorn" unicode="&#x1a1;" horiz-adv-x="509" d="M287 501 Q328 501 360.5 487.5 Q393 474 416 450 Q454 452 472 474 Q490 496 501 550 L505 573 L564 573 L558 542 Q546 483 522.5 445.5 Q499 408 448 397 Q459 366 459 329 Q459 270 447 210 Q435 150 407 102 Q379 54 333 24 Q287 -6 220 -6 Q134 -6 87.5 37 Q41 80 41 161 Q41 228 55.5 289.5 Q70 351 100 398 Q130 445 176.5 473 Q223 501 287 501 Z M278 445 Q228 445 194 417 Q160 389 140 347.5 Q120 306 111.5 257.5 Q103 209 103 168 Q103 151 107.5 130.5 Q112 110 124.5 92 Q137 74 159.5 62 Q182 50 217 50 Q266 50 300 74.5 Q334 99 355 138 Q376 177 385.5 225.5 Q395 274 395 323 Q395 386 361 415.5 Q327 445 278 445 Z " />
<glyph glyph-name="Uhorn" unicode="&#x1af;" horiz-adv-x="644" d="M542 229 Q531 176 507.5 132.5 Q484 89 449 58.5 Q414 28 367.5 11 Q321 -6 266 -6 Q216 -6 175 11.5 Q134 29 107 61 Q80 93 69 138 Q58 183 69 239 L158 696 L224 696 L137 251 Q129 209 133.5 173.5 Q138 138 155.5 111.5 Q173 85 202 70.5 Q231 56 272 56 Q350 56 405 105.5 Q460 155 477 241 L566 696 L633 696 L624 649 Q659 651 677.5 673.5 Q696 696 706 749 L711 772 L769 772 L763 741 Q756 707 746 679.5 Q736 652 718.5 633 Q701 614 676 603.5 Q651 593 614 593 L613 593 L542 229 L542 229 Z " />
<glyph glyph-name="uhorn" unicode="&#x1b0;" horiz-adv-x="558" d="M343 0 L357 68 L354 68 Q322 28 280 11 Q238 -6 198 -6 Q122 -6 83.5 42 Q45 90 62 180 L123 495 L184 495 L125 189 Q113 125 136 89.5 Q159 54 227 54 Q254 54 279 64 Q304 74 325 93 Q346 112 361 138 Q376 164 382 196 L440 495 L502 495 L493 450 Q530 452 548 474.5 Q566 497 577 550 L581 573 L639 573 L633 542 Q627 508 616.5 480.5 Q606 453 589 434 Q572 415 547 404.5 Q522 394 485 394 L482 394 L406 0 L343 0 Z " />
<glyph glyph-name="AEacute" unicode="&#x1fc;" horiz-adv-x="949" d="M647 767 L810 882 L848 832 L670 734 L647 767 Z M448 0 L475 195 L199 195 L49 0 L-23 0 L516 696 L976 696 L968 634 L605 634 L569 382 L879 382 L871 322 L561 322 L524 62 L888 62 L879 0 L448 0 Z M245 253 L483 253 L537 631 L245 253 Z " />
<glyph glyph-name="aeacute" unicode="&#x1fd;" horiz-adv-x="804" d="M711 49 Q675 23 628.5 8.5 Q582 -6 537 -6 Q472 -6 434.5 19.5 Q397 45 383 94 Q351 46 299 20 Q247 -6 171 -6 Q140 -6 114 3.5 Q88 13 68.5 29.5 Q49 46 38 69 Q27 92 27 120 Q27 158 41 188 Q55 218 79.5 239 Q104 260 138.5 271 Q173 282 214 282 Q240 282 260 281 Q280 280 299 278 Q318 276 337 273.5 Q356 271 381 268 Q387 298 392 321.5 Q397 345 397 366 Q397 404 373 423 Q349 442 291 442 Q244 442 210 430.5 Q176 419 150 398 L115 441 Q154 473 202 487 Q250 501 295 501 Q323 501 349 497.5 Q375 494 396 485 Q417 476 432.5 461.5 Q448 447 456 425 Q485 459 524.5 480 Q564 501 617 501 Q698 501 741.5 465.5 Q785 430 785 370 Q785 338 772 309 Q759 280 728.5 257.5 Q698 235 648.5 221 Q599 207 526 206 Q505 206 483 206.5 Q461 207 436 208 Q434 195 433.5 186 Q433 177 433 170 Q433 101 461.5 76 Q490 51 545 51 Q574 51 611 61.5 Q648 72 682 95 L711 49 Z M87 133 Q87 95 110.5 72.5 Q134 50 193 50 Q221 50 249 58 Q277 66 299.5 80.5 Q322 95 338 115.5 Q354 136 359 161 L370 217 Q348 220 330 222.5 Q312 225 295 227 Q278 229 260.5 230 Q243 231 222 231 Q166 231 129 205 Q92 179 87 133 Z M614 443 Q573 443 544 427 Q515 411 495 385.5 Q475 360 463.5 328 Q452 296 446 263 Q489 260 526 260 Q584 261 622 270 Q660 279 682.5 293.5 Q705 308 714 326 Q723 344 723 362 Q723 400 695 421.5 Q667 443 614 443 Z M462 573 L560 739 L621 717 L499 557 L462 573 Z " />
<glyph glyph-name="Oslashacute" unicode="&#x1fe;" horiz-adv-x="573" d="M372 701 Q426 701 465.5 685 Q505 669 531 641 L580 699 L610 676 L554 610 Q574 576 579.5 533.5 Q585 491 576 445 Q567 397 557 347 Q547 297 537 248 Q525 191 501 144 Q477 97 442 63.5 Q407 30 360 12 Q313 -6 255 -6 Q198 -6 156 13 Q114 32 88 64 L32 -2 L2 21 L67 97 Q46 140 46 194 Q46 219 50.5 250.5 Q55 282 61.5 316 Q68 350 76 384.5 Q84 419 91 450 Q101 500 122.5 545.5 Q144 591 178 625.5 Q212 660 260 680.5 Q308 701 372 701 Z M514 473 Q520 516 506 553 L133 116 Q150 87 182 70 Q214 53 263 53 Q303 53 337.5 68 Q372 83 398.5 109.5 Q425 136 444 172.5 Q463 209 472 252 Q478 279 484.5 308 Q491 337 497 366 Q503 395 507.5 422 Q512 449 514 473 Z M365 640 Q318 640 282 623.5 Q246 607 220 579.5 Q194 552 177.5 517 Q161 482 154 446 L116 250 Q111 225 111 201.5 Q111 178 117 156 L486 588 Q466 612 436 626 Q406 640 365 640 Z M345 766 Q386 795 426.5 823.5 Q467 852 508 881 Q518 868 527 855.5 Q536 843 546 831 L368 733 L345 766 Z " />
<glyph glyph-name="oslashacute" unicode="&#x1ff;" horiz-adv-x="502" d="M287 501 Q327 501 359.5 488 Q392 475 415 451 L474 516 L500 494 L436 423 Q459 383 459 329 Q459 270 447 210 Q435 150 407 102 Q379 54 333 24 Q287 -6 220 -6 Q133 -6 87 38 L36 -18 L10 5 L65 65 Q41 104 41 161 Q41 228 55.5 289.5 Q70 351 100 398 Q130 445 176.5 473 Q223 501 287 501 Z M278 445 Q228 445 194 417 Q160 389 140 347.5 Q120 306 111.5 257.5 Q103 209 103 168 Q103 156 104.5 143 Q106 130 111 117 L371 403 Q355 424 331 434.5 Q307 445 278 445 Z M395 323 Q395 350 388 370 L130 85 Q143 70 164 60 Q185 50 217 50 Q266 50 300 74.5 Q334 99 355 138 Q376 177 385.5 225.5 Q395 274 395 323 Z M266 573 L364 739 L425 717 L303 557 L266 573 Z " />
<glyph glyph-name="Scommaaccent" unicode="&#x218;" horiz-adv-x="543" d="M346 702 Q399 702 451 687.5 Q503 673 542 646 L502 591 Q469 614 426.5 626 Q384 638 339 638 Q310 638 280.5 630 Q251 622 227 605 Q203 588 187.5 561.5 Q172 535 172 499 Q172 471 185.5 451.5 Q199 432 218.5 419.5 Q238 407 260 399.5 Q282 392 299 388 Q335 379 371 366.5 Q407 354 436.5 334 Q466 314 484.5 282.5 Q503 251 503 205 Q503 152 481.5 112 Q460 72 423.5 46 Q387 20 338.5 7 Q290 -6 236 -6 Q169 -6 109 13 Q49 32 4 74 L49 124 Q86 92 135 75 Q184 58 238 58 Q275 58 310 66.5 Q345 75 371.5 92 Q398 109 414 136 Q430 163 430 199 Q430 228 418 248.5 Q406 269 386.5 283 Q367 297 342 306 Q317 315 292 321 Q260 328 226.5 339 Q193 350 166 369 Q139 388 122 416.5 Q105 445 105 488 Q105 537 122.5 576.5 Q140 616 172 644 Q204 672 248 687 Q292 702 346 702 Z M208 -247 L169 -247 L220 -157 L193 -157 L210 -68 L292 -68 L275 -155 L208 -247 Z " />
<glyph glyph-name="scommaaccent" unicode="&#x219;" horiz-adv-x="457" d="M192 -6 Q166 -6 139.5 -1.5 Q113 3 87.5 11.5 Q62 20 39 33 Q16 46 -2 63 L40 111 Q68 80 109 66 Q150 52 193 52 Q218 52 242.5 56.5 Q267 61 286 71 Q305 81 316.5 97 Q328 113 328 137 Q328 177 302 195 Q276 213 234 224 Q208 230 180.5 237.5 Q153 245 130 258.5 Q107 272 92 294.5 Q77 317 77 354 Q77 394 93 422 Q109 450 135 467.5 Q161 485 195.5 493 Q230 501 266 501 Q307 501 349.5 489.5 Q392 478 424 449 L385 400 Q356 422 326.5 432.5 Q297 443 262 443 Q241 443 219.5 439 Q198 435 180.5 424.5 Q163 414 152 397 Q141 380 141 355 Q141 337 150.5 324.5 Q160 312 176 304 Q192 296 212 290 Q232 284 253 279 Q279 273 304 264.5 Q329 256 348.5 241.5 Q368 227 380 204.5 Q392 182 392 148 Q392 109 376.5 80 Q361 51 334 32 Q307 13 270.5 3.5 Q234 -6 192 -6 Z M161 -247 L122 -247 L173 -157 L146 -157 L163 -68 L245 -68 L228 -155 L161 -247 Z " />
<glyph glyph-name="schwa" unicode="&#x259;" horiz-adv-x="466" d="M211 -5 Q130 -5 86 31 Q42 67 42 127 Q42 159 55 188.5 Q68 218 101 240.5 Q134 263 190 276.5 Q246 290 333 290 Q344 290 361 289.5 Q378 289 392 288 Q395 313 395 325 Q395 390 366 417.5 Q337 445 283 445 Q268 445 250 441.5 Q232 438 214 432 Q196 426 178.5 418 Q161 410 148 401 L117 446 Q153 472 199.5 487 Q246 502 291 502 Q376 502 415.5 457 Q455 412 455 325 Q455 268 441.5 209.5 Q428 151 398.5 103 Q369 55 322.5 25 Q276 -5 211 -5 Z M214 52 Q255 52 284 68 Q313 84 333 109.5 Q353 135 364.5 167 Q376 199 382 232 Q365 234 348 234 Q331 234 319 234 Q249 234 207 223.5 Q165 213 142.5 198 Q120 183 113 165.5 Q106 148 106 134 Q106 96 134 74 Q162 52 214 52 Z " />
<glyph glyph-name="primemod" unicode="&#x2b9;" horiz-adv-x="232" d="M303 670 L126 413 L84 426 L227 690 L303 670 Z " />
<glyph glyph-name="caron" unicode="&#x2c7;" horiz-adv-x="487" d="M477 722 L501 693 L340 555 L295 555 L181 694 L217 723 L325 619 L477 722 Z " />
<glyph glyph-name="breve" unicode="&#x2d8;" horiz-adv-x="505" d="M264 703 Q262 678 279.5 655 Q297 632 332 632 Q367 632 392.5 653.5 Q418 675 425 703 L484 703 Q478 681 466 658.5 Q454 636 435 618 Q416 600 390 589 Q364 578 329 578 Q261 578 232.5 614 Q204 650 209 703 L264 703 Z " />
<glyph glyph-name="dotaccent" unicode="&#x2d9;" horiz-adv-x="469" d="M268 602 L282 674 L353 674 L339 602 L268 602 Z " />
<glyph glyph-name="ring" unicode="&#x2da;" horiz-adv-x="485" d="M332 549 Q297 549 275 571 Q253 593 253 625 Q253 648 262 668.5 Q271 689 286 704.5 Q301 720 322 729 Q343 738 367 738 Q402 738 424.5 715.5 Q447 693 447 660 Q447 635 437 614.5 Q427 594 411 579.5 Q395 565 374 557 Q353 549 332 549 Z M360 702 Q332 702 311 681 Q290 660 290 632 Q290 612 303 598.5 Q316 585 338 585 Q351 585 364 590.5 Q377 596 387 606 Q397 616 403 628.5 Q409 641 409 655 Q409 675 395.5 688.5 Q382 702 360 702 Z " />
<glyph glyph-name="ogonek" unicode="&#x2db;" horiz-adv-x="342" d="M169 -177 Q133 -177 113 -157 Q93 -137 93 -108 Q93 -86 106 -59 Q119 -32 154 3 L199 2 L199 0 Q173 -27 160.5 -51 Q148 -75 148 -95 Q148 -130 191 -130 Q203 -130 218 -126.5 Q233 -123 250 -115 L259 -154 Q239 -165 215.5 -171 Q192 -177 169 -177 Z " />
<glyph glyph-name="hungarumlaut" unicode="&#x2dd;" horiz-adv-x="493" d="M336 573 L436 739 L497 717 L375 557 L336 573 Z M221 573 L319 739 L381 717 L258 557 L221 573 Z " />
<glyph glyph-name="tonos" unicode="&#x384;" horiz-adv-x="487" d="M246 573 L345 739 L406 717 L284 557 L246 573 Z " />
<glyph glyph-name="dieresistonos" unicode="&#x385;" horiz-adv-x="414" d="M337 597 L351 669 L420 669 L407 597 L337 597 Z M94 597 L108 669 L178 669 L165 597 L94 597 Z M189 573 L288 739 L349 717 L228 557 L189 573 Z " />
<glyph glyph-name="Alphatonos" unicode="&#x386;" horiz-adv-x="580" d="M459 0 Q453 42 447 82.5 Q441 123 434 165 L129 165 L40 0 L-31 0 Q65 175 160.5 348 Q256 521 353 696 L415 696 L529 0 L459 0 Z M368 616 Q363 606 347.5 576.5 Q332 547 310.5 507 Q289 467 265 422 Q241 377 219.5 336.5 Q198 296 181.5 265 Q165 234 159 223 L427 223 Q424 244 419.5 276 Q415 308 409.5 345 Q404 382 398.5 422 Q393 462 387.5 498.5 Q382 535 377.5 565.5 Q373 596 370 616 L368 616 Z M27 560 L126 726 L187 704 L65 544 L27 560 Z " />
<glyph glyph-name="anoteleia" unicode="&#x387;" horiz-adv-x="206" d="M78 299 L95 388 L176 388 L159 299 L78 299 Z " />
<glyph glyph-name="Epsilontonos" unicode="&#x388;" horiz-adv-x="525" d="M35 0 L171 696 L581 696 L569 634 L225 634 L177 382 L481 382 L469 322 L165 322 L114 62 L487 62 L475 0 L35 0 Z M-52 560 L47 726 L108 704 L-14 544 L-52 560 Z " />
<glyph glyph-name="Etatonos" unicode="&#x389;" horiz-adv-x="618" d="M436 0 L498 322 L165 322 L102 0 L35 0 L171 696 L237 696 L176 382 L510 382 L571 696 L638 696 L502 0 L436 0 Z M-56 560 L43 726 L104 704 L-18 544 L-56 560 Z " />
<glyph glyph-name="Iotatonos" unicode="&#x38a;" horiz-adv-x="222" d="M37 0 L173 696 L239 696 L104 0 L37 0 Z M-55 560 L44 726 L105 704 L-17 544 L-55 560 Z " />
<glyph glyph-name="Omicrontonos" unicode="&#x38c;" horiz-adv-x="573" d="M361 701 Q423 701 468.5 680 Q514 659 541 623.5 Q568 588 577 542 Q586 496 576 445 Q567 397 557 347 Q547 297 537 248 Q525 191 504 144 Q483 97 450.5 63.5 Q418 30 372.5 12 Q327 -6 265 -6 Q211 -6 170 9.5 Q129 25 101.5 52 Q74 79 60 115.5 Q46 152 46 194 Q46 219 50.5 250.5 Q55 282 61.5 316 Q68 350 76 384.5 Q84 419 91 450 Q101 500 121 545.5 Q141 591 173 625.5 Q205 660 251 680.5 Q297 701 361 701 Z M355 640 Q308 640 273.5 623.5 Q239 607 215 579.5 Q191 552 176 517 Q161 482 154 446 L116 250 Q109 212 113 177 Q117 142 135 114 Q153 86 187 69.5 Q221 53 273 53 Q316 53 349 68 Q382 83 406 109.5 Q430 136 446.5 172.5 Q463 209 472 252 Q478 279 484.5 308 Q491 337 497 366 Q503 395 507.5 422 Q512 449 514 473 Q519 507 509.5 537.5 Q500 568 479 591 Q458 614 426 627 Q394 640 355 640 Z M-53 560 L46 726 L107 704 L-15 544 L-53 560 Z " />
<glyph glyph-name="Upsilontonos" unicode="&#x38e;" horiz-adv-x="482" d="M231 0 L168 0 L224 287 Q193 390 162 491.5 Q131 593 99 696 L164 696 Q178 646 194 594 Q210 542 230 474 Q239 441 249 405 Q259 369 264 348 L360 491 Q364 497 375 513 Q386 529 400 549.5 Q414 570 430 593.5 Q446 617 460 637.5 Q474 658 484.5 674 Q495 690 499 696 L570 696 Q499 593 429 491.5 Q359 390 287 287 L231 0 Z M-89 560 L10 726 L71 704 L-51 544 L-89 560 Z " />
<glyph glyph-name="Omegatonos" unicode="&#x38f;" horiz-adv-x="565" d="M109 61 Q75 81 58.5 119 Q42 157 42 203 Q42 228 46.5 258.5 Q51 289 57.5 321 Q64 353 71.5 386 Q79 419 86 450 Q96 500 117.5 545.5 Q139 591 173 625.5 Q207 660 255 680.5 Q303 701 367 701 Q429 701 472.5 680 Q516 659 541.5 623.5 Q567 588 574 542 Q581 496 571 445 Q562 397 552.5 351.5 Q543 306 533 257 Q519 188 489.5 137 Q460 86 410 62 Q410 61 411 61 L511 61 Q509 45 506 30 Q503 15 500 0 L304 0 L317 73 Q376 91 414.5 141 Q453 191 468 261 Q480 315 492.5 370 Q505 425 509 473 Q514 507 506 537.5 Q498 568 478.5 591 Q459 614 429 627 Q399 640 360 640 Q313 640 277 623.5 Q241 607 215 579.5 Q189 552 172.5 517 Q156 482 149 446 L112 259 Q106 229 108 199.5 Q110 170 120 145 Q130 120 148.5 101 Q167 82 196 72 L181 0 L-16 0 Q-13 15 -10 30.5 Q-7 46 -5 61 L109 61 Z M-58 560 L41 726 L102 704 L-20 544 L-58 560 Z " />
<glyph glyph-name="iotadieresistonos" unicode="&#x390;" horiz-adv-x="222" d="M133 -1 L117 -1 Q84 -1 64 13 Q44 27 44 60 Q44 80 48 100 Q67 200 86 297 Q105 394 125 494 L186 494 L109 101 Q106 89 106 79 Q106 65 114 59.5 Q122 54 142 53 L144 53 L133 -1 Z M118 573 L217 739 L278 717 L157 557 L118 573 Z M23 597 L37 669 L107 669 L94 597 L23 597 Z M266 597 L280 669 L349 669 L336 597 L266 597 Z " />
<glyph glyph-name="Alpha" unicode="&#x391;" horiz-adv-x="580" d="M459 0 Q453 42 447 82.5 Q441 123 434 165 L129 165 L40 0 L-31 0 Q65 175 160.5 348 Q256 521 353 696 L415 696 L529 0 L459 0 Z M368 616 Q363 606 347.5 576.5 Q332 547 310.5 507 Q289 467 265 422 Q241 377 219.5 336.5 Q198 296 181.5 265 Q165 234 159 223 L427 223 Q424 244 419.5 276 Q415 308 409.5 345 Q404 382 398.5 422 Q393 462 387.5 498.5 Q382 535 377.5 565.5 Q373 596 370 616 L368 616 Z " />
<glyph glyph-name="Beta" unicode="&#x392;" horiz-adv-x="580" d="M35 0 L171 696 L406 696 Q490 696 540.5 655.5 Q591 615 588 534 Q586 472 549 424 Q512 376 443 358 L442 355 Q469 348 488.5 333 Q508 318 520.5 298.5 Q533 279 538.5 255.5 Q544 232 543 207 Q541 160 523 122 Q505 84 475 57 Q445 30 406.5 15 Q368 0 325 0 L35 0 Z M226 637 L176 386 L355 386 Q386 386 415.5 396 Q445 406 467.5 424 Q490 442 504.5 468 Q519 494 521 526 Q522 553 513 573.5 Q504 594 486.5 608.5 Q469 623 445 630 Q421 637 393 637 L226 637 Z M166 327 L113 62 L313 62 Q346 62 375 72.5 Q404 83 426 102.5 Q448 122 461 149.5 Q474 177 476 210 Q478 263 445.5 295 Q413 327 357 327 L166 327 Z " />
<glyph glyph-name="Gamma" unicode="&#x393;" horiz-adv-x="506" d="M226 634 L103 0 L35 0 L171 696 L594 696 L582 634 L226 634 Z " />
<glyph glyph-name="&amp;#x394;" unicode="&#x394;" horiz-adv-x="580" d="M-26 0 Q70 175 165 348 Q260 521 357 696 L419 696 Q447 521 475 348 Q503 175 532 0 L-26 0 Z M372 616 Q358 589 336 546.5 Q314 504 287 453 Q259 401 229 344.5 Q199 288 170.5 235 Q142 182 117 136 Q92 90 76 59 L455 59 L401 422 Q398 444 394 471.5 Q390 499 386.5 526 Q383 553 379.5 576.5 Q376 600 374 616 L372 616 Z " />
<glyph glyph-name="&amp;#x2206;" unicode="&#x2206;" horiz-adv-x="580" d="M-26 0 Q70 175 165 348 Q260 521 357 696 L419 696 Q447 521 475 348 Q503 175 532 0 L-26 0 Z M372 616 Q358 589 336 546.5 Q314 504 287 453 Q259 401 229 344.5 Q199 288 170.5 235 Q142 182 117 136 Q92 90 76 59 L455 59 L401 422 Q398 444 394 471.5 Q390 499 386.5 526 Q383 553 379.5 576.5 Q376 600 374 616 L372 616 Z " />
<glyph glyph-name="Epsilon" unicode="&#x395;" horiz-adv-x="525" d="M35 0 L171 696 L581 696 L569 634 L225 634 L177 382 L481 382 L469 322 L165 322 L114 62 L487 62 L475 0 L35 0 Z " />
<glyph glyph-name="Zeta" unicode="&#x396;" horiz-adv-x="487" d="M-8 0 L4 60 L463 637 L130 637 L141 696 L550 696 L539 641 L79 62 L427 62 L415 0 L-8 0 Z " />
<glyph glyph-name="Eta" unicode="&#x397;" horiz-adv-x="618" d="M436 0 L498 322 L165 322 L102 0 L35 0 L171 696 L237 696 L176 382 L510 382 L571 696 L638 696 L502 0 L436 0 Z " />
<glyph glyph-name="Theta" unicode="&#x398;" horiz-adv-x="573" d="M361 701 Q423 701 468.5 680 Q514 659 541 623.5 Q568 588 577 542 Q586 496 576 445 Q567 397 557 347 Q547 297 537 248 Q525 191 504 144 Q483 97 450.5 63.5 Q418 30 372.5 12 Q327 -6 265 -6 Q211 -6 170 9.5 Q129 25 101.5 52 Q74 79 60 115.5 Q46 152 46 194 Q46 219 50.5 250.5 Q55 282 61.5 316 Q68 350 76 384.5 Q84 419 91 450 Q101 500 121 545.5 Q141 591 173 625.5 Q205 660 251 680.5 Q297 701 361 701 Z M355 640 Q308 640 273.5 623.5 Q239 607 215 579.5 Q191 552 176 517 Q161 482 154 446 L116 250 Q109 212 113 177 Q117 142 135 114 Q153 86 187 69.5 Q221 53 273 53 Q316 53 349 68 Q382 83 406 109.5 Q430 136 446.5 172.5 Q463 209 472 252 Q478 279 484.5 308 Q491 337 497 366 Q503 395 507.5 422 Q512 449 514 473 Q519 507 509.5 537.5 Q500 568 479 591 Q458 614 426 627 Q394 640 355 640 Z M184 381 L455 381 L444 324 L173 324 L184 381 Z " />
<glyph glyph-name="Iota" unicode="&#x399;" horiz-adv-x="222" d="M37 0 L173 696 L239 696 L104 0 L37 0 Z " />
<glyph glyph-name="Kappa" unicode="&#x39a;" horiz-adv-x="600" d="M469 0 Q434 94 398.5 188 Q363 282 328 376 L137 186 L101 0 L35 0 L171 696 L236 696 Q216 593 196.5 491 Q177 389 157 286 L159 286 L186 313 L342 473 Q454 584 565 696 L645 696 L379 428 Q421 320 461 214 Q501 108 542 0 L469 0 L469 0 Z " />
<glyph glyph-name="Lambda" unicode="&#x39b;" horiz-adv-x="580" d="M459 0 L435 162 Q432 185 428 217.5 Q424 250 416.5 302 Q409 354 398 430 Q387 506 371 616 L368 616 L138 181 L41 0 L-30 0 L354 696 L416 696 Q421 667 429.5 612 Q438 557 449 489.5 Q460 422 472.5 348 Q485 274 496 206.5 Q507 139 515.5 84 Q524 29 529 0 L459 0 Z " />
<glyph glyph-name="Mu" unicode="&#x39c;" horiz-adv-x="730" d="M664 542 L661 542 L562 384 L379 106 L322 106 Q311 151 292.5 219 Q274 287 255 361 L208 542 L206 542 L101 0 L35 0 L171 696 L236 696 Q256 618 276 541.5 Q296 465 316 388 L365 188 L367 188 L485 373 L693 696 L759 696 L623 0 L558 0 L664 542 Z " />
<glyph glyph-name="Nu" unicode="&#x39d;" horiz-adv-x="655" d="M475 0 Q468 16 454 47.5 Q440 79 423 117.5 Q406 156 387 198.5 Q368 241 351 279.5 Q334 318 320 349 Q306 380 298 397 L217 586 L215 586 Q210 560 201 513.5 Q192 467 181 410.5 Q170 354 158.5 292.5 Q147 231 136 174.5 Q125 118 116.5 72 Q108 26 103 0 L36 0 L172 696 L238 696 Q245 680 258.5 649.5 Q272 619 288.5 581 Q305 543 323.5 502 Q342 461 358.5 423 Q375 385 388.5 354.5 Q402 324 410 308 L495 110 L497 110 Q502 136 511 182 Q520 228 531 284.5 Q542 341 554 402.5 Q566 464 577 520.5 Q588 577 596.5 623.5 Q605 670 610 696 L675 696 L540 0 L475 0 Z " />
<glyph glyph-name="Xi" unicode="&#x39e;" horiz-adv-x="550" d="M139 634 L151 696 L585 696 L572 634 L139 634 Z M134 322 L145 382 L469 382 L458 322 L134 322 Z M16 0 L29 62 L462 62 L449 0 L16 0 Z " />
<glyph glyph-name="Omicron" unicode="&#x39f;" horiz-adv-x="573" d="M361 701 Q423 701 468.5 680 Q514 659 541 623.5 Q568 588 577 542 Q586 496 576 445 Q567 397 557 347 Q547 297 537 248 Q525 191 504 144 Q483 97 450.5 63.5 Q418 30 372.5 12 Q327 -6 265 -6 Q211 -6 170 9.5 Q129 25 101.5 52 Q74 79 60 115.5 Q46 152 46 194 Q46 219 50.5 250.5 Q55 282 61.5 316 Q68 350 76 384.5 Q84 419 91 450 Q101 500 121 545.5 Q141 591 173 625.5 Q205 660 251 680.5 Q297 701 361 701 Z M355 640 Q308 640 273.5 623.5 Q239 607 215 579.5 Q191 552 176 517 Q161 482 154 446 L116 250 Q109 212 113 177 Q117 142 135 114 Q153 86 187 69.5 Q221 53 273 53 Q316 53 349 68 Q382 83 406 109.5 Q430 136 446.5 172.5 Q463 209 472 252 Q478 279 484.5 308 Q491 337 497 366 Q503 395 507.5 422 Q512 449 514 473 Q519 507 509.5 537.5 Q500 568 479 591 Q458 614 426 627 Q394 640 355 640 Z " />
<glyph glyph-name="Pi" unicode="&#x3a0;" horiz-adv-x="618" d="M436 0 L560 637 L226 637 L102 0 L35 0 L171 696 L638 696 L502 0 L436 0 Z " />
<glyph glyph-name="Rho" unicode="&#x3a1;" horiz-adv-x="553" d="M103 0 L36 0 L172 696 L410 696 Q451 696 485.5 685.5 Q520 675 545.5 654 Q571 633 585 600.5 Q599 568 599 525 Q599 472 579.5 429 Q560 386 526.5 354.5 Q493 323 448 306 Q403 289 352 289 L159 289 L103 0 Z M529 516 Q529 576 493 605 Q457 634 400 634 L226 634 L171 352 L356 352 Q392 352 423.5 364 Q455 376 478.5 397.5 Q502 419 515.5 449.5 Q529 480 529 516 Z " />
<glyph glyph-name="Sigma" unicode="&#x3a3;" horiz-adv-x="485" d="M-8 0 L4 60 L237 360 L118 641 L129 696 L539 696 L528 637 L194 637 L314 359 L80 62 L427 62 L415 0 L-8 0 Z " />
<glyph glyph-name="Tau" unicode="&#x3a4;" horiz-adv-x="473" d="M354 637 L230 0 L164 0 L287 637 L88 637 L99 696 L564 696 L553 637 L354 637 Z " />
<glyph glyph-name="Upsilon" unicode="&#x3a5;" horiz-adv-x="482" d="M231 0 L168 0 L224 287 Q193 390 162 491.5 Q131 593 99 696 L164 696 Q178 646 194 594 Q210 542 230 474 Q239 441 249 405 Q259 369 264 348 L360 491 Q364 497 375 513 Q386 529 400 549.5 Q414 570 430 593.5 Q446 617 460 637.5 Q474 658 484.5 674 Q495 690 499 696 L570 696 Q499 593 429 491.5 Q359 390 287 287 L231 0 Z " />
<glyph glyph-name="Phi" unicode="&#x3a6;" horiz-adv-x="715" d="M359 55 Q357 41 355 27.5 Q353 14 349 0 L284 0 L295 56 Q180 65 122.5 123 Q65 181 65 279 Q65 359 88 428 Q111 497 155.5 548.5 Q200 600 264.5 630 Q329 660 413 663 L419 696 L484 696 L478 664 Q590 661 651 603.5 Q712 546 712 438 Q712 351 687.5 281.5 Q663 212 617 163 Q571 114 505.5 86.5 Q440 59 359 55 Z M370 110 Q442 112 494.5 139.5 Q547 167 581.5 212 Q616 257 632.5 315.5 Q649 374 649 439 Q649 517 603.5 559.5 Q558 602 467 607 L370 110 Z M402 608 Q335 605 283.5 579.5 Q232 554 197 511 Q162 468 144 410.5 Q126 353 126 286 Q126 207 171.5 161.5 Q217 116 306 110 L402 608 Z " />
<glyph glyph-name="Chi" unicode="&#x3a7;" horiz-adv-x="502" d="M386 0 L273 305 L43 0 L-31 0 L247 358 L118 696 L188 696 L290 411 L503 696 L577 696 L316 357 L457 0 L386 0 Z " />
<glyph glyph-name="Psi" unicode="&#x3a8;" horiz-adv-x="708" d="M683 399 Q662 292 584.5 228 Q507 164 379 158 L348 0 L281 0 L312 159 Q258 163 214.5 182 Q171 201 142.5 233 Q114 265 103 309 Q92 353 103 409 L159 696 L225 696 L171 417 Q154 327 195 276.5 Q236 226 324 223 L416 696 L483 696 L391 224 Q434 224 471.5 236.5 Q509 249 539 272.5 Q569 296 589 330 Q609 364 618 407 L674 696 L740 696 L683 399 L683 399 Z " />
<glyph glyph-name="Omega" unicode="&#x3a9;" horiz-adv-x="565" d="M109 61 Q75 81 58.5 119 Q42 157 42 203 Q42 228 46.5 258.5 Q51 289 57.5 321 Q64 353 71.5 386 Q79 419 86 450 Q96 500 117.5 545.5 Q139 591 173 625.5 Q207 660 255 680.5 Q303 701 367 701 Q429 701 472.5 680 Q516 659 541.5 623.5 Q567 588 574 542 Q581 496 571 445 Q562 397 552.5 351.5 Q543 306 533 257 Q519 188 489.5 137 Q460 86 410 62 Q410 61 411 61 L511 61 Q509 45 506 30 Q503 15 500 0 L304 0 L317 73 Q376 91 414.5 141 Q453 191 468 261 Q480 315 492.5 370 Q505 425 509 473 Q514 507 506 537.5 Q498 568 478.5 591 Q459 614 429 627 Q399 640 360 640 Q313 640 277 623.5 Q241 607 215 579.5 Q189 552 172.5 517 Q156 482 149 446 L112 259 Q106 229 108 199.5 Q110 170 120 145 Q130 120 148.5 101 Q167 82 196 72 L181 0 L-16 0 Q-13 15 -10 30.5 Q-7 46 -5 61 L109 61 Z " />
<glyph glyph-name="Iotadieresis" unicode="&#x3aa;" horiz-adv-x="222" d="M37 0 L173 696 L239 696 L104 0 L37 0 Z M272 751 L286 822 L358 822 L344 751 L272 751 Z M93 751 L107 822 L179 822 L165 751 L93 751 Z " />
<glyph glyph-name="Upsilondieresis" unicode="&#x3ab;" horiz-adv-x="482" d="M231 0 L168 0 L224 287 Q193 390 162 491.5 Q131 593 99 696 L164 696 Q178 646 194 594 Q210 542 230 474 Q239 441 249 405 Q259 369 264 348 L360 491 Q364 497 375 513 Q386 529 400 549.5 Q414 570 430 593.5 Q446 617 460 637.5 Q474 658 484.5 674 Q495 690 499 696 L570 696 Q499 593 429 491.5 Q359 390 287 287 L231 0 Z M219 751 L233 822 L305 822 L291 751 L219 751 Z M398 751 L412 822 L484 822 L470 751 L398 751 Z " />
<glyph glyph-name="alphatonos" unicode="&#x3ac;" horiz-adv-x="493" d="M286 501 Q328 501 360.5 482.5 Q393 464 411 426 L414 427 L427 495 L489 495 L392 0 L330 0 L345 69 L342 71 Q282 -6 187 -6 Q149 -6 123 6 Q97 18 80.5 40 Q64 62 56.5 91.5 Q49 121 49 156 Q49 210 62 271 Q75 332 103 383 Q131 434 176 467.5 Q221 501 286 501 Z M115 168 Q115 117 136.5 86.5 Q158 56 215 56 Q260 56 292.5 84 Q325 112 346 153 Q367 194 377 240.5 Q387 287 387 325 Q387 375 365.5 408 Q344 441 289 441 Q240 441 206.5 411 Q173 381 153 338.5 Q133 296 124 249 Q115 202 115 168 Z M269 573 L368 739 L429 717 L307 557 L269 573 Z " />
<glyph glyph-name="epsilontonos" unicode="&#x3ad;" horiz-adv-x="425" d="M147 263 Q87 283 87 350 Q87 389 105 417.5 Q123 446 151.5 464.5 Q180 483 215 492 Q250 501 285 501 Q326 501 370 487 Q414 473 442 443 L397 396 Q379 416 348 428.5 Q317 441 288 441 Q265 441 241.5 436 Q218 431 199 419.5 Q180 408 168 391 Q156 374 156 350 Q156 327 167 314.5 Q178 302 194 296 Q210 290 229 289 Q248 288 263 288 L309 288 L299 234 L226 234 Q205 234 182.5 227.5 Q160 221 142 208 Q124 195 112.5 175.5 Q101 156 101 130 Q101 107 112 92 Q123 77 139.5 69 Q156 61 176 58 Q196 55 215 55 Q248 55 282 69 Q316 83 341 101 L380 55 Q342 25 295.5 10.5 Q249 -4 200 -4 Q171 -4 141.5 2.5 Q112 9 89 23.5 Q66 38 51.5 61.5 Q37 85 37 119 Q37 170 68.5 209 Q100 248 147 262 L147 263 Z M253 573 L352 739 L413 717 L291 557 L253 573 Z " />
<glyph glyph-name="etatonos" unicode="&#x3ae;" horiz-adv-x="506" d="M313 -131 L399 307 Q412 370 391.5 405 Q371 440 299 440 Q272 440 246.5 429.5 Q221 419 200 400.5 Q179 382 164 356.5 Q149 331 143 300 L85 0 L24 0 L120 495 L181 495 L168 426 L170 426 Q202 466 245.5 483.5 Q289 501 330 501 Q364 501 392.5 489.5 Q421 478 440 456.5 Q459 435 466.5 403 Q474 371 466 331 L376 -131 L313 -131 Z M243 573 L342 739 L403 717 L281 557 L243 573 Z " />
<glyph glyph-name="iotatonos" unicode="&#x3af;" horiz-adv-x="222" d="M133 -1 L117 -1 Q84 -1 64 13 Q44 27 44 60 Q44 80 48 100 Q67 200 86 297 Q105 394 125 494 L186 494 L109 101 Q106 89 106 79 Q106 65 114 59.5 Q122 54 142 53 L144 53 L133 -1 Z M134 573 L233 739 L294 717 L172 557 L134 573 Z " />
<glyph glyph-name="upsilondieresistonos" unicode="&#x3b0;" horiz-adv-x="515" d="M442 175 Q426 90 370 42 Q314 -6 229 -6 Q187 -6 152.5 7 Q118 20 95.5 44 Q73 68 63.5 101 Q54 134 62 174 L124 495 L186 495 L127 196 Q115 132 142.5 93 Q170 54 229 54 Q286 54 328.5 91 Q371 128 383 191 L442 495 L504 495 L442 175 Z M417 597 L431 669 L500 669 L487 597 L417 597 Z M174 597 L188 669 L258 669 L245 597 L174 597 Z M269 573 L368 739 L429 717 L308 557 L269 573 Z " />
<glyph glyph-name="alpha" unicode="&#x3b1;" horiz-adv-x="493" d="M286 501 Q328 501 360.5 482.5 Q393 464 411 426 L414 427 L427 495 L489 495 L392 0 L330 0 L345 69 L342 71 Q282 -6 187 -6 Q149 -6 123 6 Q97 18 80.5 40 Q64 62 56.5 91.5 Q49 121 49 156 Q49 210 62 271 Q75 332 103 383 Q131 434 176 467.5 Q221 501 286 501 Z M115 168 Q115 117 136.5 86.5 Q158 56 215 56 Q260 56 292.5 84 Q325 112 346 153 Q367 194 377 240.5 Q387 287 387 325 Q387 375 365.5 408 Q344 441 289 441 Q240 441 206.5 411 Q173 381 153 338.5 Q133 296 124 249 Q115 202 115 168 Z " />
<glyph glyph-name="beta" unicode="&#x3b2;" horiz-adv-x="503" d="M341 722 Q382 722 411 708.5 Q440 695 458 674 Q476 653 484.5 626.5 Q493 600 493 574 Q493 551 486.5 527 Q480 503 467 480.5 Q454 458 434 440 Q414 422 387 413 Q431 399 447.5 364 Q464 329 464 284 Q464 228 447.5 176 Q431 124 401 84 Q371 44 327.5 20 Q284 -4 230 -4 Q213 -4 195 -1 Q177 2 159.5 10.5 Q142 19 127.5 34 Q113 49 104 73 L101 73 Q92 22 82.5 -29 Q73 -80 63 -131 L1 -131 Q33 35 64 199.5 Q95 364 127 531 Q136 574 152.5 609.5 Q169 645 195.5 670 Q222 695 258 708.5 Q294 722 341 722 Z M243 437 L305 437 Q335 437 358 449 Q381 461 397 479.5 Q413 498 421.5 521 Q430 544 430 566 Q430 585 424.5 603.5 Q419 622 407 636 Q395 650 376.5 659 Q358 668 332 668 Q293 668 267.5 653 Q242 638 225.5 615 Q209 592 199.5 563.5 Q190 535 185 507 L135 241 Q132 225 130 209 Q128 193 128 176 Q128 151 133 129 Q138 107 150 90 Q162 73 181 63 Q200 53 229 53 Q276 53 309 77 Q342 101 362.5 136 Q383 171 392.5 211.5 Q402 252 402 285 Q402 329 380.5 356 Q359 383 309 383 L232 383 L243 437 Z " />
<glyph glyph-name="gamma" unicode="&#x3b3;" horiz-adv-x="395" d="M195 20 Q184 -35 173.5 -89.5 Q163 -144 152 -200 L90 -200 Q101 -146 110.5 -94 Q120 -42 131 10 Q120 113 106.5 207.5 Q93 302 75 399 Q72 413 70 421 Q68 429 64 433 Q60 437 54.5 438 Q49 439 40 439 L35 439 L39 493 Q63 499 77 499 Q104 499 116.5 483.5 Q129 468 134 439 Q148 361 159.5 278 Q171 195 179 116 Q213 162 243.5 212.5 Q274 263 300.5 312.5 Q327 362 350 409 Q373 456 392 495 L461 495 Q430 428 401.5 372.5 Q373 317 342.5 263 Q312 209 276.5 151 Q241 93 195 20 Z " />
<glyph glyph-name="delta" unicode="&#x3b4;" horiz-adv-x="480" d="M339 727 Q382 727 421.5 717.5 Q461 708 490 691 Q482 677 474.5 664 Q467 651 459 637 Q431 653 404 660.5 Q377 668 345 668 Q291 668 260.5 643 Q230 618 230 583 Q230 564 241 550 Q252 536 269 524 Q286 512 308 500.5 Q330 489 353 475 Q373 462 391.5 446 Q410 430 424.5 409 Q439 388 448 361 Q457 334 457 299 Q457 238 442.5 183 Q428 128 398 86 Q368 44 322 19 Q276 -6 214 -6 Q132 -6 85.5 37 Q39 80 39 162 Q39 220 52.5 271 Q66 322 91.5 363 Q117 404 152 433 Q187 462 231 475 L231 476 Q201 495 183.5 521.5 Q166 548 166 578 Q166 613 179.5 641 Q193 669 216 688 Q239 707 271 717 Q303 727 339 727 Z M218 50 Q264 50 297 70 Q330 90 352 124 Q374 158 384.5 202.5 Q395 247 395 296 Q395 351 368 385 Q341 419 290 436 Q245 434 210 411 Q175 388 151 350.5 Q127 313 114.5 265.5 Q102 218 102 168 Q102 113 131.5 81.5 Q161 50 218 50 Z " />
<glyph glyph-name="epsilon" unicode="&#x3b5;" horiz-adv-x="425" d="M147 263 Q87 283 87 350 Q87 389 105 417.5 Q123 446 151.5 464.5 Q180 483 215 492 Q250 501 285 501 Q326 501 370 487 Q414 473 442 443 L397 396 Q379 416 348 428.5 Q317 441 288 441 Q265 441 241.5 436 Q218 431 199 419.5 Q180 408 168 391 Q156 374 156 350 Q156 327 167 314.5 Q178 302 194 296 Q210 290 229 289 Q248 288 263 288 L309 288 L299 234 L226 234 Q205 234 182.5 227.5 Q160 221 142 208 Q124 195 112.5 175.5 Q101 156 101 130 Q101 107 112 92 Q123 77 139.5 69 Q156 61 176 58 Q196 55 215 55 Q248 55 282 69 Q316 83 341 101 L380 55 Q342 25 295.5 10.5 Q249 -4 200 -4 Q171 -4 141.5 2.5 Q112 9 89 23.5 Q66 38 51.5 61.5 Q37 85 37 119 Q37 170 68.5 209 Q100 248 147 262 L147 263 L147 263 Z " />
<glyph glyph-name="zeta" unicode="&#x3b6;" horiz-adv-x="372" d="M513 659 Q482 638 439.5 606 Q397 574 351.5 535 Q306 496 261 451 Q216 406 181 360 Q146 314 124 268 Q102 222 102 181 Q102 145 124 119.5 Q146 94 176 78 Q203 64 232.5 53.5 Q262 43 289 31 Q312 20 328 4.5 Q344 -11 344 -37 Q344 -57 335.5 -77.5 Q327 -98 314.5 -118 Q302 -138 287.5 -156 Q273 -174 261 -188 Q249 -182 237.5 -175 Q226 -168 215 -161 Q221 -152 230.5 -139 Q240 -126 249 -111.5 Q258 -97 264.5 -83 Q271 -69 271 -59 Q271 -42 256 -31.5 Q241 -21 220 -13 L138 19 Q117 28 98 40.5 Q79 53 64 71.5 Q49 90 40.5 114.5 Q32 139 32 172 Q32 217 51.5 264 Q71 311 103.5 357.5 Q136 404 177.5 448 Q219 492 262.5 530.5 Q306 569 347.5 601 Q389 633 422 656 L162 656 L172 712 L523 712 Q520 698 518 685.5 Q516 673 513 659 Z " />
<glyph glyph-name="eta" unicode="&#x3b7;" horiz-adv-x="506" d="M313 -131 L399 307 Q412 370 391.5 405 Q371 440 299 440 Q272 440 246.5 429.5 Q221 419 200 400.5 Q179 382 164 356.5 Q149 331 143 300 L85 0 L24 0 L120 495 L181 495 L168 426 L170 426 Q202 466 245.5 483.5 Q289 501 330 501 Q364 501 392.5 489.5 Q421 478 440 456.5 Q459 435 466.5 403 Q474 371 466 331 L376 -131 L313 -131 Z " />
<glyph glyph-name="theta" unicode="&#x3b8;" horiz-adv-x="480" d="M334 728 Q411 728 450 686.5 Q489 645 489 553 Q489 516 484 474.5 Q479 433 471 385 Q463 334 452 289 Q441 244 430 208 Q419 172 408.5 145.5 Q398 119 391 106 Q363 55 319 24.5 Q275 -6 211 -6 Q125 -6 86 37 Q47 80 47 169 Q47 204 53 258.5 Q59 313 71 376 Q87 459 109.5 526 Q132 593 163 635 Q224 728 334 728 Z M127 353 Q114 289 109.5 246.5 Q105 204 105 176 Q105 113 128.5 82 Q152 51 213 51 Q264 51 297.5 77 Q331 103 351 148 Q361 171 377 221 Q393 271 407 353 L127 353 Z M325 670 Q256 670 213 612 Q205 602 196 586.5 Q187 571 177.5 547 Q168 523 157.5 489.5 Q147 456 137 410 L417 410 Q426 461 429 495 Q432 529 432 552 Q432 609 407 639.5 Q382 670 325 670 Z " />
</font>
</svg>
