<?xml version="1.0" encoding="UTF-8"?>
<svg xmlns="http://www.w3.org/2000/svg" xmlns:xlink="http://www.w3.org/1999/xlink" version="1.2" >
<font id="PFDinTextPro-Medium">
<font-face  font-family="PF DinText Pro" units-per-em="1000" ascent="750" descent="-250" font-style="normal" font-weight="500" font-stretch="normal" cap-height="696" x-height="495" underline-position="-85" underline-thickness="60" />
<missing-glyph  horiz-adv-x="450" d="M0 700 L450 700 L450 0 L0 0 L0 700 Z M341 73 L225 283 L109 73 L341 73 Z M341 627 L108 627 L225 418 L341 627 Z M73 147 L184 351 L73 554 L73 147 Z M377 147 L377 554 L266 349 L377 147 Z " />
<glyph glyph-name="NULL" d="" />
<glyph glyph-name="carriagereturn" unicode="&#xd;" horiz-adv-x="847" d="M715 692 L796 692 L796 282 L232 282 L365 150 L307 94 L80 322 L307 551 L365 494 L232 362 L715 362 L715 692 Z " />
<glyph glyph-name="space" unicode="&#x20;" horiz-adv-x="252" d="" />
<glyph glyph-name="ampersand" unicode="&#x26;" horiz-adv-x="649" d="M444 66 Q406 32 362 13 Q318 -6 270 -6 Q218 -6 180 9 Q142 24 117 48.5 Q92 73 80 105.5 Q68 138 68 174 Q68 238 99 288.5 Q130 339 198 385 Q185 401 172.5 418 Q160 435 150 453 Q140 471 134 491 Q128 511 128 534 Q128 571 139.5 602 Q151 633 174 655.5 Q197 678 232 690.5 Q267 703 315 703 Q357 703 404 689 Q451 675 494 638 L430 555 Q411 570 395.5 579.5 Q380 589 366 594 Q352 599 338 600.5 Q324 602 309 602 Q273 602 254.5 582.5 Q236 563 236 536 Q236 516 242.5 502.5 Q249 489 266 466 L446 229 Q460 255 468.5 282 Q477 309 482 337 L584 315 Q575 270 557.5 225 Q540 180 514 142 Q542 107 570.5 70.5 Q599 34 627 0 L495 0 L444 66 Z M382 145 Q350 186 319.5 226 Q289 266 257 307 Q218 281 196.5 249 Q175 217 175 179 Q175 144 199.5 120 Q224 96 273 96 Q304 96 333 111.5 Q362 127 382 145 Z " />
<glyph glyph-name="quotesingle" unicode="&#x27;" horiz-adv-x="251" d="M76 481 L76 696 L170 696 L170 481 L76 481 Z " />
<glyph glyph-name="parenleft" unicode="&#x28;" horiz-adv-x="332" d="M254 -131 Q214 -88 178.5 -38 Q143 12 116 67.5 Q89 123 73 183 Q57 243 57 305 Q57 369 72.5 429 Q88 489 114.5 543.5 Q141 598 176 647.5 Q211 697 250 739 L316 697 Q283 653 257 604.5 Q231 556 213.5 506.5 Q196 457 187 407 Q178 357 178 310 Q178 259 187.5 207 Q197 155 215 105 Q233 55 258.5 7 Q284 -41 316 -83 L254 -131 Z " />
<glyph glyph-name="parenright" unicode="&#x29;" horiz-adv-x="332" d="M296 305 Q296 243 280 183 Q264 123 237 67.5 Q210 12 174.5 -38 Q139 -88 99 -131 L36 -83 Q101 2 138 104.5 Q175 207 175 310 Q175 357 166 407 Q157 457 139.5 506.5 Q122 556 96 604.5 Q70 653 37 697 L102 739 Q141 697 176.5 647.5 Q212 598 238.5 543.5 Q265 489 280.5 429 Q296 369 296 305 Z " />
<glyph glyph-name="asterisk" unicode="&#x2a;" horiz-adv-x="413" d="M343 423 Q340 420 329.5 412 Q319 404 307 395.5 Q295 387 284.5 379.5 Q274 372 270 369 L209 472 L146 368 L73 422 L153 512 Q146 514 130 518 Q114 522 96.5 526.5 Q79 531 63 534.5 Q47 538 40 540 Q41 544 44.5 556 Q48 568 52.5 581.5 Q57 595 60.5 607 Q64 619 65 624 L176 577 Q176 584 174 601.5 Q172 619 170.5 637.5 Q169 656 167 673 Q165 690 165 697 L255 697 L243 577 L354 624 L379 540 L264 512 L343 423 Z " />
<glyph glyph-name="plus" unicode="&#x2b;" horiz-adv-x="525" d="M310 251 L310 62 L215 62 L215 251 L24 251 L24 341 L215 341 L215 528 L310 528 L310 341 L501 341 L501 251 L310 251 Z " />
<glyph glyph-name="comma" unicode="&#x2c;" horiz-adv-x="276" d="M63 -132 L99 -1 L66 -1 L66 138 L203 138 L203 5 L126 -132 L63 -132 Z " />
<glyph glyph-name="hyphen" unicode="&#x2d;" horiz-adv-x="416" d="M49 211 L49 314 L367 314 L367 211 L49 211 Z " />
<glyph glyph-name="period" unicode="&#x2e;" horiz-adv-x="270" d="M67 0 L67 138 L203 138 L203 0 L67 0 Z " />
<glyph glyph-name="slash" unicode="&#x2f;" horiz-adv-x="343" d="M84 -42 L-9 -42 L243 725 L336 725 L84 -42 Z " />
<glyph glyph-name="zero" unicode="0" horiz-adv-x="525" d="M475 197 Q475 149 457.5 111 Q440 73 411.5 47.5 Q383 22 345 8.5 Q307 -5 267 -5 Q227 -5 189.5 8.5 Q152 22 123.5 47.5 Q95 73 77.5 111 Q60 149 60 197 L60 498 Q60 547 77.5 584.5 Q95 622 123.5 648 Q152 674 189.5 687.5 Q227 701 267 701 Q307 701 345 687.5 Q383 674 411.5 648 Q440 622 457.5 584.5 Q475 547 475 498 L475 197 Z M360 495 Q360 543 334.5 568.5 Q309 594 267 594 Q225 594 200 568.5 Q175 543 175 495 L175 201 Q175 153 200 127.5 Q225 102 267 102 Q309 102 334.5 127.5 Q360 153 360 201 L360 495 Z " />
<glyph glyph-name="one" unicode="1" horiz-adv-x="525" d="M235 0 L235 570 L138 501 L138 622 L243 696 L350 696 L350 0 L235 0 Z " />
<glyph glyph-name="two" unicode="2" horiz-adv-x="525" d="M55 512 Q61 555 79.5 590 Q98 625 126 650 Q154 675 190 688 Q226 701 265 701 Q309 701 347 689 Q385 677 413 653.5 Q441 630 457 595 Q473 560 473 513 Q473 478 460 441.5 Q447 405 423 376 L202 110 L469 110 L469 0 L51 0 L51 103 L325 433 Q354 470 354 507 Q354 540 332 566 Q310 592 265 592 Q228 592 202 567 Q176 542 169 494 L55 512 Z " />
<glyph glyph-name="three" unicode="3" horiz-adv-x="525" d="M160 178 Q168 139 195 120.5 Q222 102 257 102 Q302 102 330.5 132 Q359 162 359 211 Q359 259 331.5 287 Q304 315 254 315 L199 315 L199 409 L250 409 Q301 409 327.5 436 Q354 463 354 502 Q354 542 326.5 567.5 Q299 593 259 593 Q230 593 203 574 Q176 555 167 512 L55 530 Q63 569 82.5 601 Q102 633 130 655 Q158 677 191.5 689 Q225 701 262 701 Q317 701 357 685 Q397 669 423 642.5 Q449 616 461.5 581 Q474 546 474 507 Q474 470 453 429 Q432 388 385 363 Q436 337 458.5 294 Q481 251 481 211 Q481 163 465 123.5 Q449 84 419.5 55.5 Q390 27 349 11 Q308 -5 258 -5 Q224 -5 190.5 4 Q157 13 128.5 32.5 Q100 52 78.5 84 Q57 116 48 162 L160 178 Z " />
<glyph glyph-name="four" unicode="4" horiz-adv-x="525" d="M442 101 L442 0 L327 0 L327 101 L28 101 L28 199 L269 696 L396 696 L158 207 L327 207 L327 400 L442 400 L442 207 L499 207 L499 101 L442 101 Z " />
<glyph glyph-name="five" unicode="5" horiz-adv-x="525" d="M479 265 Q479 206 467 156.5 Q455 107 429.5 71 Q404 35 362.5 15 Q321 -5 263 -5 Q228 -5 194 2.5 Q160 10 131.5 28.5 Q103 47 82 79 Q61 111 52 161 L166 181 Q174 136 199.5 118 Q225 100 261 100 Q294 100 313.5 114 Q333 128 344 149.5 Q355 171 358.5 196.5 Q362 222 362 245 Q362 270 358 293 Q354 316 343 334 Q332 352 313 363 Q294 374 265 374 Q240 374 217.5 359 Q195 344 179 314 L71 314 L71 696 L460 696 L460 589 L180 589 L180 438 Q207 462 237 470 Q267 478 295 478 Q343 478 377 462.5 Q411 447 433.5 418.5 Q456 390 467 351 Q478 312 479 265 Z " />
<glyph glyph-name="six" unicode="6" horiz-adv-x="525" d="M479 217 Q479 158 460.5 116 Q442 74 411 47 Q380 20 341 7.5 Q302 -5 262 -5 Q220 -5 182.5 8.5 Q145 22 117 49 Q89 76 72.5 116 Q56 156 56 208 Q56 239 64 274.5 Q72 310 89 342 L275 696 L403 696 L253 408 Q255 406 255 406 Q276 412 299 412 Q340 412 373.5 397 Q407 382 430.5 355.5 Q454 329 466.5 293.5 Q479 258 479 217 Z M360 210 Q360 264 332 290.5 Q304 317 265 317 Q229 317 200 290 Q171 263 171 210 Q171 157 196.5 129 Q222 101 265 101 Q303 101 331.5 129 Q360 157 360 210 Z " />
<glyph glyph-name="seven" unicode="7" horiz-adv-x="525" d="M225 0 L101 0 L340 586 L169 586 L169 487 L54 487 L54 696 L470 696 L470 592 L225 0 Z " />
<glyph glyph-name="eight" unicode="8" horiz-adv-x="525" d="M489 204 Q489 157 471.5 118.5 Q454 80 423.5 52.5 Q393 25 352.5 10 Q312 -5 267 -5 Q222 -5 181.5 10 Q141 25 111 52.5 Q81 80 63 118.5 Q45 157 45 204 Q45 226 51 249.5 Q57 273 69 294 Q81 315 98.5 331.5 Q116 348 140 358 L140 361 Q97 380 78 419 Q59 458 59 500 Q59 543 75 579.5 Q91 616 118.5 643 Q146 670 184 685.5 Q222 701 267 701 Q318 701 357 685.5 Q396 670 422.5 643 Q449 616 462.5 579.5 Q476 543 476 500 Q476 457 455.5 420 Q435 383 395 361 L395 359 Q419 350 436.5 333 Q454 316 466 295 Q478 274 483.5 250 Q489 226 489 204 Z M362 499 Q362 544 334.5 570.5 Q307 597 267 597 Q228 597 200.5 571 Q173 545 173 499 Q173 454 201.5 431 Q230 408 267 408 Q285 408 302.5 414 Q320 420 333 431.5 Q346 443 354 460 Q362 477 362 499 Z M375 207 Q375 229 366.5 247.5 Q358 266 343 279.5 Q328 293 308.5 301 Q289 309 267 309 Q246 309 226.5 301 Q207 293 192 279.5 Q177 266 168 247.5 Q159 229 159 207 Q159 185 167.5 165.5 Q176 146 190.5 131.5 Q205 117 224.5 108.5 Q244 100 267 100 Q290 100 309.5 108.5 Q329 117 343.5 131.5 Q358 146 366.5 165.5 Q375 185 375 207 Z " />
<glyph glyph-name="nine" unicode="9" horiz-adv-x="525" d="M57 479 Q57 537 75.5 579 Q94 621 125 648 Q156 675 194.5 688 Q233 701 274 701 Q316 701 353.5 687.5 Q391 674 419 647 Q447 620 463.5 580 Q480 540 480 488 Q480 457 472 421.5 Q464 386 447 354 L261 0 L133 0 L283 288 Q281 290 281 290 Q260 284 237 284 Q196 284 162.5 299 Q129 314 105.5 340 Q82 366 69.5 402 Q57 438 57 479 Z M176 486 Q176 432 204 405.5 Q232 379 271 379 Q307 379 336 406 Q365 433 365 486 Q365 539 339.5 567 Q314 595 271 595 Q233 595 204.5 567 Q176 539 176 486 Z " />
<glyph glyph-name="colon" unicode="&#x3a;" horiz-adv-x="271" d="M66 0 L66 138 L202 138 L202 0 L66 0 Z M66 276 L66 415 L202 415 L202 276 L66 276 Z " />
<glyph glyph-name="semicolon" unicode="&#x3b;" horiz-adv-x="271" d="M67 276 L67 415 L203 415 L203 276 L67 276 Z M64 -132 L99 -1 L67 -1 L67 138 L203 138 L203 5 L126 -132 L64 -132 Z " />
<glyph glyph-name="less" unicode="&#x3c;" horiz-adv-x="525" d="M30 253 L30 340 L490 553 L490 451 L150 296 L490 141 L490 40 L30 253 Z " />
<glyph glyph-name="equal" unicode="&#x3d;" horiz-adv-x="525" d="M23 357 L23 446 L501 446 L501 357 L23 357 Z M23 146 L23 236 L501 236 L501 146 L23 146 Z " />
<glyph glyph-name="greater" unicode="&#x3e;" horiz-adv-x="525" d="M31 40 L31 141 L371 296 L31 451 L31 553 L491 340 L491 253 L31 40 Z " />
<glyph glyph-name="question" unicode="&#x3f;" horiz-adv-x="510" d="M470 510 Q470 481 458.5 455 Q447 429 430.5 405 Q414 381 394 358 Q374 335 357.5 313 Q341 291 329.5 269 Q318 247 318 225 L318 189 L201 189 L201 228 Q201 258 211.5 283 Q222 308 238 330.5 Q254 353 272.5 373 Q291 393 307 414 Q323 435 333.5 457.5 Q344 480 344 506 Q344 520 339 535 Q334 550 322.5 562 Q311 574 294 582 Q277 590 253 590 Q229 590 211 580.5 Q193 571 180.5 556 Q168 541 161 521.5 Q154 502 153 483 Q124 488 96.5 491.5 Q69 495 40 499 Q48 549 69 586.5 Q90 624 120 649.5 Q150 675 186.5 687.5 Q223 700 263 700 Q311 700 349.5 685.5 Q388 671 414.5 645.5 Q441 620 455.5 585 Q470 550 470 510 Z M200 0 L200 113 L318 113 L318 0 L200 0 Z " />
<glyph glyph-name="at" unicode="&#x40;" horiz-adv-x="874" d="M584 260 Q584 240 596.5 223.5 Q609 207 632 207 Q679 207 704 250 Q729 293 729 383 Q729 444 706.5 493 Q684 542 645.5 575.5 Q607 609 556.5 627 Q506 645 451 645 Q383 645 326 620.5 Q269 596 227.5 554 Q186 512 162.5 455 Q139 398 139 333 Q139 264 162.5 206.5 Q186 149 228.5 108.5 Q271 68 329.5 45.5 Q388 23 459 23 Q492 23 521 26 Q550 29 576 35 Q602 41 627.5 50.5 Q653 60 679 72 L705 -1 Q646 -24 589 -37.5 Q532 -51 464 -51 Q377 -51 302 -25 Q227 1 172 50.5 Q117 100 86 171.5 Q55 243 55 334 Q55 416 85 486 Q115 556 167.5 607.5 Q220 659 292.5 688.5 Q365 718 450 718 Q528 718 594.5 694 Q661 670 709.5 626 Q758 582 785.5 520.5 Q813 459 813 385 Q813 326 800.5 279 Q788 232 763.5 199 Q739 166 703.5 148 Q668 130 622 130 Q610 130 594 134 Q578 138 562.5 146 Q547 154 534 166 Q521 178 515 194 L510 194 Q498 171 467 154 Q436 137 397 137 Q368 137 343 144 Q318 151 298.5 165.5 Q279 180 268 202.5 Q257 225 257 256 Q257 280 265.5 301.5 Q274 323 291.5 339.5 Q309 356 334 365.5 Q359 375 392 375 L497 375 L497 403 Q497 426 480.5 443 Q464 460 418 460 Q386 460 367 450.5 Q348 441 330 425 L279 482 Q340 541 428 541 Q461 541 489.5 534.5 Q518 528 539 513 Q560 498 572.5 472.5 Q585 447 585 409 L584 260 Z M497 306 L407 306 Q372 306 357.5 294 Q343 282 343 263 Q343 247 358.5 231 Q374 215 413 215 Q450 215 473.5 230.5 Q497 246 497 278 L497 306 Z " />
<glyph glyph-name="A" unicode="A" horiz-adv-x="629" d="M498 0 L443 154 L185 154 L129 0 L2 0 L265 696 L363 696 L626 0 L498 0 Z M361 398 L315 541 L312 541 L267 401 L220 257 L407 257 L361 398 Z " />
<glyph glyph-name="B" unicode="B" horiz-adv-x="618" d="M582 200 Q582 155 565.5 118 Q549 81 521 54.5 Q493 28 456 14 Q419 0 378 0 L73 0 L73 696 L351 696 Q404 696 445 682 Q486 668 513.5 643 Q541 618 555 583 Q569 548 569 506 Q569 486 564.5 466 Q560 446 549 427.5 Q538 409 519.5 392 Q501 375 473 363 L473 359 Q500 351 520.5 334 Q541 317 554.5 295 Q568 273 575 248.5 Q582 224 582 200 Z M443 499 Q443 537 417 562.5 Q391 588 335 588 L194 588 L194 407 L335 407 Q391 407 417 434 Q443 461 443 499 Z M459 207 Q459 226 452.5 243.5 Q446 261 432.5 274.5 Q419 288 398 296.5 Q377 305 349 305 L194 305 L194 110 L349 110 Q377 110 398 118 Q419 126 432.5 139.5 Q446 153 452.5 170.5 Q459 188 459 207 Z " />
<glyph glyph-name="C" unicode="C" horiz-adv-x="572" d="M551 156 Q525 80 461.5 37 Q398 -6 307 -6 Q242 -6 193 14.5 Q144 35 112 70.5 Q80 106 64 154.5 Q48 203 48 259 L48 437 Q48 489 64 537 Q80 585 112 621.5 Q144 658 193 679.5 Q242 701 307 701 Q399 701 461.5 656.5 Q524 612 550 539 L436 494 Q423 535 390.5 560.5 Q358 586 307 586 Q272 586 246.5 574 Q221 562 204 541.5 Q187 521 178.5 495 Q170 469 170 442 L170 257 Q170 228 178.5 201.5 Q187 175 204 154 Q221 133 246.5 120.5 Q272 108 307 108 Q357 108 390 134.5 Q423 161 436 204 L551 156 Z " />
<glyph glyph-name="D" unicode="D" horiz-adv-x="638" d="M194 110 L313 110 Q357 110 387 122.5 Q417 135 435 157.5 Q453 180 461 212 Q469 244 469 283 L469 413 Q469 506 428 546 Q387 586 311 586 L194 586 L194 110 Z M326 696 Q404 696 467 666 Q530 636 563 567 Q582 529 586 477 Q590 425 590 360 Q590 287 586 233 Q582 179 565 138 Q548 99 521.5 72.5 Q495 46 462 30 Q429 14 390 7 Q351 0 309 0 L73 0 L73 696 L326 696 Z " />
<glyph glyph-name="E" unicode="E" horiz-adv-x="564" d="M73 0 L73 696 L539 696 L539 586 L194 586 L194 404 L488 404 L488 298 L194 298 L194 110 L539 110 L539 0 L73 0 Z " />
<glyph glyph-name="F" unicode="F" horiz-adv-x="545" d="M194 586 L194 398 L488 398 L488 293 L194 293 L194 0 L73 0 L73 696 L539 696 L539 586 L194 586 Z " />
<glyph glyph-name="G" unicode="G" horiz-adv-x="618" d="M308 104 Q338 104 363.5 115.5 Q389 127 407.5 146.5 Q426 166 437 192 Q448 218 448 246 L448 276 L303 276 L303 380 L568 380 L568 243 Q568 189 548 143.5 Q528 98 493.5 64.5 Q459 31 411 12.5 Q363 -6 308 -6 Q242 -6 193.5 14.5 Q145 35 113 70.5 Q81 106 65.5 154.5 Q50 203 50 259 L50 437 Q50 489 65.5 537 Q81 585 112.5 621.5 Q144 658 192 679.5 Q240 701 305 701 Q397 701 460 656.5 Q523 612 549 539 L435 494 Q422 535 388.5 560.5 Q355 586 304 586 Q269 586 244 574 Q219 562 203 541.5 Q187 521 179 495 Q171 469 171 442 L171 254 Q171 226 179.5 199 Q188 172 205 151 Q222 130 247.5 117 Q273 104 308 104 Z " />
<glyph glyph-name="H" unicode="H" horiz-adv-x="655" d="M462 0 L462 298 L194 298 L194 0 L73 0 L73 696 L194 696 L194 404 L462 404 L462 696 L582 696 L582 0 L462 0 Z " />
<glyph glyph-name="I" unicode="I" horiz-adv-x="268" d="M74 0 L74 696 L196 696 L196 0 L74 0 Z " />
<glyph glyph-name="J" unicode="J" horiz-adv-x="489" d="M424 224 Q424 159 405 115 Q386 71 354.5 44.5 Q323 18 281.5 6.5 Q240 -5 195 -5 Q138 -5 90 17 Q42 39 5 81 L91 160 Q113 137 140 121.5 Q167 106 192 106 Q213 106 232.5 110.5 Q252 115 268 128.5 Q284 142 293.5 166 Q303 190 303 228 L303 696 L424 696 L424 224 L424 224 Z " />
<glyph glyph-name="K" unicode="K" horiz-adv-x="638" d="M502 0 L307 324 L194 193 L194 0 L73 0 L73 696 L195 696 L195 359 L197 358 L314 501 L478 696 L622 696 L387 418 L645 0 L502 0 Z " />
<glyph glyph-name="L" unicode="L" horiz-adv-x="564" d="M73 0 L73 696 L194 696 L194 110 L539 110 L539 0 L73 0 Z " />
<glyph glyph-name="M" unicode="M" horiz-adv-x="765" d="M581 0 L581 413 L578 413 L541 324 L490 212 L436 98 L339 98 L299 183 L233 329 L197 414 L194 411 L194 0 L73 0 L73 696 L186 696 L277 497 Q306 434 332.5 372 Q359 310 386 247 L390 247 L446 380 L497 497 L586 696 L702 696 L702 0 L581 0 Z " />
<glyph glyph-name="N" unicode="N" horiz-adv-x="692" d="M509 0 L294 324 L197 483 L194 482 L194 0 L73 0 L73 696 L185 696 L380 400 L498 212 L500 214 L500 696 L621 696 L621 0 L509 0 Z " />
<glyph glyph-name="O" unicode="O" horiz-adv-x="610" d="M304 701 Q364 701 412 681 Q460 661 494 626 Q528 591 546 542.5 Q564 494 564 437 L564 259 Q564 198 545.5 149 Q527 100 493 65.5 Q459 31 411 12.5 Q363 -6 304 -6 Q239 -6 190 15.5 Q141 37 109 73.5 Q77 110 61 158 Q45 206 45 259 L45 437 Q45 489 61 537 Q77 585 109 621.5 Q141 658 190 679.5 Q239 701 304 701 Z M304 587 Q269 587 243.5 575 Q218 563 201 542.5 Q184 522 175.5 496 Q167 470 167 443 L167 256 Q167 227 175.5 200.5 Q184 174 201 153 Q218 132 243.5 119.5 Q269 107 304 107 Q336 107 361.5 118.5 Q387 130 404.5 150 Q422 170 431.5 197 Q441 224 441 256 L441 443 Q441 473 431.5 499 Q422 525 404.5 544.5 Q387 564 361.5 575.5 Q336 587 304 587 Z " />
<glyph glyph-name="P" unicode="P" horiz-adv-x="591" d="M581 478 Q581 436 564.5 398 Q548 360 518 331 Q488 302 446 284.5 Q404 267 353 267 L194 267 L194 0 L73 0 L73 696 L344 696 Q393 696 436 682 Q479 668 511.5 641 Q544 614 562.5 573 Q581 532 581 478 Z M457 481 Q457 535 425 560.5 Q393 586 341 586 L194 586 L194 377 L345 377 Q398 377 427.5 408 Q457 439 457 481 Z " />
<glyph glyph-name="Q" unicode="Q" horiz-adv-x="618" d="M307 701 Q367 701 415.5 681 Q464 661 498 626 Q532 591 550 542.5 Q568 494 568 437 L568 259 Q568 184 539 126 L625 57 L559 -20 L474 46 Q408 -6 307 -6 Q242 -6 193.5 15.5 Q145 37 113 73.5 Q81 110 65 158 Q49 206 49 259 L49 437 Q49 489 65 537 Q81 585 113 621.5 Q145 658 193.5 679.5 Q242 701 307 701 Z M307 586 Q268 586 241.5 572 Q215 558 199 534.5 Q183 511 176.5 482 Q170 453 170 423 L170 257 Q170 228 178.5 201.5 Q187 175 204 154 Q221 133 246.5 120.5 Q272 108 307 108 Q343 108 372 127 L289 193 L356 273 Q376 257 396.5 240.5 Q417 224 437 208 Q445 232 445 257 L445 423 Q445 454 438 483.5 Q431 513 414.5 536 Q398 559 371.5 572.5 Q345 586 307 586 Z " />
<glyph glyph-name="R" unicode="R" horiz-adv-x="625" d="M444 0 L323 287 L194 287 L194 0 L73 0 L73 696 L369 696 Q413 696 452 682 Q491 668 520 642.5 Q549 617 565.5 579.5 Q582 542 582 496 Q582 429 545.5 379 Q509 329 443 305 L580 0 L444 0 Z M458 496 Q458 545 428 567 Q398 589 350 589 L194 589 L194 395 L346 395 Q395 395 426.5 421 Q458 447 458 496 Z " />
<glyph glyph-name="S" unicode="S" horiz-adv-x="569" d="M458 537 Q414 566 369 577.5 Q324 589 286 589 Q222 589 195 563.5 Q168 538 168 501 Q168 479 177.5 464.5 Q187 450 208 439.5 Q229 429 261 421.5 Q293 414 338 406 Q376 399 413 387.5 Q450 376 479 353.5 Q508 331 525.5 295.5 Q543 260 543 206 Q543 155 522 115.5 Q501 76 465 49 Q429 22 381.5 8 Q334 -6 281 -6 Q212 -6 139.5 14.5 Q67 35 5 90 L78 184 Q123 142 176 124.5 Q229 107 287 107 Q345 107 380.5 131 Q416 155 416 202 Q416 244 384.5 265.5 Q353 287 289 297 Q244 303 200.5 313.5 Q157 324 123 345.5 Q89 367 68.5 403 Q48 439 48 497 Q48 549 68 587.5 Q88 626 121 651.5 Q154 677 196.5 689.5 Q239 702 284 702 Q351 702 409.5 687 Q468 672 518 637 L458 537 Z " />
<glyph glyph-name="T" unicode="T" horiz-adv-x="521" d="M319 588 L319 0 L198 0 L198 588 L5 588 L5 696 L513 696 L513 588 L319 588 Z " />
<glyph glyph-name="U" unicode="U" horiz-adv-x="638" d="M579 247 Q579 190 559.5 143.5 Q540 97 505.5 64 Q471 31 423 13 Q375 -5 319 -5 Q260 -5 212 14.5 Q164 34 130 68.5 Q96 103 78 150 Q60 197 60 252 L60 696 L180 696 L180 261 Q180 229 189.5 201 Q199 173 217 152.5 Q235 132 261 120 Q287 108 320 108 Q382 108 419.5 146 Q457 184 457 256 L457 696 L579 696 L579 247 L579 247 Z " />
<glyph glyph-name="V" unicode="V" horiz-adv-x="575" d="M336 0 L237 0 L1 696 L130 696 L230 378 L286 194 L291 194 L344 377 L442 696 L571 696 L336 0 Z " />
<glyph glyph-name="W" unicode="W" horiz-adv-x="839" d="M419 473 Q418 473 417.5 472.5 Q417 472 416 472 Q399 408 382.5 345 Q366 282 349 218 Q347 211 342.5 194 Q338 177 331.5 155 Q325 133 318.5 109 Q312 85 305.5 63 Q299 41 294.5 24 Q290 7 288 -1 L187 -1 L6 695 L135 695 Q155 609 174.5 525 Q194 441 213 355 L241 228 L245 228 L277 354 Q298 430 312.5 483.5 Q327 537 338 575 Q349 613 356.5 641 Q364 669 372 695 L464 695 Q489 609 513 523 Q537 437 560 351 L593 227 L597 227 Q604 256 610 288.5 Q616 321 622 350 Q639 428 659.5 519 Q680 610 701 695 L829 695 Q784 520 739 347 Q694 174 648 -1 L548 -1 Q531 62 513.5 124.5 Q496 187 478 250 Q464 306 449 361.5 Q434 417 419 473 Z " />
<glyph glyph-name="X" unicode="X" horiz-adv-x="576" d="M439 0 L287 257 L136 0 L0 0 L225 356 L13 696 L150 696 L287 456 L425 696 L561 696 L350 356 L575 0 L439 0 Z " />
<glyph glyph-name="Y" unicode="Y" horiz-adv-x="557" d="M553 696 Q499 593 445 491 Q391 389 336 286 L336 0 L221 0 L221 286 Q166 389 112.5 491 Q59 593 4 696 L133 696 L217 524 Q233 491 248 457.5 Q263 424 278 390 L280 390 L342 527 L425 696 L553 696 L553 696 Z " />
<glyph glyph-name="Z" unicode="Z" horiz-adv-x="527" d="M30 0 L30 104 L353 589 L43 589 L43 696 L497 696 L497 597 L174 111 L497 111 L497 0 L30 0 Z " />
<glyph glyph-name="bracketleft" unicode="&#x5b;" horiz-adv-x="288" d="M70 -100 L70 699 L269 699 L269 617 L176 617 L176 -19 L269 -19 L269 -100 L70 -100 Z " />
<glyph glyph-name="backslash" unicode="&#x5c;" horiz-adv-x="343" d="M-8 725 L85 725 L337 -42 L244 -42 L-8 725 Z " />
<glyph glyph-name="bracketright" unicode="&#x5d;" horiz-adv-x="288" d="M22 -100 L22 -19 L115 -19 L115 617 L22 617 L22 699 L221 699 L221 -100 L22 -100 Z " />
<glyph glyph-name="asciicircum" unicode="&#x5e;" horiz-adv-x="525" d="M404 282 L264 580 L124 281 L24 281 L221 695 L308 695 L505 282 L404 282 Z " />
<glyph glyph-name="underscore" unicode="&#x5f;" horiz-adv-x="500" d="M0 -145 L0 -69 L500 -69 L500 -145 L0 -145 Z " />
<glyph glyph-name="grave" unicode="&#x60;" horiz-adv-x="504" d="M275 544 L152 723 L260 759 L342 573 L275 544 Z " />
<glyph glyph-name="a" unicode="a" horiz-adv-x="499" d="M245 500 Q287 500 324 492.5 Q361 485 389 466 Q417 447 433.5 415.5 Q450 384 450 336 L450 0 L337 0 L337 44 Q337 44 335 45 Q315 19 279.5 7 Q244 -5 206 -5 Q127 -5 81 33.5 Q35 72 35 144 Q35 174 46 201 Q57 228 78 248.5 Q99 269 130.5 281 Q162 293 203 293 L337 293 L337 329 Q337 343 332.5 356 Q328 369 317 378.5 Q306 388 287 394 Q268 400 239 400 Q198 400 170 389.5 Q142 379 121 359 L61 435 Q97 471 145 485.5 Q193 500 245 500 Z M142 152 Q142 141 146.5 130 Q151 119 161.5 110.5 Q172 102 188.5 96.5 Q205 91 230 91 Q249 91 267 94.5 Q285 98 299.5 106 Q314 114 324 127 Q334 140 336 160 Q337 166 337 175 Q337 184 337 207 L222 207 Q179 207 160.5 191 Q142 175 142 152 Z " />
<glyph glyph-name="b" unicode="b" horiz-adv-x="515" d="M473 257 Q473 213 467 166.5 Q461 120 442 82 Q423 44 388 19.5 Q353 -5 295 -5 Q263 -5 229.5 6.5 Q196 18 173 48 L171 47 L171 0 L58 0 L58 727 L171 727 L171 448 L173 447 Q198 474 231 487 Q264 500 295 500 Q351 500 385.5 477.5 Q420 455 439.5 420 Q459 385 466 342 Q473 299 473 257 Z M357 248 Q357 273 354.5 298.5 Q352 324 342.5 345 Q333 366 314.5 379.5 Q296 393 264 393 Q233 393 214.5 379 Q196 365 186.5 343.5 Q177 322 174 296.5 Q171 271 171 248 Q171 225 173.5 199 Q176 173 185.5 150.5 Q195 128 213.5 113 Q232 98 264 98 Q296 98 314.5 112.5 Q333 127 342.5 149 Q352 171 354.5 197.5 Q357 224 357 248 Z " />
<glyph glyph-name="c" unicode="c" horiz-adv-x="447" d="M430 67 Q394 32 350 13 Q306 -6 255 -6 Q210 -6 169 8.5 Q128 23 96.5 53.5 Q65 84 46.5 132 Q28 180 28 247 Q28 314 47.5 362 Q67 410 99 441 Q131 472 173 486 Q215 500 259 500 Q358 500 428 430 L355 351 Q311 397 261 397 Q204 397 174 361 Q144 325 144 247 Q144 170 173.5 134 Q203 98 260 98 Q285 98 310 111 Q335 124 356 145 L430 67 L430 67 Z " />
<glyph glyph-name="d" unicode="d" horiz-adv-x="515" d="M350 0 L350 46 L348 48 Q322 19 289 7 Q256 -5 224 -5 Q165 -5 130 18 Q95 41 77 77.5 Q59 114 53.5 160 Q48 206 48 251 Q48 293 56 337.5 Q64 382 85 418.5 Q106 455 142.5 478 Q179 501 236 501 Q268 501 298.5 489 Q329 477 348 453 L350 454 L350 726 L463 726 L463 0 L350 0 Z M350 248 Q350 271 347.5 296.5 Q345 322 335.5 343.5 Q326 365 308 379 Q290 393 259 393 Q226 393 207.5 378.5 Q189 364 179 342 Q169 320 166.5 293 Q164 266 164 241 Q164 218 166.5 193 Q169 168 179 147.5 Q189 127 207 114 Q225 101 257 101 Q288 101 306.5 115.5 Q325 130 335 152 Q345 174 347.5 199.5 Q350 225 350 248 Z " />
<glyph glyph-name="e" unicode="e" horiz-adv-x="507" d="M154 215 Q154 192 160 170.5 Q166 149 179 132.5 Q192 116 212 106 Q232 96 259 96 Q281 96 314.5 106.5 Q348 117 376 143 Q394 123 409 103.5 Q424 84 442 64 Q400 26 351 10 Q302 -6 255 -6 Q216 -6 177 5 Q138 16 107 44.5 Q76 73 56.5 121.5 Q37 170 37 246 Q37 318 56.5 366.5 Q76 415 107 445 Q138 475 176.5 488 Q215 501 253 501 Q303 501 342.5 484 Q382 467 409.5 436.5 Q437 406 451.5 362 Q466 318 466 264 L466 215 L154 215 Z M252 398 Q213 398 187 371 Q161 344 156 295 L346 295 Q343 346 316.5 372 Q290 398 252 398 Z " />
<glyph glyph-name="f" unicode="f" horiz-adv-x="302" d="M192 404 L192 0 L79 0 L79 404 L21 404 L21 495 L79 495 L79 591 Q79 626 90 651.5 Q101 677 120 694 Q139 711 165 719.5 Q191 728 220 728 L293 728 L293 630 L238 630 Q212 630 202 615.5 Q192 601 192 578 L192 495 L293 495 L293 404 L192 404 Z " />
<glyph glyph-name="g" unicode="g" horiz-adv-x="522" d="M456 495 L456 20 Q456 -43 439.5 -85.5 Q423 -128 394 -154 Q365 -180 324.5 -191.5 Q284 -203 235 -203 Q217 -203 195 -200 Q173 -197 150 -190 Q127 -183 104.5 -171.5 Q82 -160 63 -143 L122 -60 Q147 -78 177.5 -89 Q208 -100 244 -100 Q291 -100 318.5 -74 Q346 -48 346 2 L346 48 L344 48 Q320 20 288 7.5 Q256 -5 225 -5 Q168 -5 132 17 Q96 39 76.5 73.5 Q57 108 50 151 Q43 194 43 236 Q43 280 49 326.5 Q55 373 74.5 411.5 Q94 450 130.5 475 Q167 500 228 500 Q260 500 291 488 Q322 476 343 450 L345 450 L345 495 L456 495 Z M158 247 Q158 220 160.5 194 Q163 168 172.5 147 Q182 126 201 113.5 Q220 101 252 101 Q283 101 301.5 115 Q320 129 329.5 150.5 Q339 172 342 197.5 Q345 223 345 247 Q345 268 343 294 Q341 320 332 342 Q323 364 304.5 379 Q286 394 253 394 Q220 394 201.5 380 Q183 366 173 344.5 Q163 323 160.5 297 Q158 271 158 247 Z " />
<glyph glyph-name="h" unicode="h" horiz-adv-x="529" d="M372 0 L372 294 Q372 342 350.5 368 Q329 394 283 394 Q242 394 214 368 Q186 342 186 294 L186 0 L73 0 L73 726 L186 726 L186 447 L189 447 Q212 472 247 486 Q282 500 316 500 Q351 500 382 489 Q413 478 436 456 Q459 434 472 401 Q485 368 485 325 L485 0 L372 0 Z " />
<glyph glyph-name="i" unicode="i" horiz-adv-x="247" d="M67 592 L67 696 L180 696 L180 592 L67 592 Z M67 0 L67 495 L180 495 L180 0 L67 0 Z " />
<glyph glyph-name="j" unicode="j" horiz-adv-x="265" d="M76 592 L76 696 L190 696 L190 592 L76 592 Z M190 -59 Q190 -123 153.5 -162 Q117 -201 44 -201 L-8 -201 L-8 -101 L20 -101 Q52 -101 64 -84.5 Q76 -68 76 -42 L76 496 L190 496 L190 -59 Z " />
<glyph glyph-name="k" unicode="k" horiz-adv-x="520" d="M391 0 Q354 56 318.5 111 Q283 166 246 222 Q229 203 211 184.5 Q193 166 176 146 L176 0 L64 0 L64 726 L176 726 L176 291 L179 291 L275 401 L361 495 L499 495 L320 302 Q371 226 421.5 150.5 Q472 75 523 0 L391 0 Z " />
<glyph glyph-name="l" unicode="l" horiz-adv-x="265" d="M202 0 Q173 0 148 6 Q123 12 104 27 Q85 42 74.5 67.5 Q64 93 64 131 L64 726 L177 726 L177 148 Q177 120 189.5 110 Q202 100 225 100 L245 100 L245 0 L202 0 Z " />
<glyph glyph-name="m" unicode="m" horiz-adv-x="833" d="M660 0 L660 295 Q660 343 637.5 369.5 Q615 396 567 396 Q528 396 501 368 Q474 340 474 295 L474 0 L361 0 L361 295 Q361 343 338 369.5 Q315 396 268 396 Q229 396 201.5 368 Q174 340 174 295 L174 0 L61 0 L61 495 L174 495 L174 442 Q175 442 175.5 441.5 Q176 441 177 441 Q199 469 235.5 484.5 Q272 500 309 500 Q402 500 446 429 Q478 462 517.5 481 Q557 500 603 500 Q678 500 725 455.5 Q772 411 772 326 L772 0 L660 0 Z " />
<glyph glyph-name="n" unicode="n" horiz-adv-x="529" d="M357 0 L357 294 Q357 342 335.5 368 Q314 394 266 394 Q225 394 198 368 Q171 342 171 294 L171 0 L58 0 L58 496 L171 496 L171 444 L173 444 Q197 471 232.5 485.5 Q268 500 302 500 Q378 500 424 456.5 Q470 413 470 325 L470 0 L357 0 Z " />
<glyph glyph-name="o" unicode="o" horiz-adv-x="515" d="M264 501 Q320 501 364.5 479.5 Q409 458 436 418 Q455 389 464 347.5 Q473 306 472 255 Q472 198 463.5 157.5 Q455 117 438 87 Q409 40 360 16.5 Q311 -7 252 -7 Q196 -7 152 12 Q108 31 81 71 Q40 132 42 247 Q42 287 47.5 323 Q53 359 67 387 Q93 442 144.5 471.5 Q196 501 264 501 Z M260 399 Q231 399 208 384 Q185 369 173 343 Q164 323 160.5 299 Q157 275 156 246 Q156 217 159 193 Q162 169 171 151 Q182 125 204 110.5 Q226 96 255 96 Q287 96 312 113.5 Q337 131 348 167 Q353 181 355 202 Q357 223 357 255 Q357 313 344 342 Q333 371 310.5 385 Q288 399 260 399 Z " />
<glyph glyph-name="p" unicode="p" horiz-adv-x="516" d="M172 495 L172 451 L175 450 Q200 478 232 489 Q264 500 296 500 Q354 500 389.5 476.5 Q425 453 444 416 Q463 379 469 334 Q475 289 475 246 Q475 203 467.5 158.5 Q460 114 439 77.5 Q418 41 381 17.5 Q344 -6 284 -6 Q253 -6 223 5.5 Q193 17 174 41 L172 41 L172 -200 L60 -200 L60 495 L172 495 Z M172 246 Q172 223 174.5 197 Q177 171 186.5 149.5 Q196 128 214.5 114 Q233 100 264 100 Q295 100 314 113.5 Q333 127 342.5 148 Q352 169 355 195 Q358 221 358 246 Q358 270 356 296 Q354 322 345 344 Q336 366 317.5 380 Q299 394 266 394 Q234 394 215.5 379.5 Q197 365 187.5 343 Q178 321 175 295 Q172 269 172 246 Z " />
<glyph glyph-name="q" unicode="q" horiz-adv-x="522" d="M53 238 Q53 285 60.5 332 Q68 379 89 416.5 Q110 454 147.5 477 Q185 500 245 500 Q277 500 305 487.5 Q333 475 354 449 L356 449 L356 495 L469 495 L469 -202 L356 -202 L356 47 L354 47 Q329 20 296.5 7 Q264 -6 234 -6 Q176 -6 141 16 Q106 38 86.5 72.5 Q67 107 60 150.5 Q53 194 53 238 Z M169 246 Q169 221 171.5 195.5 Q174 170 183.5 149 Q193 128 212 114.5 Q231 101 263 101 Q294 101 312 115 Q330 129 340 150.5 Q350 172 353 197.5 Q356 223 356 246 Q356 269 353.5 295.5 Q351 322 341.5 344.5 Q332 367 313.5 382 Q295 397 264 397 Q231 397 212.5 382.5 Q194 368 184 345.5 Q174 323 171.5 296.5 Q169 270 169 246 Z " />
<glyph glyph-name="r" unicode="r" horiz-adv-x="388" d="M270 395 Q229 395 203 370 Q177 345 177 297 L177 -1 L64 -1 L64 495 L175 495 L175 436 L179 436 Q224 500 299 500 Q327 500 350 494 Q373 488 393 474 L351 372 Q330 385 310 390 Q290 395 270 395 Z " />
<glyph glyph-name="s" unicode="s" horiz-adv-x="463" d="M433 151 Q433 114 417 85 Q401 56 373.5 35.5 Q346 15 309.5 4.5 Q273 -6 231 -6 Q176 -6 121.5 9 Q67 24 16 69 L77 150 Q112 118 151.5 104.5 Q191 91 236 91 Q272 91 297 106 Q322 121 322 148 Q322 174 301 186.5 Q280 199 234 204 Q201 208 167.5 214 Q134 220 107 235 Q80 250 63 276 Q46 302 46 345 Q46 383 61 412 Q76 441 101 460.5 Q126 480 159.5 490 Q193 500 231 500 Q288 500 334 487.5 Q380 475 421 444 L367 358 Q332 381 297.5 391 Q263 401 233 401 Q193 401 173 385.5 Q153 370 153 348 Q153 323 181 312 Q209 301 271 294 Q301 291 330.5 282.5 Q360 274 382.5 258 Q405 242 419 216 Q433 190 433 151 Z " />
<glyph glyph-name="t" unicode="t" horiz-adv-x="316" d="M217 0 Q162 0 126 32 Q90 64 90 124 L90 404 L33 404 L33 496 L91 496 L91 625 L201 625 L201 496 L277 496 L277 404 L202 404 L202 155 Q202 129 212 114 Q222 99 248 99 L285 99 L285 0 L217 0 Z " />
<glyph glyph-name="u" unicode="u" horiz-adv-x="533" d="M171 495 L171 200 Q171 149 192 124 Q213 99 263 99 Q303 99 330.5 125.5 Q358 152 358 200 L358 495 L471 495 L471 0 L358 0 L358 49 L355 49 Q332 21 297 7.5 Q262 -6 229 -6 Q152 -6 105.5 37 Q59 80 59 170 L59 495 L171 495 Z " />
<glyph glyph-name="v" unicode="v" horiz-adv-x="480" d="M243 155 L286 293 L353 495 L475 495 L286 0 L195 0 L5 495 L127 495 Q144 446 160 395 Q176 344 193 293 Q205 258 217 224 Q229 190 240 155 L243 155 Z " />
<glyph glyph-name="w" unicode="w" horiz-adv-x="736" d="M520 168 Q526 189 531.5 211 Q537 233 542 253 Q546 268 550.5 284.5 Q555 301 562 327 Q569 353 580 393 Q591 433 609 495 L730 495 Q689 370 648.5 247.5 Q608 125 566 0 L467 0 Q449 57 431.5 115 Q414 173 397 231 L368 325 L366 325 L335 219 Q303 109 268 0 L169 0 L5 495 L126 495 Q137 460 146.5 425 Q156 390 166 355 Q180 309 191.5 263 Q203 217 217 171 L221 171 Q229 197 234 212.5 Q239 228 242.5 240.5 Q246 253 250.5 268.5 Q255 284 263 310 L321 495 L416 495 Q435 435 453.5 374 Q472 313 490 252 L514 168 L520 168 Z " />
<glyph glyph-name="x" unicode="x" horiz-adv-x="501" d="M354 0 L250 167 L147 0 L11 0 L191 253 L19 495 L154 495 L250 335 L347 495 L482 495 L310 252 L490 0 L354 0 Z " />
<glyph glyph-name="y" unicode="y" horiz-adv-x="470" d="M252 -100 Q231 -157 192 -178.5 Q153 -200 108 -200 L66 -200 L66 -105 L97 -105 Q119 -105 134 -89.5 Q149 -74 157 -53 L182 25 L0 495 L122 495 L186 313 L235 157 L239 157 L288 311 L351 495 L470 495 L252 -100 Z " />
<glyph glyph-name="z" unicode="z" horiz-adv-x="449" d="M31 0 L31 94 L280 398 L45 398 L45 495 L417 495 L417 403 L169 102 L417 102 L417 0 L31 0 Z " />
<glyph glyph-name="braceleft" unicode="&#x7b;" horiz-adv-x="288" d="M196 -98 Q155 -98 126 -71.5 Q97 -45 92 0 Q91 8 90.5 17 Q90 26 90 35 L90 136 Q90 145 90 154.5 Q90 164 89 172 Q86 213 67 235.5 Q48 258 13 260 L13 337 Q52 341 71 371 Q90 401 90 447 L90 580 Q90 633 120.5 664.5 Q151 696 196 696 L279 696 L279 618 L238 618 Q226 618 217.5 611 Q209 604 204 593.5 Q199 583 197 570.5 Q195 558 195 546 L195 425 Q195 397 187.5 376 Q180 355 168.5 339.5 Q157 324 143.5 314.5 Q130 305 119 300 L119 298 Q132 293 145.5 283.5 Q159 274 170 258.5 Q181 243 188 222.5 Q195 202 195 175 L195 51 Q195 39 196 26 Q197 13 201.5 2.5 Q206 -8 214.5 -14.5 Q223 -21 238 -21 L279 -21 L279 -98 L196 -98 Z " />
<glyph glyph-name="bar" unicode="&#x7c;" horiz-adv-x="232" d="M68 -195 L68 723 L163 723 L163 -195 L68 -195 Z " />
<glyph glyph-name="braceright" unicode="&#x7d;" horiz-adv-x="288" d="M276 260 Q252 261 237 249.5 Q222 238 213.5 220 Q205 202 202 179.5 Q199 157 199 136 L199 35 Q199 26 199 17 Q199 8 197 0 Q192 -45 163.5 -71.5 Q135 -98 94 -98 L11 -98 L11 -21 L52 -21 Q66 -21 74.5 -14.5 Q83 -8 87.5 2.5 Q92 13 93.5 26 Q95 39 95 51 L95 175 Q95 202 102 222.5 Q109 243 120 258.5 Q131 274 144.5 283.5 Q158 293 171 298 L171 300 Q159 305 146 314.5 Q133 324 121.5 339.5 Q110 355 102.5 376 Q95 397 95 425 L95 546 Q95 558 93.5 570.5 Q92 583 87.5 593.5 Q83 604 74.5 611 Q66 618 52 618 L11 618 L11 694 L93 694 Q142 694 170.5 662.5 Q199 631 199 580 L199 447 Q199 426 203.5 406.5 Q208 387 218 372 Q228 357 242 347.5 Q256 338 276 337 L276 260 L276 260 Z " />
<glyph glyph-name="asciitilde" unicode="&#x7e;" horiz-adv-x="525" d="M494 308 Q465 253 432 227 Q399 201 355 201 Q333 201 310.5 210 Q288 219 265.5 230.5 Q243 242 221.5 251 Q200 260 182 260 Q158 260 140.5 248 Q123 236 100 207 Q83 218 67 228.5 Q51 239 34 250 Q63 303 97.5 329 Q132 355 178 355 Q201 355 224 345.5 Q247 336 268.5 324.5 Q290 313 310 304 Q330 295 348 295 Q371 295 388.5 310 Q406 325 427 353 L494 308 L494 308 Z " />
<glyph glyph-name="Adieresis" unicode="&#xc4;" horiz-adv-x="629" d="M498 0 L443 154 L185 154 L129 0 L2 0 L265 696 L363 696 L626 0 L498 0 Z M361 398 L315 541 L312 541 L267 401 L220 257 L407 257 L361 398 Z M352 757 L352 868 L472 868 L472 757 L352 757 Z M154 757 L154 868 L275 868 L275 757 L154 757 Z " />
<glyph glyph-name="Odieresis" unicode="&#xd6;" horiz-adv-x="610" d="M304 701 Q364 701 412 681 Q460 661 494 626 Q528 591 546 542.5 Q564 494 564 437 L564 259 Q564 198 545.5 149 Q527 100 493 65.5 Q459 31 411 12.5 Q363 -6 304 -6 Q239 -6 190 15.5 Q141 37 109 73.5 Q77 110 61 158 Q45 206 45 259 L45 437 Q45 489 61 537 Q77 585 109 621.5 Q141 658 190 679.5 Q239 701 304 701 Z M304 587 Q269 587 243.5 575 Q218 563 201 542.5 Q184 522 175.5 496 Q167 470 167 443 L167 256 Q167 227 175.5 200.5 Q184 174 201 153 Q218 132 243.5 119.5 Q269 107 304 107 Q336 107 361.5 118.5 Q387 130 404.5 150 Q422 170 431.5 197 Q441 224 441 256 L441 443 Q441 473 431.5 499 Q422 525 404.5 544.5 Q387 564 361.5 575.5 Q336 587 304 587 Z M343 757 L343 868 L463 868 L463 757 L343 757 Z M145 757 L145 868 L266 868 L266 757 L145 757 Z " />
<glyph glyph-name="Udieresis" unicode="&#xdc;" horiz-adv-x="638" d="M579 247 Q579 190 559.5 143.5 Q540 97 505.5 64 Q471 31 423 13 Q375 -5 319 -5 Q260 -5 212 14.5 Q164 34 130 68.5 Q96 103 78 150 Q60 197 60 252 L60 696 L180 696 L180 261 Q180 229 189.5 201 Q199 173 217 152.5 Q235 132 261 120 Q287 108 320 108 Q382 108 419.5 146 Q457 184 457 256 L457 696 L579 696 L579 247 Z M360 757 L360 868 L480 868 L480 757 L360 757 Z M162 757 L162 868 L283 868 L283 757 L162 757 Z " />
<glyph glyph-name="dieresistonos" unicode="&#x385;" horiz-adv-x="502" d="M340 579 L340 689 L458 689 L458 579 L340 579 Z M38 579 L38 689 L155 689 L155 579 L38 579 Z M165 569 L244 759 L351 725 L233 544 L165 569 Z " />
<glyph glyph-name="agrave" unicode="&#xe0;" horiz-adv-x="499" d="M245 500 Q287 500 324 492.5 Q361 485 389 466 Q417 447 433.5 415.5 Q450 384 450 336 L450 0 L337 0 L337 44 Q337 44 335 45 Q315 19 279.5 7 Q244 -5 206 -5 Q127 -5 81 33.5 Q35 72 35 144 Q35 174 46 201 Q57 228 78 248.5 Q99 269 130.5 281 Q162 293 203 293 L337 293 L337 329 Q337 343 332.5 356 Q328 369 317 378.5 Q306 388 287 394 Q268 400 239 400 Q198 400 170 389.5 Q142 379 121 359 L61 435 Q97 471 145 485.5 Q193 500 245 500 Z M142 152 Q142 141 146.5 130 Q151 119 161.5 110.5 Q172 102 188.5 96.5 Q205 91 230 91 Q249 91 267 94.5 Q285 98 299.5 106 Q314 114 324 127 Q334 140 336 160 Q337 166 337 175 Q337 184 337 207 L222 207 Q179 207 160.5 191 Q142 175 142 152 Z M247 544 L124 723 L232 759 L314 573 L247 544 Z " />
<glyph glyph-name="acircumflex" unicode="&#xe2;" horiz-adv-x="499" d="M245 500 Q287 500 324 492.5 Q361 485 389 466 Q417 447 433.5 415.5 Q450 384 450 336 L450 0 L337 0 L337 44 Q337 44 335 45 Q315 19 279.5 7 Q244 -5 206 -5 Q127 -5 81 33.5 Q35 72 35 144 Q35 174 46 201 Q57 228 78 248.5 Q99 269 130.5 281 Q162 293 203 293 L337 293 L337 329 Q337 343 332.5 356 Q328 369 317 378.5 Q306 388 287 394 Q268 400 239 400 Q198 400 170 389.5 Q142 379 121 359 L61 435 Q97 471 145 485.5 Q193 500 245 500 Z M248 642 Q239 636 219.5 621 Q200 606 178.5 589.5 Q157 573 137 558 Q117 543 108 537 L62 580 L211 734 L289 734 L435 581 L387 537 L248 642 Z M142 152 Q142 141 146.5 130 Q151 119 161.5 110.5 Q172 102 188.5 96.5 Q205 91 230 91 Q249 91 267 94.5 Q285 98 299.5 106 Q314 114 324 127 Q334 140 336 160 Q337 166 337 175 Q337 184 337 207 L222 207 Q179 207 160.5 191 Q142 175 142 152 Z " />
<glyph glyph-name="adieresis" unicode="&#xe4;" horiz-adv-x="499" d="M245 500 Q287 500 324 492.5 Q361 485 389 466 Q417 447 433.5 415.5 Q450 384 450 336 L450 0 L337 0 L337 44 Q337 44 335 45 Q315 19 279.5 7 Q244 -5 206 -5 Q127 -5 81 33.5 Q35 72 35 144 Q35 174 46 201 Q57 228 78 248.5 Q99 269 130.5 281 Q162 293 203 293 L337 293 L337 329 Q337 343 332.5 356 Q328 369 317 378.5 Q306 388 287 394 Q268 400 239 400 Q198 400 170 389.5 Q142 379 121 359 L61 435 Q97 471 145 485.5 Q193 500 245 500 Z M142 152 Q142 141 146.5 130 Q151 119 161.5 110.5 Q172 102 188.5 96.5 Q205 91 230 91 Q249 91 267 94.5 Q285 98 299.5 106 Q314 114 324 127 Q334 140 336 160 Q337 166 337 175 Q337 184 337 207 L222 207 Q179 207 160.5 191 Q142 175 142 152 Z M93 583 L93 692 L212 692 L212 583 L93 583 Z M293 583 L293 692 L411 692 L411 583 L293 583 Z " />
<glyph glyph-name="tonos" unicode="&#x384;" horiz-adv-x="504" d="M188 569 L267 759 L374 725 L256 544 L188 569 Z " />
<glyph glyph-name="dieresis" unicode="&#xa8;" horiz-adv-x="504" d="M292 583 L292 692 L410 692 L410 583 L292 583 Z M92 583 L92 692 L211 692 L211 583 L92 583 Z " />
<glyph glyph-name="ccedilla" unicode="&#xe7;" horiz-adv-x="447" d="M430 67 Q395 33 352 14 Q309 -5 258 -6 L249 -37 Q276 -39 295 -48 Q314 -57 325.5 -69.5 Q337 -82 342 -96.5 Q347 -111 347 -124 Q347 -139 340 -155 Q333 -171 319 -184 Q305 -197 283.5 -205 Q262 -213 233 -213 Q207 -213 181.5 -207.5 Q156 -202 133 -189 L154 -137 Q177 -148 194 -150.5 Q211 -153 226 -153 Q243 -153 256.5 -146 Q270 -139 270 -120 Q270 -103 257.5 -95.5 Q245 -88 227 -88 Q220 -88 210 -90 L180 -70 L202 -1 Q166 6 134 24.5 Q102 43 78.5 73.5 Q55 104 41.5 147 Q28 190 28 247 Q28 314 47.5 362 Q67 410 99 441 Q131 472 173 486 Q215 500 259 500 Q358 500 428 430 L355 351 Q311 397 261 397 Q204 397 174 361 Q144 325 144 247 Q144 170 173.5 134 Q203 98 260 98 Q285 98 310 111 Q335 124 356 145 L430 67 L430 67 Z " />
<glyph glyph-name="eacute" unicode="&#xe9;" horiz-adv-x="507" d="M154 215 Q154 192 160 170.5 Q166 149 179 132.5 Q192 116 212 106 Q232 96 259 96 Q281 96 314.5 106.5 Q348 117 376 143 Q394 123 409 103.5 Q424 84 442 64 Q400 26 351 10 Q302 -6 255 -6 Q216 -6 177 5 Q138 16 107 44.5 Q76 73 56.5 121.5 Q37 170 37 246 Q37 318 56.5 366.5 Q76 415 107 445 Q138 475 176.5 488 Q215 501 253 501 Q303 501 342.5 484 Q382 467 409.5 436.5 Q437 406 451.5 362 Q466 318 466 264 L466 215 L154 215 Z M252 398 Q213 398 187 371 Q161 344 156 295 L346 295 Q343 346 316.5 372 Q290 398 252 398 Z M198 569 L277 759 L384 725 L266 544 L198 569 Z " />
<glyph glyph-name="egrave" unicode="&#xe8;" horiz-adv-x="507" d="M154 215 Q154 192 160 170.5 Q166 149 179 132.5 Q192 116 212 106 Q232 96 259 96 Q281 96 314.5 106.5 Q348 117 376 143 Q394 123 409 103.5 Q424 84 442 64 Q400 26 351 10 Q302 -6 255 -6 Q216 -6 177 5 Q138 16 107 44.5 Q76 73 56.5 121.5 Q37 170 37 246 Q37 318 56.5 366.5 Q76 415 107 445 Q138 475 176.5 488 Q215 501 253 501 Q303 501 342.5 484 Q382 467 409.5 436.5 Q437 406 451.5 362 Q466 318 466 264 L466 215 L154 215 Z M252 398 Q213 398 187 371 Q161 344 156 295 L346 295 Q343 346 316.5 372 Q290 398 252 398 Z M249 544 L126 723 L234 759 L316 573 L249 544 Z " />
<glyph glyph-name="ecircumflex" unicode="&#xea;" horiz-adv-x="507" d="M154 215 Q154 192 160 170.5 Q166 149 179 132.5 Q192 116 212 106 Q232 96 259 96 Q281 96 314.5 106.5 Q348 117 376 143 Q394 123 409 103.5 Q424 84 442 64 Q400 26 351 10 Q302 -6 255 -6 Q216 -6 177 5 Q138 16 107 44.5 Q76 73 56.5 121.5 Q37 170 37 246 Q37 318 56.5 366.5 Q76 415 107 445 Q138 475 176.5 488 Q215 501 253 501 Q303 501 342.5 484 Q382 467 409.5 436.5 Q437 406 451.5 362 Q466 318 466 264 L466 215 L154 215 Z M252 398 Q213 398 187 371 Q161 344 156 295 L346 295 Q343 346 316.5 372 Q290 398 252 398 Z M258 642 Q249 636 229.5 621 Q210 606 188.5 589.5 Q167 573 147 558 Q127 543 118 537 L72 580 L221 734 L299 734 L445 581 L397 537 L258 642 Z " />
<glyph glyph-name="edieresis" unicode="&#xeb;" horiz-adv-x="507" d="M154 215 Q154 192 160 170.5 Q166 149 179 132.5 Q192 116 212 106 Q232 96 259 96 Q281 96 314.5 106.5 Q348 117 376 143 Q394 123 409 103.5 Q424 84 442 64 Q400 26 351 10 Q302 -6 255 -6 Q216 -6 177 5 Q138 16 107 44.5 Q76 73 56.5 121.5 Q37 170 37 246 Q37 318 56.5 366.5 Q76 415 107 445 Q138 475 176.5 488 Q215 501 253 501 Q303 501 342.5 484 Q382 467 409.5 436.5 Q437 406 451.5 362 Q466 318 466 264 L466 215 L154 215 Z M252 398 Q213 398 187 371 Q161 344 156 295 L346 295 Q343 346 316.5 372 Q290 398 252 398 Z M297 583 L297 692 L415 692 L415 583 L297 583 Z M97 583 L97 692 L216 692 L216 583 L97 583 Z " />
<glyph glyph-name="sterling" unicode="&#xa3;" horiz-adv-x="525" d="M393 526 Q364 569 335 582 Q306 595 274 595 Q260 595 246 589.5 Q232 584 220 573.5 Q208 563 200.5 546.5 Q193 530 193 508 Q193 491 197.5 474.5 Q202 458 208.5 441 Q215 424 222 406 Q229 388 233 367 L383 367 L383 280 L237 280 Q235 234 224 188.5 Q213 143 187 101 L482 101 L482 0 L39 0 L39 86 Q72 130 92.5 176.5 Q113 223 117 280 L37 280 L37 367 L104 367 Q93 405 78.5 440 Q64 475 64 510 Q64 546 76.5 580 Q89 614 114.5 641 Q140 668 179 684 Q218 700 271 700 Q305 700 334 696.5 Q363 693 389 681.5 Q415 670 439 649 Q463 628 489 592 L393 526 Z " />
<glyph glyph-name="trademark" unicode="&#x2122;" horiz-adv-x="856" d="M717 283 L717 513 L637 340 L575 340 L496 516 L496 283 L417 283 L417 696 L490 696 L608 437 L721 696 L794 696 L794 283 L717 283 Z M245 619 L245 283 L161 283 L161 619 L37 619 L37 696 L369 696 L369 619 L245 619 Z " />
<glyph glyph-name="bullet" unicode="&#x2022;" horiz-adv-x="443" d="M85 274 Q85 304 96 330.5 Q107 357 126.5 376.5 Q146 396 172.5 407.5 Q199 419 229 419 Q259 419 285.5 407.5 Q312 396 331.5 376.5 Q351 357 362.5 330.5 Q374 304 374 274 Q374 244 362.5 217.5 Q351 191 331.5 171.5 Q312 152 285.5 140.5 Q259 129 229 129 Q199 129 172.5 140.5 Q146 152 126.5 171.5 Q107 191 96 217.5 Q85 244 85 274 Z " />
<glyph glyph-name="ocircumflex" unicode="&#xf4;" horiz-adv-x="515" d="M264 501 Q320 501 364.5 479.5 Q409 458 436 418 Q455 389 464 347.5 Q473 306 472 255 Q472 198 463.5 157.5 Q455 117 438 87 Q409 40 360 16.5 Q311 -7 252 -7 Q196 -7 152 12 Q108 31 81 71 Q40 132 42 247 Q42 287 47.5 323 Q53 359 67 387 Q93 442 144.5 471.5 Q196 501 264 501 Z M260 399 Q231 399 208 384 Q185 369 173 343 Q164 323 160.5 299 Q157 275 156 246 Q156 217 159 193 Q162 169 171 151 Q182 125 204 110.5 Q226 96 255 96 Q287 96 312 113.5 Q337 131 348 167 Q353 181 355 202 Q357 223 357 255 Q357 313 344 342 Q333 371 310.5 385 Q288 399 260 399 Z M258 642 Q249 636 229.5 621 Q210 606 188.5 589.5 Q167 573 147 558 Q127 543 118 537 L72 580 L221 734 L299 734 L445 581 L397 537 L258 642 Z " />
<glyph glyph-name="odieresis" unicode="&#xf6;" horiz-adv-x="515" d="M264 501 Q320 501 364.5 479.5 Q409 458 436 418 Q455 389 464 347.5 Q473 306 472 255 Q472 198 463.5 157.5 Q455 117 438 87 Q409 40 360 16.5 Q311 -7 252 -7 Q196 -7 152 12 Q108 31 81 71 Q40 132 42 247 Q42 287 47.5 323 Q53 359 67 387 Q93 442 144.5 471.5 Q196 501 264 501 Z M260 399 Q231 399 208 384 Q185 369 173 343 Q164 323 160.5 299 Q157 275 156 246 Q156 217 159 193 Q162 169 171 151 Q182 125 204 110.5 Q226 96 255 96 Q287 96 312 113.5 Q337 131 348 167 Q353 181 355 202 Q357 223 357 255 Q357 313 344 342 Q333 371 310.5 385 Q288 399 260 399 Z M297 583 L297 692 L415 692 L415 583 L297 583 Z M97 583 L97 692 L216 692 L216 583 L97 583 Z " />
<glyph glyph-name="sfthyphen" unicode="&#xad;" horiz-adv-x="416" d="M49 211 L49 314 L367 314 L367 211 L49 211 Z " />
<glyph glyph-name="ugrave" unicode="&#xf9;" horiz-adv-x="533" d="M171 495 L171 200 Q171 149 192 124 Q213 99 263 99 Q303 99 330.5 125.5 Q358 152 358 200 L358 495 L471 495 L471 0 L358 0 L358 49 L355 49 Q332 21 297 7.5 Q262 -6 229 -6 Q152 -6 105.5 37 Q59 80 59 170 L59 495 L171 495 Z M255 544 L132 723 L240 759 L322 573 L255 544 Z " />
<glyph glyph-name="ucircumflex" unicode="&#xfb;" horiz-adv-x="533" d="M171 495 L171 200 Q171 149 192 124 Q213 99 263 99 Q303 99 330.5 125.5 Q358 152 358 200 L358 495 L471 495 L471 0 L358 0 L358 49 L355 49 Q332 21 297 7.5 Q262 -6 229 -6 Q152 -6 105.5 37 Q59 80 59 170 L59 495 L171 495 Z M263 642 Q254 636 234.5 621 Q215 606 193.5 589.5 Q172 573 152 558 Q132 543 123 537 L77 580 L226 734 L304 734 L450 581 L402 537 L263 642 Z " />
<glyph glyph-name="udieresis" unicode="&#xfc;" horiz-adv-x="533" d="M171 495 L171 200 Q171 149 192 124 Q213 99 263 99 Q303 99 330.5 125.5 Q358 152 358 200 L358 495 L471 495 L471 0 L358 0 L358 49 L355 49 Q332 21 297 7.5 Q262 -6 229 -6 Q152 -6 105.5 37 Q59 80 59 170 L59 495 L171 495 Z M298 583 L298 692 L416 692 L416 583 L298 583 Z M98 583 L98 692 L217 692 L217 583 L98 583 Z " />
<glyph glyph-name="dagger" unicode="&#x2020;" horiz-adv-x="488" d="M300 373 L300 -177 L189 -177 L189 373 L21 373 L21 465 L189 465 L189 696 L300 696 L300 465 L467 465 L467 373 L300 373 Z " />
<glyph glyph-name="Gamma" unicode="&#x393;" horiz-adv-x="545" d="M194 586 L194 0 L73 0 L73 696 L539 696 L539 586 L194 586 Z " />
<glyph glyph-name="&amp;#x394;" unicode="&#x394;" horiz-adv-x="630" d="M2 0 L264 696 L363 696 L625 0 L2 0 Z M460 105 Q435 178 411 251.5 Q387 325 363 398 L316 548 L311 548 Q301 516 292 484.5 Q283 453 272 421 Q262 389 249 349 Q236 309 221.5 267 Q207 225 193 183 Q179 141 166 105 L460 105 Z " />
<glyph glyph-name="&amp;#x2206;" unicode="&#x2206;" horiz-adv-x="630" d="M2 0 L264 696 L363 696 L625 0 L2 0 Z M460 105 Q435 178 411 251.5 Q387 325 363 398 L316 548 L311 548 Q301 516 292 484.5 Q283 453 272 421 Q262 389 249 349 Q236 309 221.5 267 Q207 225 193 183 Q179 141 166 105 L460 105 Z " />
<glyph glyph-name="Theta" unicode="&#x398;" horiz-adv-x="602" d="M300 701 Q360 701 408 681 Q456 661 490 626 Q524 591 542 542.5 Q560 494 560 437 L560 259 Q560 198 541.5 149 Q523 100 489 65.5 Q455 31 407 12.5 Q359 -6 300 -6 Q235 -6 186 15.5 Q137 37 105 73.5 Q73 110 57 158 Q41 206 41 259 L41 437 Q41 489 57 537 Q73 585 105 621.5 Q137 658 186 679.5 Q235 701 300 701 Z M300 586 Q265 586 239.5 574 Q214 562 197 541.5 Q180 521 171.5 495 Q163 469 163 442 L163 257 Q163 228 171.5 201.5 Q180 175 197 154 Q214 133 239.5 120.5 Q265 108 300 108 Q332 108 357.5 119.5 Q383 131 400.5 151 Q418 171 427.5 198 Q437 225 437 257 L437 442 Q437 472 427.5 498 Q418 524 400.5 543.5 Q383 563 357.5 574.5 Q332 586 300 586 Z M407 301 L194 301 L194 401 L407 401 L407 301 Z " />
<glyph glyph-name="Lambda" unicode="&#x39b;" horiz-adv-x="618" d="M493 0 Q487 18 476.5 47.5 Q466 77 455.5 107.5 Q445 138 436 164 Q427 190 423 201 Q419 212 406.5 246.5 Q394 281 378 327 Q362 373 344 425 Q326 477 310 523 L307 523 Q291 477 273 425.5 Q255 374 239 328 Q223 282 211 247.5 Q199 213 195 202 Q191 191 182 164.5 Q173 138 162 107.5 Q151 77 140.5 47.5 Q130 18 124 0 L-3 0 L259 696 L358 696 L621 0 L493 0 Z " />
<glyph glyph-name="Xi" unicode="&#x39e;" horiz-adv-x="589" d="M55 586 L55 696 L530 696 L530 586 L55 586 Z M107 298 L107 404 L478 404 L478 298 L107 298 Z M53 0 L53 110 L533 110 L533 0 L53 0 Z " />
<glyph glyph-name="Pi" unicode="&#x3a0;" horiz-adv-x="655" d="M462 0 L462 588 L194 588 L194 0 L73 0 L73 696 L582 696 L582 0 L462 0 Z " />
<glyph glyph-name="germandbls" unicode="&#xdf;" horiz-adv-x="542" d="M493 236 Q493 196 483.5 154 Q474 112 449.5 77.5 Q425 43 384 21 Q343 -1 280 -1 L246 -1 L246 93 L275 93 Q320 93 347.5 132 Q375 171 375 233 Q375 252 371 274.5 Q367 297 357 316 Q347 335 329.5 347.5 Q312 360 286 360 L264 360 L264 452 L285 452 Q306 452 319.5 461.5 Q333 471 341 484.5 Q349 498 352 512.5 Q355 527 355 537 Q355 552 350 568.5 Q345 585 334.5 599 Q324 613 307.5 622 Q291 631 268 631 Q242 631 224 622 Q206 613 195 598.5 Q184 584 179.5 566 Q175 548 175 530 L175 0 L62 0 L62 527 Q62 574 77 611.5 Q92 649 119 674.5 Q146 700 184 713.5 Q222 727 268 727 Q319 727 355.5 711 Q392 695 416 669.5 Q440 644 451.5 612.5 Q463 581 463 549 Q463 532 458 511.5 Q453 491 443.5 472 Q434 453 420 437.5 Q406 422 388 413 L388 412 Q418 403 438 384 Q458 365 470.5 340 Q483 315 488 288 Q493 261 493 236 Z " />
<glyph glyph-name="registered" unicode="&#xae;" horiz-adv-x="543" d="M273 464 L238 464 L238 367 L191 367 L191 610 L290 610 Q321 610 343 591 Q365 572 365 539 Q365 494 321 472 L373 367 L320 367 L273 464 Z M238 567 L238 508 L285 508 Q300 508 309.5 516.5 Q319 525 319 539 Q319 567 287 567 L238 567 Z M272 277 Q226 277 187 293 Q148 309 119 337 Q90 365 73.5 404 Q57 443 57 488 Q57 534 74 573 Q91 612 120 640.5 Q149 669 188.5 685 Q228 701 272 701 Q318 701 357 685 Q396 669 425 640.5 Q454 612 470.5 573 Q487 534 487 488 Q487 443 470 404 Q453 365 423.5 337 Q394 309 355 293 Q316 277 272 277 Z M272 657 Q236 657 205.5 644 Q175 631 152.5 608.5 Q130 586 117.5 555 Q105 524 105 488 Q105 452 117.5 421.5 Q130 391 152.5 368.5 Q175 346 205.5 333 Q236 320 272 320 Q308 320 338 333 Q368 346 390.5 368.5 Q413 391 425.5 421.5 Q438 452 438 488 Q438 524 425.5 555 Q413 586 390.5 608.5 Q368 631 338 644 Q308 657 272 657 Z " />
<glyph glyph-name="copyright" unicode="&#xa9;" horiz-adv-x="812" d="M408 -12 Q332 -12 267.5 14 Q203 40 156 87 Q109 134 82.5 199 Q56 264 56 342 Q56 418 83 483.5 Q110 549 157.5 596 Q205 643 269 670 Q333 697 408 697 Q483 697 547 670.5 Q611 644 658.5 596.5 Q706 549 733 484 Q760 419 760 342 Q760 265 733 200.5 Q706 136 658.5 88.5 Q611 41 547 14.5 Q483 -12 408 -12 Z M408 627 Q349 627 298.5 605 Q248 583 211 545 Q174 507 153 455 Q132 403 132 342 Q132 281 153 229 Q174 177 211 139 Q248 101 298.5 79.5 Q349 58 408 58 Q467 58 517.5 79.5 Q568 101 604.5 139 Q641 177 662 229 Q683 281 683 342 Q683 404 662 456.5 Q641 509 604.5 547 Q568 585 517.5 606 Q467 627 408 627 Z M565 218 Q548 168 508 140.5 Q468 113 410 113 Q369 113 338.5 126 Q308 139 287.5 161.5 Q267 184 257 214.5 Q247 245 247 280 L247 389 Q247 422 257 452 Q267 482 287.5 505.5 Q308 529 338.5 542.5 Q369 556 410 556 Q468 556 507.5 527.5 Q547 499 564 451 L488 421 Q480 446 460 462.5 Q440 479 410 479 Q368 479 348 452.5 Q328 426 328 393 L328 278 Q328 261 333 245.5 Q338 230 348 217 Q358 204 373.5 196.5 Q389 189 410 189 Q440 189 460 206 Q480 223 488 250 L565 218 Z " />
<glyph glyph-name="Sigma" unicode="&#x3a3;" horiz-adv-x="527" d="M30 0 L30 110 L191 357 L30 592 L30 696 L484 696 L484 588 L175 588 L334 358 L175 112 L497 112 L497 0 L30 0 Z " />
<glyph glyph-name="Iotadieresis" unicode="&#x3aa;" horiz-adv-x="268" d="M74 0 L74 696 L196 696 L196 0 L74 0 Z M171 757 L171 868 L291 868 L291 757 L171 757 Z M-27 757 L-27 868 L94 868 L94 757 L-27 757 Z " />
<glyph glyph-name="section" unicode="&#xa7;" horiz-adv-x="488" d="M454 292 Q454 260 438.5 229.5 Q423 199 401 183 Q420 165 432.5 140.5 Q445 116 445 89 Q445 50 429.5 18.5 Q414 -13 386.5 -35 Q359 -57 321 -68.5 Q283 -80 239 -80 Q181 -80 128.5 -58.5 Q76 -37 39 0 L102 73 Q132 43 168.5 28 Q205 13 240 13 Q282 13 310.5 29.5 Q339 46 339 84 Q339 111 313.5 129 Q288 147 229 165 Q188 177 155.5 191 Q123 205 100.5 224.5 Q78 244 65.5 270 Q53 296 53 334 Q53 366 71 394.5 Q89 423 113 440 Q91 460 78 484 Q65 508 65 539 Q65 575 79.5 605 Q94 635 119.5 656 Q145 677 179.5 688.5 Q214 700 254 700 Q309 700 355 687 Q401 674 443 641 L386 563 Q349 589 315 597.5 Q281 606 249 606 Q216 606 192 588.5 Q168 571 168 545 Q168 525 182 512 Q196 499 217 489.5 Q238 480 262.5 473 Q287 466 308 459 Q335 450 361.5 437.5 Q388 425 408.5 406 Q429 387 441.5 359.5 Q454 332 454 292 Z M185 391 Q154 373 154 340 Q154 320 168 307 Q182 294 207 283 Q236 270 269.5 260.5 Q303 251 332 238 Q355 255 355 288 Q355 319 327.5 336 Q300 353 239 372 Q225 376 213.5 380 Q202 384 185 391 Z " />
<glyph glyph-name="degree" unicode="&#xb0;" horiz-adv-x="409" d="M353 558 Q353 528 341.5 501.5 Q330 475 309.5 455.5 Q289 436 262 425 Q235 414 204 414 Q173 414 146 425 Q119 436 98.5 455.5 Q78 475 66.5 501.5 Q55 528 55 558 Q55 588 66.5 614 Q78 640 98.5 659.5 Q119 679 146 690 Q173 701 204 701 Q235 701 262 690 Q289 679 309.5 659.5 Q330 640 341.5 614 Q353 588 353 558 Z M277 558 Q277 587 256 607.5 Q235 628 204 628 Q175 628 153.5 607.5 Q132 587 132 558 Q132 529 153.5 508 Q175 487 204 487 Q235 487 256 508 Q277 529 277 558 Z " />
<glyph glyph-name="periodcentered" unicode="&#xb7;" horiz-adv-x="271" d="M67 205 L67 343 L203 343 L203 205 L67 205 Z " />
<glyph glyph-name="Alpha" unicode="&#x391;" horiz-adv-x="629" d="M498 0 L443 154 L185 154 L129 0 L2 0 L265 696 L363 696 L626 0 L498 0 Z M361 398 L315 541 L312 541 L267 401 L220 257 L407 257 L361 398 Z " />
<glyph glyph-name="plusminus" unicode="&#xb1;" horiz-adv-x="525" d="M312 306 L312 132 L217 132 L217 306 L28 306 L28 396 L217 396 L217 574 L312 574 L312 396 L501 396 L501 306 L312 306 Z M26 0 L26 89 L503 89 L503 0 L26 0 Z " />
<glyph glyph-name="yen" unicode="&#xa5;" horiz-adv-x="525" d="M268 386 L326 532 L398 696 L521 696 Q481 612 441 529.5 Q401 447 360 363 L470 363 L470 295 L325 295 L320 278 L320 226 L470 226 L470 158 L320 158 L320 0 L206 0 L206 158 L58 158 L58 226 L206 226 L206 278 Q205 284 204 286.5 Q203 289 201 295 L58 295 L58 363 L166 363 Q124 447 84 529.5 Q44 612 3 696 L132 696 L213 510 Q227 479 239 448 Q251 417 264 386 L268 386 Z " />
<glyph glyph-name="Beta" unicode="&#x392;" horiz-adv-x="618" d="M582 200 Q582 155 565.5 118 Q549 81 521 54.5 Q493 28 456 14 Q419 0 378 0 L73 0 L73 696 L351 696 Q404 696 445 682 Q486 668 513.5 643 Q541 618 555 583 Q569 548 569 506 Q569 486 564.5 466 Q560 446 549 427.5 Q538 409 519.5 392 Q501 375 473 363 L473 359 Q500 351 520.5 334 Q541 317 554.5 295 Q568 273 575 248.5 Q582 224 582 200 Z M443 499 Q443 537 417 562.5 Q391 588 335 588 L194 588 L194 407 L335 407 Q391 407 417 434 Q443 461 443 499 Z M459 207 Q459 226 452.5 243.5 Q446 261 432.5 274.5 Q419 288 398 296.5 Q377 305 349 305 L194 305 L194 110 L349 110 Q377 110 398 118 Q419 126 432.5 139.5 Q446 153 452.5 170.5 Q459 188 459 207 Z " />
<glyph glyph-name="Epsilon" unicode="&#x395;" horiz-adv-x="564" d="M73 0 L73 696 L539 696 L539 586 L194 586 L194 404 L488 404 L488 298 L194 298 L194 110 L539 110 L539 0 L73 0 Z " />
<glyph glyph-name="Zeta" unicode="&#x396;" horiz-adv-x="527" d="M30 0 L30 104 L353 589 L43 589 L43 696 L497 696 L497 597 L174 111 L497 111 L497 0 L30 0 Z " />
<glyph glyph-name="Eta" unicode="&#x397;" horiz-adv-x="655" d="M462 0 L462 298 L194 298 L194 0 L73 0 L73 696 L194 696 L194 404 L462 404 L462 696 L582 696 L582 0 L462 0 Z " />
<glyph glyph-name="Iota" unicode="&#x399;" horiz-adv-x="268" d="M74 0 L74 696 L196 696 L196 0 L74 0 Z " />
<glyph glyph-name="Kappa" unicode="&#x39a;" horiz-adv-x="638" d="M502 0 L307 324 L194 193 L194 0 L73 0 L73 696 L195 696 L195 359 L197 358 L314 501 L478 696 L622 696 L387 418 L645 0 L502 0 Z " />
<glyph glyph-name="Mu" unicode="&#x39c;" horiz-adv-x="765" d="M581 0 L581 413 L578 413 L541 324 L490 212 L436 98 L339 98 L299 183 L233 329 L197 414 L194 411 L194 0 L73 0 L73 696 L186 696 L277 497 Q306 434 332.5 372 Q359 310 386 247 L390 247 L446 380 L497 497 L586 696 L702 696 L702 0 L581 0 Z " />
<glyph glyph-name="Phi" unicode="&#x3a6;" horiz-adv-x="758" d="M717 354 Q717 293 698.5 240.5 Q680 188 644.5 148.5 Q609 109 556.5 85.5 Q504 62 436 60 L436 0 L320 0 L320 60 Q251 65 199 88.5 Q147 112 112 150.5 Q77 189 59.5 240.5 Q42 292 42 354 Q42 415 59.5 469 Q77 523 112 563.5 Q147 604 199 628.5 Q251 653 320 656 L320 696 L436 696 L436 656 Q510 651 563.5 627.5 Q617 604 651 564 Q685 524 701 470.5 Q717 417 717 354 Z M436 157 Q482 159 513.5 175 Q545 191 564 217.5 Q583 244 591.5 279 Q600 314 600 355 Q600 393 592 429 Q584 465 564.5 493.5 Q545 522 513.5 539.5 Q482 557 436 559 L436 157 Z M320 559 Q277 555 246.5 538 Q216 521 196.5 493.5 Q177 466 168 430.5 Q159 395 159 355 Q159 272 198 218.5 Q237 165 320 157 L320 559 Z " />
<glyph glyph-name="Upsilondieresis" unicode="&#x3ab;" horiz-adv-x="557" d="M553 696 Q499 593 445 491 Q391 389 336 286 L336 0 L221 0 L221 286 Q166 389 112.5 491 Q59 593 4 696 L133 696 L217 524 Q233 491 248 457.5 Q263 424 278 390 L280 390 L342 527 L425 696 L553 696 Z M118 757 L118 868 L239 868 L239 757 L118 757 Z M316 757 L316 868 L436 868 L436 757 L316 757 Z " />
<glyph glyph-name="Psi" unicode="&#x3a8;" horiz-adv-x="750" d="M689 384 Q689 331 669.5 288 Q650 245 616 213.5 Q582 182 535.5 163.5 Q489 145 435 141 L435 0 L314 0 L314 141 Q259 144 212.5 163 Q166 182 132 214.5 Q98 247 78.5 292 Q59 337 59 393 L59 696 L178 696 L178 401 Q178 336 216.5 296.5 Q255 257 314 252 L314 696 L435 696 L435 252 Q493 256 532 291.5 Q571 327 571 391 L571 696 L689 696 L689 384 L689 384 Z " />
<glyph glyph-name="Omega" unicode="&#x3a9;" horiz-adv-x="604" d="M345 120 Q373 127 390.5 144 Q408 161 418.5 184.5 Q429 208 433 234.5 Q437 261 437 287 L437 443 Q437 473 428 499.5 Q419 526 401.5 546 Q384 566 358 577.5 Q332 589 299 589 Q263 589 237 576.5 Q211 564 194.5 543.5 Q178 523 170 496.5 Q162 470 162 443 L162 287 Q162 261 165.5 235 Q169 209 179.5 186 Q190 163 208.5 145.5 Q227 128 256 119 L256 0 L26 0 L26 109 L100 109 Q100 110 100.5 110.5 Q101 111 101 112 Q83 125 71.5 144.5 Q60 164 53.5 186.5 Q47 209 44 234 Q41 259 41 283 L41 437 Q41 489 57 537 Q73 585 105 621.5 Q137 658 185.5 679.5 Q234 701 299 701 Q359 701 407 681 Q455 661 489 626 Q523 591 541 542.5 Q559 494 559 437 L559 283 Q559 230 546 186 Q533 142 498 110 Q498 110 499 109 L575 109 L575 0 L345 0 L345 120 L345 120 Z " />
<glyph glyph-name="alphatonos" unicode="&#x3ac;" horiz-adv-x="519" d="M45 240 Q45 285 52 331 Q59 377 79.5 414.5 Q100 452 137 475.5 Q174 499 234 499 Q266 499 294 488.5 Q322 478 345 450 L347 451 L347 495 L460 495 L460 0 L347 0 L347 47 L345 48 Q320 21 289.5 7.5 Q259 -6 229 -6 Q171 -6 135 16 Q99 38 79 73 Q59 108 52 152 Q45 196 45 240 Z M161 246 Q161 221 163.5 195.5 Q166 170 175.5 149 Q185 128 204 114.5 Q223 101 255 101 Q286 101 304 115.5 Q322 130 331.5 151.5 Q341 173 344 198.5 Q347 224 347 246 Q347 269 344.5 295 Q342 321 332.5 343 Q323 365 304.5 379.5 Q286 394 255 394 Q222 394 203.5 380 Q185 366 175.5 344 Q166 322 163.5 296 Q161 270 161 246 Z M192 569 L271 759 L378 725 L260 544 L192 569 Z " />
<glyph glyph-name="Nu" unicode="&#x39d;" horiz-adv-x="692" d="M509 0 L294 324 L197 483 L194 482 L194 0 L73 0 L73 696 L185 696 L380 400 L498 212 L500 214 L500 696 L621 696 L621 0 L509 0 Z " />
<glyph glyph-name="Omicron" unicode="&#x39f;" horiz-adv-x="610" d="M304 701 Q364 701 412 681 Q460 661 494 626 Q528 591 546 542.5 Q564 494 564 437 L564 259 Q564 198 545.5 149 Q527 100 493 65.5 Q459 31 411 12.5 Q363 -6 304 -6 Q239 -6 190 15.5 Q141 37 109 73.5 Q77 110 61 158 Q45 206 45 259 L45 437 Q45 489 61 537 Q77 585 109 621.5 Q141 658 190 679.5 Q239 701 304 701 Z M304 587 Q269 587 243.5 575 Q218 563 201 542.5 Q184 522 175.5 496 Q167 470 167 443 L167 256 Q167 227 175.5 200.5 Q184 174 201 153 Q218 132 243.5 119.5 Q269 107 304 107 Q336 107 361.5 118.5 Q387 130 404.5 150 Q422 170 431.5 197 Q441 224 441 256 L441 443 Q441 473 431.5 499 Q422 525 404.5 544.5 Q387 564 361.5 575.5 Q336 587 304 587 Z " />
<glyph glyph-name="Rho" unicode="&#x3a1;" horiz-adv-x="591" d="M581 478 Q581 436 564.5 398 Q548 360 518 331 Q488 302 446 284.5 Q404 267 353 267 L194 267 L194 0 L73 0 L73 696 L344 696 Q393 696 436 682 Q479 668 511.5 641 Q544 614 562.5 573 Q581 532 581 478 Z M457 481 Q457 535 425 560.5 Q393 586 341 586 L194 586 L194 377 L345 377 Q398 377 427.5 408 Q457 439 457 481 Z " />
<glyph glyph-name="Tau" unicode="&#x3a4;" horiz-adv-x="521" d="M319 588 L319 0 L198 0 L198 588 L5 588 L5 696 L513 696 L513 588 L319 588 Z " />
<glyph glyph-name="guillemotleft" unicode="&#xab;" horiz-adv-x="525" d="M382 28 L245 228 L382 428 L491 428 L358 228 L491 28 L382 28 Z M182 28 L45 228 L182 428 L291 428 L157 228 L291 28 L182 28 Z " />
<glyph glyph-name="guillemotright" unicode="&#xbb;" horiz-adv-x="525" d="M46 28 L178 228 L46 428 L155 428 L291 228 L155 28 L46 28 Z M246 28 L379 228 L246 428 L355 428 L491 228 L355 28 L246 28 Z " />
<glyph glyph-name="ellipsis" unicode="&#x2026;" horiz-adv-x="919" d="M84 0 L84 138 L220 138 L220 0 L84 0 Z M392 0 L392 138 L528 138 L528 0 L392 0 Z M693 0 L693 138 L829 138 L829 0 L693 0 Z " />
<glyph glyph-name="Upsilon" unicode="&#x3a5;" horiz-adv-x="557" d="M553 696 Q499 593 445 491 Q391 389 336 286 L336 0 L221 0 L221 286 Q166 389 112.5 491 Q59 593 4 696 L133 696 L217 524 Q233 491 248 457.5 Q263 424 278 390 L280 390 L342 527 L425 696 L553 696 L553 696 Z " />
<glyph glyph-name="Chi" unicode="&#x3a7;" horiz-adv-x="576" d="M439 0 L287 257 L136 0 L0 0 L225 356 L13 696 L150 696 L287 456 L425 696 L561 696 L350 356 L575 0 L439 0 Z " />
<glyph glyph-name="Alphatonos" unicode="&#x386;" horiz-adv-x="629" d="M498 0 L443 154 L185 154 L129 0 L2 0 L265 696 L363 696 L626 0 L498 0 Z M361 398 L315 541 L312 541 L267 401 L220 257 L407 257 L361 398 Z M-53 544 L26 734 L133 700 L15 519 L-53 544 Z " />
<glyph glyph-name="Epsilontonos" unicode="&#x388;" horiz-adv-x="564" d="M73 0 L73 696 L539 696 L539 586 L194 586 L194 404 L488 404 L488 298 L194 298 L194 110 L539 110 L539 0 L73 0 Z M-157 544 L-78 734 L29 700 L-89 519 L-157 544 Z " />
<glyph glyph-name="oe" unicode="&#x153;" horiz-adv-x="835" d="M258 500 Q307 500 349 481.5 Q391 463 416 424 L416 423 Q445 467 487.5 483.5 Q530 500 572 500 Q622 500 662 483 Q702 466 730 435.5 Q758 405 773 361.5 Q788 318 788 264 L788 215 L472 215 Q474 157 502.5 126.5 Q531 96 582 96 Q604 96 635.5 106.5 Q667 117 694 142 L764 64 Q723 26 675 10 Q627 -6 581 -6 Q534 -6 489 11.5 Q444 29 413 73 Q386 32 342 13 Q298 -6 250 -6 Q194 -6 150 13 Q106 32 80 71 Q58 103 48.5 145 Q39 187 39 239 Q39 282 44 319 Q49 356 63 386 Q88 441 139 470.5 Q190 500 258 500 Z M255 399 Q225 399 202 384 Q179 369 167 343 Q158 323 155 298.5 Q152 274 152 245 Q152 216 155 192.5 Q158 169 167 150 Q179 124 200.5 110 Q222 96 253 96 Q285 96 310.5 113.5 Q336 131 347 167 Q352 181 353.5 201 Q355 221 355 247 Q355 309 341 342 Q329 371 306 385 Q283 399 255 399 Z M669 295 Q666 346 639 372.5 Q612 399 573 399 Q534 399 506.5 372 Q479 345 475 295 L669 295 Z " />
<glyph glyph-name="endash" unicode="&#x2013;" horiz-adv-x="513" d="M20 224 L20 325 L493 325 L493 224 L20 224 Z " />
<glyph glyph-name="afii00208" unicode="&#x2015;" horiz-adv-x="835" d="M20 224 L20 325 L815 325 L815 224 L20 224 Z " />
<glyph glyph-name="quotedblleft" unicode="&#x201c;" horiz-adv-x="375" d="M168 731 L133 599 L165 599 L165 461 L29 461 L29 594 L106 731 L168 731 Z M343 731 L308 599 L340 599 L340 461 L204 461 L204 594 L281 731 L343 731 Z " />
<glyph glyph-name="quotedblright" unicode="&#x201d;" horiz-adv-x="375" d="M209 461 L244 592 L212 592 L212 731 L348 731 L348 597 L271 461 L209 461 Z M34 461 L69 592 L37 592 L37 731 L173 731 L173 597 L96 461 L34 461 Z " />
<glyph glyph-name="quoteleft" unicode="&#x2018;" horiz-adv-x="252" d="M193 731 L158 599 L190 599 L190 461 L54 461 L54 594 L131 731 L193 731 Z " />
<glyph glyph-name="quoteright" unicode="&#x2019;" horiz-adv-x="252" d="M54 461 L89 592 L57 592 L57 731 L193 731 L193 597 L116 461 L54 461 Z " />
<glyph glyph-name="divide" unicode="&#xf7;" horiz-adv-x="525" d="M338 489 Q338 460 316.5 439.5 Q295 419 265 419 Q234 419 212.5 439.5 Q191 460 191 489 Q191 518 212.5 539 Q234 560 265 560 Q295 560 316.5 539 Q338 518 338 489 Z M23 251 L23 341 L506 341 L506 251 L23 251 Z M338 98 Q338 69 316.5 48.5 Q295 28 265 28 Q234 28 212.5 48.5 Q191 69 191 98 Q191 127 212.5 147.5 Q234 168 265 168 Q295 168 316.5 147.5 Q338 127 338 98 Z " />
<glyph glyph-name="Etatonos" unicode="&#x389;" horiz-adv-x="655" d="M462 0 L462 298 L194 298 L194 0 L73 0 L73 696 L194 696 L194 404 L462 404 L462 696 L582 696 L582 0 L462 0 Z M-150 544 L-71 734 L36 700 L-82 519 L-150 544 Z " />
<glyph glyph-name="Iotatonos" unicode="&#x38a;" horiz-adv-x="268" d="M74 0 L74 696 L196 696 L196 0 L74 0 Z M-152 544 L-73 734 L34 700 L-84 519 L-152 544 Z " />
<glyph glyph-name="Omicrontonos" unicode="&#x38c;" horiz-adv-x="610" d="M304 701 Q364 701 412 681 Q460 661 494 626 Q528 591 546 542.5 Q564 494 564 437 L564 259 Q564 198 545.5 149 Q527 100 493 65.5 Q459 31 411 12.5 Q363 -6 304 -6 Q239 -6 190 15.5 Q141 37 109 73.5 Q77 110 61 158 Q45 206 45 259 L45 437 Q45 489 61 537 Q77 585 109 621.5 Q141 658 190 679.5 Q239 701 304 701 Z M304 587 Q269 587 243.5 575 Q218 563 201 542.5 Q184 522 175.5 496 Q167 470 167 443 L167 256 Q167 227 175.5 200.5 Q184 174 201 153 Q218 132 243.5 119.5 Q269 107 304 107 Q336 107 361.5 118.5 Q387 130 404.5 150 Q422 170 431.5 197 Q441 224 441 256 L441 443 Q441 473 431.5 499 Q422 525 404.5 544.5 Q387 564 361.5 575.5 Q336 587 304 587 Z M-134 544 L-55 734 L52 700 L-66 519 L-134 544 Z " />
<glyph glyph-name="Upsilontonos" unicode="&#x38e;" horiz-adv-x="557" d="M553 696 Q499 593 445 491 Q391 389 336 286 L336 0 L221 0 L221 286 Q166 389 112.5 491 Q59 593 4 696 L133 696 L217 524 Q233 491 248 457.5 Q263 424 278 390 L280 390 L342 527 L425 696 L553 696 Z M-207 544 L-128 734 L-21 700 L-139 519 L-207 544 Z " />
<glyph glyph-name="epsilontonos" unicode="&#x3ad;" horiz-adv-x="458" d="M441 69 Q400 31 348.5 13 Q297 -5 243 -5 Q199 -5 162.5 5 Q126 15 100 34.5 Q74 54 59.5 82 Q45 110 45 146 Q45 158 49 173.5 Q53 189 61.5 204.5 Q70 220 84 234 Q98 248 118 256 L118 258 Q100 264 87 275 Q74 286 66.5 299 Q59 312 55.5 326 Q52 340 52 353 Q52 383 64.5 409.5 Q77 436 101.5 456.5 Q126 477 162 488.5 Q198 500 245 500 Q299 500 346.5 484.5 Q394 469 432 431 L363 351 Q339 375 308.5 385 Q278 395 250 395 Q217 395 192 381 Q167 367 167 342 Q167 323 181 310 Q195 297 235 297 L307 297 L307 209 L233 209 Q198 209 178.5 194 Q159 179 159 155 Q159 133 181.5 116 Q204 99 252 99 Q280 99 312.5 110 Q345 121 368 147 L441 69 Z M186 569 L265 759 L372 725 L254 544 L186 569 Z " />
<glyph glyph-name="etatonos" unicode="&#x3ae;" horiz-adv-x="538" d="M362 0 L362 294 Q362 342 340.5 368 Q319 394 271 394 Q230 394 202.5 368 Q175 342 175 294 L175 0 L62 0 L62 496 L175 496 L175 444 L178 444 Q202 471 237.5 485.5 Q273 500 307 500 Q383 500 428.5 456.5 Q474 413 474 325 L474 0 L362 0 Z M188 569 L267 759 L374 725 L256 544 L188 569 Z " />
<glyph glyph-name="iotatonos" unicode="&#x3af;" horiz-adv-x="263" d="M227 -4 Q218 -5 209 -5 Q200 -5 192 -5 Q150 -5 125 6 Q100 17 86.5 35 Q73 53 69 77 Q65 101 65 128 L65 495 L177 495 L177 135 Q177 109 186 99 Q195 89 229 89 L227 -4 Z M70 569 L149 759 L256 725 L138 544 L70 569 Z " />
<glyph glyph-name="omicrontonos" unicode="&#x3cc;" horiz-adv-x="515" d="M264 501 Q320 501 364.5 479.5 Q409 458 436 418 Q455 389 464 347.5 Q473 306 472 255 Q472 198 463.5 157.5 Q455 117 438 87 Q409 40 360 16.5 Q311 -7 252 -7 Q196 -7 152 12 Q108 31 81 71 Q40 132 42 247 Q42 287 47.5 323 Q53 359 67 387 Q93 442 144.5 471.5 Q196 501 264 501 Z M260 399 Q231 399 208 384 Q185 369 173 343 Q164 323 160.5 299 Q157 275 156 246 Q156 217 159 193 Q162 169 171 151 Q182 125 204 110.5 Q226 96 255 96 Q287 96 312 113.5 Q337 131 348 167 Q353 181 355 202 Q357 223 357 255 Q357 313 344 342 Q333 371 310.5 385 Q288 399 260 399 Z M196 569 L275 759 L382 725 L264 544 L196 569 Z " />
<glyph glyph-name="Omegatonos" unicode="&#x38f;" horiz-adv-x="604" d="M345 120 Q373 127 390.5 144 Q408 161 418.5 184.5 Q429 208 433 234.5 Q437 261 437 287 L437 443 Q437 473 428 499.5 Q419 526 401.5 546 Q384 566 358 577.5 Q332 589 299 589 Q263 589 237 576.5 Q211 564 194.5 543.5 Q178 523 170 496.5 Q162 470 162 443 L162 287 Q162 261 165.5 235 Q169 209 179.5 186 Q190 163 208.5 145.5 Q227 128 256 119 L256 0 L26 0 L26 109 L100 109 Q100 110 100.5 110.5 Q101 111 101 112 Q83 125 71.5 144.5 Q60 164 53.5 186.5 Q47 209 44 234 Q41 259 41 283 L41 437 Q41 489 57 537 Q73 585 105 621.5 Q137 658 185.5 679.5 Q234 701 299 701 Q359 701 407 681 Q455 661 489 626 Q523 591 541 542.5 Q559 494 559 437 L559 283 Q559 230 546 186 Q533 142 498 110 Q498 110 499 109 L575 109 L575 0 L345 0 L345 120 Z M-132 544 L-53 734 L54 700 L-64 519 L-132 544 Z " />
<glyph glyph-name="upsilontonos" unicode="&#x3cd;" horiz-adv-x="540" d="M477 178 Q477 137 461.5 103 Q446 69 418.5 45 Q391 21 353 8 Q315 -5 270 -5 Q226 -5 188 8.5 Q150 22 122.5 46 Q95 70 79.5 103.5 Q64 137 64 178 L64 495 L177 495 L177 201 Q177 153 203.5 127 Q230 101 271 101 Q311 101 337.5 127 Q364 153 364 201 L364 495 L477 495 L477 178 Z M208 569 L287 759 L394 725 L276 544 L208 569 Z " />
<glyph glyph-name="alpha" unicode="&#x3b1;" horiz-adv-x="519" d="M45 240 Q45 285 52 331 Q59 377 79.5 414.5 Q100 452 137 475.5 Q174 499 234 499 Q266 499 294 488.5 Q322 478 345 450 L347 451 L347 495 L460 495 L460 0 L347 0 L347 47 L345 48 Q320 21 289.5 7.5 Q259 -6 229 -6 Q171 -6 135 16 Q99 38 79 73 Q59 108 52 152 Q45 196 45 240 Z M161 246 Q161 221 163.5 195.5 Q166 170 175.5 149 Q185 128 204 114.5 Q223 101 255 101 Q286 101 304 115.5 Q322 130 331.5 151.5 Q341 173 344 198.5 Q347 224 347 246 Q347 269 344.5 295 Q342 321 332.5 343 Q323 365 304.5 379.5 Q286 394 255 394 Q222 394 203.5 380 Q185 366 175.5 344 Q166 322 163.5 296 Q161 270 161 246 Z " />
<glyph glyph-name="beta" unicode="&#x3b2;" horiz-adv-x="530" d="M484 230 Q484 183 474.5 140.5 Q465 98 443 65.5 Q421 33 385.5 14 Q350 -5 297 -5 Q265 -5 232.5 6.5 Q200 18 175 46 L173 46 L173 -152 L61 -152 L61 488 Q61 541 71.5 585 Q82 629 105.5 660 Q129 691 166.5 708 Q204 725 257 725 Q310 725 347 708.5 Q384 692 407 666.5 Q430 641 440.5 610.5 Q451 580 451 553 Q451 536 447.5 516.5 Q444 497 436 478 Q428 459 414.5 443 Q401 427 381 416 L381 415 Q417 406 437.5 385 Q458 364 468.5 337.5 Q479 311 481.5 282.5 Q484 254 484 230 Z M365 248 Q365 267 361 287 Q357 307 347 323 Q337 339 320.5 349.5 Q304 360 277 360 L219 360 L219 451 L265 451 Q286 451 300 459.5 Q314 468 323 481.5 Q332 495 335.5 510.5 Q339 526 339 540 Q339 556 334 572.5 Q329 589 319 601.5 Q309 614 293.5 622 Q278 630 257 630 Q233 630 216.5 621 Q200 612 190.5 597.5 Q181 583 177 565 Q173 547 173 529 L173 242 Q173 218 175.5 192 Q178 166 188 144.5 Q198 123 217 109 Q236 95 268 95 Q299 95 318 109 Q337 123 347.5 145 Q358 167 361.5 194 Q365 221 365 248 Z " />
<glyph glyph-name="psi" unicode="&#x3c8;" horiz-adv-x="669" d="M609 193 Q609 144 589.5 108 Q570 72 539 47.5 Q508 23 469 10 Q430 -3 390 -5 L390 -201 L278 -201 L278 -4 Q237 -2 198.5 11 Q160 24 129.5 48.5 Q99 73 80.5 108.5 Q62 144 62 191 L62 495 L175 495 L175 211 Q175 183 183.5 162.5 Q192 142 206.5 128.5 Q221 115 239.5 107.5 Q258 100 278 99 L278 515 L390 515 L390 99 Q411 100 430 107 Q449 114 463.5 127.5 Q478 141 487 161.5 Q496 182 496 211 L496 495 L609 495 L609 193 L609 193 Z " />
<glyph glyph-name="delta" unicode="&#x3b4;" horiz-adv-x="504" d="M264 726 Q309 726 349.5 717.5 Q390 709 436 684 L392 592 Q356 612 327.5 619 Q299 626 272 626 Q236 626 220.5 613 Q205 600 205 582 Q205 559 229 540.5 Q253 522 290 504 Q329 483 366.5 459.5 Q404 436 427 402 Q449 369 456.5 328.5 Q464 288 464 240 Q464 190 455 154 Q446 118 429 89 Q400 40 351.5 17 Q303 -6 246 -6 Q190 -6 146.5 12.5 Q103 31 77 70 Q55 101 46 140 Q37 179 37 230 Q37 272 42 306 Q47 340 62 369 Q74 396 98 421.5 Q122 447 154 460 Q121 480 103.5 511.5 Q86 543 86 575 Q86 611 99.5 639 Q113 667 137 686.5 Q161 706 193.5 716 Q226 726 264 726 Z M251 405 Q218 400 196 381.5 Q174 363 164 338 Q155 317 152.5 291.5 Q150 266 149 241 Q149 212 152.5 189 Q156 166 164 148 Q176 122 195.5 109 Q215 96 249 96 Q282 96 306.5 113.5 Q331 131 342 167 Q347 183 348.5 202.5 Q350 222 350 253 Q350 280 346.5 300 Q343 320 337 334 Q314 390 251 405 Z " />
<glyph glyph-name="epsilon" unicode="&#x3b5;" horiz-adv-x="458" d="M441 69 Q400 31 348.5 13 Q297 -5 243 -5 Q199 -5 162.5 5 Q126 15 100 34.5 Q74 54 59.5 82 Q45 110 45 146 Q45 158 49 173.5 Q53 189 61.5 204.5 Q70 220 84 234 Q98 248 118 256 L118 258 Q100 264 87 275 Q74 286 66.5 299 Q59 312 55.5 326 Q52 340 52 353 Q52 383 64.5 409.5 Q77 436 101.5 456.5 Q126 477 162 488.5 Q198 500 245 500 Q299 500 346.5 484.5 Q394 469 432 431 L363 351 Q339 375 308.5 385 Q278 395 250 395 Q217 395 192 381 Q167 367 167 342 Q167 323 181 310 Q195 297 235 297 L307 297 L307 209 L233 209 Q198 209 178.5 194 Q159 179 159 155 Q159 133 181.5 116 Q204 99 252 99 Q280 99 312.5 110 Q345 121 368 147 L441 69 L441 69 Z " />
<glyph glyph-name="phi" unicode="&#x3c6;" horiz-adv-x="643" d="M264 -5 Q205 -3 157.5 15 Q110 33 81 74 Q58 105 49 146 Q40 187 40 247 Q40 277 42.5 306 Q45 335 53.5 361.5 Q62 388 77 411.5 Q92 435 117 455 Q131 466 145.5 474.5 Q160 483 180 489 L217 390 Q179 375 165 341 Q157 324 155 302 Q153 280 153 246 Q153 223 155.5 202.5 Q158 182 164 164 Q175 133 201 114 Q227 95 264 95 L264 500 L379 500 Q402 500 428 496 Q454 492 479.5 482 Q505 472 528 455 Q551 438 567 412 Q589 377 595.5 336.5 Q602 296 602 247 Q602 190 593.5 151 Q585 112 565 83 Q537 42 489 20.5 Q441 -1 377 -5 L377 -199 L264 -199 L264 -5 Z M377 96 Q414 96 442 114.5 Q470 133 481 168 Q486 185 487.5 205.5 Q489 226 489 248 Q489 285 485.5 308.5 Q482 332 476 346 Q462 375 434 386.5 Q406 398 377 398 L377 96 Z " />
<glyph glyph-name="gamma" unicode="&#x3b3;" horiz-adv-x="481" d="M477 495 Q430 375 386 259 Q342 143 300 18 L300 -200 L188 -200 L188 -4 Q161 90 131.5 178 Q102 266 69 351 Q63 367 58.5 376.5 Q54 386 48.5 391.5 Q43 397 36 398.5 Q29 400 18 400 L11 400 L3 492 Q41 503 68 503 Q90 503 105.5 496.5 Q121 490 132.5 477 Q144 464 153 445.5 Q162 427 171 402 Q189 351 207.5 295.5 Q226 240 243 184 L248 184 Q275 268 300 344 Q325 420 354 495 L477 495 Z " />
<glyph glyph-name="eta" unicode="&#x3b7;" horiz-adv-x="538" d="M362 0 L362 294 Q362 342 340.5 368 Q319 394 271 394 Q230 394 202.5 368 Q175 342 175 294 L175 0 L62 0 L62 496 L175 496 L175 444 L178 444 Q202 471 237.5 485.5 Q273 500 307 500 Q383 500 428.5 456.5 Q474 413 474 325 L474 0 L362 0 Z " />
<glyph glyph-name="iota" unicode="&#x3b9;" horiz-adv-x="263" d="M227 -4 Q218 -5 209 -5 Q200 -5 192 -5 Q150 -5 125 6 Q100 17 86.5 35 Q73 53 69 77 Q65 101 65 128 L65 495 L177 495 L177 135 Q177 109 186 99 Q195 89 229 89 L227 -4 Z " />
<glyph glyph-name="xi" unicode="&#x3be;" horiz-adv-x="426" d="M402 586 Q367 609 336 617 Q305 625 276 625 Q249 625 228.5 616.5 Q208 608 195 594.5 Q182 581 175.5 564 Q169 547 169 530 Q169 508 178.5 490 Q188 472 204 459 Q220 446 242 439 Q264 432 290 432 L382 432 L382 339 L264 339 Q238 339 217 329 Q196 319 181 302 Q166 285 158 263.5 Q150 242 150 218 Q150 172 177.5 148 Q205 124 246 109 Q303 88 340 74 Q377 60 398.5 46 Q420 32 428.5 15 Q437 -2 437 -28 Q437 -46 429 -67.5 Q421 -89 408.5 -111.5 Q396 -134 380 -156.5 Q364 -179 348 -199 Q328 -187 307.5 -175.5 Q287 -164 267 -153 Q270 -147 277.5 -134.5 Q285 -122 293.5 -108 Q302 -94 308 -81 Q314 -68 314 -60 Q314 -35 269 -19 Q230 -5 187.5 9.5 Q145 24 109.5 48 Q74 72 51.5 110.5 Q29 149 29 211 Q29 229 34.5 253 Q40 277 53 301.5 Q66 326 88 349 Q110 372 142 388 Q115 399 97.5 417 Q80 435 69.5 455 Q59 475 55 495.5 Q51 516 51 531 Q51 574 68 610.5 Q85 647 114.5 672.5 Q144 698 184 712.5 Q224 727 269 727 Q311 727 359.5 717 Q408 707 455 674 Q441 652 428 630.5 Q415 609 402 586 Z " />
<glyph glyph-name="kappa" unicode="&#x3ba;" horiz-adv-x="520" d="M389 0 Q352 56 317.5 111 Q283 166 246 222 Q229 203 211 184.5 Q193 166 176 146 L176 0 L64 0 L64 495 L176 495 L176 291 L179 291 L275 399 L362 495 L499 495 L320 302 Q371 226 421.5 150.5 Q472 75 523 0 L389 0 Z " />
<glyph glyph-name="lambda" unicode="&#x3bb;" horiz-adv-x="479" d="M483 -1 Q467 -5 452.5 -6 Q438 -7 428 -7 Q389 -7 367 8.5 Q345 24 334 53 Q329 63 325.5 73.5 Q322 84 319 95 Q309 127 299 160 Q289 193 278 225 Q270 253 261.5 280.5 Q253 308 244 336 L240 336 L197 208 Q180 157 162 104.5 Q144 52 124 0 L6 0 L189 487 L162 578 Q154 606 141 618.5 Q128 631 95 631 Q90 631 84.5 631 Q79 631 73 630 L67 723 Q103 732 131 732 Q182 732 210.5 709 Q239 686 256 643 Q261 632 264 621.5 Q267 611 271 600 Q311 480 349 361 Q387 242 427 122 Q435 99 444.5 91 Q454 83 480 83 L483 -1 Z " />
<glyph glyph-name="&amp;#xb5;" unicode="&#xb5;" horiz-adv-x="537" d="M363 0 L363 45 Q362 46 360 46 Q337 20 306 7.5 Q275 -5 241 -5 Q207 -5 178 11 L177 10 L177 -200 L64 -200 L64 495 L177 495 L177 200 Q177 157 199.5 129 Q222 101 270 101 Q310 101 336.5 126.5 Q363 152 363 200 L363 495 L476 495 L476 0 L363 0 Z " />
<glyph glyph-name="&amp;#x3bc;" unicode="&#x3bc;" horiz-adv-x="537" d="M363 0 L363 45 Q362 46 360 46 Q337 20 306 7.5 Q275 -5 241 -5 Q207 -5 178 11 L177 10 L177 -200 L64 -200 L64 495 L177 495 L177 200 Q177 157 199.5 129 Q222 101 270 101 Q310 101 336.5 126.5 Q363 152 363 200 L363 495 L476 495 L476 0 L363 0 Z " />
<glyph glyph-name="nu" unicode="&#x3bd;" horiz-adv-x="477" d="M284 0 L194 0 L4 495 L125 495 L183 326 L238 157 L240 157 L294 325 L352 495 L473 495 L284 0 Z " />
<glyph glyph-name="omicron" unicode="&#x3bf;" horiz-adv-x="515" d="M264 501 Q320 501 364.5 479.5 Q409 458 436 418 Q455 389 464 347.5 Q473 306 472 255 Q472 198 463.5 157.5 Q455 117 438 87 Q409 40 360 16.5 Q311 -7 252 -7 Q196 -7 152 12 Q108 31 81 71 Q40 132 42 247 Q42 287 47.5 323 Q53 359 67 387 Q93 442 144.5 471.5 Q196 501 264 501 Z M260 399 Q231 399 208 384 Q185 369 173 343 Q164 323 160.5 299 Q157 275 156 246 Q156 217 159 193 Q162 169 171 151 Q182 125 204 110.5 Q226 96 255 96 Q287 96 312 113.5 Q337 131 348 167 Q353 181 355 202 Q357 223 357 255 Q357 313 344 342 Q333 371 310.5 385 Q288 399 260 399 Z " />
<glyph glyph-name="pi" unicode="&#x3c0;" horiz-adv-x="536" d="M360 0 L360 398 L173 398 L173 0 L60 0 L60 495 L473 495 L473 0 L360 0 Z " />
<glyph glyph-name="omegatonos" unicode="&#x3ce;" horiz-adv-x="755" d="M528 500 Q583 497 619.5 476.5 Q656 456 678 422 Q700 388 708.5 343 Q717 298 717 248 Q717 192 706.5 145.5 Q696 99 672.5 66 Q649 33 612 14.5 Q575 -4 521 -4 Q429 -4 382 70 L380 70 Q355 35 322 15 Q289 -5 244 -5 Q188 -5 149.5 13 Q111 31 87 64 Q63 97 52.5 143.5 Q42 190 42 247 Q42 298 51.5 342.5 Q61 387 83.5 420.5 Q106 454 142.5 475 Q179 496 232 500 L247 394 Q195 387 175 348.5 Q155 310 155 244 Q155 216 161.5 191 Q168 166 180.5 147 Q193 128 212 116.5 Q231 105 256 105 Q287 105 304.5 132 Q322 159 322 198 L322 355 L432 355 L432 198 Q432 156 455 127.5 Q478 99 519 99 Q544 99 560.5 111.5 Q577 124 586.5 145 Q596 166 599.5 192 Q603 218 603 245 Q603 310 584 349.5 Q565 389 513 394 L528 500 Z M318 569 L397 759 L504 725 L386 544 L318 569 Z " />
<glyph glyph-name="rho" unicode="&#x3c1;" horiz-adv-x="521" d="M277 -5 Q244 -5 217.5 5.5 Q191 16 169 39 L166 37 L166 -200 L53 -200 L53 247 Q54 287 59.5 325.5 Q65 364 75 386 Q101 441 151.5 471 Q202 501 269 501 Q325 501 369.5 479 Q414 457 441 417 Q462 385 470.5 342 Q479 299 479 245 Q479 148 443 88 Q414 39 370.5 17 Q327 -5 277 -5 Z M266 399 Q237 399 215.5 384 Q194 369 181 343 Q172 323 169 299 Q166 275 165 246 Q165 217 168 193 Q171 169 179 151 Q191 125 211.5 110.5 Q232 96 261 96 Q293 96 318 113.5 Q343 131 354 167 Q363 195 363 247 Q364 308 350 342 Q339 371 316 385 Q293 399 266 399 Z " />
<glyph glyph-name="sigma" unicode="&#x3c3;" horiz-adv-x="520" d="M410 404 Q424 389 435 373.5 Q446 358 453 339.5 Q460 321 463.5 298 Q467 275 467 244 Q467 211 461 174.5 Q455 138 444 112 Q418 52 366.5 23 Q315 -6 249 -6 Q193 -6 151.5 12.5 Q110 31 84 68 Q61 101 50 145.5 Q39 190 39 246 Q40 279 44.5 308.5 Q49 338 59 363 Q82 426 132.5 460.5 Q183 495 257 495 L498 495 L498 404 L410 404 Z M254 393 Q228 393 208.5 381 Q189 369 176 347 Q155 311 153 246 Q153 177 177 137 Q201 97 252 97 Q286 97 309.5 116 Q333 135 343 172 Q347 186 349.5 204 Q352 222 352 245 Q352 281 346.5 306.5 Q341 332 330 349 Q304 393 254 393 Z " />
<glyph glyph-name="tau" unicode="&#x3c4;" horiz-adv-x="372" d="M235 404 L235 156 Q235 130 245 115.5 Q255 101 281 101 L322 101 L322 0 L250 0 Q194 0 158 32.5 Q122 65 122 125 L122 404 L15 404 L15 495 L354 495 L354 404 L235 404 Z " />
<glyph glyph-name="theta" unicode="&#x3b8;" horiz-adv-x="519" d="M267 729 Q324 729 365.5 707 Q407 685 432 644 Q441 630 449 608.5 Q457 587 463.5 555 Q470 523 473.5 477.5 Q477 432 477 369 Q477 309 473.5 264 Q470 219 464.5 185.5 Q459 152 451 129 Q443 106 434 90 Q408 44 361 18.5 Q314 -7 256 -7 Q200 -7 157 13 Q114 33 88 73 Q77 89 68.5 113 Q60 137 54 172 Q48 207 45.5 254 Q43 301 43 363 Q43 463 54 524.5 Q65 586 79 614 Q104 669 152 699 Q200 729 267 729 Z M350 165 Q351 171 354.5 183.5 Q358 196 361 215.5 Q364 235 366 264 Q368 293 367 332 L152 332 Q151 289 153 258.5 Q155 228 158 206 Q161 184 165.5 170.5 Q170 157 173 148 Q184 122 205 107 Q226 92 259 92 Q330 92 350 165 Z M263 632 Q234 632 212 617 Q190 602 177 575 Q173 567 169 556 Q165 545 161.5 528 Q158 511 155.5 485 Q153 459 152 421 L367 421 Q367 459 364.5 485 Q362 511 358.5 528 Q355 545 351.5 555.5 Q348 566 346 573 Q337 602 314.5 617 Q292 632 263 632 Z " />
<glyph glyph-name="omega" unicode="&#x3c9;" horiz-adv-x="755" d="M528 500 Q583 497 619.5 476.5 Q656 456 678 422 Q700 388 708.5 343 Q717 298 717 248 Q717 192 706.5 145.5 Q696 99 672.5 66 Q649 33 612 14.5 Q575 -4 521 -4 Q429 -4 382 70 L380 70 Q355 35 322 15 Q289 -5 244 -5 Q188 -5 149.5 13 Q111 31 87 64 Q63 97 52.5 143.5 Q42 190 42 247 Q42 298 51.5 342.5 Q61 387 83.5 420.5 Q106 454 142.5 475 Q179 496 232 500 L247 394 Q195 387 175 348.5 Q155 310 155 244 Q155 216 161.5 191 Q168 166 180.5 147 Q193 128 212 116.5 Q231 105 256 105 Q287 105 304.5 132 Q322 159 322 198 L322 355 L432 355 L432 198 Q432 156 455 127.5 Q478 99 519 99 Q544 99 560.5 111.5 Q577 124 586.5 145 Q596 166 599.5 192 Q603 218 603 245 Q603 310 584 349.5 Q565 389 513 394 L528 500 Z " />
<glyph glyph-name="sigma1" unicode="&#x3c2;" horiz-adv-x="456" d="M395 350 Q369 374 341.5 384 Q314 394 291 394 Q233 394 199 357 Q165 320 165 245 Q165 197 183 164.5 Q201 132 250 112 Q296 94 330.5 79 Q365 64 388 48.5 Q411 33 423 15 Q435 -3 435 -27 Q435 -46 428 -66.5 Q421 -87 409 -107.5 Q397 -128 382 -148.5 Q367 -169 351 -188 L270 -143 Q275 -136 282.5 -124.5 Q290 -113 296.5 -100.5 Q303 -88 307.5 -76.5 Q312 -65 312 -58 Q312 -32 266 -16 Q208 4 167.5 25.5 Q127 47 101 76 Q75 105 63 144 Q51 183 51 239 Q51 306 70.5 355.5 Q90 405 122 437.5 Q154 470 195.5 485.5 Q237 501 282 501 Q329 501 376.5 485.5 Q424 470 465 432 Q447 412 430 391 Q413 370 395 350 Z " />
<glyph glyph-name="chi" unicode="&#x3c7;" horiz-adv-x="501" d="M354 0 L250 167 L147 0 L11 0 L191 253 L19 495 L154 495 L250 335 L347 495 L482 495 L310 252 L490 0 L354 0 Z " />
<glyph glyph-name="upsilon" unicode="&#x3c5;" horiz-adv-x="540" d="M477 178 Q477 137 461.5 103 Q446 69 418.5 45 Q391 21 353 8 Q315 -5 270 -5 Q226 -5 188 8.5 Q150 22 122.5 46 Q95 70 79.5 103.5 Q64 137 64 178 L64 495 L177 495 L177 201 Q177 153 203.5 127 Q230 101 271 101 Q311 101 337.5 127 Q364 153 364 201 L364 495 L477 495 L477 178 L477 178 Z " />
<glyph glyph-name="zeta" unicode="&#x3b6;" horiz-adv-x="418" d="M156 218 Q156 193 164 175.5 Q172 158 186 145 Q200 132 220.5 121.5 Q241 111 265 101 Q314 83 347 69 Q380 55 399.5 40.5 Q419 26 427 9.5 Q435 -7 435 -30 Q435 -50 426 -72 Q417 -94 403.5 -116 Q390 -138 374 -159.5 Q358 -181 343 -199 L262 -154 Q266 -148 274.5 -135.5 Q283 -123 291.5 -108.5 Q300 -94 306 -80 Q312 -66 312 -58 Q312 -45 300.5 -36.5 Q289 -28 266 -19 Q220 -2 178.5 16 Q137 34 105.5 59.5 Q74 85 55.5 121 Q37 157 37 211 Q37 255 58 307.5 Q79 360 115.5 414 Q152 468 201.5 519 Q251 570 309 612 L74 612 L74 711 L465 711 L465 623 Q400 575 344 522 Q288 469 246 415.5 Q204 362 180 311 Q156 260 156 218 Z " />
<glyph glyph-name="iotadieresis" unicode="&#x3ca;" horiz-adv-x="263" d="M227 -4 Q218 -5 209 -5 Q200 -5 192 -5 Q150 -5 125 6 Q100 17 86.5 35 Q73 53 69 77 Q65 101 65 128 L65 495 L177 495 L177 135 Q177 109 186 99 Q195 89 229 89 L227 -4 Z M156 583 L156 692 L274 692 L274 583 L156 583 Z M-44 583 L-44 692 L75 692 L75 583 L-44 583 Z " />
<glyph glyph-name="upsilondieresis" unicode="&#x3cb;" horiz-adv-x="540" d="M477 178 Q477 137 461.5 103 Q446 69 418.5 45 Q391 21 353 8 Q315 -5 270 -5 Q226 -5 188 8.5 Q150 22 122.5 46 Q95 70 79.5 103.5 Q64 137 64 178 L64 495 L177 495 L177 201 Q177 153 203.5 127 Q230 101 271 101 Q311 101 337.5 127 Q364 153 364 201 L364 495 L477 495 L477 178 Z M307 583 L307 692 L425 692 L425 583 L307 583 Z M107 583 L107 692 L226 692 L226 583 L107 583 Z " />
<glyph glyph-name="iotadieresistonos" unicode="&#x390;" horiz-adv-x="263" d="M227 -4 Q218 -5 209 -5 Q200 -5 192 -5 Q150 -5 125 6 Q100 17 86.5 35 Q73 53 69 77 Q65 101 65 128 L65 495 L177 495 L177 135 Q177 109 186 99 Q195 89 229 89 L227 -4 Z M227 579 L227 689 L345 689 L345 579 L227 579 Z M-75 579 L-75 689 L42 689 L42 579 L-75 579 Z M52 569 L131 759 L238 725 L120 544 L52 569 Z " />
<glyph glyph-name="upsilondieresistonos" unicode="&#x3b0;" horiz-adv-x="540" d="M477 178 Q477 137 461.5 103 Q446 69 418.5 45 Q391 21 353 8 Q315 -5 270 -5 Q226 -5 188 8.5 Q150 22 122.5 46 Q95 70 79.5 103.5 Q64 137 64 178 L64 495 L177 495 L177 201 Q177 153 203.5 127 Q230 101 271 101 Q311 101 337.5 127 Q364 153 364 201 L364 495 L477 495 L477 178 Z M363 579 L363 689 L481 689 L481 579 L363 579 Z M61 579 L61 689 L178 689 L178 579 L61 579 Z M188 569 L267 759 L374 725 L256 544 L188 569 Z " />
<glyph glyph-name="dollar" unicode="&#x24;" horiz-adv-x="525" d="M240 -4 Q183 0 129 21.5 Q75 43 26 88 L94 176 Q128 147 163.5 129.5 Q199 112 240 107 L240 294 Q203 306 168.5 322 Q134 338 107.5 361.5 Q81 385 65 416.5 Q49 448 49 492 Q49 534 62.5 569.5 Q76 605 101 631.5 Q126 658 161 674.5 Q196 691 240 695 L240 769 L292 769 L292 695 Q341 692 387.5 676 Q434 660 476 630 Q474 626 465.5 611.5 Q457 597 447.5 580.5 Q438 564 429.5 550 Q421 536 418 532 Q385 554 354.5 567 Q324 580 292 584 L292 405 Q340 390 378 372.5 Q416 355 443 331 Q470 307 484.5 274.5 Q499 242 499 197 Q499 152 483.5 115.5 Q468 79 440.5 53.5 Q413 28 375 13.5 Q337 -1 292 -4 L292 -111 L240 -111 L240 -4 Z M369 191 Q369 229 346.5 248 Q324 267 292 279 L292 108 Q330 114 349.5 136 Q369 158 369 191 Z M170 497 Q170 469 191.5 451.5 Q213 434 240 423 L240 583 Q210 578 190 556.5 Q170 535 170 497 Z " />
<glyph glyph-name="Euro" unicode="&#x20ac;" horiz-adv-x="525" d="M174 365 L174 325 L363 325 L363 255 L175 255 Q176 225 183.5 197.5 Q191 170 205.5 150 Q220 130 242 118 Q264 106 294 106 Q335 106 363 128 Q391 150 410 192 L519 150 Q487 78 432.5 36 Q378 -6 293 -6 Q191 -6 129 52.5 Q67 111 58 220 Q57 229 56.5 237.5 Q56 246 56 255 L15 255 L15 325 L56 325 L56 365 L15 365 L15 435 L56 435 Q56 444 56.5 452.5 Q57 461 58 469 Q62 519 81 561 Q100 603 130.5 633.5 Q161 664 202 681 Q243 698 293 698 Q374 698 430.5 658 Q487 618 514 546 L405 502 Q390 540 360.5 562 Q331 584 294 584 Q262 584 240 571.5 Q218 559 204.5 538 Q191 517 184 490 Q177 463 175 435 L363 435 L363 365 L174 365 Z " />
<glyph glyph-name="logicalnot" unicode="&#xac;" horiz-adv-x="525" d="M500 62 L406 62 L406 251 L24 251 L24 341 L500 341 L500 62 Z " />
<glyph glyph-name="brokenbar" unicode="&#xa6;" horiz-adv-x="232" d="M68 294 L68 723 L163 723 L163 294 L68 294 Z M163 232 L163 -195 L68 -195 L68 232 L163 232 Z " />
<glyph glyph-name="exclam" unicode="&#x21;" horiz-adv-x="268" d="M180 184 L88 184 L78 696 L190 696 L180 184 Z M75 0 L75 113 L194 113 L194 0 L75 0 Z " />
<glyph glyph-name="ae" unicode="&#xe6;" horiz-adv-x="816" d="M459 215 Q460 194 464 177.5 Q468 161 476 147 Q506 97 573 97 Q595 97 624 107 Q653 117 680 142 L750 64 Q709 26 662.5 10.5 Q616 -5 570 -5 Q523 -5 476 10 Q429 25 395 66 Q369 34 324 14.5 Q279 -5 216 -5 Q137 -5 88.5 33.5 Q40 72 40 144 Q40 174 51 201 Q62 228 83 248.5 Q104 269 135.5 281 Q167 293 208 293 L342 293 L342 329 Q342 343 337 356.5 Q332 370 320.5 380.5 Q309 391 290 397 Q271 403 242 403 Q198 403 169.5 391.5 Q141 380 122 360 L64 433 Q97 471 144.5 485.5 Q192 500 243 500 Q266 500 290.5 497.5 Q315 495 338 489 Q361 483 381 472 Q401 461 416 443 Q445 474 482.5 487 Q520 500 557 500 Q611 500 652 480.5 Q693 461 720 427.5 Q747 394 760.5 348 Q774 302 774 249 L774 215 L459 215 Z M147 152 Q147 141 151.5 130 Q156 119 166.5 110.5 Q177 102 193.5 96.5 Q210 91 235 91 Q286 91 314 112.5 Q342 134 342 185 L342 208 L227 208 Q184 208 165.5 191.5 Q147 175 147 152 Z M657 295 Q654 346 626.5 372 Q599 398 560 398 Q520 398 493 371.5 Q466 345 461 295 L657 295 Z " />
<glyph glyph-name="eth" unicode="&#xf0;" horiz-adv-x="514" d="M246 476 Q262 476 280 471.5 Q298 467 315 459 Q332 451 346.5 439.5 Q361 428 370 413 L372 413 Q373 413 374 414 Q373 449 365 490 Q357 531 337 556 Q323 545 309.5 534.5 Q296 524 282 513 L249 557 L300 597 Q280 615 249.5 628.5 Q219 642 168 650 L185 739 Q314 728 382 660 L451 715 L486 674 L421 620 Q463 561 473 482.5 Q483 404 483 311 Q483 238 467 174.5 Q451 111 413 66 Q384 32 341.5 12.5 Q299 -7 239 -7 Q182 -7 138.5 16 Q95 39 71 74 Q52 103 43 139.5 Q34 176 33 219 Q31 261 38.5 301.5 Q46 342 62 372 Q87 420 132 448 Q177 476 246 476 Z M248 373 Q219 373 198 359.5 Q177 346 164 322 Q158 310 153.5 287.5 Q149 265 148 221 Q148 201 151 183 Q154 165 161 150 Q186 96 246 96 Q272 96 293 107.5 Q314 119 327 140 Q341 160 344.5 187 Q348 214 348 242 Q348 266 345 281.5 Q342 297 338 308 Q327 340 303.5 356.5 Q280 373 248 373 Z " />
<glyph glyph-name="multiply" unicode="&#xd7;" horiz-adv-x="525" d="M268 221 L107 60 L40 126 L201 287 L37 452 L101 515 L265 351 L424 511 L491 444 L331 285 L496 120 L433 56 L268 221 Z " />
<glyph glyph-name="cedilla" unicode="&#xb8;" horiz-adv-x="447" d="M214 44 Q229 44 243.5 43.5 Q258 43 273 43 Q266 23 259.5 3 Q253 -17 247 -37 Q274 -39 293 -48 Q312 -57 323.5 -69.5 Q335 -82 340 -96.5 Q345 -111 345 -124 Q345 -139 338 -155 Q331 -171 317 -184 Q303 -197 281.5 -205 Q260 -213 231 -213 Q205 -213 179.5 -207.5 Q154 -202 131 -189 L152 -137 Q175 -148 192 -150.5 Q209 -153 224 -153 Q241 -153 254.5 -146 Q268 -139 268 -120 Q268 -103 255.5 -95.5 Q243 -88 225 -88 Q218 -88 208 -90 L178 -70 L214 44 L214 44 Z " />
<glyph glyph-name="florin" unicode="&#x192;" horiz-adv-x="525" d="M125 426 L220 426 L228 489 Q233 525 244.5 562 Q256 599 278 630 Q300 661 335 680.5 Q370 700 421 700 Q445 699 470.5 694 Q496 689 516 681 L492 587 Q472 594 454.5 595.5 Q437 597 420 597 Q402 597 388.5 587.5 Q375 578 366 563 Q357 548 352 528.5 Q347 509 344 489 L335 426 L434 426 L435 328 L323 328 L295 120 Q289 75 276.5 35 Q264 -5 243.5 -34 Q223 -63 192.5 -80 Q162 -97 119 -97 Q96 -97 63.5 -89.5 Q31 -82 7 -71 L35 20 Q60 10 76 8 Q92 6 104 6 Q137 6 154 38 Q171 70 179 127 Q180 138 184 166.5 Q188 195 192.5 227.5 Q197 260 200.5 288.5 Q204 317 206 328 L126 328 L125 426 Z " />
<glyph glyph-name="circumflex" unicode="&#x2c6;" horiz-adv-x="504" d="M253 642 Q244 636 224.5 621 Q205 606 183.5 589.5 Q162 573 142 558 Q122 543 113 537 L67 580 L216 734 L294 734 L440 581 L392 537 L253 642 Z " />
<glyph glyph-name="caron" unicode="&#x2c7;" horiz-adv-x="504" d="M392 734 L440 690 L294 537 L216 537 L67 691 L113 734 Q122 728 142 713 Q162 698 183.5 681.5 Q205 665 224.5 650 Q244 635 253 629 L392 734 Z " />
<glyph glyph-name="breve" unicode="&#x2d8;" horiz-adv-x="522" d="M268 564 Q226 564 198 579 Q170 594 152.5 616 Q135 638 127 663.5 Q119 689 118 710 L205 710 Q205 700 209.5 688.5 Q214 677 222 667 Q230 657 241.5 650.5 Q253 644 268 644 Q284 644 296 650.5 Q308 657 316 667 Q324 677 328 688.5 Q332 700 332 710 L418 710 Q416 689 408 663.5 Q400 638 383 616 Q366 594 338 579 Q310 564 268 564 Z " />
<glyph glyph-name="tilde" unicode="&#x2dc;" horiz-adv-x="504" d="M189 705 Q208 705 226.5 697.5 Q245 690 262 681 Q279 672 294.5 664.5 Q310 657 322 657 Q339 657 354 668 Q369 679 386 704 L446 669 Q422 617 394 593.5 Q366 570 332 570 Q313 570 294.5 577 Q276 584 258.5 593 Q241 602 224.5 609 Q208 616 194 616 Q177 616 161 606.5 Q145 597 125 571 L68 604 Q91 652 121 678.5 Q151 705 189 705 Z " />
<glyph glyph-name="Ntilde" unicode="&#xd1;" horiz-adv-x="692" d="M509 0 L294 324 L197 483 L194 482 L194 0 L73 0 L73 696 L185 696 L380 400 L498 212 L500 214 L500 696 L621 696 L621 0 L509 0 Z M274 876 Q293 876 311.5 868.5 Q330 861 347 852 Q364 843 379.5 835.5 Q395 828 407 828 Q424 828 439 839 Q454 850 471 875 L531 840 Q507 788 479 764.5 Q451 741 417 741 Q398 741 379.5 748 Q361 755 343.5 764 Q326 773 309.5 780 Q293 787 279 787 Q262 787 246 777.5 Q230 768 210 742 L153 775 Q176 823 206 849.5 Q236 876 274 876 Z " />
<glyph glyph-name="otilde" unicode="&#xf5;" horiz-adv-x="515" d="M264 501 Q320 501 364.5 479.5 Q409 458 436 418 Q455 389 464 347.5 Q473 306 472 255 Q472 198 463.5 157.5 Q455 117 438 87 Q409 40 360 16.5 Q311 -7 252 -7 Q196 -7 152 12 Q108 31 81 71 Q40 132 42 247 Q42 287 47.5 323 Q53 359 67 387 Q93 442 144.5 471.5 Q196 501 264 501 Z M260 399 Q231 399 208 384 Q185 369 173 343 Q164 323 160.5 299 Q157 275 156 246 Q156 217 159 193 Q162 169 171 151 Q182 125 204 110.5 Q226 96 255 96 Q287 96 312 113.5 Q337 131 348 167 Q353 181 355 202 Q357 223 357 255 Q357 313 344 342 Q333 371 310.5 385 Q288 399 260 399 Z M194 705 Q213 705 231.5 697.5 Q250 690 267 681 Q284 672 299.5 664.5 Q315 657 327 657 Q344 657 359 668 Q374 679 391 704 L451 669 Q427 617 399 593.5 Q371 570 337 570 Q318 570 299.5 577 Q281 584 263.5 593 Q246 602 229.5 609 Q213 616 199 616 Q182 616 166 606.5 Q150 597 130 571 L73 604 Q96 652 126 678.5 Q156 705 194 705 Z " />
<glyph glyph-name="Ccedilla" unicode="&#xc7;" horiz-adv-x="572" d="M551 156 Q525 82 465 39.5 Q405 -3 318 -6 L309 -37 Q336 -39 355 -48 Q374 -57 385.5 -69.5 Q397 -82 402 -96.5 Q407 -111 407 -124 Q407 -139 400 -155 Q393 -171 379 -184 Q365 -197 343.5 -205 Q322 -213 293 -213 Q267 -213 241.5 -207.5 Q216 -202 193 -189 L214 -137 Q237 -148 254 -150.5 Q271 -153 286 -153 Q303 -153 316.5 -146 Q330 -139 330 -120 Q330 -103 317.5 -95.5 Q305 -88 287 -88 Q280 -88 270 -90 L240 -70 L261 -3 Q207 4 167 27 Q127 50 100.5 84.5 Q74 119 61 163.5 Q48 208 48 259 L48 437 Q48 489 64 537 Q80 585 112 621.5 Q144 658 193 679.5 Q242 701 307 701 Q399 701 461.5 656.5 Q524 612 550 539 L436 494 Q423 535 390.5 560.5 Q358 586 307 586 Q272 586 246.5 574 Q221 562 204 541.5 Q187 521 178.5 495 Q170 469 170 442 L170 257 Q170 228 178.5 201.5 Q187 175 204 154 Q221 133 246.5 120.5 Q272 108 307 108 Q357 108 390 134.5 Q423 161 436 204 L551 156 Z " />
<glyph glyph-name="acute" unicode="&#xb4;" horiz-adv-x="504" d="M188 569 L267 759 L374 725 L256 544 L188 569 Z " />
<glyph glyph-name="Dieresis" unicode="&#xf6cb;" horiz-adv-x="630" d="M352 757 L352 868 L472 868 L472 757 L352 757 Z M154 757 L154 868 L275 868 L275 757 L154 757 Z " />
<glyph glyph-name="AE" unicode="&#xc6;" horiz-adv-x="1034" d="M517 0 L517 176 L270 176 Q244 131 217 88 Q190 45 163 0 L26 0 L459 696 L983 696 L983 586 L638 586 L638 403 L932 403 L932 298 L638 298 L638 109 L983 109 L983 0 L517 0 Z M515 585 Q469 508 423 433 Q377 358 331 281 L517 281 L517 585 L515 585 Z " />
<glyph glyph-name="quotesinglbase" unicode="&#x201a;" horiz-adv-x="276" d="M68 -132 L103 0 L71 0 L71 139 L203 139 L203 5 L126 -132 L68 -132 Z " />
<glyph glyph-name="quotedblbase" unicode="&#x201e;" horiz-adv-x="456" d="M244 -132 L279 0 L247 0 L247 139 L383 139 L383 5 L306 -132 L244 -132 Z M68 -132 L103 0 L71 0 L71 139 L208 139 L208 5 L131 -132 L68 -132 Z " />
<glyph glyph-name="daggerdbl" unicode="&#x2021;" horiz-adv-x="488" d="M189 373 L21 373 L21 465 L189 465 L189 696 L300 696 L300 465 L467 465 L467 373 L300 373 L300 207 L467 207 L467 115 L300 115 L300 -177 L189 -177 L189 115 L21 115 L21 207 L189 207 L189 373 Z " />
<glyph glyph-name="guilsinglleft" unicode="&#x2039;" horiz-adv-x="352" d="M183 28 L46 228 L183 428 L292 428 L159 228 L292 28 L183 28 Z " />
<glyph glyph-name="emdash" unicode="&#x2014;" horiz-adv-x="835" d="M20 224 L20 325 L815 325 L815 224 L20 224 Z " />
<glyph glyph-name="guilsinglright" unicode="&#x203a;" horiz-adv-x="352" d="M46 28 L179 228 L46 428 L155 428 L291 228 L155 28 L46 28 Z " />
<glyph glyph-name="exclamdown" unicode="&#xa1;" horiz-adv-x="268" d="M88 308 L185 308 L192 -203 L80 -203 L88 308 Z M195 493 L195 379 L76 379 L76 493 L195 493 Z " />
<glyph glyph-name="currency" unicode="&#xa4;" horiz-adv-x="556" d="M155 320 Q155 296 164.5 274 Q174 252 190.5 235.5 Q207 219 228.5 209.5 Q250 200 275 200 Q300 200 322 209.5 Q344 219 360.5 235.5 Q377 252 386.5 273.5 Q396 295 396 320 Q396 345 386.5 367 Q377 389 360.5 405.5 Q344 422 322 431 Q300 440 275 440 Q250 440 228.5 430.5 Q207 421 190.5 405 Q174 389 164.5 367 Q155 345 155 320 Z M33 500 Q36 503 45 512 Q54 521 63.5 531 Q73 541 82 550 Q91 559 94 562 L162 494 Q218 529 276 529 Q335 529 390 495 Q393 499 402.5 508.5 Q412 518 423 529 Q434 540 443.5 549.5 Q453 559 457 562 L518 500 L450 433 Q485 377 485 320 Q485 290 476.5 263 Q468 236 451 207 Q466 193 485 174.5 Q504 156 518 141 L457 79 L390 146 Q337 111 276 111 Q246 111 217 120 Q188 129 162 146 L94 79 Q92 82 83 91 Q74 100 63.5 110 Q53 120 44 129 Q35 138 33 140 L101 207 Q67 262 67 320 Q67 376 101 433 L33 500 Z " />
<glyph glyph-name="paragraph" unicode="&#xb6;" horiz-adv-x="563" d="M224 317 L192 317 Q154 317 124.5 333 Q95 349 75 375.5 Q55 402 45 435.5 Q35 469 35 505 Q35 541 46.5 577 Q58 613 80.5 641 Q103 669 137 686.5 Q171 704 217 704 Q238 704 279.5 704 Q321 704 367.5 704.5 Q414 705 456.5 705 Q499 705 520 705 L520 629 L477 629 L477 -80 L390 -80 L390 629 L313 629 L313 -80 L224 -80 L224 317 Z " />
<glyph glyph-name="questiondown" unicode="&#xbf;" horiz-adv-x="472" d="M27 -17 Q27 11 35 34.5 Q43 58 55.5 77.5 Q68 97 84 114.5 Q100 132 116 149 Q141 175 160 203 Q179 231 179 267 L179 303 L296 303 L296 264 Q296 211 270.5 169 Q245 127 209 85 Q189 63 171 37.5 Q153 12 153 -14 Q153 -28 158 -43 Q163 -58 174.5 -70 Q186 -82 203 -90 Q220 -98 244 -98 Q268 -98 286 -88.5 Q304 -79 316.5 -63.5 Q329 -48 335.5 -29 Q342 -10 344 9 Q373 4 402 1 Q431 -2 460 -7 Q452 -57 430.5 -94.5 Q409 -132 378.5 -157.5 Q348 -183 311 -195.5 Q274 -208 234 -208 Q186 -208 147.5 -193.5 Q109 -179 82.5 -153.5 Q56 -128 41.5 -93 Q27 -58 27 -17 Z M297 492 L297 379 L179 379 L179 492 L297 492 Z " />
<glyph glyph-name="oslash" unicode="&#xf8;" horiz-adv-x="515" d="M264 501 Q343 501 397 459 L439 513 L475 485 L429 427 Q432 424 436 418 Q455 389 464 347.5 Q473 306 472 255 Q472 198 463.5 157.5 Q455 117 438 87 Q409 40 360 16.5 Q311 -7 252 -7 Q212 -7 177.5 3 Q143 13 117 33 L78 -16 L44 11 L86 64 Q82 68 81 71 Q40 132 42 247 Q42 287 47.5 323 Q53 359 67 387 Q93 442 144.5 471.5 Q196 501 264 501 Z M260 399 Q231 399 208 384 Q185 369 173 343 Q164 323 160.5 299 Q157 275 156 246 Q156 222 157.5 202 Q159 182 165 165 L327 371 Q314 385 297 392 Q280 399 260 399 Z M357 255 Q357 297 349 327 L188 123 Q215 96 255 96 Q287 96 312 113.5 Q337 131 348 167 Q353 181 355 202 Q357 223 357 255 Z " />
<glyph glyph-name="Thorn" unicode="&#xde;" horiz-adv-x="591" d="M581 352 Q581 310 564.5 272 Q548 234 518 205 Q488 176 446 158.5 Q404 141 353 141 L194 141 L194 0 L73 0 L72 695 L194 695 L194 570 L339 570 Q388 570 432 556 Q476 542 509 515 Q542 488 561.5 447 Q581 406 581 352 Z M458 355 Q458 409 426.5 434.5 Q395 460 343 460 L194 460 L194 251 L347 251 Q373 251 393.5 259.5 Q414 268 428.5 282.5 Q443 297 450.5 315.5 Q458 334 458 355 Z " />
<glyph glyph-name="Eth" unicode="&#xd0;" horiz-adv-x="638" d="M6 391 L73 391 L73 696 L326 696 Q404 696 467 666 Q530 636 563 567 Q582 529 586 477 Q590 425 590 360 Q590 287 586 233 Q582 179 565 138 Q548 99 521.5 72.5 Q495 46 462 30 Q429 14 390 7 Q351 0 309 0 L73 0 L73 306 L6 306 L6 391 Z M194 391 L291 391 L291 306 L194 306 L194 110 L313 110 Q357 110 387 122.5 Q417 135 435 157.5 Q453 180 461 212 Q469 244 469 283 L469 413 Q469 506 428 546 Q387 586 311 586 L194 586 L194 391 Z " />
<glyph glyph-name="Oslash" unicode="&#xd8;" horiz-adv-x="610" d="M304 701 Q355 701 398 686 Q441 671 473 645 L514 702 L561 668 L514 602 Q538 568 551 526.5 Q564 485 564 437 L564 259 Q564 198 545.5 149 Q527 100 493 65.5 Q459 31 411 12.5 Q363 -6 304 -6 Q247 -6 202.5 10.5 Q158 27 126 56 L84 -4 L39 29 L89 100 Q66 134 55.5 174 Q45 214 45 259 L45 437 Q45 489 61 537 Q77 585 109 621.5 Q141 658 190 679.5 Q239 701 304 701 Z M441 443 Q441 469 434 490 L198 156 Q215 134 241 120.5 Q267 107 304 107 Q336 107 361.5 118.5 Q387 130 404.5 150 Q422 170 431.5 197 Q441 224 441 256 L441 443 Z M304 587 Q269 587 243.5 575 Q218 563 201 542.5 Q184 522 175.5 496 Q167 470 167 443 L167 256 Q167 233 171 216 L403 546 Q386 565 361 576 Q336 587 304 587 Z " />
<glyph glyph-name="Acute" unicode="&#xf6c9;" horiz-adv-x="598" d="M235 791 L400 916 L474 832 L282 735 L235 791 Z " />
<glyph glyph-name="Caron" unicode="&#xf6ca;" horiz-adv-x="598" d="M444 908 L485 859 L338 735 L262 735 L112 860 L151 908 L298 826 L444 908 Z " />
<glyph glyph-name="DieresisAcute" unicode="&#xf6cc;" horiz-adv-x="472" d="M347 763 L347 873 L465 873 L465 763 L347 763 Z M13 763 L13 873 L130 873 L130 763 L13 763 Z M147 764 L246 943 L348 899 L211 733 L147 764 Z " />
<glyph glyph-name="DieresisGrave" unicode="&#xf6cd;" horiz-adv-x="472" d="M343 761 L343 871 L461 871 L461 761 L343 761 Z M9 761 L9 871 L126 871 L126 761 L9 761 Z M264 732 L127 898 L229 942 L328 762 L264 732 Z " />
<glyph glyph-name="Grave" unicode="&#xf6ce;" horiz-adv-x="598" d="M314 735 L122 832 L196 916 L361 791 L314 735 Z " />
<glyph glyph-name="Hungarumlaut" unicode="&#xf6cf;" horiz-adv-x="611" d="M131 782 L285 919 L367 841 L182 730 L131 782 Z M318 782 L472 919 L554 841 L369 730 L318 782 Z " />
<glyph glyph-name="Macron" unicode="&#xf6d0;" horiz-adv-x="591" d="M154 769 L154 866 L455 866 L455 769 L154 769 Z " />
<glyph glyph-name="cyrBreve" unicode="&#xf6d1;" horiz-adv-x="629" d="M314 731 Q272 731 244 745.5 Q216 760 198.5 782 Q181 804 173 829.5 Q165 855 164 876 L251 876 Q251 866 255.5 854.5 Q260 843 268 833.5 Q276 824 287.5 817.5 Q299 811 314 811 Q330 811 342 817.5 Q354 824 362 833.5 Q370 843 374 854.5 Q378 866 378 876 L464 876 Q462 855 454 829.5 Q446 804 429 782 Q412 760 384 745.5 Q356 731 314 731 Z " />
<glyph glyph-name="cyrbreve" unicode="&#xf6d4;" horiz-adv-x="514" d="M272 570 Q230 570 201.5 585 Q173 600 155.5 622 Q138 644 130 669.5 Q122 695 121 716 L208 716 Q208 706 212.5 694.5 Q217 683 225 673 Q233 663 245 656.5 Q257 650 272 650 Q288 650 299.5 656.5 Q311 663 319 673 Q327 683 331 694.5 Q335 706 335 716 L421 716 Q419 695 411 669.5 Q403 644 386 622 Q369 600 341.5 585 Q314 570 272 570 Z " />
<glyph glyph-name="macron" unicode="&#xaf;" horiz-adv-x="504" d="M109 589 L109 686 L410 686 L410 589 L109 589 Z " />
<glyph glyph-name="ring" unicode="&#x2da;" horiz-adv-x="504" d="M323 643 Q323 663 309.5 676 Q296 689 276 689 Q256 689 242 676 Q228 663 228 643 Q228 624 242 610.5 Q256 597 276 597 Q296 597 309.5 610.5 Q323 624 323 643 Z M164 643 Q164 665 173 685 Q182 705 197 719.5 Q212 734 232.5 742.5 Q253 751 276 751 Q299 751 319 742.5 Q339 734 354 719.5 Q369 705 378 685 Q387 665 387 643 Q387 621 378 601.5 Q369 582 354 567.5 Q339 553 319 544.5 Q299 536 276 536 Q253 536 232.5 544.5 Q212 553 197 567.5 Q182 582 173 601.5 Q164 621 164 643 Z " />
<glyph glyph-name="dotaccent" unicode="&#x2d9;" horiz-adv-x="414" d="M150 583 L150 692 L268 692 L268 583 L150 583 Z " />
<glyph glyph-name="ogonek" unicode="&#x2db;" horiz-adv-x="288" d="M57 -98 Q57 -77 66.5 -53.5 Q76 -30 99 3 L172 3 L174 0 Q154 -28 145 -47.5 Q136 -67 136 -83 Q136 -118 176 -118 Q187 -118 202 -115 Q217 -112 237 -104 L260 -164 Q240 -176 214.5 -183.5 Q189 -191 163 -191 Q116 -191 86.5 -163.5 Q57 -136 57 -98 Z " />
<glyph glyph-name="hungarumlaut" unicode="&#x2dd;" horiz-adv-x="570" d="M151 569 L230 759 L337 725 L219 544 L151 569 Z M310 569 L388 759 L495 725 L378 544 L310 569 Z " />
<glyph glyph-name="commaaccent" unicode="&#xf6c3;" horiz-adv-x="592" d="M234 -285 L271 -187 L237 -187 L237 -56 L366 -56 L366 -182 L293 -285 L234 -285 Z " />
<glyph glyph-name="Acircumflex" unicode="&#xc2;" horiz-adv-x="629" d="M498 0 L443 154 L185 154 L129 0 L2 0 L265 696 L363 696 L626 0 L498 0 Z M361 398 L315 541 L312 541 L267 401 L220 257 L407 257 L361 398 Z M313 815 L166 733 L128 781 L277 905 L353 905 L500 782 L460 733 L313 815 Z " />
<glyph glyph-name="Atilde" unicode="&#xc3;" horiz-adv-x="629" d="M498 0 L443 154 L185 154 L129 0 L2 0 L265 696 L363 696 L626 0 L498 0 Z M361 398 L315 541 L312 541 L267 401 L220 257 L407 257 L361 398 Z M243 875 Q262 875 280.5 867.5 Q299 860 316 851 Q333 842 348.5 834.5 Q364 827 376 827 Q393 827 408 838 Q423 849 440 874 L500 839 Q476 787 448 763.5 Q420 740 386 740 Q367 740 348.5 747 Q330 754 312.5 763 Q295 772 278.5 779 Q262 786 248 786 Q231 786 215 776.5 Q199 767 179 741 L122 774 Q145 822 175 848.5 Q205 875 243 875 Z " />
<glyph glyph-name="Aring" unicode="&#xc5;" horiz-adv-x="629" d="M498 0 L443 154 L185 154 L129 0 L2 0 L265 696 L363 696 L626 0 L498 0 Z M361 398 L315 541 L312 541 L267 401 L220 257 L407 257 L361 398 Z M361 821 Q361 841 347.5 854 Q334 867 314 867 Q294 867 280 854 Q266 841 266 821 Q266 802 280 788.5 Q294 775 314 775 Q334 775 347.5 788.5 Q361 802 361 821 Z M202 821 Q202 843 211 863 Q220 883 235 897.5 Q250 912 270.5 920.5 Q291 929 314 929 Q337 929 357 920.5 Q377 912 392 897.5 Q407 883 416 863 Q425 843 425 821 Q425 799 416 779.5 Q407 760 392 745.5 Q377 731 357 722.5 Q337 714 314 714 Q291 714 270.5 722.5 Q250 731 235 745.5 Q220 760 211 779.5 Q202 799 202 821 Z " />
<glyph glyph-name="Circumflex" unicode="&#xf6c0;" horiz-adv-x="600" d="M299 815 L152 733 L114 781 L263 905 L339 905 L486 782 L446 733 L299 815 Z " />
<glyph glyph-name="Ograve" unicode="&#xd2;" horiz-adv-x="610" d="M304 701 Q364 701 412 681 Q460 661 494 626 Q528 591 546 542.5 Q564 494 564 437 L564 259 Q564 198 545.5 149 Q527 100 493 65.5 Q459 31 411 12.5 Q363 -6 304 -6 Q239 -6 190 15.5 Q141 37 109 73.5 Q77 110 61 158 Q45 206 45 259 L45 437 Q45 489 61 537 Q77 585 109 621.5 Q141 658 190 679.5 Q239 701 304 701 Z M304 587 Q269 587 243.5 575 Q218 563 201 542.5 Q184 522 175.5 496 Q167 470 167 443 L167 256 Q167 227 175.5 200.5 Q184 174 201 153 Q218 132 243.5 119.5 Q269 107 304 107 Q336 107 361.5 118.5 Q387 130 404.5 150 Q422 170 431.5 197 Q441 224 441 256 L441 443 Q441 473 431.5 499 Q422 525 404.5 544.5 Q387 564 361.5 575.5 Q336 587 304 587 Z M333 735 L141 832 L215 916 L380 791 L333 735 Z " />
<glyph glyph-name="Ocircumflex" unicode="&#xd4;" horiz-adv-x="610" d="M304 701 Q364 701 412 681 Q460 661 494 626 Q528 591 546 542.5 Q564 494 564 437 L564 259 Q564 198 545.5 149 Q527 100 493 65.5 Q459 31 411 12.5 Q363 -6 304 -6 Q239 -6 190 15.5 Q141 37 109 73.5 Q77 110 61 158 Q45 206 45 259 L45 437 Q45 489 61 537 Q77 585 109 621.5 Q141 658 190 679.5 Q239 701 304 701 Z M304 587 Q269 587 243.5 575 Q218 563 201 542.5 Q184 522 175.5 496 Q167 470 167 443 L167 256 Q167 227 175.5 200.5 Q184 174 201 153 Q218 132 243.5 119.5 Q269 107 304 107 Q336 107 361.5 118.5 Q387 130 404.5 150 Q422 170 431.5 197 Q441 224 441 256 L441 443 Q441 473 431.5 499 Q422 525 404.5 544.5 Q387 564 361.5 575.5 Q336 587 304 587 Z M304 815 L157 733 L119 781 L268 905 L344 905 L491 782 L451 733 L304 815 Z " />
<glyph glyph-name="Otilde" unicode="&#xd5;" horiz-adv-x="610" d="M304 701 Q364 701 412 681 Q460 661 494 626 Q528 591 546 542.5 Q564 494 564 437 L564 259 Q564 198 545.5 149 Q527 100 493 65.5 Q459 31 411 12.5 Q363 -6 304 -6 Q239 -6 190 15.5 Q141 37 109 73.5 Q77 110 61 158 Q45 206 45 259 L45 437 Q45 489 61 537 Q77 585 109 621.5 Q141 658 190 679.5 Q239 701 304 701 Z M304 587 Q269 587 243.5 575 Q218 563 201 542.5 Q184 522 175.5 496 Q167 470 167 443 L167 256 Q167 227 175.5 200.5 Q184 174 201 153 Q218 132 243.5 119.5 Q269 107 304 107 Q336 107 361.5 118.5 Q387 130 404.5 150 Q422 170 431.5 197 Q441 224 441 256 L441 443 Q441 473 431.5 499 Q422 525 404.5 544.5 Q387 564 361.5 575.5 Q336 587 304 587 Z M239 875 Q258 875 276.5 867.5 Q295 860 312 851 Q329 842 344.5 834.5 Q360 827 372 827 Q389 827 404 838 Q419 849 436 874 L496 839 Q472 787 444 763.5 Q416 740 382 740 Q363 740 344.5 747 Q326 754 308.5 763 Q291 772 274.5 779 Q258 786 244 786 Q227 786 211 776.5 Q195 767 175 741 L118 774 Q141 822 171 848.5 Q201 875 239 875 Z " />
<glyph glyph-name="Ugrave" unicode="&#xd9;" horiz-adv-x="638" d="M579 247 Q579 190 559.5 143.5 Q540 97 505.5 64 Q471 31 423 13 Q375 -5 319 -5 Q260 -5 212 14.5 Q164 34 130 68.5 Q96 103 78 150 Q60 197 60 252 L60 696 L180 696 L180 261 Q180 229 189.5 201 Q199 173 217 152.5 Q235 132 261 120 Q287 108 320 108 Q382 108 419.5 146 Q457 184 457 256 L457 696 L579 696 L579 247 Z M328 735 L136 832 L210 916 L375 791 L328 735 Z " />
<glyph glyph-name="Uacute" unicode="&#xda;" horiz-adv-x="638" d="M579 247 Q579 190 559.5 143.5 Q540 97 505.5 64 Q471 31 423 13 Q375 -5 319 -5 Q260 -5 212 14.5 Q164 34 130 68.5 Q96 103 78 150 Q60 197 60 252 L60 696 L180 696 L180 261 Q180 229 189.5 201 Q199 173 217 152.5 Q235 132 261 120 Q287 108 320 108 Q382 108 419.5 146 Q457 184 457 256 L457 696 L579 696 L579 247 Z M244 791 L409 916 L483 832 L291 735 L244 791 Z " />
<glyph glyph-name="Ucircumflex" unicode="&#xdb;" horiz-adv-x="638" d="M579 247 Q579 190 559.5 143.5 Q540 97 505.5 64 Q471 31 423 13 Q375 -5 319 -5 Q260 -5 212 14.5 Q164 34 130 68.5 Q96 103 78 150 Q60 197 60 252 L60 696 L180 696 L180 261 Q180 229 189.5 201 Q199 173 217 152.5 Q235 132 261 120 Q287 108 320 108 Q382 108 419.5 146 Q457 184 457 256 L457 696 L579 696 L579 247 Z M318 815 L171 733 L133 781 L282 905 L358 905 L505 782 L465 733 L318 815 Z " />
<glyph glyph-name="Yacute" unicode="&#xdd;" horiz-adv-x="557" d="M553 696 Q499 593 445 491 Q391 389 336 286 L336 0 L221 0 L221 286 Q166 389 112.5 491 Q59 593 4 696 L133 696 L217 524 Q233 491 248 457.5 Q263 424 278 390 L280 390 L342 527 L425 696 L553 696 Z M211 791 L376 916 L450 832 L258 735 L211 791 Z " />
<glyph glyph-name="aacute" unicode="&#xe1;" horiz-adv-x="499" d="M245 500 Q287 500 324 492.5 Q361 485 389 466 Q417 447 433.5 415.5 Q450 384 450 336 L450 0 L337 0 L337 44 Q337 44 335 45 Q315 19 279.5 7 Q244 -5 206 -5 Q127 -5 81 33.5 Q35 72 35 144 Q35 174 46 201 Q57 228 78 248.5 Q99 269 130.5 281 Q162 293 203 293 L337 293 L337 329 Q337 343 332.5 356 Q328 369 317 378.5 Q306 388 287 394 Q268 400 239 400 Q198 400 170 389.5 Q142 379 121 359 L61 435 Q97 471 145 485.5 Q193 500 245 500 Z M142 152 Q142 141 146.5 130 Q151 119 161.5 110.5 Q172 102 188.5 96.5 Q205 91 230 91 Q249 91 267 94.5 Q285 98 299.5 106 Q314 114 324 127 Q334 140 336 160 Q337 166 337 175 Q337 184 337 207 L222 207 Q179 207 160.5 191 Q142 175 142 152 Z M213 569 L292 759 L399 725 L281 544 L213 569 Z " />
<glyph glyph-name="atilde" unicode="&#xe3;" horiz-adv-x="499" d="M245 500 Q287 500 324 492.5 Q361 485 389 466 Q417 447 433.5 415.5 Q450 384 450 336 L450 0 L337 0 L337 44 Q337 44 335 45 Q315 19 279.5 7 Q244 -5 206 -5 Q127 -5 81 33.5 Q35 72 35 144 Q35 174 46 201 Q57 228 78 248.5 Q99 269 130.5 281 Q162 293 203 293 L337 293 L337 329 Q337 343 332.5 356 Q328 369 317 378.5 Q306 388 287 394 Q268 400 239 400 Q198 400 170 389.5 Q142 379 121 359 L61 435 Q97 471 145 485.5 Q193 500 245 500 Z M187 705 Q206 705 224.5 697.5 Q243 690 260 681 Q277 672 292.5 664.5 Q308 657 320 657 Q337 657 352 668 Q367 679 384 704 L444 669 Q420 617 392 593.5 Q364 570 330 570 Q311 570 292.5 577 Q274 584 256.5 593 Q239 602 222.5 609 Q206 616 192 616 Q175 616 159 606.5 Q143 597 123 571 L66 604 Q89 652 119 678.5 Q149 705 187 705 Z M142 152 Q142 141 146.5 130 Q151 119 161.5 110.5 Q172 102 188.5 96.5 Q205 91 230 91 Q249 91 267 94.5 Q285 98 299.5 106 Q314 114 324 127 Q334 140 336 160 Q337 166 337 175 Q337 184 337 207 L222 207 Q179 207 160.5 191 Q142 175 142 152 Z " />
<glyph glyph-name="ntilde" unicode="&#xf1;" horiz-adv-x="529" d="M357 0 L357 294 Q357 342 335.5 368 Q314 394 266 394 Q225 394 198 368 Q171 342 171 294 L171 0 L58 0 L58 496 L171 496 L171 444 L173 444 Q197 471 232.5 485.5 Q268 500 302 500 Q378 500 424 456.5 Q470 413 470 325 L470 0 L357 0 Z M183 705 Q202 705 220.5 697.5 Q239 690 256 681 Q273 672 288.5 664.5 Q304 657 316 657 Q333 657 348 668 Q363 679 380 704 L440 669 Q416 617 388 593.5 Q360 570 326 570 Q307 570 288.5 577 Q270 584 252.5 593 Q235 602 218.5 609 Q202 616 188 616 Q171 616 155 606.5 Q139 597 119 571 L62 604 Q85 652 115 678.5 Q145 705 183 705 Z " />
<glyph glyph-name="ograve" unicode="&#xf2;" horiz-adv-x="515" d="M264 501 Q320 501 364.5 479.5 Q409 458 436 418 Q455 389 464 347.5 Q473 306 472 255 Q472 198 463.5 157.5 Q455 117 438 87 Q409 40 360 16.5 Q311 -7 252 -7 Q196 -7 152 12 Q108 31 81 71 Q40 132 42 247 Q42 287 47.5 323 Q53 359 67 387 Q93 442 144.5 471.5 Q196 501 264 501 Z M260 399 Q231 399 208 384 Q185 369 173 343 Q164 323 160.5 299 Q157 275 156 246 Q156 217 159 193 Q162 169 171 151 Q182 125 204 110.5 Q226 96 255 96 Q287 96 312 113.5 Q337 131 348 167 Q353 181 355 202 Q357 223 357 255 Q357 313 344 342 Q333 371 310.5 385 Q288 399 260 399 Z M255 544 L132 723 L240 759 L322 573 L255 544 Z " />
<glyph glyph-name="oacute" unicode="&#xf3;" horiz-adv-x="515" d="M264 501 Q320 501 364.5 479.5 Q409 458 436 418 Q455 389 464 347.5 Q473 306 472 255 Q472 198 463.5 157.5 Q455 117 438 87 Q409 40 360 16.5 Q311 -7 252 -7 Q196 -7 152 12 Q108 31 81 71 Q40 132 42 247 Q42 287 47.5 323 Q53 359 67 387 Q93 442 144.5 471.5 Q196 501 264 501 Z M260 399 Q231 399 208 384 Q185 369 173 343 Q164 323 160.5 299 Q157 275 156 246 Q156 217 159 193 Q162 169 171 151 Q182 125 204 110.5 Q226 96 255 96 Q287 96 312 113.5 Q337 131 348 167 Q353 181 355 202 Q357 223 357 255 Q357 313 344 342 Q333 371 310.5 385 Q288 399 260 399 Z M217 569 L296 759 L403 725 L285 544 L217 569 Z " />
<glyph glyph-name="uacute" unicode="&#xfa;" horiz-adv-x="533" d="M171 495 L171 200 Q171 149 192 124 Q213 99 263 99 Q303 99 330.5 125.5 Q358 152 358 200 L358 495 L471 495 L471 0 L358 0 L358 49 L355 49 Q332 21 297 7.5 Q262 -6 229 -6 Q152 -6 105.5 37 Q59 80 59 170 L59 495 L171 495 Z M215 569 L294 759 L401 725 L283 544 L215 569 Z " />
<glyph glyph-name="yacute" unicode="&#xfd;" horiz-adv-x="470" d="M252 -100 Q231 -157 192 -178.5 Q153 -200 108 -200 L66 -200 L66 -105 L97 -105 Q119 -105 134 -89.5 Q149 -74 157 -53 L182 25 L0 495 L122 495 L186 313 L235 157 L239 157 L288 311 L351 495 L470 495 L252 -100 Z M196 569 L275 759 L382 725 L264 544 L196 569 Z " />
<glyph glyph-name="ydieresis" unicode="&#xff;" horiz-adv-x="470" d="M252 -100 Q231 -157 192 -178.5 Q153 -200 108 -200 L66 -200 L66 -105 L97 -105 Q119 -105 134 -89.5 Q149 -74 157 -53 L182 25 L0 495 L122 495 L186 313 L235 157 L239 157 L288 311 L351 495 L470 495 L252 -100 Z M277 583 L277 692 L395 692 L395 583 L277 583 Z M77 583 L77 692 L196 692 L196 583 L77 583 Z " />
<glyph glyph-name="aring" unicode="&#xe5;" horiz-adv-x="499" d="M245 500 Q287 500 324 492.5 Q361 485 389 466 Q417 447 433.5 415.5 Q450 384 450 336 L450 0 L337 0 L337 44 Q337 44 335 45 Q315 19 279.5 7 Q244 -5 206 -5 Q127 -5 81 33.5 Q35 72 35 144 Q35 174 46 201 Q57 228 78 248.5 Q99 269 130.5 281 Q162 293 203 293 L337 293 L337 329 Q337 343 332.5 356 Q328 369 317 378.5 Q306 388 287 394 Q268 400 239 400 Q198 400 170 389.5 Q142 379 121 359 L61 435 Q97 471 145 485.5 Q193 500 245 500 Z M149 643 Q149 665 158 685 Q167 705 182 719.5 Q197 734 217.5 742.5 Q238 751 261 751 Q284 751 304 742.5 Q324 734 339 719.5 Q354 705 363 685 Q372 665 372 643 Q372 621 363 601.5 Q354 582 339 567.5 Q324 553 304 544.5 Q284 536 261 536 Q238 536 217.5 544.5 Q197 553 182 567.5 Q167 582 158 601.5 Q149 621 149 643 Z M142 152 Q142 141 146.5 130 Q151 119 161.5 110.5 Q172 102 188.5 96.5 Q205 91 230 91 Q249 91 267 94.5 Q285 98 299.5 106 Q314 114 324 127 Q334 140 336 160 Q337 166 337 175 Q337 184 337 207 L222 207 Q179 207 160.5 191 Q142 175 142 152 Z M308 643 Q308 663 294.5 676 Q281 689 261 689 Q241 689 227 676 Q213 663 213 643 Q213 624 227 610.5 Q241 597 261 597 Q281 597 294.5 610.5 Q308 624 308 643 Z " />
<glyph glyph-name="thorn" unicode="&#xfe;" horiz-adv-x="524" d="M172 712 L172 451 L175 450 Q200 478 229.5 489 Q259 500 291 500 Q350 500 386 476 Q422 452 442 415 Q462 378 468.5 332.5 Q475 287 475 244 Q475 201 467 156.5 Q459 112 437.5 76 Q416 40 378.5 17 Q341 -6 281 -6 Q221 -6 174 41 L172 41 L172 -200 L60 -200 L60 712 L172 712 Z M172 246 Q172 223 175 197 Q178 171 187.5 149.5 Q197 128 215.5 114 Q234 100 265 100 Q296 100 314.5 113.5 Q333 127 343 148 Q353 169 355.5 195 Q358 221 358 246 Q358 270 355.5 296 Q353 322 343.5 344 Q334 366 315.5 380 Q297 394 265 394 Q233 394 214.5 379.5 Q196 365 186.5 343 Q177 321 174.5 295 Q172 269 172 246 Z " />
<glyph glyph-name="OE" unicode="&#x152;" horiz-adv-x="847" d="M362 0 Q332 -6 299 -6 Q224 -6 174 14 Q124 34 94.5 68 Q65 102 53 147.5 Q41 193 41 244 L41 437 Q41 489 57 537 Q73 585 105 621.5 Q137 658 185.5 679.5 Q234 701 299 701 Q314 701 327.5 699.5 Q341 698 355 696 L821 696 L821 586 L476 586 L476 403 L770 403 L770 298 L476 298 L476 109 L821 109 L821 0 L362 0 Z M299 107 Q330 107 355 118 L355 576 Q328 587 299 587 Q259 587 232.5 572 Q206 557 190.5 533 Q175 509 168.5 479 Q162 449 162 419 L162 256 Q162 184 196 145.5 Q230 107 299 107 Z " />
<glyph glyph-name="Ydieresis" unicode="&#x178;" horiz-adv-x="557" d="M553 696 Q499 593 445 491 Q391 389 336 286 L336 0 L221 0 L221 286 Q166 389 112.5 491 Q59 593 4 696 L133 696 L217 524 Q233 491 248 457.5 Q263 424 278 390 L280 390 L342 527 L425 696 L553 696 Z M121 757 L121 868 L242 868 L242 757 L121 757 Z M319 757 L319 868 L439 868 L439 757 L319 757 Z " />
<glyph glyph-name="Amacron" unicode="&#x100;" horiz-adv-x="629" d="M498 0 L443 154 L185 154 L129 0 L2 0 L265 696 L363 696 L626 0 L498 0 Z M361 398 L315 541 L312 541 L267 401 L220 257 L407 257 L361 398 Z M164 769 L164 866 L465 866 L465 769 L164 769 Z " />
<glyph glyph-name="amacron" unicode="&#x101;" horiz-adv-x="499" d="M245 500 Q287 500 324 492.5 Q361 485 389 466 Q417 447 433.5 415.5 Q450 384 450 336 L450 0 L337 0 L337 44 Q337 44 335 45 Q315 19 279.5 7 Q244 -5 206 -5 Q127 -5 81 33.5 Q35 72 35 144 Q35 174 46 201 Q57 228 78 248.5 Q99 269 130.5 281 Q162 293 203 293 L337 293 L337 329 Q337 343 332.5 356 Q328 369 317 378.5 Q306 388 287 394 Q268 400 239 400 Q198 400 170 389.5 Q142 379 121 359 L61 435 Q97 471 145 485.5 Q193 500 245 500 Z M104 589 L104 686 L405 686 L405 589 L104 589 Z M142 152 Q142 141 146.5 130 Q151 119 161.5 110.5 Q172 102 188.5 96.5 Q205 91 230 91 Q249 91 267 94.5 Q285 98 299.5 106 Q314 114 324 127 Q334 140 336 160 Q337 166 337 175 Q337 184 337 207 L222 207 Q179 207 160.5 191 Q142 175 142 152 Z " />
<glyph glyph-name="Abreve" unicode="&#x102;" horiz-adv-x="629" d="M498 0 L443 154 L185 154 L129 0 L2 0 L265 696 L363 696 L626 0 L498 0 Z M361 398 L315 541 L312 541 L267 401 L220 257 L407 257 L361 398 Z M314 731 Q272 731 244 745.5 Q216 760 198.5 782 Q181 804 173 829.5 Q165 855 164 876 L251 876 Q251 866 255.5 854.5 Q260 843 268 833.5 Q276 824 287.5 817.5 Q299 811 314 811 Q330 811 342 817.5 Q354 824 362 833.5 Q370 843 374 854.5 Q378 866 378 876 L464 876 Q462 855 454 829.5 Q446 804 429 782 Q412 760 384 745.5 Q356 731 314 731 Z " />
<glyph glyph-name="abreve" unicode="&#x103;" horiz-adv-x="499" d="M245 500 Q287 500 324 492.5 Q361 485 389 466 Q417 447 433.5 415.5 Q450 384 450 336 L450 0 L337 0 L337 44 Q337 44 335 45 Q315 19 279.5 7 Q244 -5 206 -5 Q127 -5 81 33.5 Q35 72 35 144 Q35 174 46 201 Q57 228 78 248.5 Q99 269 130.5 281 Q162 293 203 293 L337 293 L337 329 Q337 343 332.5 356 Q328 369 317 378.5 Q306 388 287 394 Q268 400 239 400 Q198 400 170 389.5 Q142 379 121 359 L61 435 Q97 471 145 485.5 Q193 500 245 500 Z M263 564 Q221 564 193 579 Q165 594 147.5 616 Q130 638 122 663.5 Q114 689 113 710 L200 710 Q200 700 204.5 688.5 Q209 677 217 667 Q225 657 236.5 650.5 Q248 644 263 644 Q279 644 291 650.5 Q303 657 311 667 Q319 677 323 688.5 Q327 700 327 710 L413 710 Q411 689 403 663.5 Q395 638 378 616 Q361 594 333 579 Q305 564 263 564 Z M142 152 Q142 141 146.5 130 Q151 119 161.5 110.5 Q172 102 188.5 96.5 Q205 91 230 91 Q249 91 267 94.5 Q285 98 299.5 106 Q314 114 324 127 Q334 140 336 160 Q337 166 337 175 Q337 184 337 207 L222 207 Q179 207 160.5 191 Q142 175 142 152 Z " />
<glyph glyph-name="Aogonek" unicode="&#x104;" horiz-adv-x="629" d="M457 -98 Q457 -77 465.5 -54 Q474 -31 497 1 L443 154 L185 154 L129 0 L2 0 L265 696 L363 696 L626 0 L574 0 Q554 -28 545 -47.5 Q536 -67 536 -83 Q536 -118 576 -118 Q587 -118 602 -115 Q617 -112 637 -104 L660 -164 Q640 -176 614.5 -183.5 Q589 -191 563 -191 Q516 -191 486.5 -163.5 Q457 -136 457 -98 Z M361 398 L315 541 L312 541 L267 401 L220 257 L407 257 L361 398 Z " />
<glyph glyph-name="aogonek" unicode="&#x105;" horiz-adv-x="499" d="M297 -98 Q297 -77 305.5 -54.5 Q314 -32 337 0 L337 44 Q337 44 335 45 Q315 19 279.5 7 Q244 -5 206 -5 Q127 -5 81 33.5 Q35 72 35 144 Q35 174 46 201 Q57 228 78 248.5 Q99 269 130.5 281 Q162 293 203 293 L337 293 L337 329 Q337 343 332.5 356 Q328 369 317 378.5 Q306 388 287 394 Q268 400 239 400 Q198 400 170 389.5 Q142 379 121 359 L61 435 Q97 471 145 485.5 Q193 500 245 500 Q287 500 324 492.5 Q361 485 389 466 Q417 447 433.5 415.5 Q450 384 450 336 L450 0 L414 0 Q394 -28 385 -47.5 Q376 -67 376 -83 Q376 -118 416 -118 Q427 -118 442 -115 Q457 -112 477 -104 L500 -164 Q480 -176 454.5 -183.5 Q429 -191 403 -191 Q356 -191 326.5 -163.5 Q297 -136 297 -98 Z M142 152 Q142 141 146.5 130 Q151 119 161.5 110.5 Q172 102 188.5 96.5 Q205 91 230 91 Q249 91 267 94.5 Q285 98 299.5 106 Q314 114 324 127 Q334 140 336 160 Q337 166 337 175 Q337 184 337 207 L222 207 Q179 207 160.5 191 Q142 175 142 152 Z " />
<glyph glyph-name="Cacute" unicode="&#x106;" horiz-adv-x="572" d="M551 156 Q525 80 461.5 37 Q398 -6 307 -6 Q242 -6 193 14.5 Q144 35 112 70.5 Q80 106 64 154.5 Q48 203 48 259 L48 437 Q48 489 64 537 Q80 585 112 621.5 Q144 658 193 679.5 Q242 701 307 701 Q399 701 461.5 656.5 Q524 612 550 539 L436 494 Q423 535 390.5 560.5 Q358 586 307 586 Q272 586 246.5 574 Q221 562 204 541.5 Q187 521 178.5 495 Q170 469 170 442 L170 257 Q170 228 178.5 201.5 Q187 175 204 154 Q221 133 246.5 120.5 Q272 108 307 108 Q357 108 390 134.5 Q423 161 436 204 L551 156 Z M206 791 L371 916 L445 832 L253 735 L206 791 Z " />
<glyph glyph-name="cacute" unicode="&#x107;" horiz-adv-x="447" d="M430 67 Q394 32 350 13 Q306 -6 255 -6 Q210 -6 169 8.5 Q128 23 96.5 53.5 Q65 84 46.5 132 Q28 180 28 247 Q28 314 47.5 362 Q67 410 99 441 Q131 472 173 486 Q215 500 259 500 Q358 500 428 430 L355 351 Q311 397 261 397 Q204 397 174 361 Q144 325 144 247 Q144 170 173.5 134 Q203 98 260 98 Q285 98 310 111 Q335 124 356 145 L430 67 Z M188 569 L267 759 L374 725 L256 544 L188 569 Z " />
<glyph glyph-name="Ccircumflex" unicode="&#x108;" horiz-adv-x="572" d="M551 156 Q525 80 461.5 37 Q398 -6 307 -6 Q242 -6 193 14.5 Q144 35 112 70.5 Q80 106 64 154.5 Q48 203 48 259 L48 437 Q48 489 64 537 Q80 585 112 621.5 Q144 658 193 679.5 Q242 701 307 701 Q399 701 461.5 656.5 Q524 612 550 539 L436 494 Q423 535 390.5 560.5 Q358 586 307 586 Q272 586 246.5 574 Q221 562 204 541.5 Q187 521 178.5 495 Q170 469 170 442 L170 257 Q170 228 178.5 201.5 Q187 175 204 154 Q221 133 246.5 120.5 Q272 108 307 108 Q357 108 390 134.5 Q423 161 436 204 L551 156 Z M304 815 L157 733 L119 781 L268 905 L344 905 L491 782 L451 733 L304 815 Z " />
<glyph glyph-name="ccircumflex" unicode="&#x109;" horiz-adv-x="447" d="M430 67 Q394 32 350 13 Q306 -6 255 -6 Q210 -6 169 8.5 Q128 23 96.5 53.5 Q65 84 46.5 132 Q28 180 28 247 Q28 314 47.5 362 Q67 410 99 441 Q131 472 173 486 Q215 500 259 500 Q358 500 428 430 L355 351 Q311 397 261 397 Q204 397 174 361 Q144 325 144 247 Q144 170 173.5 134 Q203 98 260 98 Q285 98 310 111 Q335 124 356 145 L430 67 Z M248 642 Q239 636 219.5 621 Q200 606 178.5 589.5 Q157 573 137 558 Q117 543 108 537 L62 580 L211 734 L289 734 L435 581 L387 537 L248 642 Z " />
<glyph glyph-name="Cdotaccent" unicode="&#x10a;" horiz-adv-x="572" d="M551 156 Q525 80 461.5 37 Q398 -6 307 -6 Q242 -6 193 14.5 Q144 35 112 70.5 Q80 106 64 154.5 Q48 203 48 259 L48 437 Q48 489 64 537 Q80 585 112 621.5 Q144 658 193 679.5 Q242 701 307 701 Q399 701 461.5 656.5 Q524 612 550 539 L436 494 Q423 535 390.5 560.5 Q358 586 307 586 Q272 586 246.5 574 Q221 562 204 541.5 Q187 521 178.5 495 Q170 469 170 442 L170 257 Q170 228 178.5 201.5 Q187 175 204 154 Q221 133 246.5 120.5 Q272 108 307 108 Q357 108 390 134.5 Q423 161 436 204 L551 156 Z M248 758 L248 867 L366 867 L366 758 L248 758 Z " />
<glyph glyph-name="cdotaccent" unicode="&#x10b;" horiz-adv-x="447" d="M430 67 Q394 32 350 13 Q306 -6 255 -6 Q210 -6 169 8.5 Q128 23 96.5 53.5 Q65 84 46.5 132 Q28 180 28 247 Q28 314 47.5 362 Q67 410 99 441 Q131 472 173 486 Q215 500 259 500 Q358 500 428 430 L355 351 Q311 397 261 397 Q204 397 174 361 Q144 325 144 247 Q144 170 173.5 134 Q203 98 260 98 Q285 98 310 111 Q335 124 356 145 L430 67 Z M192 583 L192 692 L310 692 L310 583 L192 583 Z " />
<glyph glyph-name="Ccaron" unicode="&#x10c;" horiz-adv-x="572" d="M551 156 Q525 80 461.5 37 Q398 -6 307 -6 Q242 -6 193 14.5 Q144 35 112 70.5 Q80 106 64 154.5 Q48 203 48 259 L48 437 Q48 489 64 537 Q80 585 112 621.5 Q144 658 193 679.5 Q242 701 307 701 Q399 701 461.5 656.5 Q524 612 550 539 L436 494 Q423 535 390.5 560.5 Q358 586 307 586 Q272 586 246.5 574 Q221 562 204 541.5 Q187 521 178.5 495 Q170 469 170 442 L170 257 Q170 228 178.5 201.5 Q187 175 204 154 Q221 133 246.5 120.5 Q272 108 307 108 Q357 108 390 134.5 Q423 161 436 204 L551 156 Z M449 908 L490 859 L343 735 L267 735 L117 860 L156 908 L303 826 L449 908 Z " />
<glyph glyph-name="ccaron" unicode="&#x10d;" horiz-adv-x="447" d="M430 67 Q394 32 350 13 Q306 -6 255 -6 Q210 -6 169 8.5 Q128 23 96.5 53.5 Q65 84 46.5 132 Q28 180 28 247 Q28 314 47.5 362 Q67 410 99 441 Q131 472 173 486 Q215 500 259 500 Q358 500 428 430 L355 351 Q311 397 261 397 Q204 397 174 361 Q144 325 144 247 Q144 170 173.5 134 Q203 98 260 98 Q285 98 310 111 Q335 124 356 145 L430 67 Z M387 734 L435 690 L289 537 L211 537 L62 691 L108 734 Q117 728 137 713 Q157 698 178.5 681.5 Q200 665 219.5 650 Q239 635 248 629 L387 734 Z " />
<glyph glyph-name="Dcaron" unicode="&#x10e;" horiz-adv-x="638" d="M194 110 L313 110 Q357 110 387 122.5 Q417 135 435 157.5 Q453 180 461 212 Q469 244 469 283 L469 413 Q469 506 428 546 Q387 586 311 586 L194 586 L194 110 Z M326 696 Q404 696 467 666 Q530 636 563 567 Q582 529 586 477 Q590 425 590 360 Q590 287 586 233 Q582 179 565 138 Q548 99 521.5 72.5 Q495 46 462 30 Q429 14 390 7 Q351 0 309 0 L73 0 L73 696 L326 696 Z M418 908 L459 859 L312 735 L236 735 L86 860 L125 908 L272 826 L418 908 Z " />
<glyph glyph-name="dcaron" unicode="&#x10f;" horiz-adv-x="645" d="M520 497 L557 595 L523 595 L523 726 L652 726 L652 600 L579 497 L520 497 Z M350 0 L350 46 L348 48 Q322 19 289 7 Q256 -5 224 -5 Q165 -5 130 18 Q95 41 77 77.5 Q59 114 53.5 160 Q48 206 48 251 Q48 293 56 337.5 Q64 382 85 418.5 Q106 455 142.5 478 Q179 501 236 501 Q268 501 298.5 489 Q329 477 348 453 L350 454 L350 726 L463 726 L463 0 L350 0 Z M350 248 Q350 271 347.5 296.5 Q345 322 335.5 343.5 Q326 365 308 379 Q290 393 259 393 Q226 393 207.5 378.5 Q189 364 179 342 Q169 320 166.5 293 Q164 266 164 241 Q164 218 166.5 193 Q169 168 179 147.5 Q189 127 207 114 Q225 101 257 101 Q288 101 306.5 115.5 Q325 130 335 152 Q345 174 347.5 199.5 Q350 225 350 248 Z " />
<glyph glyph-name="Dcroat" unicode="&#x110;" horiz-adv-x="638" d="M6 391 L73 391 L73 696 L326 696 Q404 696 467 666 Q530 636 563 567 Q582 529 586 477 Q590 425 590 360 Q590 287 586 233 Q582 179 565 138 Q548 99 521.5 72.5 Q495 46 462 30 Q429 14 390 7 Q351 0 309 0 L73 0 L73 306 L6 306 L6 391 Z M194 391 L291 391 L291 306 L194 306 L194 110 L313 110 Q357 110 387 122.5 Q417 135 435 157.5 Q453 180 461 212 Q469 244 469 283 L469 413 Q469 506 428 546 Q387 586 311 586 L194 586 L194 391 Z " />
<glyph glyph-name="dcroat" unicode="&#x111;" horiz-adv-x="515" d="M227 628 L350 628 L350 726 L463 726 L463 628 L515 628 L515 555 L463 555 L463 0 L350 0 L350 46 L348 48 Q322 19 289 7 Q256 -5 224 -5 Q165 -5 130 18 Q95 41 77 77.5 Q59 114 53.5 160 Q48 206 48 251 Q48 293 56 337.5 Q64 382 85 418.5 Q106 455 142.5 478 Q179 501 236 501 Q268 501 298.5 489 Q329 477 348 453 L350 454 L350 555 L227 555 L227 628 Z M350 248 Q350 271 347.5 296.5 Q345 322 335.5 343.5 Q326 365 308 379 Q290 393 259 393 Q226 393 207.5 378.5 Q189 364 179 342 Q169 320 166.5 293 Q164 266 164 241 Q164 218 166.5 193 Q169 168 179 147.5 Q189 127 207 114 Q225 101 257 101 Q288 101 306.5 115.5 Q325 130 335 152 Q345 174 347.5 199.5 Q350 225 350 248 Z " />
<glyph glyph-name="Emacron" unicode="&#x112;" horiz-adv-x="564" d="M73 0 L73 696 L539 696 L539 586 L194 586 L194 404 L488 404 L488 298 L194 298 L194 110 L539 110 L539 0 L73 0 Z M154 769 L154 866 L455 866 L455 769 L154 769 Z " />
<glyph glyph-name="emacron" unicode="&#x113;" horiz-adv-x="507" d="M154 215 Q154 192 160 170.5 Q166 149 179 132.5 Q192 116 212 106 Q232 96 259 96 Q281 96 314.5 106.5 Q348 117 376 143 Q394 123 409 103.5 Q424 84 442 64 Q400 26 351 10 Q302 -6 255 -6 Q216 -6 177 5 Q138 16 107 44.5 Q76 73 56.5 121.5 Q37 170 37 246 Q37 318 56.5 366.5 Q76 415 107 445 Q138 475 176.5 488 Q215 501 253 501 Q303 501 342.5 484 Q382 467 409.5 436.5 Q437 406 451.5 362 Q466 318 466 264 L466 215 L154 215 Z M252 398 Q213 398 187 371 Q161 344 156 295 L346 295 Q343 346 316.5 372 Q290 398 252 398 Z M114 589 L114 686 L415 686 L415 589 L114 589 Z " />
<glyph glyph-name="Ebreve" unicode="&#x114;" horiz-adv-x="564" d="M73 0 L73 696 L539 696 L539 586 L194 586 L194 404 L488 404 L488 298 L194 298 L194 110 L539 110 L539 0 L73 0 Z M309 731 Q267 731 239 745.5 Q211 760 193.5 782 Q176 804 168 829.5 Q160 855 159 876 L246 876 Q246 866 250.5 854.5 Q255 843 263 833.5 Q271 824 282.5 817.5 Q294 811 309 811 Q325 811 337 817.5 Q349 824 357 833.5 Q365 843 369 854.5 Q373 866 373 876 L459 876 Q457 855 449 829.5 Q441 804 424 782 Q407 760 379 745.5 Q351 731 309 731 Z " />
<glyph glyph-name="ebreve" unicode="&#x115;" horiz-adv-x="507" d="M154 215 Q154 192 160 170.5 Q166 149 179 132.5 Q192 116 212 106 Q232 96 259 96 Q281 96 314.5 106.5 Q348 117 376 143 Q394 123 409 103.5 Q424 84 442 64 Q400 26 351 10 Q302 -6 255 -6 Q216 -6 177 5 Q138 16 107 44.5 Q76 73 56.5 121.5 Q37 170 37 246 Q37 318 56.5 366.5 Q76 415 107 445 Q138 475 176.5 488 Q215 501 253 501 Q303 501 342.5 484 Q382 467 409.5 436.5 Q437 406 451.5 362 Q466 318 466 264 L466 215 L154 215 Z M252 398 Q213 398 187 371 Q161 344 156 295 L346 295 Q343 346 316.5 372 Q290 398 252 398 Z M258 564 Q216 564 188 579 Q160 594 142.5 616 Q125 638 117 663.5 Q109 689 108 710 L195 710 Q195 700 199.5 688.5 Q204 677 212 667 Q220 657 231.5 650.5 Q243 644 258 644 Q274 644 286 650.5 Q298 657 306 667 Q314 677 318 688.5 Q322 700 322 710 L408 710 Q406 689 398 663.5 Q390 638 373 616 Q356 594 328 579 Q300 564 258 564 Z " />
<glyph glyph-name="Edotaccent" unicode="&#x116;" horiz-adv-x="564" d="M73 0 L73 696 L539 696 L539 586 L194 586 L194 404 L488 404 L488 298 L194 298 L194 110 L539 110 L539 0 L73 0 Z M245 758 L245 867 L363 867 L363 758 L245 758 Z " />
<glyph glyph-name="edotaccent" unicode="&#x117;" horiz-adv-x="507" d="M154 215 Q154 192 160 170.5 Q166 149 179 132.5 Q192 116 212 106 Q232 96 259 96 Q281 96 314.5 106.5 Q348 117 376 143 Q394 123 409 103.5 Q424 84 442 64 Q400 26 351 10 Q302 -6 255 -6 Q216 -6 177 5 Q138 16 107 44.5 Q76 73 56.5 121.5 Q37 170 37 246 Q37 318 56.5 366.5 Q76 415 107 445 Q138 475 176.5 488 Q215 501 253 501 Q303 501 342.5 484 Q382 467 409.5 436.5 Q437 406 451.5 362 Q466 318 466 264 L466 215 L154 215 Z M252 398 Q213 398 187 371 Q161 344 156 295 L346 295 Q343 346 316.5 372 Q290 398 252 398 Z M200 583 L200 692 L318 692 L318 583 L200 583 Z " />
<glyph glyph-name="Eogonek" unicode="&#x118;" horiz-adv-x="564" d="M422 -98 Q422 -77 430.5 -54.5 Q439 -32 462 0 L73 0 L73 696 L539 696 L539 586 L194 586 L194 404 L488 404 L488 298 L194 298 L194 110 L539 110 L539 0 Q519 -28 510 -47.5 Q501 -67 501 -83 Q501 -118 541 -118 Q552 -118 567 -115 Q582 -112 602 -104 L625 -164 Q605 -176 579.5 -183.5 Q554 -191 528 -191 Q481 -191 451.5 -163.5 Q422 -136 422 -98 Z " />
<glyph glyph-name="eogonek" unicode="&#x119;" horiz-adv-x="507" d="M277 -68 Q277 -53 281 -37.5 Q285 -22 296 -3 Q275 -6 255 -6 Q216 -6 177 5 Q138 16 107 44.5 Q76 73 56.5 121.5 Q37 170 37 246 Q37 318 56.5 366.5 Q76 415 107 445 Q138 475 176.5 488 Q215 501 253 501 Q303 501 342.5 484 Q382 467 409.5 436.5 Q437 406 451.5 362 Q466 318 466 264 L466 215 L154 215 Q154 192 160 170.5 Q166 149 179 132.5 Q192 116 212 106 Q232 96 259 96 Q281 96 314.5 106.5 Q348 117 376 143 Q394 123 409 103.5 Q424 84 442 64 Q430 53 418 44.5 Q406 36 393 28 Q373 2 364.5 -17.5 Q356 -37 356 -53 Q356 -88 396 -88 Q407 -88 422 -85 Q437 -82 457 -74 L480 -134 Q460 -146 434.5 -153.5 Q409 -161 383 -161 Q336 -161 306.5 -133.5 Q277 -106 277 -68 Z M252 398 Q213 398 187 371 Q161 344 156 295 L346 295 Q343 346 316.5 372 Q290 398 252 398 Z " />
<glyph glyph-name="Ecaron" unicode="&#x11a;" horiz-adv-x="564" d="M73 0 L73 696 L539 696 L539 586 L194 586 L194 404 L488 404 L488 298 L194 298 L194 110 L539 110 L539 0 L73 0 Z M447 908 L488 859 L341 735 L265 735 L115 860 L154 908 L301 826 L447 908 Z " />
<glyph glyph-name="ecaron" unicode="&#x11b;" horiz-adv-x="507" d="M154 215 Q154 192 160 170.5 Q166 149 179 132.5 Q192 116 212 106 Q232 96 259 96 Q281 96 314.5 106.5 Q348 117 376 143 Q394 123 409 103.5 Q424 84 442 64 Q400 26 351 10 Q302 -6 255 -6 Q216 -6 177 5 Q138 16 107 44.5 Q76 73 56.5 121.5 Q37 170 37 246 Q37 318 56.5 366.5 Q76 415 107 445 Q138 475 176.5 488 Q215 501 253 501 Q303 501 342.5 484 Q382 467 409.5 436.5 Q437 406 451.5 362 Q466 318 466 264 L466 215 L154 215 Z M252 398 Q213 398 187 371 Q161 344 156 295 L346 295 Q343 346 316.5 372 Q290 398 252 398 Z M396 734 L444 690 L298 537 L220 537 L71 691 L117 734 Q126 728 146 713 Q166 698 187.5 681.5 Q209 665 228.5 650 Q248 635 257 629 L396 734 Z " />
<glyph glyph-name="Gcircumflex" unicode="&#x11c;" horiz-adv-x="618" d="M308 104 Q338 104 363.5 115.5 Q389 127 407.5 146.5 Q426 166 437 192 Q448 218 448 246 L448 276 L303 276 L303 380 L568 380 L568 243 Q568 189 548 143.5 Q528 98 493.5 64.5 Q459 31 411 12.5 Q363 -6 308 -6 Q242 -6 193.5 14.5 Q145 35 113 70.5 Q81 106 65.5 154.5 Q50 203 50 259 L50 437 Q50 489 65.5 537 Q81 585 112.5 621.5 Q144 658 192 679.5 Q240 701 305 701 Q397 701 460 656.5 Q523 612 549 539 L435 494 Q422 535 388.5 560.5 Q355 586 304 586 Q269 586 244 574 Q219 562 203 541.5 Q187 521 179 495 Q171 469 171 442 L171 254 Q171 226 179.5 199 Q188 172 205 151 Q222 130 247.5 117 Q273 104 308 104 Z M304 815 L157 733 L119 781 L268 905 L344 905 L491 782 L451 733 L304 815 Z " />
<glyph glyph-name="gcircumflex" unicode="&#x11d;" horiz-adv-x="522" d="M456 495 L456 20 Q456 -43 439.5 -85.5 Q423 -128 394 -154 Q365 -180 324.5 -191.5 Q284 -203 235 -203 Q217 -203 195 -200 Q173 -197 150 -190 Q127 -183 104.5 -171.5 Q82 -160 63 -143 L122 -60 Q147 -78 177.5 -89 Q208 -100 244 -100 Q291 -100 318.5 -74 Q346 -48 346 2 L346 48 L344 48 Q320 20 288 7.5 Q256 -5 225 -5 Q168 -5 132 17 Q96 39 76.5 73.5 Q57 108 50 151 Q43 194 43 236 Q43 280 49 326.5 Q55 373 74.5 411.5 Q94 450 130.5 475 Q167 500 228 500 Q260 500 291 488 Q322 476 343 450 L345 450 L345 495 L456 495 Z M158 247 Q158 220 160.5 194 Q163 168 172.5 147 Q182 126 201 113.5 Q220 101 252 101 Q283 101 301.5 115 Q320 129 329.5 150.5 Q339 172 342 197.5 Q345 223 345 247 Q345 268 343 294 Q341 320 332 342 Q323 364 304.5 379 Q286 394 253 394 Q220 394 201.5 380 Q183 366 173 344.5 Q163 323 160.5 297 Q158 271 158 247 Z M258 642 Q249 636 229.5 621 Q210 606 188.5 589.5 Q167 573 147 558 Q127 543 118 537 L72 580 L221 734 L299 734 L445 581 L397 537 L258 642 Z " />
<glyph glyph-name="Gbreve" unicode="&#x11e;" horiz-adv-x="618" d="M308 104 Q338 104 363.5 115.5 Q389 127 407.5 146.5 Q426 166 437 192 Q448 218 448 246 L448 276 L303 276 L303 380 L568 380 L568 243 Q568 189 548 143.5 Q528 98 493.5 64.5 Q459 31 411 12.5 Q363 -6 308 -6 Q242 -6 193.5 14.5 Q145 35 113 70.5 Q81 106 65.5 154.5 Q50 203 50 259 L50 437 Q50 489 65.5 537 Q81 585 112.5 621.5 Q144 658 192 679.5 Q240 701 305 701 Q397 701 460 656.5 Q523 612 549 539 L435 494 Q422 535 388.5 560.5 Q355 586 304 586 Q269 586 244 574 Q219 562 203 541.5 Q187 521 179 495 Q171 469 171 442 L171 254 Q171 226 179.5 199 Q188 172 205 151 Q222 130 247.5 117 Q273 104 308 104 Z M308 731 Q266 731 238 745.5 Q210 760 192.5 782 Q175 804 167 829.5 Q159 855 158 876 L245 876 Q245 866 249.5 854.5 Q254 843 262 833.5 Q270 824 281.5 817.5 Q293 811 308 811 Q324 811 336 817.5 Q348 824 356 833.5 Q364 843 368 854.5 Q372 866 372 876 L458 876 Q456 855 448 829.5 Q440 804 423 782 Q406 760 378 745.5 Q350 731 308 731 Z " />
<glyph glyph-name="gbreve" unicode="&#x11f;" horiz-adv-x="522" d="M456 495 L456 20 Q456 -43 439.5 -85.5 Q423 -128 394 -154 Q365 -180 324.5 -191.5 Q284 -203 235 -203 Q217 -203 195 -200 Q173 -197 150 -190 Q127 -183 104.5 -171.5 Q82 -160 63 -143 L122 -60 Q147 -78 177.5 -89 Q208 -100 244 -100 Q291 -100 318.5 -74 Q346 -48 346 2 L346 48 L344 48 Q320 20 288 7.5 Q256 -5 225 -5 Q168 -5 132 17 Q96 39 76.5 73.5 Q57 108 50 151 Q43 194 43 236 Q43 280 49 326.5 Q55 373 74.5 411.5 Q94 450 130.5 475 Q167 500 228 500 Q260 500 291 488 Q322 476 343 450 L345 450 L345 495 L456 495 Z M158 247 Q158 220 160.5 194 Q163 168 172.5 147 Q182 126 201 113.5 Q220 101 252 101 Q283 101 301.5 115 Q320 129 329.5 150.5 Q339 172 342 197.5 Q345 223 345 247 Q345 268 343 294 Q341 320 332 342 Q323 364 304.5 379 Q286 394 253 394 Q220 394 201.5 380 Q183 366 173 344.5 Q163 323 160.5 297 Q158 271 158 247 Z M268 564 Q226 564 198 579 Q170 594 152.5 616 Q135 638 127 663.5 Q119 689 118 710 L205 710 Q205 700 209.5 688.5 Q214 677 222 667 Q230 657 241.5 650.5 Q253 644 268 644 Q284 644 296 650.5 Q308 657 316 667 Q324 677 328 688.5 Q332 700 332 710 L418 710 Q416 689 408 663.5 Q400 638 383 616 Q366 594 338 579 Q310 564 268 564 Z " />
<glyph glyph-name="Gdotaccent" unicode="&#x120;" horiz-adv-x="618" d="M308 104 Q338 104 363.5 115.5 Q389 127 407.5 146.5 Q426 166 437 192 Q448 218 448 246 L448 276 L303 276 L303 380 L568 380 L568 243 Q568 189 548 143.5 Q528 98 493.5 64.5 Q459 31 411 12.5 Q363 -6 308 -6 Q242 -6 193.5 14.5 Q145 35 113 70.5 Q81 106 65.5 154.5 Q50 203 50 259 L50 437 Q50 489 65.5 537 Q81 585 112.5 621.5 Q144 658 192 679.5 Q240 701 305 701 Q397 701 460 656.5 Q523 612 549 539 L435 494 Q422 535 388.5 560.5 Q355 586 304 586 Q269 586 244 574 Q219 562 203 541.5 Q187 521 179 495 Q171 469 171 442 L171 254 Q171 226 179.5 199 Q188 172 205 151 Q222 130 247.5 117 Q273 104 308 104 Z M250 758 L250 867 L368 867 L368 758 L250 758 Z " />
<glyph glyph-name="gdotaccent" unicode="&#x121;" horiz-adv-x="522" d="M456 495 L456 20 Q456 -43 439.5 -85.5 Q423 -128 394 -154 Q365 -180 324.5 -191.5 Q284 -203 235 -203 Q217 -203 195 -200 Q173 -197 150 -190 Q127 -183 104.5 -171.5 Q82 -160 63 -143 L122 -60 Q147 -78 177.5 -89 Q208 -100 244 -100 Q291 -100 318.5 -74 Q346 -48 346 2 L346 48 L344 48 Q320 20 288 7.5 Q256 -5 225 -5 Q168 -5 132 17 Q96 39 76.5 73.5 Q57 108 50 151 Q43 194 43 236 Q43 280 49 326.5 Q55 373 74.5 411.5 Q94 450 130.5 475 Q167 500 228 500 Q260 500 291 488 Q322 476 343 450 L345 450 L345 495 L456 495 Z M158 247 Q158 220 160.5 194 Q163 168 172.5 147 Q182 126 201 113.5 Q220 101 252 101 Q283 101 301.5 115 Q320 129 329.5 150.5 Q339 172 342 197.5 Q345 223 345 247 Q345 268 343 294 Q341 320 332 342 Q323 364 304.5 379 Q286 394 253 394 Q220 394 201.5 380 Q183 366 173 344.5 Q163 323 160.5 297 Q158 271 158 247 Z M213 583 L213 692 L331 692 L331 583 L213 583 Z " />
<glyph glyph-name="Gcommaaccent" unicode="&#x122;" horiz-adv-x="618" d="M308 104 Q338 104 363.5 115.5 Q389 127 407.5 146.5 Q426 166 437 192 Q448 218 448 246 L448 276 L303 276 L303 380 L568 380 L568 243 Q568 189 548 143.5 Q528 98 493.5 64.5 Q459 31 411 12.5 Q363 -6 308 -6 Q242 -6 193.5 14.5 Q145 35 113 70.5 Q81 106 65.5 154.5 Q50 203 50 259 L50 437 Q50 489 65.5 537 Q81 585 112.5 621.5 Q144 658 192 679.5 Q240 701 305 701 Q397 701 460 656.5 Q523 612 549 539 L435 494 Q422 535 388.5 560.5 Q355 586 304 586 Q269 586 244 574 Q219 562 203 541.5 Q187 521 179 495 Q171 469 171 442 L171 254 Q171 226 179.5 199 Q188 172 205 151 Q222 130 247.5 117 Q273 104 308 104 Z M234 -285 L271 -187 L237 -187 L237 -56 L366 -56 L366 -182 L293 -285 L234 -285 Z " />
<glyph glyph-name="gcommaaccent" unicode="&#x123;" horiz-adv-x="522" d="M206 701 Q225 727 242.5 752.5 Q260 778 279 804 L338 804 Q328 780 319 755.5 Q310 731 301 706 L335 706 L335 575 L206 575 L206 701 Z M456 495 L456 20 Q456 -43 439.5 -85.5 Q423 -128 394 -154 Q365 -180 324.5 -191.5 Q284 -203 235 -203 Q217 -203 195 -200 Q173 -197 150 -190 Q127 -183 104.5 -171.5 Q82 -160 63 -143 L122 -60 Q147 -78 177.5 -89 Q208 -100 244 -100 Q291 -100 318.5 -74 Q346 -48 346 2 L346 48 L344 48 Q320 20 288 7.5 Q256 -5 225 -5 Q168 -5 132 17 Q96 39 76.5 73.5 Q57 108 50 151 Q43 194 43 236 Q43 280 49 326.5 Q55 373 74.5 411.5 Q94 450 130.5 475 Q167 500 228 500 Q260 500 291 488 Q322 476 343 450 L345 450 L345 495 L456 495 Z M158 247 Q158 220 160.5 194 Q163 168 172.5 147 Q182 126 201 113.5 Q220 101 252 101 Q283 101 301.5 115 Q320 129 329.5 150.5 Q339 172 342 197.5 Q345 223 345 247 Q345 268 343 294 Q341 320 332 342 Q323 364 304.5 379 Q286 394 253 394 Q220 394 201.5 380 Q183 366 173 344.5 Q163 323 160.5 297 Q158 271 158 247 Z " />
<glyph glyph-name="Hcircumflex" unicode="&#x124;" horiz-adv-x="655" d="M462 0 L462 298 L194 298 L194 0 L73 0 L73 696 L194 696 L194 404 L462 404 L462 696 L582 696 L582 0 L462 0 Z M324 815 L177 733 L139 781 L288 905 L364 905 L511 782 L471 733 L324 815 Z " />
<glyph glyph-name="hcircumflex" unicode="&#x125;" horiz-adv-x="529" d="M357 0 L357 294 Q357 342 335.5 368 Q314 394 268 394 Q227 394 199 368 Q171 342 171 294 L171 0 L58 0 L58 726 L171 726 L171 447 L174 447 Q197 472 232 486 Q267 500 301 500 Q336 500 367 489 Q398 478 421 456 Q444 434 457 401 Q470 368 470 325 L470 0 L357 0 Z M111 815 L-36 733 L-74 781 L75 905 L151 905 L298 782 L258 733 L111 815 Z " />
<glyph glyph-name="Hbar" unicode="&#x126;" horiz-adv-x="655" d="M462 0 L462 298 L194 298 L194 0 L73 0 L73 518 L23 518 L23 595 L73 595 L73 696 L194 696 L194 595 L462 595 L462 696 L582 696 L582 595 L633 595 L633 518 L582 518 L582 0 L462 0 Z M462 404 L462 518 L194 518 L194 404 L462 404 Z " />
<glyph glyph-name="hbar" unicode="&#x127;" horiz-adv-x="551" d="M381 0 L381 284 Q381 332 359.5 357.5 Q338 383 292 383 Q250 383 222.5 355 Q195 327 195 279 L195 0 L82 0 L82 561 L14 561 L14 641 L82 641 L82 726 L195 726 L195 641 L394 641 L394 561 L195 561 L195 437 L198 436 Q221 461 257.5 475.5 Q294 490 331 490 Q366 490 396 479 Q426 468 447.5 446 Q469 424 481.5 391 Q494 358 494 315 L494 0 L381 0 Z " />
<glyph glyph-name="Itilde" unicode="&#x128;" horiz-adv-x="268" d="M74 0 L74 696 L196 696 L196 0 L74 0 Z M63 875 Q82 875 100.5 867.5 Q119 860 136 851 Q153 842 168.5 834.5 Q184 827 196 827 Q213 827 228 838 Q243 849 260 874 L320 839 Q296 787 268 763.5 Q240 740 206 740 Q187 740 168.5 747 Q150 754 132.5 763 Q115 772 98.5 779 Q82 786 68 786 Q51 786 35 776.5 Q19 767 -1 741 L-58 774 Q-35 822 -5 848.5 Q25 875 63 875 Z " />
<glyph glyph-name="itilde" unicode="&#x129;" horiz-adv-x="338" d="M109 0 L109 495 L224 495 L224 0 L109 0 Z M101 705 Q120 705 138.5 697.5 Q157 690 174 681 Q191 672 206.5 664.5 Q222 657 234 657 Q251 657 266 668 Q281 679 298 704 L358 669 Q334 617 306 593.5 Q278 570 244 570 Q225 570 206.5 577 Q188 584 170.5 593 Q153 602 136.5 609 Q120 616 106 616 Q89 616 73 606.5 Q57 597 37 571 L-20 604 Q3 652 33 678.5 Q63 705 101 705 Z " />
<glyph glyph-name="Imacron" unicode="&#x12a;" horiz-adv-x="268" d="M74 0 L74 696 L196 696 L196 0 L74 0 Z M-16 769 L-16 866 L285 866 L285 769 L-16 769 Z " />
<glyph glyph-name="imacron" unicode="&#x12b;" horiz-adv-x="269" d="M78 0 L78 495 L193 495 L193 0 L78 0 Z M-17 589 L-17 686 L284 686 L284 589 L-17 589 Z " />
<glyph glyph-name="Ibreve" unicode="&#x12c;" horiz-adv-x="268" d="M136 731 Q94 731 66 745.5 Q38 760 20.5 782 Q3 804 -5 829.5 Q-13 855 -14 876 L73 876 Q73 866 77.5 854.5 Q82 843 90 833.5 Q98 824 109.5 817.5 Q121 811 136 811 Q152 811 164 817.5 Q176 824 184 833.5 Q192 843 196 854.5 Q200 866 200 876 L286 876 Q284 855 276 829.5 Q268 804 251 782 Q234 760 206 745.5 Q178 731 136 731 Z M74 0 L74 696 L196 696 L196 0 L74 0 Z " />
<glyph glyph-name="ibreve" unicode="&#x12d;" horiz-adv-x="272" d="M81 0 L81 495 L196 495 L196 0 L81 0 Z M139 570 Q97 570 69 585 Q41 600 23.5 622 Q6 644 -2 669.5 Q-10 695 -11 716 L76 716 Q76 706 80.5 694.5 Q85 683 93 673 Q101 663 112.5 656.5 Q124 650 139 650 Q155 650 167 656.5 Q179 663 187 673 Q195 683 199 694.5 Q203 706 203 716 L289 716 Q287 695 279 669.5 Q271 644 254 622 Q237 600 209 585 Q181 570 139 570 Z " />
<glyph glyph-name="Iogonek" unicode="&#x12e;" horiz-adv-x="268" d="M49 -98 Q49 -77 57.5 -54.5 Q66 -32 89 0 L74 0 L74 696 L196 696 L196 0 L166 0 Q146 -28 137 -47.5 Q128 -67 128 -83 Q128 -118 168 -118 Q179 -118 194 -115 Q209 -112 229 -104 L252 -164 Q232 -176 206.5 -183.5 Q181 -191 155 -191 Q108 -191 78.5 -163.5 Q49 -136 49 -98 Z " />
<glyph glyph-name="iogonek" unicode="&#x12f;" horiz-adv-x="247" d="M40 -97 Q40 -77 48.5 -54.5 Q57 -32 79 0 L67 0 L67 495 L180 495 L180 0 L156 0 Q136 -27 127.5 -46.5 Q119 -66 119 -82 Q119 -117 159 -117 Q170 -117 185 -114 Q200 -111 220 -103 L243 -163 Q223 -175 197.5 -182.5 Q172 -190 146 -190 Q99 -190 69.5 -162.5 Q40 -135 40 -97 Z M67 592 L67 696 L180 696 L180 592 L67 592 Z " />
<glyph glyph-name="Idotaccent" unicode="&#x130;" horiz-adv-x="268" d="M74 0 L74 696 L196 696 L196 0 L74 0 Z M75 758 L75 867 L193 867 L193 758 L75 758 Z " />
<glyph glyph-name="dotlessi" unicode="&#x131;" horiz-adv-x="235" d="M60 0 L60 495 L175 495 L175 0 L60 0 Z " />
<glyph glyph-name="IJ" unicode="&#x132;" horiz-adv-x="732" d="M74 0 L74 696 L196 696 L196 0 L74 0 Z M667 224 Q667 159 648 115 Q629 71 597.5 44.5 Q566 18 524.5 6.5 Q483 -5 438 -5 Q381 -5 333 17 Q285 39 248 81 L334 160 Q356 137 383 121.5 Q410 106 435 106 Q456 106 475.5 110.5 Q495 115 511 128.5 Q527 142 536.5 166 Q546 190 546 228 L546 696 L667 696 L667 224 Z " />
<glyph glyph-name="ij" unicode="&#x133;" horiz-adv-x="486" d="M67 592 L67 696 L180 696 L180 592 L67 592 Z M67 0 L67 495 L180 495 L180 0 L67 0 Z M297 592 L297 696 L411 696 L411 592 L297 592 Z M411 -59 Q411 -123 374.5 -162 Q338 -201 265 -201 L213 -201 L213 -101 L241 -101 Q273 -101 285 -84.5 Q297 -68 297 -42 L297 496 L411 496 L411 -59 Z " />
<glyph glyph-name="Jcircumflex" unicode="&#x134;" horiz-adv-x="489" d="M424 225 Q424 160 405 116 Q386 72 354.5 45.5 Q323 19 281.5 7.5 Q240 -4 195 -4 Q138 -4 90 18 Q42 40 5 82 L91 161 Q113 138 140 122.5 Q167 107 192 107 Q213 107 232.5 111.5 Q252 116 268 129.5 Q284 143 293.5 167 Q303 191 303 229 L303 697 L424 697 L424 225 Z M362 817 L215 735 L177 783 L326 907 L402 907 L549 784 L509 735 L362 817 Z " />
<glyph glyph-name="jcircumflex" unicode="&#x135;" horiz-adv-x="325" d="M220 -59 Q220 -91 208.5 -117 Q197 -143 177 -162 Q157 -181 128.5 -191 Q100 -201 67 -201 L22 -201 L22 -101 Q23 -101 28 -101 Q33 -101 38.5 -101 Q44 -101 49 -101 Q54 -101 54 -101 Q83 -100 95 -80.5 Q107 -61 107 -38 L107 496 L220 496 L220 -59 Z M161 642 Q152 636 132 621 Q112 606 90.5 589.5 Q69 573 49.5 558 Q30 543 21 537 L-25 580 L123 734 L202 734 L347 581 L299 537 L161 642 Z " />
<glyph glyph-name="kcommaaccent" unicode="&#x137;" horiz-adv-x="520" d="M391 0 Q354 56 318.5 111 Q283 166 246 222 Q229 203 211 184.5 Q193 166 176 146 L176 0 L64 0 L64 726 L176 726 L176 291 L179 291 L275 401 L361 495 L499 495 L320 302 Q371 226 421.5 150.5 Q472 75 523 0 L391 0 Z M208 -285 L245 -187 L211 -187 L211 -56 L340 -56 L340 -182 L267 -285 L208 -285 Z " />
<glyph glyph-name="kgreenlandic" unicode="&#x138;" horiz-adv-x="520" d="M389 0 Q352 56 317.5 111 Q283 166 246 222 Q229 203 211 184.5 Q193 166 176 146 L176 0 L64 0 L64 495 L176 495 L176 291 L179 291 L275 399 L362 495 L499 495 L320 302 Q371 226 421.5 150.5 Q472 75 523 0 L389 0 Z " />
<glyph glyph-name="Lacute" unicode="&#x139;" horiz-adv-x="564" d="M73 0 L73 696 L194 696 L194 110 L539 110 L539 0 L73 0 Z M84 791 L249 916 L323 832 L131 735 L84 791 Z " />
<glyph glyph-name="lacute" unicode="&#x13a;" horiz-adv-x="265" d="M202 0 Q173 0 148 6 Q123 12 104 27 Q85 42 74.5 67.5 Q64 93 64 131 L64 726 L177 726 L177 148 Q177 120 189.5 110 Q202 100 225 100 L245 100 L245 0 L202 0 Z M66 800 L231 925 L305 841 L113 744 L66 800 Z " />
<glyph glyph-name="Lcommaaccent" unicode="&#x13b;" horiz-adv-x="564" d="M73 0 L73 696 L194 696 L194 110 L539 110 L539 0 L73 0 Z M246 -285 L283 -187 L249 -187 L249 -56 L378 -56 L378 -182 L305 -285 L246 -285 Z " />
<glyph glyph-name="lcommaaccent" unicode="&#x13c;" horiz-adv-x="265" d="M202 0 Q173 0 148 6 Q123 12 104 27 Q85 42 74.5 67.5 Q64 93 64 131 L64 726 L177 726 L177 148 Q177 120 189.5 110 Q202 100 225 100 L245 100 L245 0 L202 0 Z M86 -283 L123 -185 L89 -185 L89 -54 L218 -54 L218 -180 L145 -283 L86 -283 Z " />
<glyph glyph-name="Lcaron" unicode="&#x13d;" horiz-adv-x="564" d="M73 0 L73 696 L194 696 L194 110 L539 110 L539 0 L73 0 Z M325 467 L362 565 L328 565 L328 696 L457 696 L457 570 L384 467 L325 467 Z " />
<glyph glyph-name="lcaron" unicode="&#x13e;" horiz-adv-x="374" d="M245 496 L282 594 L248 594 L248 725 L377 725 L377 599 L304 496 L245 496 Z M202 0 Q173 0 148 6 Q123 12 104 27 Q85 42 74.5 67.5 Q64 93 64 131 L64 726 L177 726 L177 148 Q177 120 189.5 110 Q202 100 225 100 L245 100 L245 0 L202 0 Z " />
<glyph glyph-name="Ldot" unicode="&#x13f;" horiz-adv-x="564" d="M73 0 L73 696 L194 696 L194 110 L539 110 L539 0 L73 0 Z M322 307 L322 416 L440 416 L440 307 L322 307 Z " />
<glyph glyph-name="ldot" unicode="&#x140;" horiz-adv-x="371" d="M252 324 L252 433 L370 433 L370 324 L252 324 Z M202 0 Q173 0 148 6 Q123 12 104 27 Q85 42 74.5 67.5 Q64 93 64 131 L64 726 L177 726 L177 148 Q177 120 189.5 110 Q202 100 225 100 L245 100 L245 0 L202 0 Z " />
<glyph glyph-name="Lslash" unicode="&#x141;" horiz-adv-x="596" d="M104 0 L104 224 L38 186 L-4 259 L104 322 L104 696 L225 696 L225 392 L333 455 L375 382 L225 295 L225 110 L570 110 L570 0 L104 0 Z " />
<glyph glyph-name="lslash" unicode="&#x142;" horiz-adv-x="343" d="M248 0 Q219 0 194 6 Q169 12 150 27 Q131 42 120.5 67.5 Q110 93 110 131 L110 274 L42 235 L0 308 L110 371 L110 726 L223 726 L223 436 L302 482 L343 409 L223 339 L223 148 Q223 120 235.5 110 Q248 100 271 100 L291 100 L291 0 L248 0 Z " />
<glyph glyph-name="Nacute" unicode="&#x143;" horiz-adv-x="692" d="M509 0 L294 324 L197 483 L194 482 L194 0 L73 0 L73 696 L185 696 L380 400 L498 212 L500 214 L500 696 L621 696 L621 0 L509 0 Z M256 791 L421 916 L495 832 L303 735 L256 791 Z " />
<glyph glyph-name="nacute" unicode="&#x144;" horiz-adv-x="529" d="M357 0 L357 294 Q357 342 335.5 368 Q314 394 266 394 Q225 394 198 368 Q171 342 171 294 L171 0 L58 0 L58 496 L171 496 L171 444 L173 444 Q197 471 232.5 485.5 Q268 500 302 500 Q378 500 424 456.5 Q470 413 470 325 L470 0 L357 0 Z M188 569 L267 759 L374 725 L256 544 L188 569 Z " />
<glyph glyph-name="Ncommaaccent" unicode="&#x145;" horiz-adv-x="692" d="M509 0 L294 324 L197 483 L194 482 L194 0 L73 0 L73 696 L185 696 L380 400 L498 212 L500 214 L500 696 L621 696 L621 0 L509 0 Z M279 -265 L316 -167 L282 -167 L282 -36 L411 -36 L411 -162 L338 -265 L279 -265 Z " />
<glyph glyph-name="ncommaaccent" unicode="&#x146;" horiz-adv-x="529" d="M357 0 L357 294 Q357 342 335.5 368 Q314 394 266 394 Q225 394 198 368 Q171 342 171 294 L171 0 L58 0 L58 496 L171 496 L171 444 L173 444 Q197 471 232.5 485.5 Q268 500 302 500 Q378 500 424 456.5 Q470 413 470 325 L470 0 L357 0 Z M196 -285 L233 -187 L199 -187 L199 -56 L328 -56 L328 -182 L255 -285 L196 -285 Z " />
<glyph glyph-name="Ncaron" unicode="&#x147;" horiz-adv-x="692" d="M509 0 L294 324 L197 483 L194 482 L194 0 L73 0 L73 696 L185 696 L380 400 L498 212 L500 214 L500 696 L621 696 L621 0 L509 0 Z M490 908 L531 859 L384 735 L308 735 L158 860 L197 908 L344 826 L490 908 Z " />
<glyph glyph-name="ncaron" unicode="&#x148;" horiz-adv-x="529" d="M357 0 L357 294 Q357 342 335.5 368 Q314 394 266 394 Q225 394 198 368 Q171 342 171 294 L171 0 L58 0 L58 496 L171 496 L171 444 L173 444 Q197 471 232.5 485.5 Q268 500 302 500 Q378 500 424 456.5 Q470 413 470 325 L470 0 L357 0 Z M396 734 L444 690 L298 537 L220 537 L71 691 L117 734 Q126 728 146 713 Q166 698 187.5 681.5 Q209 665 228.5 650 Q248 635 257 629 L396 734 Z " />
<glyph glyph-name="napostrophe" unicode="&#x149;" horiz-adv-x="624" d="M452 0 L452 294 Q452 342 430.5 368 Q409 394 361 394 Q320 394 293 368 Q266 342 266 294 L266 0 L153 0 L153 496 L266 496 L266 444 L268 444 Q292 471 327.5 485.5 Q363 500 397 500 Q473 500 519 456.5 Q565 413 565 325 L565 0 L452 0 Z M-6 442 L31 540 L-3 540 L-3 671 L126 671 L126 545 L53 442 L-6 442 Z " />
<glyph glyph-name="Eng" unicode="&#x14a;" horiz-adv-x="692" d="M621 -69 Q621 -124 589 -154 Q557 -184 502 -184 Q479 -184 454 -178.5 Q429 -173 404 -161 L431 -83 Q445 -87 455.5 -89 Q466 -91 475 -91 Q492 -91 500.5 -82 Q509 -73 509 -51 L509 1 L294 324 L197 483 L194 482 L194 0 L73 0 L73 696 L185 696 L380 400 L498 212 L500 214 L500 696 L621 696 L621 -69 Z " />
<glyph glyph-name="eng" unicode="&#x14b;" horiz-adv-x="529" d="M470 -69 Q470 -124 437.5 -154 Q405 -184 351 -184 Q328 -184 303 -178.5 Q278 -173 253 -161 L279 -83 Q308 -91 324 -91 Q341 -91 349 -82 Q357 -73 357 -51 L357 294 Q357 342 333.5 367.5 Q310 393 265 393 Q224 393 197.5 367 Q171 341 171 294 L171 0 L58 0 L58 495 L171 495 L171 445 L174 445 Q198 472 231.5 486 Q265 500 299 500 Q336 500 367.5 488.5 Q399 477 421.5 455 Q444 433 457 400.5 Q470 368 470 326 L470 -69 L470 -69 Z " />
<glyph glyph-name="Omacron" unicode="&#x14c;" horiz-adv-x="610" d="M304 701 Q364 701 412 681 Q460 661 494 626 Q528 591 546 542.5 Q564 494 564 437 L564 259 Q564 198 545.5 149 Q527 100 493 65.5 Q459 31 411 12.5 Q363 -6 304 -6 Q239 -6 190 15.5 Q141 37 109 73.5 Q77 110 61 158 Q45 206 45 259 L45 437 Q45 489 61 537 Q77 585 109 621.5 Q141 658 190 679.5 Q239 701 304 701 Z M304 587 Q269 587 243.5 575 Q218 563 201 542.5 Q184 522 175.5 496 Q167 470 167 443 L167 256 Q167 227 175.5 200.5 Q184 174 201 153 Q218 132 243.5 119.5 Q269 107 304 107 Q336 107 361.5 118.5 Q387 130 404.5 150 Q422 170 431.5 197 Q441 224 441 256 L441 443 Q441 473 431.5 499 Q422 525 404.5 544.5 Q387 564 361.5 575.5 Q336 587 304 587 Z M159 769 L159 866 L460 866 L460 769 L159 769 Z " />
<glyph glyph-name="omacron" unicode="&#x14d;" horiz-adv-x="515" d="M264 501 Q320 501 364.5 479.5 Q409 458 436 418 Q455 389 464 347.5 Q473 306 472 255 Q472 198 463.5 157.5 Q455 117 438 87 Q409 40 360 16.5 Q311 -7 252 -7 Q196 -7 152 12 Q108 31 81 71 Q40 132 42 247 Q42 287 47.5 323 Q53 359 67 387 Q93 442 144.5 471.5 Q196 501 264 501 Z M260 399 Q231 399 208 384 Q185 369 173 343 Q164 323 160.5 299 Q157 275 156 246 Q156 217 159 193 Q162 169 171 151 Q182 125 204 110.5 Q226 96 255 96 Q287 96 312 113.5 Q337 131 348 167 Q353 181 355 202 Q357 223 357 255 Q357 313 344 342 Q333 371 310.5 385 Q288 399 260 399 Z M110 589 L110 686 L411 686 L411 589 L110 589 Z " />
<glyph glyph-name="Obreve" unicode="&#x14e;" horiz-adv-x="610" d="M304 701 Q364 701 412 681 Q460 661 494 626 Q528 591 546 542.5 Q564 494 564 437 L564 259 Q564 198 545.5 149 Q527 100 493 65.5 Q459 31 411 12.5 Q363 -6 304 -6 Q239 -6 190 15.5 Q141 37 109 73.5 Q77 110 61 158 Q45 206 45 259 L45 437 Q45 489 61 537 Q77 585 109 621.5 Q141 658 190 679.5 Q239 701 304 701 Z M304 587 Q269 587 243.5 575 Q218 563 201 542.5 Q184 522 175.5 496 Q167 470 167 443 L167 256 Q167 227 175.5 200.5 Q184 174 201 153 Q218 132 243.5 119.5 Q269 107 304 107 Q336 107 361.5 118.5 Q387 130 404.5 150 Q422 170 431.5 197 Q441 224 441 256 L441 443 Q441 473 431.5 499 Q422 525 404.5 544.5 Q387 564 361.5 575.5 Q336 587 304 587 Z M306 731 Q264 731 236 745.5 Q208 760 190.5 782 Q173 804 165 829.5 Q157 855 156 876 L243 876 Q243 866 247.5 854.5 Q252 843 260 833.5 Q268 824 279.5 817.5 Q291 811 306 811 Q322 811 334 817.5 Q346 824 354 833.5 Q362 843 366 854.5 Q370 866 370 876 L456 876 Q454 855 446 829.5 Q438 804 421 782 Q404 760 376 745.5 Q348 731 306 731 Z " />
<glyph glyph-name="obreve" unicode="&#x14f;" horiz-adv-x="515" d="M264 501 Q320 501 364.5 479.5 Q409 458 436 418 Q455 389 464 347.5 Q473 306 472 255 Q472 198 463.5 157.5 Q455 117 438 87 Q409 40 360 16.5 Q311 -7 252 -7 Q196 -7 152 12 Q108 31 81 71 Q40 132 42 247 Q42 287 47.5 323 Q53 359 67 387 Q93 442 144.5 471.5 Q196 501 264 501 Z M260 399 Q231 399 208 384 Q185 369 173 343 Q164 323 160.5 299 Q157 275 156 246 Q156 217 159 193 Q162 169 171 151 Q182 125 204 110.5 Q226 96 255 96 Q287 96 312 113.5 Q337 131 348 167 Q353 181 355 202 Q357 223 357 255 Q357 313 344 342 Q333 371 310.5 385 Q288 399 260 399 Z M260 564 Q218 564 190 579 Q162 594 144.5 616 Q127 638 119 663.5 Q111 689 110 710 L197 710 Q197 700 201.5 688.5 Q206 677 214 667 Q222 657 233.5 650.5 Q245 644 260 644 Q276 644 288 650.5 Q300 657 308 667 Q316 677 320 688.5 Q324 700 324 710 L410 710 Q408 689 400 663.5 Q392 638 375 616 Q358 594 330 579 Q302 564 260 564 Z " />
<glyph glyph-name="Ohungarumlaut" unicode="&#x150;" horiz-adv-x="610" d="M304 701 Q364 701 412 681 Q460 661 494 626 Q528 591 546 542.5 Q564 494 564 437 L564 259 Q564 198 545.5 149 Q527 100 493 65.5 Q459 31 411 12.5 Q363 -6 304 -6 Q239 -6 190 15.5 Q141 37 109 73.5 Q77 110 61 158 Q45 206 45 259 L45 437 Q45 489 61 537 Q77 585 109 621.5 Q141 658 190 679.5 Q239 701 304 701 Z M304 587 Q269 587 243.5 575 Q218 563 201 542.5 Q184 522 175.5 496 Q167 470 167 443 L167 256 Q167 227 175.5 200.5 Q184 174 201 153 Q218 132 243.5 119.5 Q269 107 304 107 Q336 107 361.5 118.5 Q387 130 404.5 150 Q422 170 431.5 197 Q441 224 441 256 L441 443 Q441 473 431.5 499 Q422 525 404.5 544.5 Q387 564 361.5 575.5 Q336 587 304 587 Z M141 782 L295 919 L377 841 L192 730 L141 782 Z M328 782 L482 919 L564 841 L379 730 L328 782 Z " />
<glyph glyph-name="ohungarumlaut" unicode="&#x151;" horiz-adv-x="515" d="M264 501 Q320 501 364.5 479.5 Q409 458 436 418 Q455 389 464 347.5 Q473 306 472 255 Q472 198 463.5 157.5 Q455 117 438 87 Q409 40 360 16.5 Q311 -7 252 -7 Q196 -7 152 12 Q108 31 81 71 Q40 132 42 247 Q42 287 47.5 323 Q53 359 67 387 Q93 442 144.5 471.5 Q196 501 264 501 Z M260 399 Q231 399 208 384 Q185 369 173 343 Q164 323 160.5 299 Q157 275 156 246 Q156 217 159 193 Q162 169 171 151 Q182 125 204 110.5 Q226 96 255 96 Q287 96 312 113.5 Q337 131 348 167 Q353 181 355 202 Q357 223 357 255 Q357 313 344 342 Q333 371 310.5 385 Q288 399 260 399 Z M134 569 L213 759 L320 725 L202 544 L134 569 Z M293 569 L371 759 L478 725 L361 544 L293 569 Z " />
<glyph glyph-name="Racute" unicode="&#x154;" horiz-adv-x="625" d="M444 0 L323 287 L194 287 L194 0 L73 0 L73 696 L369 696 Q413 696 452 682 Q491 668 520 642.5 Q549 617 565.5 579.5 Q582 542 582 496 Q582 429 545.5 379 Q509 329 443 305 L580 0 L444 0 Z M458 496 Q458 545 428 567 Q398 589 350 589 L194 589 L194 395 L346 395 Q395 395 426.5 421 Q458 447 458 496 Z M206 791 L371 916 L445 832 L253 735 L206 791 Z " />
<glyph glyph-name="racute" unicode="&#x155;" horiz-adv-x="388" d="M270 395 Q229 395 203 370 Q177 345 177 297 L177 -1 L64 -1 L64 495 L175 495 L175 436 L179 436 Q224 500 299 500 Q327 500 350 494 Q373 488 393 474 L351 372 Q330 385 310 390 Q290 395 270 395 Z M140 569 L219 759 L326 725 L208 544 L140 569 Z " />
<glyph glyph-name="Rcommaaccent" unicode="&#x156;" horiz-adv-x="625" d="M444 0 L323 287 L194 287 L194 0 L73 0 L73 696 L369 696 Q413 696 452 682 Q491 668 520 642.5 Q549 617 565.5 579.5 Q582 542 582 496 Q582 429 545.5 379 Q509 329 443 305 L580 0 L444 0 Z M458 496 Q458 545 428 567 Q398 589 350 589 L194 589 L194 395 L346 395 Q395 395 426.5 421 Q458 447 458 496 Z M249 -265 L286 -167 L252 -167 L252 -36 L381 -36 L381 -162 L308 -265 L249 -265 Z " />
<glyph glyph-name="rcommaaccent" unicode="&#x157;" horiz-adv-x="388" d="M270 395 Q229 395 203 370 Q177 345 177 297 L177 -1 L64 -1 L64 495 L175 495 L175 436 L179 436 Q224 500 299 500 Q327 500 350 494 Q373 488 393 474 L351 372 Q330 385 310 390 Q290 395 270 395 Z M55 -285 L92 -187 L58 -187 L58 -56 L187 -56 L187 -182 L114 -285 L55 -285 Z " />
<glyph glyph-name="Rcaron" unicode="&#x158;" horiz-adv-x="625" d="M444 0 L323 287 L194 287 L194 0 L73 0 L73 696 L369 696 Q413 696 452 682 Q491 668 520 642.5 Q549 617 565.5 579.5 Q582 542 582 496 Q582 429 545.5 379 Q509 329 443 305 L580 0 L444 0 Z M458 496 Q458 545 428 567 Q398 589 350 589 L194 589 L194 395 L346 395 Q395 395 426.5 421 Q458 447 458 496 Z M424 908 L465 859 L318 735 L242 735 L92 860 L131 908 L278 826 L424 908 Z " />
<glyph glyph-name="rcaron" unicode="&#x159;" horiz-adv-x="388" d="M270 395 Q229 395 203 370 Q177 345 177 297 L177 -1 L64 -1 L64 495 L175 495 L175 436 L179 436 Q224 500 299 500 Q327 500 350 494 Q373 488 393 474 L351 372 Q330 385 310 390 Q290 395 270 395 Z M335 734 L383 690 L237 537 L159 537 L10 691 L56 734 Q65 728 85 713 Q105 698 126.5 681.5 Q148 665 167.5 650 Q187 635 196 629 L335 734 Z " />
<glyph glyph-name="Sacute" unicode="&#x15a;" horiz-adv-x="569" d="M458 537 Q414 566 369 577.5 Q324 589 286 589 Q222 589 195 563.5 Q168 538 168 501 Q168 479 177.5 464.5 Q187 450 208 439.5 Q229 429 261 421.5 Q293 414 338 406 Q376 399 413 387.5 Q450 376 479 353.5 Q508 331 525.5 295.5 Q543 260 543 206 Q543 155 522 115.5 Q501 76 465 49 Q429 22 381.5 8 Q334 -6 281 -6 Q212 -6 139.5 14.5 Q67 35 5 90 L78 184 Q123 142 176 124.5 Q229 107 287 107 Q345 107 380.5 131 Q416 155 416 202 Q416 244 384.5 265.5 Q353 287 289 297 Q244 303 200.5 313.5 Q157 324 123 345.5 Q89 367 68.5 403 Q48 439 48 497 Q48 549 68 587.5 Q88 626 121 651.5 Q154 677 196.5 689.5 Q239 702 284 702 Q351 702 409.5 687 Q468 672 518 637 L458 537 Z M213 791 L378 916 L452 832 L260 735 L213 791 Z " />
<glyph glyph-name="sacute" unicode="&#x15b;" horiz-adv-x="463" d="M433 151 Q433 114 417 85 Q401 56 373.5 35.5 Q346 15 309.5 4.5 Q273 -6 231 -6 Q176 -6 121.5 9 Q67 24 16 69 L77 150 Q112 118 151.5 104.5 Q191 91 236 91 Q272 91 297 106 Q322 121 322 148 Q322 174 301 186.5 Q280 199 234 204 Q201 208 167.5 214 Q134 220 107 235 Q80 250 63 276 Q46 302 46 345 Q46 383 61 412 Q76 441 101 460.5 Q126 480 159.5 490 Q193 500 231 500 Q288 500 334 487.5 Q380 475 421 444 L367 358 Q332 381 297.5 391 Q263 401 233 401 Q193 401 173 385.5 Q153 370 153 348 Q153 323 181 312 Q209 301 271 294 Q301 291 330.5 282.5 Q360 274 382.5 258 Q405 242 419 216 Q433 190 433 151 Z M188 569 L267 759 L374 725 L256 544 L188 569 Z " />
<glyph glyph-name="Scircumflex" unicode="&#x15c;" horiz-adv-x="569" d="M458 537 Q414 566 369 577.5 Q324 589 286 589 Q222 589 195 563.5 Q168 538 168 501 Q168 479 177.5 464.5 Q187 450 208 439.5 Q229 429 261 421.5 Q293 414 338 406 Q376 399 413 387.5 Q450 376 479 353.5 Q508 331 525.5 295.5 Q543 260 543 206 Q543 155 522 115.5 Q501 76 465 49 Q429 22 381.5 8 Q334 -6 281 -6 Q212 -6 139.5 14.5 Q67 35 5 90 L78 184 Q123 142 176 124.5 Q229 107 287 107 Q345 107 380.5 131 Q416 155 416 202 Q416 244 384.5 265.5 Q353 287 289 297 Q244 303 200.5 313.5 Q157 324 123 345.5 Q89 367 68.5 403 Q48 439 48 497 Q48 549 68 587.5 Q88 626 121 651.5 Q154 677 196.5 689.5 Q239 702 284 702 Q351 702 409.5 687 Q468 672 518 637 L458 537 Z M293 815 L146 733 L108 781 L257 905 L333 905 L480 782 L440 733 L293 815 Z " />
<glyph glyph-name="scircumflex" unicode="&#x15d;" horiz-adv-x="463" d="M433 151 Q433 114 417 85 Q401 56 373.5 35.5 Q346 15 309.5 4.5 Q273 -6 231 -6 Q176 -6 121.5 9 Q67 24 16 69 L77 150 Q112 118 151.5 104.5 Q191 91 236 91 Q272 91 297 106 Q322 121 322 148 Q322 174 301 186.5 Q280 199 234 204 Q201 208 167.5 214 Q134 220 107 235 Q80 250 63 276 Q46 302 46 345 Q46 383 61 412 Q76 441 101 460.5 Q126 480 159.5 490 Q193 500 231 500 Q288 500 334 487.5 Q380 475 421 444 L367 358 Q332 381 297.5 391 Q263 401 233 401 Q193 401 173 385.5 Q153 370 153 348 Q153 323 181 312 Q209 301 271 294 Q301 291 330.5 282.5 Q360 274 382.5 258 Q405 242 419 216 Q433 190 433 151 Z M243 642 Q234 636 214.5 621 Q195 606 173.5 589.5 Q152 573 132 558 Q112 543 103 537 L57 580 L206 734 L284 734 L430 581 L382 537 L243 642 Z " />
<glyph glyph-name="Scedilla" unicode="&#x15e;" horiz-adv-x="569" d="M458 537 Q414 566 369 577.5 Q324 589 286 589 Q222 589 195 563.5 Q168 538 168 501 Q168 479 177.5 464.5 Q187 450 208 439.5 Q229 429 261 421.5 Q293 414 338 406 Q376 399 413 387.5 Q450 376 479 353.5 Q508 331 525.5 295.5 Q543 260 543 206 Q543 158 524.5 120.5 Q506 83 474 56 Q442 29 399 13.5 Q356 -2 307 -5 Q304 -13 301.5 -21 Q299 -29 297 -37 Q324 -39 343 -48 Q362 -57 373.5 -69.5 Q385 -82 390 -96.5 Q395 -111 395 -124 Q395 -139 388 -155 Q381 -171 367 -184 Q353 -197 331.5 -205 Q310 -213 281 -213 Q255 -213 229.5 -207.5 Q204 -202 181 -189 L202 -137 Q225 -148 242 -150.5 Q259 -153 274 -153 Q291 -153 304.5 -146 Q318 -139 318 -120 Q318 -103 305.5 -95.5 Q293 -88 275 -88 Q268 -88 258 -90 L228 -70 L248 -5 Q186 -1 122.5 20 Q59 41 5 90 L78 184 Q123 142 176 124.5 Q229 107 287 107 Q345 107 380.5 131 Q416 155 416 202 Q416 244 384.5 265.5 Q353 287 289 297 Q244 303 200.5 313.5 Q157 324 123 345.5 Q89 367 68.5 403 Q48 439 48 497 Q48 549 68 587.5 Q88 626 121 651.5 Q154 677 196.5 689.5 Q239 702 284 702 Q351 702 409.5 687 Q468 672 518 637 L458 537 Z " />
<glyph glyph-name="scedilla" unicode="&#x15f;" horiz-adv-x="463" d="M433 151 Q433 117 420 90 Q407 63 384 43 Q361 23 330 11 Q299 -1 263 -4 Q260 -12 257.5 -20.5 Q255 -29 253 -37 Q280 -39 299 -48 Q318 -57 329.5 -69.5 Q341 -82 346 -96.5 Q351 -111 351 -124 Q351 -139 344 -155 Q337 -171 323 -184 Q309 -197 287.5 -205 Q266 -213 237 -213 Q211 -213 185.5 -207.5 Q160 -202 137 -189 L158 -137 Q181 -148 198 -150.5 Q215 -153 230 -153 Q247 -153 260.5 -146 Q274 -139 274 -120 Q274 -103 261.5 -95.5 Q249 -88 231 -88 Q224 -88 214 -90 L184 -70 L204 -5 Q156 -3 108.5 13 Q61 29 16 69 L77 150 Q112 118 151.5 104.5 Q191 91 236 91 Q272 91 297 106 Q322 121 322 148 Q322 174 301 186.5 Q280 199 234 204 Q201 208 167.5 214 Q134 220 107 235 Q80 250 63 276 Q46 302 46 345 Q46 383 61 412 Q76 441 101 460.5 Q126 480 159.5 490 Q193 500 231 500 Q288 500 334 487.5 Q380 475 421 444 L367 358 Q332 381 297.5 391 Q263 401 233 401 Q193 401 173 385.5 Q153 370 153 348 Q153 323 181 312 Q209 301 271 294 Q301 291 330.5 282.5 Q360 274 382.5 258 Q405 242 419 216 Q433 190 433 151 Z " />
<glyph glyph-name="Tcommaaccent" unicode="&#x162;" horiz-adv-x="521" d="M319 588 L319 0 L283 0 Q279 -11 275.5 -22 Q272 -33 269 -44 Q296 -46 315 -55 Q334 -64 345.5 -76.5 Q357 -89 362 -103.5 Q367 -118 367 -131 Q367 -146 360 -162 Q353 -178 339 -191 Q325 -204 303.5 -212 Q282 -220 253 -220 Q227 -220 201.5 -214.5 Q176 -209 153 -196 L174 -144 Q197 -155 214 -157.5 Q231 -160 246 -160 Q263 -160 276.5 -153 Q290 -146 290 -127 Q290 -110 277.5 -102.5 Q265 -95 247 -95 Q240 -95 230 -97 L200 -77 L224 0 L198 0 L198 588 L5 588 L5 696 L513 696 L513 588 L319 588 Z " />
<glyph glyph-name="tcommaaccent" unicode="&#x163;" horiz-adv-x="316" d="M217 0 Q211 0 204.5 0 Q198 0 193 1 Q189 -10 185.5 -21 Q182 -32 179 -43 Q206 -45 225 -54 Q244 -63 255.5 -75.5 Q267 -88 272 -102.5 Q277 -117 277 -130 Q277 -145 270 -161 Q263 -177 249 -190 Q235 -203 213.5 -211 Q192 -219 163 -219 Q137 -219 111.5 -213.5 Q86 -208 63 -195 L84 -143 Q107 -154 124 -156.5 Q141 -159 156 -159 Q173 -159 186.5 -152 Q200 -145 200 -126 Q200 -109 187.5 -101.5 Q175 -94 157 -94 Q150 -94 140 -96 L110 -76 L140 21 Q117 36 103.5 62 Q90 88 90 124 L90 404 L33 404 L33 496 L91 496 L91 625 L201 625 L201 496 L277 496 L277 404 L202 404 L202 155 Q202 129 212 114 Q222 99 248 99 L285 99 L285 0 L217 0 Z " />
<glyph glyph-name="Tcaron" unicode="&#x164;" horiz-adv-x="521" d="M319 588 L319 0 L198 0 L198 588 L5 588 L5 696 L513 696 L513 588 L319 588 Z M404 908 L445 859 L298 735 L222 735 L72 860 L111 908 L258 826 L404 908 Z " />
<glyph glyph-name="tcaron" unicode="&#x165;" horiz-adv-x="385" d="M264 554 L301 652 L267 652 L267 783 L396 783 L396 657 L323 554 L264 554 Z M217 0 Q162 0 126 32 Q90 64 90 124 L90 404 L33 404 L33 496 L91 496 L91 625 L201 625 L201 496 L277 496 L277 404 L202 404 L202 155 Q202 129 212 114 Q222 99 248 99 L285 99 L285 0 L217 0 Z " />
<glyph glyph-name="Tbar" unicode="&#x166;" horiz-adv-x="521" d="M319 588 L319 403 L472 403 L472 318 L319 318 L319 0 L198 0 L198 318 L45 318 L45 403 L198 403 L198 588 L5 588 L5 696 L513 696 L513 588 L319 588 Z " />
<glyph glyph-name="tbar" unicode="&#x167;" horiz-adv-x="316" d="M217 0 Q162 0 126 32 Q90 64 90 124 L90 231 L35 231 L35 311 L90 311 L90 404 L33 404 L33 496 L91 496 L91 625 L201 625 L201 496 L277 496 L277 404 L202 404 L202 311 L278 311 L278 231 L202 231 L202 155 Q202 129 212 114 Q222 99 248 99 L285 99 L285 0 L217 0 Z " />
<glyph glyph-name="Utilde" unicode="&#x168;" horiz-adv-x="638" d="M579 247 Q579 190 559.5 143.5 Q540 97 505.5 64 Q471 31 423 13 Q375 -5 319 -5 Q260 -5 212 14.5 Q164 34 130 68.5 Q96 103 78 150 Q60 197 60 252 L60 696 L180 696 L180 261 Q180 229 189.5 201 Q199 173 217 152.5 Q235 132 261 120 Q287 108 320 108 Q382 108 419.5 146 Q457 184 457 256 L457 696 L579 696 L579 247 Z M251 875 Q270 875 288.5 867.5 Q307 860 324 851 Q341 842 356.5 834.5 Q372 827 384 827 Q401 827 416 838 Q431 849 448 874 L508 839 Q484 787 456 763.5 Q428 740 394 740 Q375 740 356.5 747 Q338 754 320.5 763 Q303 772 286.5 779 Q270 786 256 786 Q239 786 223 776.5 Q207 767 187 741 L130 774 Q153 822 183 848.5 Q213 875 251 875 Z " />
<glyph glyph-name="utilde" unicode="&#x169;" horiz-adv-x="533" d="M171 495 L171 200 Q171 149 192 124 Q213 99 263 99 Q303 99 330.5 125.5 Q358 152 358 200 L358 495 L471 495 L471 0 L358 0 L358 49 L355 49 Q332 21 297 7.5 Q262 -6 229 -6 Q152 -6 105.5 37 Q59 80 59 170 L59 495 L171 495 Z M190 705 Q209 705 227.5 697.5 Q246 690 263 681 Q280 672 295.5 664.5 Q311 657 323 657 Q340 657 355 668 Q370 679 387 704 L447 669 Q423 617 395 593.5 Q367 570 333 570 Q314 570 295.5 577 Q277 584 259.5 593 Q242 602 225.5 609 Q209 616 195 616 Q178 616 162 606.5 Q146 597 126 571 L69 604 Q92 652 122 678.5 Q152 705 190 705 Z " />
<glyph glyph-name="Umacron" unicode="&#x16a;" horiz-adv-x="638" d="M579 247 Q579 190 559.5 143.5 Q540 97 505.5 64 Q471 31 423 13 Q375 -5 319 -5 Q260 -5 212 14.5 Q164 34 130 68.5 Q96 103 78 150 Q60 197 60 252 L60 696 L180 696 L180 261 Q180 229 189.5 201 Q199 173 217 152.5 Q235 132 261 120 Q287 108 320 108 Q382 108 419.5 146 Q457 184 457 256 L457 696 L579 696 L579 247 Z M165 769 L165 866 L466 866 L466 769 L165 769 Z " />
<glyph glyph-name="umacron" unicode="&#x16b;" horiz-adv-x="533" d="M171 495 L171 200 Q171 149 192 124 Q213 99 263 99 Q303 99 330.5 125.5 Q358 152 358 200 L358 495 L471 495 L471 0 L358 0 L358 49 L355 49 Q332 21 297 7.5 Q262 -6 229 -6 Q152 -6 105.5 37 Q59 80 59 170 L59 495 L171 495 Z M119 589 L119 686 L420 686 L420 589 L119 589 Z " />
<glyph glyph-name="ubreve" unicode="&#x16d;" horiz-adv-x="533" d="M171 495 L171 200 Q171 149 192 124 Q213 99 263 99 Q303 99 330.5 125.5 Q358 152 358 200 L358 495 L471 495 L471 0 L358 0 L358 49 L355 49 Q332 21 297 7.5 Q262 -6 229 -6 Q152 -6 105.5 37 Q59 80 59 170 L59 495 L171 495 Z M267 564 Q225 564 197 579 Q169 594 151.5 616 Q134 638 126 663.5 Q118 689 117 710 L204 710 Q204 700 208.5 688.5 Q213 677 221 667 Q229 657 240.5 650.5 Q252 644 267 644 Q283 644 295 650.5 Q307 657 315 667 Q323 677 327 688.5 Q331 700 331 710 L417 710 Q415 689 407 663.5 Q399 638 382 616 Q365 594 337 579 Q309 564 267 564 Z " />
<glyph glyph-name="Uring" unicode="&#x16e;" horiz-adv-x="638" d="M579 247 Q579 190 559.5 143.5 Q540 97 505.5 64 Q471 31 423 13 Q375 -5 319 -5 Q260 -5 212 14.5 Q164 34 130 68.5 Q96 103 78 150 Q60 197 60 252 L60 696 L180 696 L180 261 Q180 229 189.5 201 Q199 173 217 152.5 Q235 132 261 120 Q287 108 320 108 Q382 108 419.5 146 Q457 184 457 256 L457 696 L579 696 L579 247 Z M368 809 Q368 829 354.5 842 Q341 855 321 855 Q301 855 287 842 Q273 829 273 809 Q273 790 287 776.5 Q301 763 321 763 Q341 763 354.5 776.5 Q368 790 368 809 Z M209 809 Q209 831 218 851 Q227 871 242 885.5 Q257 900 277.5 908.5 Q298 917 321 917 Q344 917 364 908.5 Q384 900 399 885.5 Q414 871 423 851 Q432 831 432 809 Q432 787 423 767.5 Q414 748 399 733.5 Q384 719 364 710.5 Q344 702 321 702 Q298 702 277.5 710.5 Q257 719 242 733.5 Q227 748 218 767.5 Q209 787 209 809 Z " />
<glyph glyph-name="uring" unicode="&#x16f;" horiz-adv-x="533" d="M171 495 L171 200 Q171 149 192 124 Q213 99 263 99 Q303 99 330.5 125.5 Q358 152 358 200 L358 495 L471 495 L471 0 L358 0 L358 49 L355 49 Q332 21 297 7.5 Q262 -6 229 -6 Q152 -6 105.5 37 Q59 80 59 170 L59 495 L171 495 Z M314 643 Q314 663 300.5 676 Q287 689 267 689 Q247 689 233 676 Q219 663 219 643 Q219 624 233 610.5 Q247 597 267 597 Q287 597 300.5 610.5 Q314 624 314 643 Z M155 643 Q155 665 164 685 Q173 705 188 719.5 Q203 734 223.5 742.5 Q244 751 267 751 Q290 751 310 742.5 Q330 734 345 719.5 Q360 705 369 685 Q378 665 378 643 Q378 621 369 601.5 Q360 582 345 567.5 Q330 553 310 544.5 Q290 536 267 536 Q244 536 223.5 544.5 Q203 553 188 567.5 Q173 582 164 601.5 Q155 621 155 643 Z " />
<glyph glyph-name="Uhungarumlaut" unicode="&#x170;" horiz-adv-x="638" d="M579 247 Q579 190 559.5 143.5 Q540 97 505.5 64 Q471 31 423 13 Q375 -5 319 -5 Q260 -5 212 14.5 Q164 34 130 68.5 Q96 103 78 150 Q60 197 60 252 L60 696 L180 696 L180 261 Q180 229 189.5 201 Q199 173 217 152.5 Q235 132 261 120 Q287 108 320 108 Q382 108 419.5 146 Q457 184 457 256 L457 696 L579 696 L579 247 Z M131 782 L285 919 L367 841 L182 730 L131 782 Z M318 782 L472 919 L554 841 L369 730 L318 782 Z " />
<glyph glyph-name="uhungarumlaut" unicode="&#x171;" horiz-adv-x="533" d="M171 495 L171 200 Q171 149 192 124 Q213 99 263 99 Q303 99 330.5 125.5 Q358 152 358 200 L358 495 L471 495 L471 0 L358 0 L358 49 L355 49 Q332 21 297 7.5 Q262 -6 229 -6 Q152 -6 105.5 37 Q59 80 59 170 L59 495 L171 495 Z M136 569 L215 759 L322 725 L204 544 L136 569 Z M295 569 L373 759 L480 725 L363 544 L295 569 Z " />
<glyph glyph-name="Uogonek" unicode="&#x172;" horiz-adv-x="638" d="M248 -96 Q248 -76 256 -54 Q264 -32 284 -3 Q232 3 190.5 24 Q149 45 120 79 Q91 113 75.5 157 Q60 201 60 252 L60 696 L180 696 L180 261 Q180 229 189.5 201 Q199 173 217 152.5 Q235 132 261 120 Q287 108 320 108 Q382 108 419.5 146 Q457 184 457 256 L457 696 L579 696 L579 247 Q579 195 563 152 Q547 109 518 77 Q489 45 449.5 24.5 Q410 4 362 -2 Q343 -28 335 -47 Q327 -66 327 -81 Q327 -116 367 -116 Q378 -116 393 -113 Q408 -110 428 -102 L451 -162 Q431 -174 405.5 -181.5 Q380 -189 354 -189 Q307 -189 277.5 -161.5 Q248 -134 248 -96 Z " />
<glyph glyph-name="uogonek" unicode="&#x173;" horiz-adv-x="533" d="M319 -96 Q319 -76 327.5 -53.5 Q336 -31 358 0 L358 49 L355 49 Q332 21 297 7.5 Q262 -6 229 -6 Q152 -6 105.5 37 Q59 80 59 170 L59 495 L171 495 L171 200 Q171 149 192 124 Q213 99 263 99 Q303 99 330.5 125.5 Q358 152 358 200 L358 495 L471 495 L471 0 L434 0 Q414 -27 406 -46 Q398 -65 398 -81 Q398 -116 438 -116 Q449 -116 464 -113 Q479 -110 499 -102 L522 -162 Q502 -174 476.5 -181.5 Q451 -189 425 -189 Q378 -189 348.5 -161.5 Q319 -134 319 -96 Z " />
<glyph glyph-name="Wcircumflex" unicode="&#x174;" horiz-adv-x="839" d="M419 473 Q418 473 417.5 472.5 Q417 472 416 472 Q399 408 382.5 345 Q366 282 349 218 Q347 211 342.5 194 Q338 177 331.5 155 Q325 133 318.5 109 Q312 85 305.5 63 Q299 41 294.5 24 Q290 7 288 -1 L187 -1 L6 695 L135 695 Q155 609 174.5 525 Q194 441 213 355 L241 228 L245 228 L277 354 Q298 430 312.5 483.5 Q327 537 338 575 Q349 613 356.5 641 Q364 669 372 695 L464 695 Q489 609 513 523 Q537 437 560 351 L593 227 L597 227 Q604 256 610 288.5 Q616 321 622 350 Q639 428 659.5 519 Q680 610 701 695 L829 695 Q784 520 739 347 Q694 174 648 -1 L548 -1 Q531 62 513.5 124.5 Q496 187 478 250 Q464 306 449 361.5 Q434 417 419 473 Z M419 815 L272 733 L234 781 L383 905 L459 905 L606 782 L566 733 L419 815 Z " />
<glyph glyph-name="wcircumflex" unicode="&#x175;" horiz-adv-x="736" d="M520 168 Q526 189 531.5 211 Q537 233 542 253 Q546 268 550.5 284.5 Q555 301 562 327 Q569 353 580 393 Q591 433 609 495 L730 495 Q689 370 648.5 247.5 Q608 125 566 0 L467 0 Q449 57 431.5 115 Q414 173 397 231 L368 325 L366 325 L335 219 Q303 109 268 0 L169 0 L5 495 L126 495 Q137 460 146.5 425 Q156 390 166 355 Q180 309 191.5 263 Q203 217 217 171 L221 171 Q229 197 234 212.5 Q239 228 242.5 240.5 Q246 253 250.5 268.5 Q255 284 263 310 L321 495 L416 495 Q435 435 453.5 374 Q472 313 490 252 L514 168 L520 168 Z M365 642 Q356 636 336.5 621 Q317 606 295.5 589.5 Q274 573 254 558 Q234 543 225 537 L179 580 L328 734 L406 734 L552 581 L504 537 L365 642 Z " />
<glyph glyph-name="Ycircumflex" unicode="&#x176;" horiz-adv-x="557" d="M553 696 Q499 593 445 491 Q391 389 336 286 L336 0 L221 0 L221 286 Q166 389 112.5 491 Q59 593 4 696 L133 696 L217 524 Q233 491 248 457.5 Q263 424 278 390 L280 390 L342 527 L425 696 L553 696 Z M278 815 L131 733 L93 781 L242 905 L318 905 L465 782 L425 733 L278 815 Z " />
<glyph glyph-name="ycircumflex" unicode="&#x177;" horiz-adv-x="470" d="M252 -100 Q231 -157 192 -178.5 Q153 -200 108 -200 L66 -200 L66 -105 L97 -105 Q119 -105 134 -89.5 Q149 -74 157 -53 L182 25 L0 495 L122 495 L186 313 L235 157 L239 157 L288 311 L351 495 L470 495 L252 -100 Z M236 642 Q227 636 207.5 621 Q188 606 166.5 589.5 Q145 573 125 558 Q105 543 96 537 L50 580 L199 734 L277 734 L423 581 L375 537 L236 642 Z " />
<glyph glyph-name="zacute" unicode="&#x17a;" horiz-adv-x="449" d="M31 0 L31 94 L280 398 L45 398 L45 495 L417 495 L417 403 L169 102 L417 102 L417 0 L31 0 Z M183 569 L262 759 L369 725 L251 544 L183 569 Z " />
<glyph glyph-name="Zdotaccent" unicode="&#x17b;" horiz-adv-x="527" d="M30 0 L30 104 L353 589 L43 589 L43 696 L497 696 L497 597 L174 111 L497 111 L497 0 L30 0 Z M212 758 L212 867 L330 867 L330 758 L212 758 Z " />
<glyph glyph-name="zdotaccent" unicode="&#x17c;" horiz-adv-x="449" d="M31 0 L31 94 L280 398 L45 398 L45 495 L417 495 L417 403 L169 102 L417 102 L417 0 L31 0 Z M174 583 L174 692 L292 692 L292 583 L174 583 Z " />
<glyph glyph-name="AEacute" unicode="&#x1fc;" horiz-adv-x="1034" d="M517 0 L517 176 L270 176 Q244 131 217 88 Q190 45 163 0 L26 0 L459 696 L983 696 L983 586 L638 586 L638 403 L932 403 L932 298 L638 298 L638 109 L983 109 L983 0 L517 0 Z M515 585 Q469 508 423 433 Q377 358 331 281 L517 281 L517 585 L515 585 Z M575 791 L740 916 L814 832 L622 735 L575 791 Z " />
<glyph glyph-name="aeacute" unicode="&#x1fd;" horiz-adv-x="816" d="M459 215 Q460 194 464 177.5 Q468 161 476 147 Q506 97 573 97 Q595 97 624 107 Q653 117 680 142 L750 64 Q709 26 662.5 10.5 Q616 -5 570 -5 Q523 -5 476 10 Q429 25 395 66 Q369 34 324 14.5 Q279 -5 216 -5 Q137 -5 88.5 33.5 Q40 72 40 144 Q40 174 51 201 Q62 228 83 248.5 Q104 269 135.5 281 Q167 293 208 293 L342 293 L342 329 Q342 343 337 356.5 Q332 370 320.5 380.5 Q309 391 290 397 Q271 403 242 403 Q198 403 169.5 391.5 Q141 380 122 360 L64 433 Q97 471 144.5 485.5 Q192 500 243 500 Q266 500 290.5 497.5 Q315 495 338 489 Q361 483 381 472 Q401 461 416 443 Q445 474 482.5 487 Q520 500 557 500 Q611 500 652 480.5 Q693 461 720 427.5 Q747 394 760.5 348 Q774 302 774 249 L774 215 L459 215 Z M147 152 Q147 141 151.5 130 Q156 119 166.5 110.5 Q177 102 193.5 96.5 Q210 91 235 91 Q286 91 314 112.5 Q342 134 342 185 L342 208 L227 208 Q184 208 165.5 191.5 Q147 175 147 152 Z M378 569 L457 759 L564 725 L446 544 L378 569 Z M657 295 Q654 346 626.5 372 Q599 398 560 398 Q520 398 493 371.5 Q466 345 461 295 L657 295 Z " />
<glyph glyph-name="Oslashacute" unicode="&#x1fe;" horiz-adv-x="610" d="M304 701 Q355 701 398 686 Q441 671 473 645 L514 702 L561 668 L514 602 Q538 568 551 526.5 Q564 485 564 437 L564 259 Q564 198 545.5 149 Q527 100 493 65.5 Q459 31 411 12.5 Q363 -6 304 -6 Q247 -6 202.5 10.5 Q158 27 126 56 L84 -4 L39 29 L89 100 Q66 134 55.5 174 Q45 214 45 259 L45 437 Q45 489 61 537 Q77 585 109 621.5 Q141 658 190 679.5 Q239 701 304 701 Z M441 443 Q441 469 434 490 L198 156 Q215 134 241 120.5 Q267 107 304 107 Q336 107 361.5 118.5 Q387 130 404.5 150 Q422 170 431.5 197 Q441 224 441 256 L441 443 Z M304 587 Q269 587 243.5 575 Q218 563 201 542.5 Q184 522 175.5 496 Q167 470 167 443 L167 256 Q167 233 171 216 L403 546 Q386 565 361 576 Q336 587 304 587 Z M235 791 L400 916 L474 832 L282 735 L235 791 Z " />
<glyph glyph-name="oslashacute" unicode="&#x1ff;" horiz-adv-x="515" d="M264 501 Q343 501 397 459 L439 513 L475 485 L429 427 Q432 424 436 418 Q455 389 464 347.5 Q473 306 472 255 Q472 198 463.5 157.5 Q455 117 438 87 Q409 40 360 16.5 Q311 -7 252 -7 Q212 -7 177.5 3 Q143 13 117 33 L78 -16 L44 11 L86 64 Q82 68 81 71 Q40 132 42 247 Q42 287 47.5 323 Q53 359 67 387 Q93 442 144.5 471.5 Q196 501 264 501 Z M260 399 Q231 399 208 384 Q185 369 173 343 Q164 323 160.5 299 Q157 275 156 246 Q156 222 157.5 202 Q159 182 165 165 L327 371 Q314 385 297 392 Q280 399 260 399 Z M357 255 Q357 297 349 327 L188 123 Q215 96 255 96 Q287 96 312 113.5 Q337 131 348 167 Q353 181 355 202 Q357 223 357 255 Z M203 569 L282 759 L389 725 L271 544 L203 569 Z " />
<glyph glyph-name="Scaron" unicode="&#x160;" horiz-adv-x="569" d="M458 537 Q414 566 369 577.5 Q324 589 286 589 Q222 589 195 563.5 Q168 538 168 501 Q168 479 177.5 464.5 Q187 450 208 439.5 Q229 429 261 421.5 Q293 414 338 406 Q376 399 413 387.5 Q450 376 479 353.5 Q508 331 525.5 295.5 Q543 260 543 206 Q543 155 522 115.5 Q501 76 465 49 Q429 22 381.5 8 Q334 -6 281 -6 Q212 -6 139.5 14.5 Q67 35 5 90 L78 184 Q123 142 176 124.5 Q229 107 287 107 Q345 107 380.5 131 Q416 155 416 202 Q416 244 384.5 265.5 Q353 287 289 297 Q244 303 200.5 313.5 Q157 324 123 345.5 Q89 367 68.5 403 Q48 439 48 497 Q48 549 68 587.5 Q88 626 121 651.5 Q154 677 196.5 689.5 Q239 702 284 702 Q351 702 409.5 687 Q468 672 518 637 L458 537 Z M441 908 L482 859 L335 735 L259 735 L109 860 L148 908 L295 826 L441 908 Z " />
<glyph glyph-name="Zcaron" unicode="&#x17d;" horiz-adv-x="527" d="M30 0 L30 104 L353 589 L43 589 L43 696 L497 696 L497 597 L174 111 L497 111 L497 0 L30 0 Z M416 908 L457 859 L310 735 L234 735 L84 860 L123 908 L270 826 L416 908 Z " />
<glyph glyph-name="scaron" unicode="&#x161;" horiz-adv-x="463" d="M433 151 Q433 114 417 85 Q401 56 373.5 35.5 Q346 15 309.5 4.5 Q273 -6 231 -6 Q176 -6 121.5 9 Q67 24 16 69 L77 150 Q112 118 151.5 104.5 Q191 91 236 91 Q272 91 297 106 Q322 121 322 148 Q322 174 301 186.5 Q280 199 234 204 Q201 208 167.5 214 Q134 220 107 235 Q80 250 63 276 Q46 302 46 345 Q46 383 61 412 Q76 441 101 460.5 Q126 480 159.5 490 Q193 500 231 500 Q288 500 334 487.5 Q380 475 421 444 L367 358 Q332 381 297.5 391 Q263 401 233 401 Q193 401 173 385.5 Q153 370 153 348 Q153 323 181 312 Q209 301 271 294 Q301 291 330.5 282.5 Q360 274 382.5 258 Q405 242 419 216 Q433 190 433 151 Z M377 734 L425 690 L279 537 L201 537 L52 691 L98 734 Q107 728 127 713 Q147 698 168.5 681.5 Q190 665 209.5 650 Q229 635 238 629 L377 734 Z " />
<glyph glyph-name="zcaron" unicode="&#x17e;" horiz-adv-x="449" d="M31 0 L31 94 L280 398 L45 398 L45 495 L417 495 L417 403 L169 102 L417 102 L417 0 L31 0 Z M362 734 L410 690 L264 537 L186 537 L37 691 L83 734 Q92 728 112 713 Q132 698 153.5 681.5 Q175 665 194.5 650 Q214 635 223 629 L362 734 Z " />
<glyph glyph-name="Kcommaaccent" unicode="&#x136;" horiz-adv-x="638" d="M502 0 L307 324 L194 193 L194 0 L73 0 L73 696 L195 696 L195 359 L197 358 L314 501 L478 696 L622 696 L387 418 L645 0 L502 0 Z M265 -265 L302 -167 L268 -167 L268 -36 L397 -36 L397 -162 L324 -265 L265 -265 Z " />
<glyph glyph-name="afii10051" unicode="&#x402;" horiz-adv-x="743" d="M319 414 Q334 427 352.5 438 Q371 449 392 456 Q413 463 435 467 Q457 471 477 471 Q521 471 561 457 Q601 443 631.5 414 Q662 385 680 340.5 Q698 296 698 235 Q698 180 683.5 133 Q669 86 638.5 51.5 Q608 17 560 -3 Q512 -23 445 -23 Q437 -23 430 -23 Q423 -23 415 -22 L415 75 Q488 74 531.5 111.5 Q575 149 575 230 Q575 293 540.5 328.5 Q506 364 450 364 Q417 364 382 349.5 Q347 335 316 303 L316 0 L195 0 L195 591 L4 591 L4 696 L569 696 L569 591 L316 591 L316 414 L319 414 Z " />
<glyph glyph-name="afii10053" unicode="&#x404;" horiz-adv-x="572" d="M551 156 Q525 80 461.5 37 Q398 -6 307 -6 Q242 -6 193 14.5 Q144 35 112 70.5 Q80 106 64 154.5 Q48 203 48 259 L48 437 Q48 489 64 537 Q80 585 112 621.5 Q144 658 193 679.5 Q242 701 307 701 Q399 701 461.5 656.5 Q524 612 550 539 L436 494 Q423 535 390.5 560.5 Q358 586 307 586 Q272 586 246.5 574 Q221 562 204 541.5 Q187 521 178.5 495 Q170 469 170 442 L170 404 L385 404 L385 298 L170 298 L170 257 Q170 228 178.5 201.5 Q187 175 204 154 Q221 133 246.5 120.5 Q272 108 307 108 Q357 108 390 134.5 Q423 161 436 204 L551 156 Z " />
<glyph glyph-name="afii10058" unicode="&#x409;" horiz-adv-x="949" d="M142 696 L539 696 L539 412 L701 412 Q757 412 799.5 395 Q842 378 871 350.5 Q900 323 914.5 287 Q929 251 929 213 Q929 161 911 121.5 Q893 82 861 55 Q829 28 785.5 14 Q742 0 692 0 L418 0 L418 588 L257 588 L257 340 Q257 259 245.5 195.5 Q234 132 207.5 87.5 Q181 43 138.5 17.5 Q96 -8 33 -13 L11 87 Q48 97 73 113.5 Q98 130 113.5 158.5 Q129 187 135.5 230.5 Q142 274 142 338 L142 696 Z M805 209 Q805 227 798.5 244 Q792 261 778.5 274.5 Q765 288 744 296 Q723 304 694 304 L539 304 L539 110 L692 110 Q746 110 775.5 137.5 Q805 165 805 209 Z " />
<glyph glyph-name="afii10059" unicode="&#x40a;" horiz-adv-x="941" d="M412 0 L412 302 L190 302 L190 0 L69 0 L69 696 L190 696 L190 412 L412 412 L412 696 L533 696 L533 412 L689 412 Q745 412 788.5 396 Q832 380 862 353 Q892 326 907.5 289.5 Q923 253 923 212 Q923 159 905 119.5 Q887 80 855.5 53.5 Q824 27 780.5 13.5 Q737 0 687 0 L412 0 Z M799 208 Q799 244 771 273 Q743 302 685 302 L533 302 L533 110 L685 110 Q739 110 769 136 Q799 162 799 208 Z " />
<glyph glyph-name="afii10060" unicode="&#x40b;" horiz-adv-x="749" d="M568 0 L568 250 Q568 276 563 297.5 Q558 319 545 334 Q532 349 510 357.5 Q488 366 454 366 Q422 366 385 350.5 Q348 335 316 306 L316 0 L195 0 L195 591 L5 591 L5 696 L570 696 L570 591 L316 591 L316 415 L319 415 Q353 442 397.5 457.5 Q442 473 487 473 Q578 473 633.5 425.5 Q689 378 689 288 L689 0 L568 0 Z " />
<glyph glyph-name="afii10145" unicode="&#x40f;" horiz-adv-x="655" d="M582 696 L582 0 L387 0 L387 -171 L270 -171 L270 0 L73 0 L73 696 L194 696 L194 110 L462 110 L462 696 L582 696 Z " />
<glyph glyph-name="afii10018" unicode="&#x411;" horiz-adv-x="603" d="M64 0 L64 696 L505 696 L505 586 L185 586 L185 412 L341 412 Q398 412 442 396 Q486 380 515.5 353 Q545 326 560.5 289.5 Q576 253 576 212 Q576 159 558 119.5 Q540 80 508 53.5 Q476 27 433 13.5 Q390 0 340 0 L64 0 Z M452 207 Q452 225 445.5 242.5 Q439 260 425 273 Q411 286 389.5 294 Q368 302 338 302 L185 302 L185 109 L338 109 Q392 109 422 135.5 Q452 162 452 207 Z " />
<glyph glyph-name="afii10021" unicode="&#x414;" horiz-adv-x="732" d="M20 97 Q36 100 52 103.5 Q68 107 85 111 Q109 129 123 151 Q137 173 145.5 206.5 Q154 240 158 287.5 Q162 335 165 404 L177 696 L636 696 Q636 548 636.5 401.5 Q637 255 637 107 L704 107 L704 -155 L597 -155 L597 0 L128 0 L128 -155 L20 -155 L20 97 Z M283 588 Q281 540 279 494.5 Q277 449 275 401 Q273 355 270.5 312 Q268 269 263 231.5 Q258 194 248.5 162 Q239 130 223 107 L516 107 L516 588 L283 588 Z " />
<glyph glyph-name="afii10024" unicode="&#x416;" horiz-adv-x="953" d="M416 301 L332 301 Q312 301 293.5 297 Q275 293 258.5 281.5 Q242 270 228 248.5 Q214 227 203 193 L146 0 L20 0 L87 223 Q102 274 126 310 Q150 346 194 360 Q161 371 135 405.5 Q109 440 95 491 L32 694 L150 694 L210 507 Q220 472 235 452 Q250 432 267 421.5 Q284 411 302 408 Q320 405 337 405 L416 405 L416 697 L537 697 L537 405 L616 405 Q632 405 650.5 408 Q669 411 686 421.5 Q703 432 718 452 Q733 472 743 507 L803 694 L921 694 L858 491 Q844 440 818 405.5 Q792 371 759 360 Q803 346 827 310 Q851 274 866 223 L933 0 L807 0 L750 193 Q739 227 725 248.5 Q711 270 694.5 281.5 Q678 293 659.5 297 Q641 301 621 301 L537 301 L537 0 L416 0 L416 301 Z " />
<glyph glyph-name="afii10025" unicode="&#x417;" horiz-adv-x="576" d="M275 -5 Q181 -5 112.5 36 Q44 77 16 151 L128 201 Q135 181 150 164 Q165 147 184.5 134 Q204 121 227.5 113.5 Q251 106 276 106 Q334 106 372 134 Q410 162 410 212 Q410 260 379.5 287 Q349 314 296 314 L215 314 L215 417 L298 417 Q345 417 374.5 441.5 Q404 466 404 505 Q404 546 371 567 Q338 588 291 588 Q240 588 201.5 563.5 Q163 539 144 500 L38 553 Q68 621 132 661.5 Q196 702 291 702 Q400 702 463 653.5 Q526 605 526 518 Q526 500 521 479 Q516 458 504.5 438 Q493 418 473.5 400 Q454 382 425 370 Q425 368 425.5 367.5 Q426 367 426 365 Q459 355 480 336 Q501 317 513 294.5 Q525 272 529.5 248.5 Q534 225 534 206 Q534 156 514 117 Q494 78 459 51 Q424 24 376.5 9.5 Q329 -5 275 -5 Z " />
<glyph glyph-name="afii10026" unicode="&#x418;" horiz-adv-x="692" d="M73 0 L73 696 L193 696 L193 204 Q194 203 196 203 L358 452 L520 696 L621 696 L621 0 L500 0 L500 472 L497 472 L359 259 Q315 194 272 129.5 Q229 65 184 0 L73 0 Z " />
<glyph glyph-name="afii10029" unicode="&#x41b;" horiz-adv-x="668" d="M468 588 L258 588 L258 394 Q258 293 248.5 219.5 Q239 146 214 96 Q189 46 145.5 19.5 Q102 -7 34 -13 Q29 12 23.5 36.5 Q18 61 12 86 Q49 96 74.5 113 Q100 130 115.5 158.5 Q131 187 137.5 230.5 Q144 274 144 337 L144 696 L588 696 L588 0 L468 0 L468 588 Z " />
<glyph glyph-name="afii10037" unicode="&#x423;" horiz-adv-x="569" d="M109 90 L156 90 Q180 90 195.5 100 Q211 110 223 136 L230 154 L19 696 L151 696 L226 476 L290 296 L295 296 L353 474 L427 696 L555 696 L353 154 Q335 106 317 73.5 Q299 41 278 21.5 Q257 2 232 -6 Q207 -14 174 -14 L109 -14 L109 90 Z " />
<glyph glyph-name="afii10040" unicode="&#x426;" horiz-adv-x="688" d="M558 0 L73 0 L73 696 L194 696 L194 110 L462 110 L462 696 L582 696 L582 108 L665 108 L665 -155 L558 -155 L558 0 Z " />
<glyph glyph-name="afii10041" unicode="&#x427;" horiz-adv-x="629" d="M173 696 L173 491 Q173 425 206 393.5 Q239 362 299 362 Q327 362 366 371.5 Q405 381 436 404 L436 696 L555 696 L555 0 L435 0 L435 303 L434 303 Q396 280 353 271 Q310 262 268 262 Q222 262 183 275.5 Q144 289 115.5 315.5 Q87 342 71 382.5 Q55 423 55 477 L55 696 L173 696 Z " />
<glyph glyph-name="afii10042" unicode="&#x428;" horiz-adv-x="928" d="M858 696 L858 0 L70 0 L70 696 L191 696 L191 110 L403 110 L403 696 L525 696 L525 110 L738 110 L738 696 L858 696 Z " />
<glyph glyph-name="afii10043" unicode="&#x429;" horiz-adv-x="963" d="M833 0 L69 0 L69 696 L190 696 L190 110 L402 110 L402 696 L524 696 L524 110 L737 110 L737 696 L858 696 L858 108 L940 108 L940 -155 L833 -155 L833 0 Z " />
<glyph glyph-name="afii10044" unicode="&#x42a;" horiz-adv-x="741" d="M217 0 L217 586 L10 586 L10 696 L339 696 L339 412 L495 412 Q551 412 594.5 396 Q638 380 668 353 Q698 326 713.5 289.5 Q729 253 729 212 Q729 159 711 119.5 Q693 80 661 53.5 Q629 27 586 13.5 Q543 0 493 0 L217 0 Z M604 208 Q604 226 597 243 Q590 260 576 273 Q562 286 541 294 Q520 302 491 302 L338 302 L338 110 L491 110 Q545 110 574.5 136 Q604 162 604 208 Z " />
<glyph glyph-name="afii10045" unicode="&#x42b;" horiz-adv-x="841" d="M77 0 L77 696 L198 696 L198 412 L355 412 Q411 412 454.5 396 Q498 380 527.5 353 Q557 326 572.5 289.5 Q588 253 588 212 Q588 159 570 119.5 Q552 80 520.5 53.5 Q489 27 445.5 13.5 Q402 0 352 0 L77 0 Z M651 0 L651 696 L772 696 L772 0 L651 0 Z M464 208 Q464 244 436 273 Q408 302 351 302 L198 302 L198 110 L351 110 Q405 110 434.5 136 Q464 162 464 208 Z " />
<glyph glyph-name="afii10046" unicode="&#x42c;" horiz-adv-x="597" d="M584 212 Q584 159 566 119.5 Q548 80 516.5 53.5 Q485 27 441.5 13.5 Q398 0 348 0 L73 0 L73 696 L194 696 L194 412 L350 412 Q406 412 449.5 396 Q493 380 523 353 Q553 326 568.5 289.5 Q584 253 584 212 Z M460 208 Q460 226 453 243 Q446 260 432 273 Q418 286 397 294 Q376 302 347 302 L194 302 L194 110 L347 110 Q401 110 430.5 136 Q460 162 460 208 Z " />
<glyph glyph-name="afii10047" unicode="&#x42d;" horiz-adv-x="591" d="M142 205 Q156 162 188 135.5 Q220 109 271 109 Q308 109 334.5 121.5 Q361 134 377.5 155 Q394 176 401.5 202.5 Q409 229 409 258 L409 305 L194 305 L194 411 L409 411 L409 443 Q409 470 403 495.5 Q397 521 382 541.5 Q367 562 341.5 574.5 Q316 587 278 587 Q230 587 194 561.5 Q158 536 145 495 L31 540 Q44 576 67.5 606 Q91 636 123.5 657.5 Q156 679 195.5 690.5 Q235 702 281 702 Q350 702 398 680.5 Q446 659 475 622.5 Q504 586 517 538 Q530 490 530 438 L530 260 Q530 204 514 155.5 Q498 107 465.5 71.5 Q433 36 384.5 15.5 Q336 -5 271 -5 Q180 -5 117 38 Q54 81 28 157 L142 205 Z " />
<glyph glyph-name="afii10048" unicode="&#x42e;" horiz-adv-x="814" d="M521 701 Q585 701 631.5 681.5 Q678 662 708.5 626.5 Q739 591 753.5 543 Q768 495 768 438 L768 258 Q768 198 751 149 Q734 100 702 65.5 Q670 31 624 12.5 Q578 -6 520 -6 Q454 -6 407.5 15.5 Q361 37 331 74 Q301 111 287.5 158.5 Q274 206 274 259 L274 298 L190 298 L190 0 L69 0 L69 696 L190 696 L190 404 L274 404 L274 436 Q274 488 288.5 536 Q303 584 333.5 621 Q364 658 410.5 679.5 Q457 701 521 701 Z M521 587 Q485 587 461 574 Q437 561 422 540 Q407 519 401 493 Q395 467 395 442 L395 256 Q395 227 401 200.5 Q407 174 421.5 153 Q436 132 460 119.5 Q484 107 520 107 Q553 107 577 118.5 Q601 130 616 150 Q631 170 638 197 Q645 224 645 256 L645 442 Q645 470 638.5 496 Q632 522 617 542 Q602 562 578.5 574.5 Q555 587 521 587 Z " />
<glyph glyph-name="afii10049" unicode="&#x42f;" horiz-adv-x="632" d="M560 696 L560 0 L438 0 L438 294 L342 294 Q322 294 303.5 289 Q285 284 268 270.5 Q251 257 236.5 234.5 Q222 212 212 178 L160 0 L32 0 L87 197 Q99 241 119 272 Q139 303 180 317 Q147 326 124.5 344 Q102 362 87.5 385.5 Q73 409 67 436 Q61 463 61 489 Q61 535 77 573.5 Q93 612 122 639 Q151 666 190.5 681 Q230 696 278 696 L560 696 Z M185 487 Q185 463 194 446 Q203 429 219 418.5 Q235 408 257 403 Q279 398 304 398 L438 398 L438 589 L297 589 Q245 589 215 562.5 Q185 536 185 487 Z " />
<glyph glyph-name="afii10066" unicode="&#x431;" horiz-adv-x="515" d="M259 379 Q230 379 210.5 367.5 Q191 356 179 336 Q167 316 162 289 Q157 262 157 237 Q157 207 161.5 183 Q166 159 177 141 Q189 118 208.5 107 Q228 96 258 96 Q288 96 311 110.5 Q334 125 346 156 Q353 172 355.5 191.5 Q358 211 358 238 Q358 267 354 290.5 Q350 314 343 327 Q332 352 312.5 365.5 Q293 379 259 379 Z M283 480 Q336 480 371.5 462 Q407 444 432 408 Q454 376 463.5 335 Q473 294 473 245 Q473 143 433 81 Q405 36 359 14.5 Q313 -7 254 -7 Q192 -7 153 10.5 Q114 28 91 59 Q65 92 53 146.5 Q41 201 41 291 Q43 359 47 399.5 Q51 440 54 455 Q70 536 115.5 591 Q161 646 247 678 Q276 689 317 702.5 Q358 716 413 736 L447 650 Q399 630 370.5 620 Q342 610 326 604 Q281 587 251 571.5 Q221 556 202 536.5 Q183 517 173 491.5 Q163 466 160 429 Q161 429 162 428 Q187 456 220.5 468 Q254 480 283 480 Z " />
<glyph glyph-name="afii10068" unicode="&#x433;" horiz-adv-x="438" d="M169 398 L169 0 L56 0 L56 495 L436 495 L436 398 L169 398 Z " />
<glyph glyph-name="afii10069" unicode="&#x434;" horiz-adv-x="589" d="M245 399 L238 286 Q234 224 227.5 176 Q221 128 201 98 L400 98 L400 399 L245 399 Z M74 101 Q91 114 101.5 128 Q112 142 119 162.5 Q126 183 129.5 211 Q133 239 136 280 L150 495 L512 495 L512 99 L569 99 L569 -138 L467 -138 L467 0 L120 0 L120 -138 L17 -138 L17 90 L74 101 Z " />
<glyph glyph-name="afii10072" unicode="&#x436;" horiz-adv-x="763" d="M252 204 Q225 204 205.5 186.5 Q186 169 172 127 Q163 95 153.5 63.5 Q144 32 135 0 L20 0 Q32 40 44.5 79.5 Q57 119 69 160 Q80 197 97 223.5 Q114 250 149 258 Q121 266 103 290.5 Q85 315 74 351 L29 495 L140 495 L180 365 Q187 341 197.5 326.5 Q208 312 220.5 304.5 Q233 297 246.5 295 Q260 293 273 293 L326 293 L326 495 L439 495 L439 293 L490 293 Q519 293 545 311 Q571 329 587 379 L623 495 L734 495 L689 351 Q678 315 660 290.5 Q642 266 614 258 Q649 250 666 223.5 Q683 197 694 160 Q706 119 718.5 79.5 Q731 40 743 0 L628 0 Q619 32 609.5 63.5 Q600 95 591 127 Q575 175 552 189.5 Q529 204 498 204 L439 204 L439 0 L326 0 L326 204 L252 204 Z " />
<glyph glyph-name="afii10073" unicode="&#x437;" horiz-adv-x="457" d="M297 349 Q297 374 275.5 387 Q254 400 217 400 Q202 400 185.5 397.5 Q169 395 152.5 390.5 Q136 386 121 378.5 Q106 371 95 361 L38 439 Q73 471 122.5 486.5 Q172 502 221 502 Q317 502 363 464 Q409 426 409 363 Q409 351 405 336.5 Q401 322 392.5 307.5 Q384 293 370 280 Q356 267 337 258 L337 256 Q361 247 377 234.5 Q393 222 402 207 Q411 192 414.5 177 Q418 162 418 149 Q418 114 403.5 86 Q389 58 363 37.5 Q337 17 300 6 Q263 -5 217 -5 Q151 -5 102 10 Q53 25 15 62 L81 138 Q90 129 104 121 Q118 113 135.5 107 Q153 101 172.5 97.5 Q192 94 210 94 Q255 94 280 112 Q305 130 305 157 Q305 187 279.5 200 Q254 213 223 213 L149 213 L149 296 L228 296 Q261 296 279 311.5 Q297 327 297 349 Z " />
<glyph glyph-name="afii10074" unicode="&#x438;" horiz-adv-x="550" d="M57 0 L57 495 L168 495 L168 166 L170 166 Q192 198 214 228.5 Q236 259 258 291 Q294 342 329.5 393 Q365 444 402 495 L494 495 L494 0 L382 0 L382 313 L380 313 Q355 274 328 238.5 Q301 203 275 165 L158 0 L57 0 Z " />
<glyph glyph-name="afii10077" unicode="&#x43b;" horiz-adv-x="538" d="M219 397 L219 270 Q219 134 177.5 65.5 Q136 -3 33 -10 Q28 11 23 32 Q18 53 13 74 Q44 83 64 94.5 Q84 106 96 127.5 Q108 149 112.5 183.5 Q117 218 117 271 L117 495 L476 495 L476 0 L363 0 L363 397 L219 397 Z " />
<glyph glyph-name="afii10078" unicode="&#x43c;" horiz-adv-x="623" d="M456 0 L456 270 L455 270 Q438 235 421 202 Q404 169 387 135 L352 68 L271 68 L227 152 Q211 181 196 211 Q181 241 167 271 L166 271 L166 0 L55 0 L55 495 L157 495 Q191 432 210.5 394.5 Q230 357 241 336.5 Q252 316 256.5 307 Q261 298 264 292 L312 201 Q324 224 335 246.5 Q346 269 358 292 Q383 344 410 394 Q437 444 463 495 L567 495 L567 0 L456 0 Z " />
<glyph glyph-name="afii10079" unicode="&#x43d;" horiz-adv-x="532" d="M365 0 L365 205 L168 205 L168 0 L56 0 L56 495 L168 495 L168 294 L365 294 L365 495 L476 495 L476 0 L365 0 Z " />
<glyph glyph-name="afii10086" unicode="&#x444;" horiz-adv-x="649" d="M379 501 Q407 501 434.5 495 Q462 489 486.5 477.5 Q511 466 531 450 Q551 434 564 415 Q605 353 605 245 Q605 147 568 89 Q539 42 487 18 Q435 -6 379 -8 L379 -196 L268 -196 L268 -8 Q211 -7 162 13.5 Q113 34 85 72 Q62 104 52.5 148 Q43 192 43 247 Q44 287 50 322.5 Q56 358 69 386 Q81 411 102 432.5 Q123 454 149 469 Q175 484 205.5 492.5 Q236 501 267 501 L267 727 L379 727 L379 501 Z M267 398 Q238 398 211.5 383.5 Q185 369 173 343 Q164 323 161 299 Q158 275 157 246 Q157 217 160.5 193 Q164 169 173 151 Q185 125 211.5 109 Q238 93 267 93 L267 398 Z M379 93 Q412 93 441 113 Q470 133 481 168 Q486 184 488 202.5 Q490 221 490 247 Q490 308 476 341 Q465 369 438 383 Q411 397 379 398 L379 93 Z " />
<glyph glyph-name="afii10088" unicode="&#x446;" horiz-adv-x="571" d="M478 101 L551 101 L551 -138 L449 -138 L449 0 L60 0 L60 495 L172 495 L172 101 L367 101 L367 495 L478 495 L478 101 Z " />
<glyph glyph-name="afii10089" unicode="&#x447;" horiz-adv-x="497" d="M150 496 L150 354 Q150 309 169 289.5 Q188 270 232 270 Q251 270 281.5 277 Q312 284 336 298 L336 496 L446 496 L446 0 L336 0 L336 204 L335 204 Q303 187 271 180 Q239 173 210 173 Q174 173 142.5 181.5 Q111 190 87.5 209.5 Q64 229 50.5 260 Q37 291 37 335 L37 496 L150 496 Z " />
<glyph glyph-name="afii10090" unicode="&#x448;" horiz-adv-x="789" d="M729 495 L729 0 L60 0 L60 495 L170 495 L170 102 L339 102 L339 495 L449 495 L449 102 L619 102 L619 495 L729 495 Z " />
<glyph glyph-name="afii10091" unicode="&#x449;" horiz-adv-x="822" d="M699 0 L60 0 L60 495 L170 495 L170 102 L339 102 L339 495 L450 495 L450 102 L619 102 L619 495 L729 495 L729 101 L802 101 L802 -138 L699 -138 L699 0 Z " />
<glyph glyph-name="afii10092" unicode="&#x44a;" horiz-adv-x="596" d="M583 167 Q583 132 572 102 Q561 72 538.5 49 Q516 26 482.5 13 Q449 0 403 0 L172 0 L172 398 L12 398 L12 495 L284 495 L284 323 L404 323 Q452 323 486 309.5 Q520 296 541.5 274.5 Q563 253 573 225 Q583 197 583 167 Z M468 162 Q468 184 452 203.5 Q436 223 395 223 L283 224 L283 101 L395 101 Q432 101 450 118 Q468 135 468 162 Z " />
<glyph glyph-name="afii10093" unicode="&#x44b;" horiz-adv-x="683" d="M464 167 Q464 132 453 102 Q442 72 419.5 49 Q397 26 363.5 13 Q330 0 284 0 L54 0 L54 495 L165 495 L165 323 L285 323 Q333 323 367 309.5 Q401 296 422.5 274.5 Q444 253 454 225 Q464 197 464 167 Z M515 0 L515 495 L626 495 L626 0 L515 0 Z M349 162 Q349 184 333 203.5 Q317 223 276 223 L164 224 L164 101 L276 101 Q313 101 331 118 Q349 135 349 162 Z " />
<glyph glyph-name="afii10094" unicode="&#x44c;" horiz-adv-x="480" d="M464 167 Q464 132 453 102 Q442 72 419.5 49 Q397 26 363 13 Q329 0 284 0 L53 0 L53 495 L165 495 L165 323 L284 323 Q332 323 366 309.5 Q400 296 422 274.5 Q444 253 454 225 Q464 197 464 167 Z M349 162 Q349 184 332.5 203.5 Q316 223 275 223 L164 224 L164 101 L275 101 Q312 101 330.5 118 Q349 135 349 162 Z " />
<glyph glyph-name="afii10095" unicode="&#x44d;" horiz-adv-x="464" d="M82 141 Q105 121 130.5 109.5 Q156 98 182 98 Q236 98 268 126 Q300 154 305 210 L149 210 L149 292 L306 292 Q303 342 275 369 Q247 396 196 396 Q173 396 144.5 385.5 Q116 375 94 354 L31 434 Q65 467 109.5 483.5 Q154 500 204 500 Q250 500 290.5 487 Q331 474 360.5 444.5 Q390 415 407 369 Q424 323 424 257 Q424 188 404.5 138 Q385 88 352 56.5 Q319 25 276.5 10 Q234 -5 188 -5 Q88 -5 19 58 L82 141 Z " />
<glyph glyph-name="afii10096" unicode="&#x44e;" horiz-adv-x="685" d="M438 502 Q492 502 535.5 481.5 Q579 461 605 420 Q625 388 633.5 343.5 Q642 299 642 245 Q642 147 608 88 Q580 39 532.5 16 Q485 -7 431 -7 Q377 -7 335 13 Q293 33 267 72 Q251 95 241 129.5 Q231 164 229 206 L168 206 L168 0 L55 0 L55 495 L168 495 L168 293 L229 293 Q231 319 236.5 343 Q242 367 251 387 Q276 442 325 472 Q374 502 438 502 Z M436 400 Q408 400 387.5 385 Q367 370 355 343 Q348 328 344 301.5 Q340 275 340 246 Q340 217 343.5 192 Q347 167 354 151 Q366 125 385.5 111 Q405 97 434 97 Q465 97 487.5 114 Q510 131 521 167 Q529 197 529 248 Q529 279 526 303.5 Q523 328 516 344 Q505 373 483.5 386.5 Q462 400 436 400 Z " />
<glyph glyph-name="afii10097" unicode="&#x44f;" horiz-adv-x="513" d="M262 192 Q233 191 210.5 177 Q188 163 177 121 L146 0 L28 0 L64 128 Q72 157 86.5 180.5 Q101 204 129 214 Q84 228 64.5 261.5 Q45 295 44 334 Q44 370 56 399.5 Q68 429 90 450.5 Q112 472 143 483.5 Q174 495 212 495 L455 495 L455 0 L342 0 L342 192 L262 192 Z M156 334 Q156 304 176 291 Q196 278 229 278 L342 278 L342 399 L226 399 Q198 399 177 383 Q156 367 156 334 Z " />
<glyph glyph-name="afii10099" unicode="&#x452;" horiz-adv-x="580" d="M195 441 Q223 468 256 481.5 Q289 495 324 495 Q421 495 475.5 435 Q530 375 530 246 Q530 193 517 145.5 Q504 98 476 63 Q448 28 403.5 7.5 Q359 -13 297 -13 Q289 -13 283 -12.5 Q277 -12 269 -11 L269 88 Q274 87 280 87 Q286 87 291 87 Q325 87 349 98.5 Q373 110 387.5 131 Q402 152 408.5 180.5 Q415 209 415 243 Q415 273 409.5 300 Q404 327 390.5 348 Q377 369 354 381 Q331 393 296 393 Q278 393 259 386 Q240 379 225 363 Q210 347 200.5 322.5 Q191 298 191 263 Q191 197 190.5 131.5 Q190 66 190 0 L78 0 L78 565 L9 565 L9 644 L78 644 L78 726 L190 726 L190 644 L398 644 L398 565 L191 565 L191 442 L195 441 Z " />
</font>
</svg>
